<?xml version="1.0"?>
<VTKFile type="UnstructuredGrid" version="0.1" byte_order="LittleEndian">
  <UnstructuredGrid>
    <Piece NumberOfPoints="441" NumberOfCells="400">
      <Points>
        <DataArray type="Float64" NumberOfComponents="3" format="ascii">
          1.000000 0.150000 0.0
          0.550000 0.350000 0.0
          0.100000 0.500000 0.0
          0.850000 0.800000 0.0
          0.500000 0.100000 0.0
          0.050000 0.250000 0.0
          0.450000 0.050000 0.0
          0.200000 0.350000 0.0
          0.600000 0.150000 0.0
          0.900000 0.800000 0.0
          0.900000 0.850000 0.0
          0.0 0.900000 0.0
          0.800000 0.600000 0.0
          0.400000 0.250000 0.0
          0.550000 0.150000 0.0
          0.0 0.700000 0.0
          0.050000 0.800000 0.0
          0.650000 0.700000 0.0
          0.700000 0.900000 0.0
          0.400000 0.550000 0.0
          0.100000 0.950000 0.0
          0.350000 0.250000 0.0
          1.000000 0.550000 0.0
          0.950000 0.250000 0.0
          0.900000 0.0 0.0
          0.400000 0.650000 0.0
          0.100000 0.150000 0.0
          0.900000 0.500000 0.0
          0.0 0.350000 0.0
          0.100000 0.0 0.0
          0.500000 1.000000 0.0
          0.200000 0.200000 0.0
          1.000000 0.300000 0.0
          0.100000 0.550000 0.0
          0.950000 0.850000 0.0
          0.900000 0.600000 0.0
          0.0 0.450000 0.0
          0.700000 0.850000 0.0
          0.100000 0.300000 0.0
          0.850000 0.900000 0.0
          0.0 0.0 0.0
          0.600000 0.500000 0.0
          0.050000 0.450000 0.0
          0.050000 1.000000 0.0
          0.400000 0.450000 0.0
          0.250000 0.850000 0.0
          0.650000 0.750000 0.0
          0.750000 0.600000 0.0
          0.550000 0.900000 0.0
          0.800000 0.300000 0.0
          0.050000 0.750000 0.0
          0.150000 0.100000 0.0
          0.200000 1.000000 0.0
          0.650000 0.400000 0.0
          0.200000 0.300000 0.0
          0.550000 0.300000 0.0
          0.350000 0.450000 0.0
          0.0 0.800000 0.0
          0.600000 0.400000 0.0
          0.450000 0.0 0.0
          0.300000 0.200000 0.0
          0.750000 0.800000 0.0
          0.600000 0.350000 0.0
          0.250000 0.400000 0.0
          0.300000 0.450000 0.0
          0.300000 0.250000 0.0
          0.300000 0.550000 0.0
          0.300000 0.950000 0.0
          0.500000 0.400000 0.0
          0.800000 0.650000 0.0
          0.450000 0.700000 0.0
          0.550000 0.750000 0.0
          0.700000 0.650000 0.0
          0.600000 0.250000 0.0
          0.950000 0.550000 0.0
          0.900000 0.650000 0.0
          0.700000 0.350000 0.0
          0.900000 0.150000 0.0
          0.950000 0.100000 0.0
          0.400000 0.300000 0.0
          0.250000 0.150000 0.0
          1.000000 0.350000 0.0
          0.350000 0.650000 0.0
          0.750000 0.900000 0.0
          0.350000 0.300000 0.0
          0.500000 0.700000 0.0
          0.050000 0.400000 0.0
          0.0 0.250000 0.0
          0.700000 0.100000 0.0
          0.650000 0.900000 0.0
          0.600000 1.000000 0.0
          0.700000 0.450000 0.0
          0.550000 0.700000 0.0
          0.500000 0.500000 0.0
          0.300000 0.100000 0.0
          0.550000 0.600000 0.0
          0.350000 0.100000 0.0
          0.700000 0.750000 0.0
          0.500000 0.800000 0.0
          0.600000 0.450000 0.0
          0.100000 0.400000 0.0
          0.550000 0.450000 0.0
          0.050000 0.150000 0.0
          0.200000 0.550000 0.0
          0.450000 0.250000 0.0
          0.100000 0.800000 0.0
          0.200000 0.500000 0.0
          0.150000 0.700000 0.0
          0.250000 0.550000 0.0
          0.350000 0.350000 0.0
          0.800000 0.0 0.0
          0.400000 0.600000 0.0
          0.450000 0.600000 0.0
          0.450000 0.750000 0.0
          0.500000 0.750000 0.0
          0.400000 0.150000 0.0
          0.150000 0.300000 0.0
          0.750000 0.550000 0.0
          0.850000 0.750000 0.0
          0.150000 0.800000 0.0
          0.050000 0.900000 0.0
          0.700000 0.700000 0.0
          0.300000 0.400000 0.0
          0.200000 0.400000 0.0
          0.200000 0.650000 0.0
          0.500000 0.950000 0.0
          0.0 0.050000 0.0
          0.600000 0.950000 0.0
          0.150000 0.250000 0.0
          0.550000 0.850000 0.0
          0.650000 0.250000 0.0
          0.550000 0.0 0.0
          0.350000 0.700000 0.0
          1.000000 0.800000 0.0
          0.600000 0.850000 0.0
          0.950000 0.900000 0.0
          1.000000 0.950000 0.0
          0.050000 0.100000 0.0
          0.700000 0.500000 0.0
          0.300000 0.0 0.0
          0.950000 0.150000 0.0
          0.250000 0.350000 0.0
          0.600000 0.200000 0.0
          0.150000 0.0 0.0
          0.200000 0.600000 0.0
          1.000000 0.250000 0.0
          0.300000 0.650000 0.0
          0.350000 0.800000 0.0
          0.150000 0.900000 0.0
          0.250000 0.050000 0.0
          0.950000 0.600000 0.0
          1.000000 0.450000 0.0
          0.900000 0.950000 0.0
          0.650000 0.550000 0.0
          0.100000 0.100000 0.0
          0.250000 0.200000 0.0
          0.850000 0.450000 0.0
          0.750000 0.050000 0.0
          0.600000 0.650000 0.0
          0.800000 0.900000 0.0
          0.950000 0.800000 0.0
          0.250000 1.000000 0.0
          0.700000 1.000000 0.0
          0.650000 0.0 0.0
          0.250000 0.750000 0.0
          0.050000 0.300000 0.0
          0.350000 0.900000 0.0
          0.450000 0.150000 0.0
          0.500000 0.150000 0.0
          0.800000 0.150000 0.0
          0.700000 0.200000 0.0
          0.0 0.600000 0.0
          0.300000 1.000000 0.0
          0.750000 0.700000 0.0
          0.350000 0.200000 0.0
          1.000000 0.700000 0.0
          0.450000 0.900000 0.0
          0.950000 1.000000 0.0
          0.900000 0.550000 0.0
          0.050000 0.600000 0.0
          0.300000 0.750000 0.0
          0.300000 0.850000 0.0
          0.0 0.650000 0.0
          0.700000 0.950000 0.0
          0.0 0.200000 0.0
          0.750000 0.200000 0.0
          0.800000 0.250000 0.0
          0.100000 0.900000 0.0
          0.500000 0.200000 0.0
          0.850000 0.650000 0.0
          0.950000 0.200000 0.0
          0.350000 0.500000 0.0
          0.300000 0.050000 0.0
          0.0 0.750000 0.0
          0.700000 0.600000 0.0
          0.300000 0.800000 0.0
          0.350000 0.850000 0.0
          0.900000 1.000000 0.0
          0.0 0.300000 0.0
          0.100000 0.050000 0.0
          0.750000 0.250000 0.0
          0.550000 0.050000 0.0
          0.150000 0.400000 0.0
          0.150000 0.650000 0.0
          0.250000 0.650000 0.0
          0.650000 0.050000 0.0
          0.550000 0.400000 0.0
          0.600000 0.600000 0.0
          0.100000 0.650000 0.0
          0.150000 0.750000 0.0
          0.400000 0.800000 0.0
          0.550000 0.950000 0.0
          0.900000 0.200000 0.0
          0.400000 0.350000 0.0
          0.650000 0.450000 0.0
          0.950000 0.300000 0.0
          0.150000 0.500000 0.0
          0.950000 0.0 0.0
          0.500000 0.050000 0.0
          0.550000 0.500000 0.0
          0.550000 0.250000 0.0
          0.450000 0.500000 0.0
          0.500000 0.250000 0.0
          0.950000 0.050000 0.0
          0.150000 0.600000 0.0
          0.450000 0.650000 0.0
          0.500000 0.650000 0.0
          0.850000 0.150000 0.0
          0.850000 0.250000 0.0
          0.200000 0.100000 0.0
          0.250000 0.250000 0.0
          1.000000 0.500000 0.0
          0.0 0.850000 0.0
          0.250000 0.900000 0.0
          0.800000 0.550000 0.0
          0.250000 0.450000 0.0
          0.550000 0.100000 0.0
          0.850000 0.300000 0.0
          0.650000 0.600000 0.0
          0.850000 0.700000 0.0
          1.000000 0.750000 0.0
          0.850000 0.850000 0.0
          0.500000 0.0 0.0
          0.350000 0.150000 0.0
          0.800000 0.050000 0.0
          0.900000 0.400000 0.0
          1.000000 0.400000 0.0
          0.500000 0.450000 0.0
          0.450000 0.550000 0.0
          0.400000 0.200000 0.0
          0.200000 0.900000 0.0
          0.350000 0.950000 0.0
          0.950000 0.650000 0.0
          0.450000 0.950000 0.0
          0.250000 0.0 0.0
          0.650000 0.350000 0.0
          0.950000 0.700000 0.0
          0.850000 0.100000 0.0
          0.750000 0.950000 0.0
          0.850000 0.550000 0.0
          0.450000 0.350000 0.0
          0.750000 0.150000 0.0
          0.550000 1.000000 0.0
          0.950000 0.950000 0.0
          0.400000 1.000000 0.0
          0.700000 0.250000 0.0
          0.150000 0.450000 0.0
          0.950000 0.450000 0.0
          0.100000 0.850000 0.0
          1.000000 0.650000 0.0
          0.650000 0.100000 0.0
          0.900000 0.300000 0.0
          0.650000 0.300000 0.0
          0.050000 0.500000 0.0
          0.300000 0.350000 0.0
          0.850000 0.500000 0.0
          0.150000 0.200000 0.0
          0.950000 0.500000 0.0
          0.100000 0.700000 0.0
          0.700000 0.050000 0.0
          0.400000 0.700000 0.0
          0.400000 0.400000 0.0
          0.450000 0.400000 0.0
          0.900000 0.700000 0.0
          0.800000 0.750000 0.0
          0.500000 0.900000 0.0
          0.200000 0.950000 0.0
          0.450000 1.000000 0.0
          0.350000 0.0 0.0
          0.700000 0.300000 0.0
          1.000000 1.000000 0.0
          0.250000 0.950000 0.0
          0.700000 0.800000 0.0
          0.250000 0.500000 0.0
          0.350000 0.600000 0.0
          0.700000 0.150000 0.0
          0.750000 1.000000 0.0
          1.000000 0.850000 0.0
          0.850000 1.000000 0.0
          0.600000 0.100000 0.0
          0.750000 0.300000 0.0
          0.700000 0.550000 0.0
          0.600000 0.900000 0.0
          0.800000 0.200000 0.0
          0.300000 0.700000 0.0
          0.400000 0.900000 0.0
          0.450000 0.100000 0.0
          0.850000 0.200000 0.0
          0.350000 0.400000 0.0
          0.800000 1.000000 0.0
          0.100000 0.450000 0.0
          0.850000 0.050000 0.0
          0.600000 0.0 0.0
          0.150000 0.050000 0.0
          0.200000 0.150000 0.0
          0.650000 0.200000 0.0
          0.850000 0.0 0.0
          0.100000 0.350000 0.0
          0.150000 0.350000 0.0
          0.050000 0.700000 0.0
          0.0 1.000000 0.0
          0.500000 0.550000 0.0
          0.750000 0.350000 0.0
          0.800000 0.800000 0.0
          0.500000 0.300000 0.0
          0.550000 0.650000 0.0
          0.650000 0.150000 0.0
          0.850000 0.350000 0.0
          0.800000 0.950000 0.0
          0.750000 0.500000 0.0
          0.050000 0.650000 0.0
          0.400000 0.750000 0.0
          0.800000 0.850000 0.0
          0.600000 0.300000 0.0
          0.650000 1.000000 0.0
          0.050000 0.050000 0.0
          0.850000 0.950000 0.0
          0.650000 0.800000 0.0
          0.150000 0.150000 0.0
          0.250000 0.600000 0.0
          1.000000 0.600000 0.0
          0.600000 0.800000 0.0
          0.750000 0.750000 0.0
          0.600000 0.050000 0.0
          0.900000 0.750000 0.0
          0.150000 0.950000 0.0
          0.500000 0.350000 0.0
          0.650000 0.850000 0.0
          0.750000 0.650000 0.0
          0.050000 0.350000 0.0
          0.150000 0.850000 0.0
          0.300000 0.600000 0.0
          1.000000 0.100000 0.0
          0.950000 0.750000 0.0
          0.450000 0.450000 0.0
          0.400000 0.850000 0.0
          0.150000 1.000000 0.0
          0.550000 0.550000 0.0
          0.500000 0.850000 0.0
          0.100000 1.000000 0.0
          0.250000 0.100000 0.0
          0.150000 0.550000 0.0
          0.400000 0.050000 0.0
          0.900000 0.100000 0.0
          0.200000 0.050000 0.0
          0.400000 0.0 0.0
          0.0 0.150000 0.0
          0.450000 0.300000 0.0
          0.800000 0.350000 0.0
          0.950000 0.400000 0.0
          0.650000 0.500000 0.0
          1.000000 0.0 0.0
          0.0 0.550000 0.0
          0.050000 0.0 0.0
          0.200000 0.250000 0.0
          0.600000 0.700000 0.0
          0.350000 0.050000 0.0
          0.050000 0.200000 0.0
          0.650000 0.650000 0.0
          0.200000 0.750000 0.0
          0.800000 0.400000 0.0
          0.050000 0.850000 0.0
          0.200000 0.850000 0.0
          0.550000 0.200000 0.0
          0.050000 0.550000 0.0
          0.050000 0.950000 0.0
          0.400000 0.950000 0.0
          0.200000 0.450000 0.0
          0.550000 0.800000 0.0
          0.800000 0.100000 0.0
          0.850000 0.400000 0.0
          0.700000 0.0 0.0
          0.750000 0.100000 0.0
          0.300000 0.150000 0.0
          0.200000 0.0 0.0
          0.400000 0.100000 0.0
          0.100000 0.250000 0.0
          0.900000 0.250000 0.0
          0.250000 0.300000 0.0
          0.0 0.400000 0.0
          0.900000 0.450000 0.0
          0.100000 0.600000 0.0
          0.200000 0.700000 0.0
          0.800000 0.700000 0.0
          0.0 0.100000 0.0
          0.300000 0.300000 0.0
          0.400000 0.500000 0.0
          0.850000 0.600000 0.0
          0.450000 0.800000 0.0
          0.450000 0.850000 0.0
          0.500000 0.600000 0.0
          0.350000 0.550000 0.0
          0.100000 0.200000 0.0
          1.000000 0.900000 0.0
          0.650000 0.950000 0.0
          0.300000 0.900000 0.0
          0.200000 0.800000 0.0
          1.000000 0.050000 0.0
          0.0 0.500000 0.0
          1.000000 0.200000 0.0
          0.300000 0.500000 0.0
          0.900000 0.050000 0.0
          0.0 0.950000 0.0
          0.750000 0.400000 0.0
          0.800000 0.500000 0.0
          0.950000 0.350000 0.0
          0.100000 0.750000 0.0
          0.350000 1.000000 0.0
          0.900000 0.350000 0.0
          0.700000 0.400000 0.0
          0.750000 0.450000 0.0
          0.900000 0.900000 0.0
          0.450000 0.200000 0.0
          0.750000 0.0 0.0
          0.600000 0.550000 0.0
          0.350000 0.750000 0.0
          0.250000 0.800000 0.0
          0.600000 0.750000 0.0
          0.250000 0.700000 0.0
          0.750000 0.850000 0.0
          0.800000 0.450000 0.0
        </DataArray>
      </Points>
      <Cells>
        <DataArray type="Int32" Name="connectivity" format="ascii">
          40 373 335 126 373 29 199 335 29 143 313 199 143 394 364 313 394 254 149 364 254 139 192 149 139 288 376 192 288 365 362 376 365 59 6 362 59 242 218 6 242 131 201 218 131 312 343 201 312 163 205 343 163 391 279 205 391 433 157 279 433 110 244 157 110 316 311 244 316 24 421 311 24 217 223 421 217 371 417 223 126 335 137 404 335 199 154 137 199 313 51 154 313 364 229 51 364 149 360 229 149 192 94 360 192 376 96 94 376 362 395 96 362 6 306 395 6 218 4 306 218 201 236 4 201 343 299 236 343 205 270 299 205 279 88 270 279 157 392 88 157 244 389 392 244 311 257 389 311 421 363 257 421 223 78 363 223 417 352 78 404 137 102 366 137 154 26 102 154 51 338 26 51 229 314 338 229 360 80 314 360 94 393 80 94 96 243 393 96 395 115 243 395 306 167 115 306 4 168 167 4 236 14 168 236 299 8 14 299 270 326 8 270 88 295 326 88 392 261 295 392 389 169 261 389 257 227 169 257 363 77 227 363 78 140 77 78 352 0 140 366 102 377 184 102 26 412 377 26 338 276 412 338 314 31 276 314 80 155 31 80 393 60 155 393 243 174 60 243 115 249 174 115 167 432 249 167 168 188 432 168 14 383 188 14 8 142 383 8 326 315 142 326 295 170 315 295 261 185 170 261 169 303 185 169 227 307 303 227 77 212 307 77 140 190 212 140 0 419 190 184 377 5 87 377 412 396 5 412 276 128 396 276 31 374 128 31 155 230 374 155 60 65 230 60 174 21 65 174 249 13 21 249 432 104 13 432 188 222 104 188 383 220 222 383 142 73 220 142 315 130 73 315 170 265 130 170 185 200 265 185 303 186 200 303 307 228 186 307 212 397 228 212 190 23 397 190 419 145 23 87 5 165 198 5 396 38 165 396 128 116 38 128 374 54 116 374 230 398 54 230 65 405 398 65 21 84 405 21 13 79 84 13 104 367 79 104 222 324 367 222 220 55 324 220 73 333 55 73 130 272 333 130 265 289 272 265 200 300 289 200 186 49 300 186 228 237 49 228 397 271 237 397 23 215 271 23 145 32 215 198 165 349 28 165 38 317 349 38 116 318 317 116 54 7 318 54 398 141 7 398 405 274 141 405 84 109 274 84 79 213 109 79 367 260 213 367 324 346 260 324 55 1 346 55 333 62 1 333 272 255 62 272 289 76 255 289 300 322 76 300 49 368 322 49 237 327 368 237 271 428 327 271 215 425 428 215 32 81 425 28 349 86 399 349 317 100 86 317 318 202 100 318 7 123 202 7 141 63 123 141 274 122 63 274 109 308 122 109 213 281 308 213 260 282 281 260 346 68 282 346 1 206 68 1 62 58 206 62 255 53 58 255 76 429 53 76 322 423 429 322 368 380 423 368 327 390 380 327 428 245 390 428 425 369 245 425 81 246 369 399 86 42 36 86 100 310 42 100 202 266 310 202 123 387 266 123 63 235 387 63 122 64 235 122 308 56 64 308 281 44 56 281 282 354 44 282 68 247 354 68 206 101 247 206 58 99 101 58 53 214 99 53 429 91 214 429 423 430 91 423 380 440 430 380 390 156 440 390 245 400 156 245 369 267 400 369 246 151 267 36 42 273 418 42 310 2 273 310 266 216 2 266 387 106 216 387 235 293 106 235 64 420 293 64 56 191 420 56 44 406 191 44 354 221 406 354 247 93 221 247 101 219 93 101 99 41 219 99 214 370 41 214 91 138 370 91 430 329 138 430 440 424 329 440 156 275 424 156 400 27 275 400 267 277 27 267 151 231 277 418 273 384 372 273 2 33 384 2 216 361 33 216 106 103 361 106 293 108 103 293 420 66 108 420 191 411 66 191 406 19 411 406 221 248 19 221 93 321 248 93 219 357 321 219 41 434 357 41 370 153 434 370 138 301 153 138 329 117 301 329 424 234 117 424 275 259 234 275 27 178 259 27 277 74 178 277 231 22 74 372 384 179 171 384 33 401 179 33 361 224 401 361 103 144 224 103 108 339 144 108 66 351 339 66 411 294 351 411 19 111 294 19 248 112 111 248 321 410 112 321 357 95 410 357 434 207 95 434 153 238 207 153 301 194 238 301 117 47 194 117 234 12 47 234 259 407 12 259 178 35 407 178 74 150 35 74 22 340 150 171 179 330 182 179 401 208 330 401 224 203 208 224 144 124 203 144 339 204 124 339 351 146 204 351 294 82 146 294 111 25 82 111 112 225 25 112 410 226 225 410 95 325 226 95 207 158 325 207 238 378 158 238 194 72 378 194 47 348 72 47 12 69 348 12 407 189 69 407 35 75 189 35 150 252 75 150 340 269 252 182 330 319 15 330 208 278 319 208 203 107 278 203 124 402 107 124 204 438 402 204 146 304 438 146 82 132 304 82 25 280 132 25 225 70 280 225 226 85 70 226 325 92 85 325 158 375 92 158 378 17 375 378 72 121 17 72 348 173 121 348 69 403 173 69 189 239 403 189 75 283 239 75 252 256 283 252 269 175 256 15 319 50 193 319 278 426 50 278 107 209 426 107 402 379 209 402 438 164 379 438 304 180 164 304 132 435 180 132 280 331 435 280 70 113 331 70 85 114 113 85 92 71 114 92 375 437 71 375 17 46 437 17 121 97 46 121 173 342 97 173 403 284 342 403 239 118 284 239 283 344 118 283 256 353 344 256 175 240 353 193 50 16 57 50 426 105 16 426 209 119 105 209 379 416 119 379 164 436 416 164 180 195 436 180 435 147 195 435 331 210 147 331 113 408 210 113 114 98 408 114 71 388 98 71 437 341 388 437 46 337 341 46 97 292 337 97 342 61 292 342 284 323 61 284 118 3 323 118 344 9 3 344 353 160 9 353 240 133 160 57 16 381 232 16 105 268 381 105 119 350 268 119 416 382 350 416 436 45 382 436 195 181 45 195 147 196 181 147 210 355 196 210 408 409 355 408 98 358 409 98 388 129 358 388 341 134 129 341 337 347 134 337 292 37 347 292 61 439 37 61 323 332 439 323 3 241 332 3 9 10 241 9 160 34 10 160 133 297 34 232 381 120 11 381 268 187 120 268 350 148 187 350 382 250 148 382 45 233 250 45 181 415 233 181 196 166 415 196 355 305 166 355 409 176 305 409 358 285 176 358 129 48 285 129 134 302 48 134 347 89 302 347 37 18 89 37 439 83 18 439 332 159 83 332 241 39 159 241 10 431 39 10 34 135 431 34 297 413 135 11 120 385 422 120 187 20 385 187 148 345 20 148 250 286 345 250 233 291 286 233 415 67 291 415 166 251 67 166 305 386 251 305 176 253 386 176 285 125 253 285 48 211 125 48 302 127 211 302 89 414 127 89 18 183 414 18 83 258 183 83 159 328 258 159 39 336 328 39 431 152 336 431 135 263 152 135 413 136 263 422 385 43 320 385 20 359 43 20 345 356 359 345 286 52 356 286 291 161 52 291 67 172 161 67 251 427 172 251 386 264 427 386 253 287 264 253 125 30 287 125 211 262 30 211 127 90 262 127 414 334 90 414 183 162 334 183 258 296 162 258 328 309 296 328 336 298 309 336 152 197 298 152 263 177 197 263 136 290 177 
        </DataArray>
        <DataArray type="Int32" Name="offsets" format="ascii">
          4 8 12 16 20 24 28 32 36 40 44 48 52 56 60 64 68 72 76 80 84 88 92 96 100 104 108 112 116 120 124 128 132 136 140 144 148 152 156 160 164 168 172 176 180 184 188 192 196 200 204 208 212 216 220 224 228 232 236 240 244 248 252 256 260 264 268 272 276 280 284 288 292 296 300 304 308 312 316 320 324 328 332 336 340 344 348 352 356 360 364 368 372 376 380 384 388 392 396 400 404 408 412 416 420 424 428 432 436 440 444 448 452 456 460 464 468 472 476 480 484 488 492 496 500 504 508 512 516 520 524 528 532 536 540 544 548 552 556 560 564 568 572 576 580 584 588 592 596 600 604 608 612 616 620 624 628 632 636 640 644 648 652 656 660 664 668 672 676 680 684 688 692 696 700 704 708 712 716 720 724 728 732 736 740 744 748 752 756 760 764 768 772 776 780 784 788 792 796 800 804 808 812 816 820 824 828 832 836 840 844 848 852 856 860 864 868 872 876 880 884 888 892 896 900 904 908 912 916 920 924 928 932 936 940 944 948 952 956 960 964 968 972 976 980 984 988 992 996 1000 1004 1008 1012 1016 1020 1024 1028 1032 1036 1040 1044 1048 1052 1056 1060 1064 1068 1072 1076 1080 1084 1088 1092 1096 1100 1104 1108 1112 1116 1120 1124 1128 1132 1136 1140 1144 1148 1152 1156 1160 1164 1168 1172 1176 1180 1184 1188 1192 1196 1200 1204 1208 1212 1216 1220 1224 1228 1232 1236 1240 1244 1248 1252 1256 1260 1264 1268 1272 1276 1280 1284 1288 1292 1296 1300 1304 1308 1312 1316 1320 1324 1328 1332 1336 1340 1344 1348 1352 1356 1360 1364 1368 1372 1376 1380 1384 1388 1392 1396 1400 1404 1408 1412 1416 1420 1424 1428 1432 1436 1440 1444 1448 1452 1456 1460 1464 1468 1472 1476 1480 1484 1488 1492 1496 1500 1504 1508 1512 1516 1520 1524 1528 1532 1536 1540 1544 1548 1552 1556 1560 1564 1568 1572 1576 1580 1584 1588 1592 1596 1600 
        </DataArray>
        <DataArray type="UInt8" Name="types" format="ascii">
          9 9 9 9 9 9 9 9 9 9 9 9 9 9 9 9 9 9 9 9 9 9 9 9 9 9 9 9 9 9 9 9 9 9 9 9 9 9 9 9 9 9 9 9 9 9 9 9 9 9 9 9 9 9 9 9 9 9 9 9 9 9 9 9 9 9 9 9 9 9 9 9 9 9 9 9 9 9 9 9 9 9 9 9 9 9 9 9 9 9 9 9 9 9 9 9 9 9 9 9 9 9 9 9 9 9 9 9 9 9 9 9 9 9 9 9 9 9 9 9 9 9 9 9 9 9 9 9 9 9 9 9 9 9 9 9 9 9 9 9 9 9 9 9 9 9 9 9 9 9 9 9 9 9 9 9 9 9 9 9 9 9 9 9 9 9 9 9 9 9 9 9 9 9 9 9 9 9 9 9 9 9 9 9 9 9 9 9 9 9 9 9 9 9 9 9 9 9 9 9 9 9 9 9 9 9 9 9 9 9 9 9 9 9 9 9 9 9 9 9 9 9 9 9 9 9 9 9 9 9 9 9 9 9 9 9 9 9 9 9 9 9 9 9 9 9 9 9 9 9 9 9 9 9 9 9 9 9 9 9 9 9 9 9 9 9 9 9 9 9 9 9 9 9 9 9 9 9 9 9 9 9 9 9 9 9 9 9 9 9 9 9 9 9 9 9 9 9 9 9 9 9 9 9 9 9 9 9 9 9 9 9 9 9 9 9 9 9 9 9 9 9 9 9 9 9 9 9 9 9 9 9 9 9 9 9 9 9 9 9 9 9 9 9 9 9 9 9 9 9 9 9 9 9 9 9 9 9 9 9 9 9 9 9 9 9 9 9 9 9 9 9 9 9 9 9 9 9 9 9 9 9 9 9 9 9 9 9 9 9 9 9 9 9 9 9 9 9 9 9 
        </DataArray>
      </Cells>
      <PointData Scalars="value">
        <DataArray type="Float64" Name="value" format="ascii">
          300.000000 342.430478 365.317674 344.195381 339.368681 355.552195 341.552917 356.936236 333.967114 332.256445 340.432126 392.386539 332.430676 347.158440 337.138610 377.892620 384.904460 357.902055 381.575021 360.879871 396.143079 349.204804 300.000000 305.216624 309.242689 367.925229 352.966586 314.304683 358.938102 351.718625 400.000000 352.368690 300.000000 368.079107 322.430484 317.525884 363.237857 373.116316 356.686442 365.947579 352.213235 346.189658 363.136064 400.000000 355.080204 387.481784 363.402824 338.688440 387.340160 320.810003 381.303065 351.623069 400.000000 337.230114 355.140628 340.670092 357.094802 384.945391 341.066591 341.418819 349.705198 360.248058 339.046331 357.848020 358.795944 350.959332 364.390979 395.612027 347.578209 336.071467 370.020897 370.029383 348.304499 335.946761 308.058908 319.798428 331.201052 309.611081 304.755221 348.692517 350.202195 300.000000 369.631537 378.208265 350.742553 367.767609 360.858410 355.663288 326.288381 384.033702 400.000000 335.128746 365.063490 352.818447 348.036938 356.511500 346.289662 358.887538 377.527278 343.436633 360.498738 346.934419 353.346978 366.741000 344.814132 384.738459 363.911370 377.169363 365.700093 352.568367 317.946781 364.248999 362.078191 374.481736 372.470543 344.948369 356.048176 335.374958 337.441010 384.443434 392.373267 353.176912 356.413766 359.000426 373.084377 394.224031 352.351914 392.902580 354.531690 381.233349 332.374354 335.997913 373.449520 300.000000 379.161873 331.524072 300.000000 352.654920 337.658234 347.481968 304.861330 355.765731 334.824926 351.067314 369.804032 300.000000 371.040135 381.767266 392.141309 349.089636 309.012392 300.000000 374.035580 345.292116 352.273721 351.176007 319.267088 322.111353 357.137226 373.370115 317.329826 400.000000 400.000000 329.507069 379.513463 357.059312 390.748252 342.630866 340.027453 318.628063 327.535509 371.436722 400.000000 347.464161 347.951997 300.000000 389.403985 400.000000 315.736927 371.352704 378.618496 386.911672 374.578318 390.662910 354.425491 323.480072 319.894725 392.291808 340.957447 328.446831 305.013726 359.798009 347.620655 381.356731 344.161777 382.692954 386.197180 400.000000 357.169135 351.857464 324.334041 336.123776 359.881319 373.763266 372.182872 329.618365 344.511270 352.998824 374.233076 380.738312 380.627215 393.641735 309.907071 350.520132 339.507547 305.476024 364.739666 304.671916 338.975614 349.724568 339.211251 355.506915 342.166428 304.692613 370.543439 365.880567 363.446216 314.211186 315.206287 350.701419 352.428216 300.000000 388.631433 391.619300 329.459666 360.201875 336.502682 315.928410 348.907580 332.361394 300.000000 353.396628 338.844957 346.981142 318.021424 312.199755 300.000000 350.024191 358.620604 345.912095 391.919050 395.367926 310.238574 394.689472 348.950606 335.303919 311.860379 313.912683 388.877657 322.899846 348.156091 322.833098 400.000000 353.245251 400.000000 328.499741 362.186423 306.694071 388.479622 300.000000 329.953905 310.802669 333.694568 365.653011 354.313112 320.900978 353.287142 307.302443 377.588069 325.983220 371.896138 352.647400 350.284292 322.753176 346.216797 388.485213 395.956582 400.000000 345.737708 329.713616 350.000000 395.806089 365.524952 362.821884 366.074027 326.802803 400.000000 300.000000 400.000000 333.362121 325.413357 340.643685 385.894390 319.173193 374.724271 390.146716 341.956072 314.638855 354.685101 400.000000 362.786909 313.736277 332.882693 351.206299 351.396414 331.321363 313.677916 358.462740 357.833029 377.827431 400.000000 355.977752 326.742610 353.335544 343.664405 360.558061 330.518710 316.825698 386.237586 332.606789 374.502989 376.140591 362.315394 337.347555 400.000000 352.239058 381.969572 369.619945 352.317039 368.825378 300.000000 372.850540 353.260201 333.002173 326.716346 396.067985 345.463585 376.530054 342.667576 358.830143 388.255126 367.589732 300.000000 314.090573 352.731130 385.313604 400.000000 352.908126 382.889175 400.000000 349.506785 367.529953 343.853170 309.404778 350.284246 343.716742 353.459403 346.336016 321.942562 306.200929 342.178171 300.000000 368.488127 352.100336 353.617289 361.814778 345.875593 354.313572 353.089020 380.214156 323.323942 388.604154 387.925374 338.038276 368.396859 396.182752 395.064680 361.327910 375.435664 318.246918 317.925972 325.882073 322.379850 348.731459 350.145161 344.263086 355.175625 310.300570 353.958460 360.963749 313.144881 371.056679 376.562308 340.577893 352.767633 352.495019 357.823418 325.365884 379.232327 384.226800 359.516935 362.792859 353.934622 300.000000 391.943993 391.233236 384.012276 300.000000 365.750164 300.000000 361.456807 309.282970 396.182230 328.354205 327.016125 305.800275 381.098504 400.000000 311.428707 332.992954 330.290516 353.422597 343.581576 322.022420 349.363398 377.505046 383.434025 367.053775 375.753499 368.569571 324.996297 
        </DataArray>
      </PointData>
    </Piece>
  </UnstructuredGrid>
</VTKFile>
