<?xml version="1.0"?>
<VTKFile type="UnstructuredGrid" version="0.1" byte_order="LittleEndian">
  <UnstructuredGrid>
    <Piece NumberOfPoints="114" NumberOfCells="186">
      <Points>
        <DataArray type="Float64" NumberOfComponents="3" format="ascii">
          0.478595 0.794970 0.0
          0.370664 0.794815 0.0
          0.378089 0.925149 0.0
          1.000000 0.950000 0.0
          0.963397 0.963397 0.0
          0.350000 0.750000 0.0
          0.750111 0.913485 0.0
          0.385676 0.833521 0.0
          0.292324 0.825187 0.0
          0.900000 1.000000 0.0
          0.600602 0.913849 0.0
          0.963397 0.786603 0.0
          0.959073 0.872166 0.0
          0.509403 0.899510 0.0
          0.540275 0.873426 0.0
          1.000000 0.900000 0.0
          0.379904 0.875000 0.0
          0.376382 0.966907 0.0
          0.423529 0.851837 0.0
          0.424211 0.801220 0.0
          0.286603 0.963397 0.0
          0.924788 0.957661 0.0
          0.921020 0.846464 0.0
          0.625003 0.870570 0.0
          0.725021 0.956716 0.0
          0.850000 1.000000 0.0
          1.000000 1.000000 0.0
          0.600000 1.000000 0.0
          0.799999 0.913402 0.0
          0.550000 1.000000 0.0
          0.873087 0.790505 0.0
          0.500000 0.750000 0.0
          0.775018 0.956714 0.0
          0.575000 0.956699 0.0
          0.922424 0.885450 0.0
          0.518559 0.951909 0.0
          0.801441 0.830288 0.0
          0.250000 0.750000 0.0
          0.291237 0.923431 0.0
          0.874965 0.956859 0.0
          0.553957 0.835471 0.0
          0.824921 0.790148 0.0
          0.700000 0.913397 0.0
          0.850000 0.750000 0.0
          0.950000 0.750000 0.0
          0.465748 0.876809 0.0
          0.250000 0.900000 0.0
          0.350000 1.000000 0.0
          0.526245 0.793891 0.0
          0.250000 0.800000 0.0
          0.250000 1.000000 0.0
          0.400000 1.000000 0.0
          0.800000 0.750000 0.0
          0.650000 0.750000 0.0
          0.329591 0.954715 0.0
          0.324545 0.791583 0.0
          0.725795 0.871399 0.0
          0.286603 0.786603 0.0
          0.700327 0.831391 0.0
          0.553313 0.912731 0.0
          0.336603 0.900000 0.0
          0.450000 0.750000 0.0
          1.000000 0.800000 0.0
          1.000000 0.850000 0.0
          0.675068 0.871041 0.0
          0.650011 0.913555 0.0
          0.300000 0.750000 0.0
          0.900000 0.750000 0.0
          0.600000 0.831699 0.0
          0.950000 1.000000 0.0
          1.000000 0.750000 0.0
          0.675000 0.956699 0.0
          0.625000 0.793301 0.0
          0.800000 1.000000 0.0
          0.750000 0.750000 0.0
          0.725475 0.791239 0.0
          0.675040 0.792292 0.0
          0.921189 0.797225 0.0
          0.888493 0.826960 0.0
          0.824999 0.870920 0.0
          0.459790 0.834285 0.0
          0.700000 1.000000 0.0
          0.849994 0.913424 0.0
          0.250000 0.950000 0.0
          0.475000 0.966186 0.0
          0.901514 0.917737 0.0
          0.625102 0.956800 0.0
          0.957654 0.825028 0.0
          0.775400 0.790380 0.0
          0.450000 1.000000 0.0
          0.750000 1.000000 0.0
          0.293065 0.874591 0.0
          0.953028 0.920916 0.0
          0.250000 0.850000 0.0
          0.750563 0.830606 0.0
          0.300000 1.000000 0.0
          0.340706 0.842169 0.0
          0.775665 0.870618 0.0
          0.650019 0.831767 0.0
          0.650000 1.000000 0.0
          0.424231 0.954670 0.0
          0.575000 0.792819 0.0
          0.878800 0.870477 0.0
          0.506867 0.846588 0.0
          0.550000 0.750000 0.0
          0.577833 0.872830 0.0
          0.400000 0.750000 0.0
          0.848371 0.830130 0.0
          0.500000 1.000000 0.0
          0.825000 0.956699 0.0
          0.600000 0.750000 0.0
          0.468575 0.925045 0.0
          0.423074 0.900803 0.0
          0.700000 0.750000 0.0
        </DataArray>
      </Points>
      <Cells>
        <DataArray type="Int32" Name="connectivity" format="ascii">
          96 55 1 111 13 35 0 48 103 1 7 96 60 2 54 35 84 111 103 80 0 2 17 54 2 112 100 112 111 100 85 92 21 8 55 96 18 7 19 13 59 35 54 38 60 19 80 18 87 22 77 85 34 92 48 40 103 22 78 77 19 7 1 56 58 94 41 88 52 100 17 2 71 86 65 6 42 56 72 101 110 35 33 29 53 76 72 9 39 21 73 32 109 79 102 82 65 10 23 106 19 1 110 101 104 9 21 69 99 71 81 63 87 62 71 65 42 42 24 71 102 85 82 6 56 97 65 23 64 10 105 23 16 2 60 75 76 113 71 24 81 12 87 63 65 86 10 31 0 61 81 24 90 49 8 93 45 13 111 93 8 91 51 100 89 95 54 47 18 45 112 93 91 46 53 72 110 67 30 43 25 39 9 27 86 99 15 12 63 8 96 91 96 60 91 104 48 31 101 48 104 61 19 106 0 19 61 42 65 64 86 33 10 45 111 112 106 1 5 74 75 113 90 32 73 108 35 29 109 32 28 39 85 21 28 6 97 28 32 6 6 24 42 96 16 60 113 76 53 73 109 25 99 86 71 29 33 27 27 33 86 16 112 2 31 48 0 109 39 25 109 28 82 42 64 56 45 103 13 90 24 32 82 85 39 32 24 6 109 82 39 28 79 82 16 18 112 97 36 79 28 97 79 0 80 19 3 92 15 46 38 83 44 77 67 5 55 66 60 38 91 36 88 41 94 58 75 35 59 33 10 59 105 111 84 100 43 41 52 56 94 97 74 88 75 36 107 79 67 77 30 1 55 5 15 92 12 91 38 46 100 84 89 108 84 35 45 80 103 54 17 47 51 17 100 96 7 16 12 22 87 50 20 95 70 11 44 62 11 70 83 20 50 37 57 49 26 4 3 66 57 37 69 4 26 33 59 10 105 40 68 75 88 94 41 107 36 30 41 43 97 94 36 72 98 68 76 58 98 105 68 23 68 98 23 72 68 101 76 98 72 75 58 76 64 58 56 23 98 64 98 58 64 52 88 74 79 107 102 68 40 101 101 40 48 102 34 85 77 78 30 92 34 12 30 107 41 94 88 36 89 84 108 18 80 45 47 17 51 22 34 102 16 7 18 59 14 105 55 57 66 3 4 92 38 20 83 44 11 77 105 14 40 87 11 62 95 20 54 49 57 8 21 4 69 103 14 13 40 14 103 92 4 21 54 20 38 77 11 87 8 57 55 102 78 22 13 14 59 107 78 102 12 34 22 30 78 107 
        </DataArray>
        <DataArray type="Int32" Name="offsets" format="ascii">
          3 6 9 12 15 18 21 24 27 30 33 36 39 42 45 48 51 54 57 60 63 66 69 72 75 78 81 84 87 90 93 96 99 102 105 108 111 114 117 120 123 126 129 132 135 138 141 144 147 150 153 156 159 162 165 168 171 174 177 180 183 186 189 192 195 198 201 204 207 210 213 216 219 222 225 228 231 234 237 240 243 246 249 252 255 258 261 264 267 270 273 276 279 282 285 288 291 294 297 300 303 306 309 312 315 318 321 324 327 330 333 336 339 342 345 348 351 354 357 360 363 366 369 372 375 378 381 384 387 390 393 396 399 402 405 408 411 414 417 420 423 426 429 432 435 438 441 444 447 450 453 456 459 462 465 468 471 474 477 480 483 486 489 492 495 498 501 504 507 510 513 516 519 522 525 528 531 534 537 540 543 546 549 552 555 558 
        </DataArray>
        <DataArray type="UInt8" Name="types" format="ascii">
          5 5 5 5 5 5 5 5 5 5 5 5 5 5 5 5 5 5 5 5 5 5 5 5 5 5 5 5 5 5 5 5 5 5 5 5 5 5 5 5 5 5 5 5 5 5 5 5 5 5 5 5 5 5 5 5 5 5 5 5 5 5 5 5 5 5 5 5 5 5 5 5 5 5 5 5 5 5 5 5 5 5 5 5 5 5 5 5 5 5 5 5 5 5 5 5 5 5 5 5 5 5 5 5 5 5 5 5 5 5 5 5 5 5 5 5 5 5 5 5 5 5 5 5 5 5 5 5 5 5 5 5 5 5 5 5 5 5 5 5 5 5 5 5 5 5 5 5 5 5 5 5 5 5 5 5 5 5 5 5 5 5 5 5 5 5 5 5 5 5 5 5 5 5 5 5 5 5 5 5 5 5 5 5 5 5 
        </DataArray>
      </Cells>
      <PointData Scalars="value">
        <DataArray type="Float64" Name="value" format="ascii">
          1.000000 1.000000 1.000000 1.000000 1.000000 1.000000 1.000000 1.000000 1.000000 1.000000 1.000000 1.000000 1.000000 1.000000 1.000000 1.000000 1.000000 1.000000 1.000000 1.000000 1.000000 1.000000 1.000000 1.000000 1.000000 1.000000 1.000000 1.000000 1.000000 1.000000 1.000000 1.000000 1.000000 1.000000 1.000000 1.000000 1.000000 1.000000 1.000000 1.000000 1.000000 1.000000 1.000000 1.000000 1.000000 1.000000 1.000000 1.000000 1.000000 1.000000 1.000000 1.000000 1.000000 1.000000 1.000000 1.000000 1.000000 1.000000 1.000000 1.000000 1.000000 1.000000 1.000000 1.000000 1.000000 1.000000 1.000000 1.000000 1.000000 1.000000 1.000000 1.000000 1.000000 1.000000 1.000000 1.000000 1.000000 1.000000 1.000000 1.000000 1.000000 1.000000 1.000000 1.000000 1.000000 1.000000 1.000000 1.000000 1.000000 1.000000 1.000000 1.000000 1.000000 1.000000 1.000000 1.000000 1.000000 1.000000 1.000000 1.000000 1.000000 1.000000 1.000000 1.000000 1.000000 1.000000 1.000000 1.000000 1.000000 1.000000 1.000000 1.000000 1.000000 1.000000 
        </DataArray>
      </PointData>
    </Piece>
  </UnstructuredGrid>
</VTKFile>
