<?xml version="1.0"?>
<VTKFile type="UnstructuredGrid" version="0.1" byte_order="LittleEndian">
  <UnstructuredGrid>
    <Piece NumberOfPoints="115" NumberOfCells="188">
      <Points>
        <DataArray type="Float64" NumberOfComponents="3" format="ascii">
          0.449841 0.163540 0.0
          0.249948 0.163582 0.0
          0.042346 0.075028 0.0
          0.635450 0.077576 0.0
          0.550000 0.250000 0.0
          0.750000 0.050000 0.0
          0.050000 0.250000 0.0
          0.200000 0.250000 0.0
          0.548985 0.081545 0.0
          0.111729 0.077190 0.0
          0.250000 0.0 0.0
          0.474480 0.040390 0.0
          0.668880 0.099950 0.0
          0.299845 0.163551 0.0
          0.713397 0.213397 0.0
          0.224991 0.120571 0.0
          0.0 0.200000 0.0
          0.448495 0.080338 0.0
          0.595985 0.081535 0.0
          0.0 0.0 0.0
          0.450000 0.250000 0.0
          0.373669 0.040032 0.0
          0.200000 0.081699 0.0
          0.149998 0.163491 0.0
          0.400000 0.250000 0.0
          0.667684 0.150960 0.0
          0.174999 0.120547 0.0
          0.0 0.050000 0.0
          0.700000 0.0 0.0
          0.672287 0.046325 0.0
          0.523842 0.121723 0.0
          0.150000 0.250000 0.0
          0.350000 0.0 0.0
          0.713397 0.036603 0.0
          0.078995 0.096466 0.0
          0.710250 0.076381 0.0
          0.474960 0.206751 0.0
          0.250000 0.081707 0.0
          0.574517 0.041143 0.0
          0.399945 0.163581 0.0
          0.046971 0.170913 0.0
          0.595839 0.166888 0.0
          0.706935 0.125409 0.0
          0.399183 0.080573 0.0
          0.349279 0.080451 0.0
          0.274751 0.040622 0.0
          0.298509 0.080333 0.0
          0.499332 0.080688 0.0
          0.324368 0.040240 0.0
          0.078906 0.047280 0.0
          0.124781 0.207594 0.0
          0.075212 0.207661 0.0
          0.0 0.100000 0.0
          0.036603 0.036603 0.0
          0.550000 0.0 0.0
          0.050000 0.0 0.0
          0.620096 0.125000 0.0
          0.573270 0.122665 0.0
          0.127578 0.040887 0.0
          0.500000 0.250000 0.0
          0.225000 0.043301 0.0
          0.670910 0.202953 0.0
          0.424828 0.121053 0.0
          0.374297 0.121489 0.0
          0.224990 0.206748 0.0
          0.250000 0.250000 0.0
          0.707676 0.174813 0.0
          0.274840 0.121051 0.0
          0.524525 0.041235 0.0
          0.500000 0.0 0.0
          0.600000 0.250000 0.0
          0.100000 0.0 0.0
          0.750000 0.100000 0.0
          0.040927 0.122166 0.0
          0.324953 0.206768 0.0
          0.750000 0.200000 0.0
          0.650000 0.0 0.0
          0.077314 0.135538 0.0
          0.300000 0.0 0.0
          0.750000 0.150000 0.0
          0.100000 0.250000 0.0
          0.425000 0.206699 0.0
          0.750000 0.250000 0.0
          0.349874 0.163660 0.0
          0.400000 0.0 0.0
          0.474128 0.120780 0.0
          0.635450 0.172424 0.0
          0.121198 0.120432 0.0
          0.549522 0.164434 0.0
          0.175000 0.206699 0.0
          0.700000 0.250000 0.0
          0.151966 0.080884 0.0
          0.525000 0.206699 0.0
          0.600000 0.0 0.0
          0.424527 0.040078 0.0
          0.499920 0.163570 0.0
          0.0 0.150000 0.0
          0.622166 0.209073 0.0
          0.200000 0.0 0.0
          0.300000 0.250000 0.0
          0.622575 0.041163 0.0
          0.175000 0.043301 0.0
          0.750000 0.0 0.0
          0.650000 0.250000 0.0
          0.098478 0.167713 0.0
          0.199990 0.163507 0.0
          0.574528 0.207729 0.0
          0.275000 0.206699 0.0
          0.450000 0.0 0.0
          0.350000 0.250000 0.0
          0.0 0.250000 0.0
          0.150000 0.0 0.0
          0.036603 0.213397 0.0
          0.324196 0.120756 0.0
          0.375000 0.206699 0.0
        </DataArray>
      </Points>
      <Cells>
        <DataArray type="Int32" Name="connectivity" format="ascii">
          51 40 104 66 61 25 29 35 12 49 34 2 40 77 104 61 86 25 49 9 34 12 3 29 57 41 88 47 8 30 44 43 63 78 48 45 108 11 94 104 50 51 23 50 104 89 50 23 89 23 105 105 64 89 1 64 105 107 64 1 107 1 13 13 74 107 83 74 13 109 114 24 114 74 83 81 39 0 24 114 81 81 114 39 0 36 81 95 36 0 109 74 114 39 114 83 92 36 95 79 66 42 95 0 85 92 106 4 75 66 79 93 38 54 13 67 113 24 81 20 65 107 99 25 56 12 59 92 4 7 64 65 89 64 7 52 73 96 54 68 69 76 100 93 105 23 26 79 42 72 70 97 103 59 36 92 80 50 31 60 101 98 84 21 32 0 62 85 1 15 67 1 105 15 105 26 15 100 38 93 66 25 42 70 106 97 31 50 89 111 58 71 10 60 98 62 17 85 13 1 67 23 104 87 31 89 7 6 51 80 98 101 111 67 46 113 99 74 109 54 38 68 76 29 100 25 12 42 20 36 59 65 64 107 92 95 88 95 85 30 39 63 62 83 113 63 83 13 113 23 87 26 81 36 20 51 50 80 0 39 62 39 83 63 111 101 58 92 88 106 107 74 99 95 30 88 52 2 73 4 106 70 27 2 52 28 29 76 56 41 57 96 40 16 72 35 5 103 61 90 71 49 55 12 35 42 21 43 44 94 11 17 45 48 46 68 8 47 88 41 106 85 47 30 108 94 84 78 45 10 113 44 63 68 11 69 21 48 32 67 37 46 62 43 17 30 57 88 73 40 96 58 49 71 42 35 72 97 61 103 106 41 97 100 18 38 2 34 73 57 8 18 102 33 28 19 53 27 110 112 6 16 112 110 5 33 102 55 53 19 90 14 82 82 14 75 18 8 38 47 11 68 17 43 94 46 37 45 44 48 21 84 94 21 17 47 85 10 45 60 46 44 113 29 3 100 60 37 22 26 91 22 22 91 101 60 22 101 87 91 26 26 22 15 101 91 58 22 37 15 69 11 108 32 48 78 63 43 62 15 37 67 38 8 68 57 18 56 30 8 57 104 77 87 56 3 12 25 86 56 58 9 49 97 86 61 73 77 40 94 43 21 17 11 47 45 37 60 46 48 44 87 77 34 56 86 41 18 3 56 40 112 16 35 33 5 61 14 90 49 53 55 6 112 51 75 14 66 28 33 29 27 53 2 2 53 49 66 14 61 51 112 40 29 33 35 34 9 87 87 9 91 41 86 97 100 3 18 34 77 73 91 9 58 
        </DataArray>
        <DataArray type="Int32" Name="offsets" format="ascii">
          3 6 9 12 15 18 21 24 27 30 33 36 39 42 45 48 51 54 57 60 63 66 69 72 75 78 81 84 87 90 93 96 99 102 105 108 111 114 117 120 123 126 129 132 135 138 141 144 147 150 153 156 159 162 165 168 171 174 177 180 183 186 189 192 195 198 201 204 207 210 213 216 219 222 225 228 231 234 237 240 243 246 249 252 255 258 261 264 267 270 273 276 279 282 285 288 291 294 297 300 303 306 309 312 315 318 321 324 327 330 333 336 339 342 345 348 351 354 357 360 363 366 369 372 375 378 381 384 387 390 393 396 399 402 405 408 411 414 417 420 423 426 429 432 435 438 441 444 447 450 453 456 459 462 465 468 471 474 477 480 483 486 489 492 495 498 501 504 507 510 513 516 519 522 525 528 531 534 537 540 543 546 549 552 555 558 561 564 
        </DataArray>
        <DataArray type="UInt8" Name="types" format="ascii">
          5 5 5 5 5 5 5 5 5 5 5 5 5 5 5 5 5 5 5 5 5 5 5 5 5 5 5 5 5 5 5 5 5 5 5 5 5 5 5 5 5 5 5 5 5 5 5 5 5 5 5 5 5 5 5 5 5 5 5 5 5 5 5 5 5 5 5 5 5 5 5 5 5 5 5 5 5 5 5 5 5 5 5 5 5 5 5 5 5 5 5 5 5 5 5 5 5 5 5 5 5 5 5 5 5 5 5 5 5 5 5 5 5 5 5 5 5 5 5 5 5 5 5 5 5 5 5 5 5 5 5 5 5 5 5 5 5 5 5 5 5 5 5 5 5 5 5 5 5 5 5 5 5 5 5 5 5 5 5 5 5 5 5 5 5 5 5 5 5 5 5 5 5 5 5 5 5 5 5 5 5 5 5 5 5 5 5 5 
        </DataArray>
      </Cells>
      <PointData Scalars="value">
        <DataArray type="Float64" Name="value" format="ascii">
          -500.000000 -500.000000 -500.000000 -500.000000 -500.000000 -500.000000 -500.000000 -500.000000 -500.000000 -500.000000 -500.000000 -500.000000 -500.000000 -500.000000 -500.000000 -500.000000 -500.000000 -500.000000 -500.000000 -500.000000 -500.000000 -500.000000 -500.000000 -500.000000 -500.000000 -500.000000 -500.000000 -500.000000 -500.000000 -500.000000 -500.000000 -500.000000 -500.000000 -500.000000 -500.000000 -500.000000 -500.000000 -500.000000 -500.000000 -500.000000 -500.000000 -500.000000 -500.000000 -500.000000 -500.000000 -500.000000 -500.000000 -500.000000 -500.000000 -500.000000 -500.000000 -500.000000 -500.000000 -500.000000 -500.000000 -500.000000 -500.000000 -500.000000 -500.000000 -500.000000 -500.000000 -500.000000 -500.000000 -500.000000 -500.000000 -500.000000 -500.000000 -500.000000 -500.000000 -500.000000 -500.000000 -500.000000 -500.000000 -500.000000 -500.000000 -500.000000 -500.000000 -500.000000 -500.000000 -500.000000 -500.000000 -500.000000 -500.000000 -500.000000 -500.000000 -500.000000 -500.000000 -500.000000 -500.000000 -500.000000 -500.000000 -500.000000 -500.000000 -500.000000 -500.000000 -500.000000 -500.000000 -500.000000 -500.000000 -500.000000 -500.000000 -500.000000 -500.000000 -500.000000 -500.000000 -500.000000 -500.000000 -500.000000 -500.000000 -500.000000 -500.000000 -500.000000 -500.000000 -500.000000 -500.000000 
        </DataArray>
      </PointData>
    </Piece>
  </UnstructuredGrid>
</VTKFile>
