<?xml version="1.0"?>
<VTKFile type="UnstructuredGrid" version="0.1" byte_order="LittleEndian">
  <UnstructuredGrid>
    <Piece NumberOfPoints="115" NumberOfCells="188">
      <Points>
        <DataArray type="Float64" NumberOfComponents="3" format="ascii">
          0.075212 0.207661 0.0
          0.078995 0.096466 0.0
          0.199990 0.163507 0.0
          0.100000 0.250000 0.0
          0.713397 0.036603 0.0
          0.0 0.0 0.0
          0.400000 0.250000 0.0
          0.668880 0.099950 0.0
          0.620096 0.125000 0.0
          0.650000 0.250000 0.0
          0.499920 0.163570 0.0
          0.036603 0.213397 0.0
          0.449841 0.163540 0.0
          0.078906 0.047280 0.0
          0.349279 0.080451 0.0
          0.600000 0.0 0.0
          0.175000 0.043301 0.0
          0.100000 0.0 0.0
          0.549522 0.164434 0.0
          0.650000 0.0 0.0
          0.042346 0.075028 0.0
          0.595839 0.166888 0.0
          0.700000 0.250000 0.0
          0.622166 0.209073 0.0
          0.0 0.200000 0.0
          0.200000 0.250000 0.0
          0.450000 0.250000 0.0
          0.299845 0.163551 0.0
          0.225000 0.043301 0.0
          0.750000 0.150000 0.0
          0.500000 0.0 0.0
          0.300000 0.0 0.0
          0.474480 0.040390 0.0
          0.499332 0.080688 0.0
          0.474960 0.206751 0.0
          0.200000 0.0 0.0
          0.127578 0.040887 0.0
          0.670910 0.202953 0.0
          0.298509 0.080333 0.0
          0.667684 0.150960 0.0
          0.150000 0.250000 0.0
          0.0 0.250000 0.0
          0.324368 0.040240 0.0
          0.0 0.150000 0.0
          0.250000 0.250000 0.0
          0.149998 0.163491 0.0
          0.121198 0.120432 0.0
          0.324196 0.120756 0.0
          0.550000 0.250000 0.0
          0.250000 0.081707 0.0
          0.324953 0.206768 0.0
          0.750000 0.0 0.0
          0.500000 0.250000 0.0
          0.275000 0.206699 0.0
          0.700000 0.0 0.0
          0.573270 0.122665 0.0
          0.400000 0.0 0.0
          0.399945 0.163581 0.0
          0.710250 0.076381 0.0
          0.0 0.100000 0.0
          0.374297 0.121489 0.0
          0.706935 0.125409 0.0
          0.375000 0.206699 0.0
          0.448495 0.080338 0.0
          0.124781 0.207594 0.0
          0.050000 0.250000 0.0
          0.050000 0.0 0.0
          0.200000 0.081699 0.0
          0.0 0.050000 0.0
          0.349874 0.163660 0.0
          0.036603 0.036603 0.0
          0.111729 0.077190 0.0
          0.574528 0.207729 0.0
          0.707676 0.174813 0.0
          0.672287 0.046325 0.0
          0.713397 0.213397 0.0
          0.750000 0.250000 0.0
          0.300000 0.250000 0.0
          0.046971 0.170913 0.0
          0.175000 0.206699 0.0
          0.399183 0.080573 0.0
          0.098478 0.167713 0.0
          0.425000 0.206699 0.0
          0.224990 0.206748 0.0
          0.595985 0.081535 0.0
          0.750000 0.200000 0.0
          0.525000 0.206699 0.0
          0.274840 0.121051 0.0
          0.574517 0.041143 0.0
          0.174999 0.120547 0.0
          0.635450 0.172424 0.0
          0.424828 0.121053 0.0
          0.373669 0.040032 0.0
          0.635450 0.077576 0.0
          0.622575 0.041163 0.0
          0.523842 0.121723 0.0
          0.350000 0.0 0.0
          0.524525 0.041235 0.0
          0.548985 0.081545 0.0
          0.151966 0.080884 0.0
          0.350000 0.250000 0.0
          0.750000 0.100000 0.0
          0.150000 0.0 0.0
          0.077314 0.135538 0.0
          0.450000 0.0 0.0
          0.424527 0.040078 0.0
          0.250000 0.0 0.0
          0.274751 0.040622 0.0
          0.249948 0.163582 0.0
          0.474128 0.120780 0.0
          0.750000 0.050000 0.0
          0.040927 0.122166 0.0
          0.600000 0.250000 0.0
          0.224991 0.120571 0.0
          0.550000 0.0 0.0
        </DataArray>
      </Points>
      <Cells>
        <DataArray type="Int32" Name="connectivity" format="ascii">
          0 78 81 73 37 39 74 58 7 13 1 20 78 103 81 37 90 39 13 71 1 7 93 74 55 21 18 33 98 95 14 80 60 31 42 107 104 32 105 81 64 0 45 64 81 79 64 45 79 45 2 2 83 79 108 83 2 53 83 108 53 108 27 27 50 53 69 50 27 100 62 6 62 50 69 82 57 12 6 62 82 82 62 57 12 34 82 10 34 12 100 50 62 57 62 69 86 34 10 29 73 61 10 12 109 86 72 48 85 73 29 15 88 114 27 87 47 6 82 26 44 53 77 39 8 7 52 86 48 25 83 44 79 83 25 59 111 43 114 97 30 19 94 15 2 45 89 29 61 101 112 23 9 52 34 86 3 64 40 28 16 35 56 92 96 12 91 109 108 113 87 108 2 113 2 89 113 94 88 15 73 39 61 112 72 23 40 64 79 102 36 17 106 28 35 91 63 109 27 108 87 45 81 46 40 79 25 65 0 3 35 16 102 87 38 47 77 50 100 114 88 97 19 74 94 39 7 61 26 34 52 44 83 53 86 10 18 10 109 95 57 60 91 69 47 60 69 27 47 45 46 89 82 34 26 0 64 3 12 57 91 57 69 60 102 16 36 86 18 72 53 50 77 10 95 18 59 20 111 48 72 112 68 20 59 54 74 19 8 21 55 43 78 24 101 58 110 9 37 22 17 13 66 7 58 61 92 80 14 105 32 63 107 42 38 97 98 33 18 21 72 109 33 95 104 105 56 31 107 106 47 14 60 97 32 30 92 42 96 87 49 38 91 80 63 95 55 18 111 78 43 36 13 17 61 58 101 23 37 9 72 21 23 94 84 88 20 1 111 55 98 84 51 4 54 5 70 68 41 11 65 24 11 41 110 4 51 66 70 5 22 75 76 76 75 85 84 98 88 33 32 97 63 80 105 38 49 107 14 42 92 56 105 92 63 33 109 106 107 28 38 14 47 74 93 94 28 49 67 89 99 67 67 99 16 28 67 16 46 99 89 89 67 113 16 99 36 67 49 113 30 32 104 96 42 31 60 80 91 113 49 87 88 98 97 55 84 8 95 98 55 81 103 46 8 93 7 39 90 8 36 71 13 23 90 37 111 103 78 105 80 92 63 32 33 107 49 28 38 42 14 46 103 1 8 90 21 84 93 8 78 11 24 58 4 110 37 75 22 13 70 66 65 11 0 85 75 73 54 4 74 68 70 20 20 70 13 73 75 37 0 11 78 74 4 58 1 71 46 46 71 99 21 90 23 94 93 84 1 103 111 99 71 36 
        </DataArray>
        <DataArray type="Int32" Name="offsets" format="ascii">
          3 6 9 12 15 18 21 24 27 30 33 36 39 42 45 48 51 54 57 60 63 66 69 72 75 78 81 84 87 90 93 96 99 102 105 108 111 114 117 120 123 126 129 132 135 138 141 144 147 150 153 156 159 162 165 168 171 174 177 180 183 186 189 192 195 198 201 204 207 210 213 216 219 222 225 228 231 234 237 240 243 246 249 252 255 258 261 264 267 270 273 276 279 282 285 288 291 294 297 300 303 306 309 312 315 318 321 324 327 330 333 336 339 342 345 348 351 354 357 360 363 366 369 372 375 378 381 384 387 390 393 396 399 402 405 408 411 414 417 420 423 426 429 432 435 438 441 444 447 450 453 456 459 462 465 468 471 474 477 480 483 486 489 492 495 498 501 504 507 510 513 516 519 522 525 528 531 534 537 540 543 546 549 552 555 558 561 564 
        </DataArray>
        <DataArray type="UInt8" Name="types" format="ascii">
          5 5 5 5 5 5 5 5 5 5 5 5 5 5 5 5 5 5 5 5 5 5 5 5 5 5 5 5 5 5 5 5 5 5 5 5 5 5 5 5 5 5 5 5 5 5 5 5 5 5 5 5 5 5 5 5 5 5 5 5 5 5 5 5 5 5 5 5 5 5 5 5 5 5 5 5 5 5 5 5 5 5 5 5 5 5 5 5 5 5 5 5 5 5 5 5 5 5 5 5 5 5 5 5 5 5 5 5 5 5 5 5 5 5 5 5 5 5 5 5 5 5 5 5 5 5 5 5 5 5 5 5 5 5 5 5 5 5 5 5 5 5 5 5 5 5 5 5 5 5 5 5 5 5 5 5 5 5 5 5 5 5 5 5 5 5 5 5 5 5 5 5 5 5 5 5 5 5 5 5 5 5 5 5 5 5 5 5 
        </DataArray>
      </Cells>
      <PointData Scalars="value">
        <DataArray type="Float64" Name="value" format="ascii">
          295.605368 296.468946 291.985789 294.896946 297.347818 300.000000 289.671986 293.387879 291.861218 290.867954 290.008965 297.637978 289.956862 297.842061 293.652458 300.000000 296.925078 300.000000 290.179385 300.000000 298.118232 290.450191 291.754673 290.250875 300.000000 291.970555 289.570842 290.624548 296.610261 293.242282 300.000000 300.000000 296.340741 293.502997 289.361943 300.000000 297.496049 290.927696 293.874468 291.619265 293.223680 300.000000 296.482262 300.000000 291.045184 293.109604 294.653752 291.748605 289.850630 294.111905 289.879231 300.000000 289.628077 290.399787 300.000000 291.621464 300.000000 290.034017 295.016729 300.000000 291.484221 292.967040 289.547503 293.493653 293.650401 297.111953 300.000000 294.585865 300.000000 290.249331 299.024649 296.178568 289.790623 291.878666 296.370630 291.787201 292.988966 290.384155 297.004563 292.202071 293.521114 294.703046 289.379360 291.152842 293.754610 292.665239 289.497069 292.105751 296.403544 293.450407 290.774477 291.384162 296.415715 294.241677 296.543751 291.442807 300.000000 296.311017 293.560608 295.270838 289.937188 294.677180 300.000000 295.879984 300.000000 296.370138 300.000000 296.591744 291.183261 291.384592 296.916556 297.628709 290.255797 292.667632 300.000000 
        </DataArray>
      </PointData>
    </Piece>
  </UnstructuredGrid>
</VTKFile>
