<?xml version="1.0"?>
<VTKFile type="UnstructuredGrid" version="0.1" byte_order="LittleEndian">
  <UnstructuredGrid>
    <Piece NumberOfPoints="114" NumberOfCells="186">
      <Points>
        <DataArray type="Float64" NumberOfComponents="3" format="ascii">
          0.250000 0.950000 0.0
          0.901514 0.917737 0.0
          0.600000 0.831699 0.0
          0.825000 0.956699 0.0
          0.625102 0.956800 0.0
          0.873087 0.790505 0.0
          0.378089 0.925149 0.0
          0.577833 0.872830 0.0
          0.950000 0.750000 0.0
          0.750563 0.830606 0.0
          0.675040 0.792292 0.0
          0.950000 1.000000 0.0
          0.725795 0.871399 0.0
          0.526245 0.793891 0.0
          0.300000 1.000000 0.0
          0.922424 0.885450 0.0
          0.850000 1.000000 0.0
          0.800000 0.750000 0.0
          0.725475 0.791239 0.0
          0.400000 1.000000 0.0
          0.465748 0.876809 0.0
          0.250000 1.000000 0.0
          0.625000 0.793301 0.0
          0.850000 0.750000 0.0
          0.336603 0.900000 0.0
          0.478595 0.794970 0.0
          0.423074 0.900803 0.0
          0.553957 0.835471 0.0
          1.000000 0.750000 0.0
          0.286603 0.963397 0.0
          0.700000 0.913397 0.0
          0.921189 0.797225 0.0
          0.888493 0.826960 0.0
          0.370664 0.794815 0.0
          0.775400 0.790380 0.0
          0.650011 0.913555 0.0
          0.350000 1.000000 0.0
          0.878800 0.870477 0.0
          0.293065 0.874591 0.0
          0.379904 0.875000 0.0
          0.874965 0.956859 0.0
          0.500000 1.000000 0.0
          0.291237 0.923431 0.0
          0.286603 0.786603 0.0
          0.575000 0.956699 0.0
          0.625003 0.870570 0.0
          0.340706 0.842169 0.0
          0.924788 0.957661 0.0
          0.900000 0.750000 0.0
          0.250000 0.850000 0.0
          0.500000 0.750000 0.0
          0.921020 0.846464 0.0
          0.963397 0.963397 0.0
          0.775665 0.870618 0.0
          0.750000 0.750000 0.0
          0.376382 0.966907 0.0
          0.475000 0.966186 0.0
          0.400000 0.750000 0.0
          0.424231 0.954670 0.0
          0.250000 0.800000 0.0
          0.963397 0.786603 0.0
          0.292324 0.825187 0.0
          0.600000 0.750000 0.0
          0.250000 0.900000 0.0
          0.800000 1.000000 0.0
          0.775018 0.956714 0.0
          0.423529 0.851837 0.0
          0.600602 0.913849 0.0
          1.000000 1.000000 0.0
          0.824999 0.870920 0.0
          0.900000 1.000000 0.0
          0.518559 0.951909 0.0
          0.550000 1.000000 0.0
          1.000000 0.800000 0.0
          0.848371 0.830130 0.0
          0.953028 0.920916 0.0
          0.575000 0.792819 0.0
          0.506867 0.846588 0.0
          0.750000 1.000000 0.0
          0.553313 0.912731 0.0
          0.424211 0.801220 0.0
          0.300000 0.750000 0.0
          0.700000 1.000000 0.0
          0.450000 0.750000 0.0
          0.450000 1.000000 0.0
          0.650000 0.750000 0.0
          0.801441 0.830288 0.0
          0.250000 0.750000 0.0
          0.324545 0.791583 0.0
          0.849994 0.913424 0.0
          0.959073 0.872166 0.0
          0.468575 0.925045 0.0
          0.799999 0.913402 0.0
          0.550000 0.750000 0.0
          0.675000 0.956699 0.0
          0.824921 0.790148 0.0
          0.650000 1.000000 0.0
          1.000000 0.950000 0.0
          0.540275 0.873426 0.0
          0.459790 0.834285 0.0
          0.675068 0.871041 0.0
          1.000000 0.850000 0.0
          0.750111 0.913485 0.0
          0.700327 0.831391 0.0
          0.600000 1.000000 0.0
          0.957654 0.825028 0.0
          0.725021 0.956716 0.0
          0.700000 0.750000 0.0
          0.509403 0.899510 0.0
          1.000000 0.900000 0.0
          0.329591 0.954715 0.0
          0.350000 0.750000 0.0
          0.385676 0.833521 0.0
          0.650019 0.831767 0.0
        </DataArray>
      </Points>
      <Cells>
        <DataArray type="Int32" Name="connectivity" format="ascii">
          46 88 33 91 108 71 25 13 77 33 112 46 24 6 110 71 56 91 77 99 25 6 55 110 6 26 58 26 91 58 1 75 47 61 88 46 66 112 80 108 79 71 110 42 24 80 99 66 105 51 31 1 15 75 13 27 77 51 32 31 80 112 33 12 103 9 95 34 17 58 55 6 94 4 35 102 30 12 22 76 62 71 44 72 85 10 22 70 40 47 64 65 3 69 37 89 35 67 45 57 80 33 62 76 93 70 47 11 96 94 82 101 105 73 94 35 30 30 106 94 37 1 89 102 12 53 35 45 100 67 7 45 39 6 24 18 10 107 94 106 82 90 105 101 35 4 67 50 25 83 82 106 78 59 61 49 20 108 91 49 61 38 19 58 84 14 110 36 66 20 26 49 38 63 85 22 62 48 5 23 16 40 70 104 4 96 109 90 101 61 46 38 46 24 38 93 13 50 76 13 93 83 80 57 25 80 83 30 35 100 4 44 67 20 91 26 57 33 111 54 18 107 78 65 64 41 71 72 3 65 92 40 1 47 92 102 53 92 65 102 102 106 30 46 39 24 107 10 85 64 3 16 96 4 94 72 44 104 104 44 4 39 26 6 50 13 25 3 40 16 3 92 89 30 100 12 20 77 108 78 106 65 89 1 40 65 106 102 3 89 40 92 69 89 39 66 26 53 86 69 92 53 69 25 99 80 97 75 109 63 42 0 8 31 48 111 88 81 24 42 38 86 34 95 9 103 18 71 79 44 67 79 7 91 56 58 23 95 17 12 9 53 54 34 18 86 74 69 48 31 5 33 88 111 109 75 90 38 42 63 58 56 84 41 56 71 20 99 77 110 55 36 19 55 58 46 112 39 90 51 105 21 29 14 28 60 8 73 60 28 0 29 21 87 43 59 68 52 97 81 43 87 11 52 68 44 79 67 7 27 2 18 34 9 95 74 86 5 95 23 53 9 86 22 113 2 10 103 113 7 2 45 2 113 45 22 2 76 10 113 22 18 103 10 100 103 12 45 113 100 113 103 100 17 34 54 69 74 37 2 27 76 76 27 13 37 15 1 31 32 5 75 15 90 5 74 95 9 34 86 84 56 41 66 99 20 36 55 19 51 15 37 39 112 66 79 98 7 88 43 81 97 52 75 42 29 0 8 60 31 7 98 27 105 60 73 14 29 110 59 43 61 47 52 11 77 98 108 27 98 77 75 52 47 110 29 42 31 60 105 61 43 88 37 32 51 108 98 79 74 32 37 90 15 51 5 32 74 
        </DataArray>
        <DataArray type="Int32" Name="offsets" format="ascii">
          3 6 9 12 15 18 21 24 27 30 33 36 39 42 45 48 51 54 57 60 63 66 69 72 75 78 81 84 87 90 93 96 99 102 105 108 111 114 117 120 123 126 129 132 135 138 141 144 147 150 153 156 159 162 165 168 171 174 177 180 183 186 189 192 195 198 201 204 207 210 213 216 219 222 225 228 231 234 237 240 243 246 249 252 255 258 261 264 267 270 273 276 279 282 285 288 291 294 297 300 303 306 309 312 315 318 321 324 327 330 333 336 339 342 345 348 351 354 357 360 363 366 369 372 375 378 381 384 387 390 393 396 399 402 405 408 411 414 417 420 423 426 429 432 435 438 441 444 447 450 453 456 459 462 465 468 471 474 477 480 483 486 489 492 495 498 501 504 507 510 513 516 519 522 525 528 531 534 537 540 543 546 549 552 555 558 
        </DataArray>
        <DataArray type="UInt8" Name="types" format="ascii">
          5 5 5 5 5 5 5 5 5 5 5 5 5 5 5 5 5 5 5 5 5 5 5 5 5 5 5 5 5 5 5 5 5 5 5 5 5 5 5 5 5 5 5 5 5 5 5 5 5 5 5 5 5 5 5 5 5 5 5 5 5 5 5 5 5 5 5 5 5 5 5 5 5 5 5 5 5 5 5 5 5 5 5 5 5 5 5 5 5 5 5 5 5 5 5 5 5 5 5 5 5 5 5 5 5 5 5 5 5 5 5 5 5 5 5 5 5 5 5 5 5 5 5 5 5 5 5 5 5 5 5 5 5 5 5 5 5 5 5 5 5 5 5 5 5 5 5 5 5 5 5 5 5 5 5 5 5 5 5 5 5 5 5 5 5 5 5 5 5 5 5 5 5 5 5 5 5 5 5 5 5 5 5 5 5 5 
        </DataArray>
      </Cells>
      <PointData Scalars="value">
        <DataArray type="Float64" Name="value" format="ascii">
          305.372718 304.158720 312.532806 303.449385 304.451700 308.080763 307.599752 310.813796 303.987279 310.859168 312.856498 300.000000 309.694808 313.968455 300.000000 304.327947 300.000000 310.789543 312.155561 300.000000 310.939493 300.000000 313.351149 309.171007 309.573267 314.119182 309.455315 312.645938 300.000000 304.039890 307.564550 305.675334 306.950329 314.311814 311.185687 307.880824 300.000000 306.425178 311.179099 311.148757 302.887558 300.000000 307.735033 314.425035 304.559012 310.673176 312.877868 302.075998 306.966979 312.431081 314.445650 305.144067 301.050645 308.984642 311.971529 303.681982 303.714224 314.705401 304.950257 314.156312 302.964095 313.467416 313.897822 309.508194 300.000000 303.837280 312.345232 308.090961 300.000000 307.953728 300.000000 305.130221 300.000000 300.000000 308.441005 302.344623 313.723695 312.428597 300.000000 308.331618 314.135481 314.696983 300.000000 314.617009 300.000000 313.451497 309.794174 314.696730 314.392099 305.604505 302.730587 307.532000 306.479305 314.217917 304.318547 309.850356 300.000000 300.000000 310.913316 313.000967 310.259085 300.000000 307.103379 311.600067 300.000000 303.229483 304.116269 312.830703 309.412875 300.000000 304.976196 314.721995 313.145831 312.138624 
        </DataArray>
      </PointData>
    </Piece>
  </UnstructuredGrid>
</VTKFile>
