<?xml version="1.0"?>
<VTKFile type="UnstructuredGrid" version="0.1" byte_order="LittleEndian">
  <UnstructuredGrid>
    <Piece NumberOfPoints="347" NumberOfCells="612">
      <Points>
        <DataArray type="Float64" NumberOfComponents="3" format="ascii">
          0.525000 0.446891 0.0
          0.077660 0.711192 0.0
          1.000000 0.300000 0.0
          0.300000 0.490257 0.0
          0.952953 0.079090 0.0
          0.323792 0.290713 0.0
          0.100000 1.000000 0.0
          0.425039 0.446980 0.0
          0.826551 0.040980 0.0
          0.225000 0.620061 0.0
          0.600000 0.750000 0.0
          0.202953 0.920910 0.0
          0.325000 0.620083 0.0
          0.957794 0.174685 0.0
          0.650000 0.663397 0.0
          0.954670 0.575769 0.0
          0.225000 0.704466 0.0
          0.525000 0.620096 0.0
          0.825292 0.124595 0.0
          0.250000 0.800000 0.0
          0.875168 0.273783 0.0
          0.575000 0.360289 0.0
          0.171998 0.450360 0.0
          0.077576 0.635450 0.0
          0.211553 0.425725 0.0
          0.475000 0.620096 0.0
          0.129824 0.425090 0.0
          0.700000 0.750000 0.0
          0.303109 0.375000 0.0
          0.966186 0.525000 0.0
          0.875000 0.446891 0.0
          0.050000 1.000000 0.0
          0.966917 0.623666 0.0
          0.125000 0.706166 0.0
          0.900000 0.750000 0.0
          0.113117 0.575346 0.0
          0.240643 0.451558 0.0
          0.966655 0.275000 0.0
          0.575000 0.293301 0.0
          0.750000 0.050000 0.0
          1.000000 0.400000 0.0
          0.150960 0.917684 0.0
          0.350000 0.663383 0.0
          0.825000 0.446891 0.0
          0.850000 0.576795 0.0
          0.727470 0.286554 0.0
          0.250000 0.576778 0.0
          0.525000 0.361214 0.0
          1.000000 0.700000 0.0
          0.675001 0.446914 0.0
          0.250000 1.000000 0.0
          0.550000 0.326795 0.0
          1.000000 0.100000 0.0
          0.824921 0.706745 0.0
          0.625000 0.620096 0.0
          0.550000 0.490192 0.0
          0.750000 0.663397 0.0
          0.399881 0.325729 0.0
          0.047258 0.673016 0.0
          0.452675 0.323965 0.0
          0.426235 0.361276 0.0
          0.625003 0.361197 0.0
          0.900960 0.082316 0.0
          0.851496 0.231249 0.0
          0.400000 0.750000 0.0
          0.600000 0.663397 0.0
          0.210031 0.333797 0.0
          0.701542 0.325410 0.0
          0.125000 0.870096 0.0
          0.300000 0.250000 0.0
          0.150000 0.662879 0.0
          0.206699 0.825000 0.0
          0.304880 0.332990 0.0
          0.250000 0.900000 0.0
          0.375000 0.620091 0.0
          0.081535 0.794660 0.0
          0.400000 0.490194 0.0
          0.375023 0.288368 0.0
          0.775000 0.620096 0.0
          0.150000 0.250000 0.0
          0.750000 0.0 0.0
          0.963397 0.036603 0.0
          0.800000 0.750000 0.0
          0.425000 0.706699 0.0
          0.043301 0.525000 0.0
          0.650000 0.490192 0.0
          0.700000 0.576795 0.0
          0.125409 0.956935 0.0
          0.0 0.850000 0.0
          0.166666 0.847402 0.0
          0.375027 0.447259 0.0
          0.090868 0.342484 0.0
          0.725000 0.446891 0.0
          0.500000 0.750000 0.0
          0.625000 0.293301 0.0
          0.219486 0.527991 0.0
          0.525321 0.292268 0.0
          1.000000 0.750000 0.0
          0.800000 0.0 0.0
          0.700000 0.250000 0.0
          0.500000 0.326870 0.0
          0.377621 0.365125 0.0
          0.172991 0.400075 0.0
          0.919263 0.449811 0.0
          0.750000 0.576795 0.0
          0.600000 0.490192 0.0
          0.079528 0.596580 0.0
          0.173232 0.353488 0.0
          0.650000 0.326795 0.0
          0.475499 0.287754 0.0
          0.085985 0.500046 0.0
          0.575000 0.620096 0.0
          0.130692 0.376478 0.0
          0.956699 0.425000 0.0
          0.750000 0.403590 0.0
          0.137068 0.333661 0.0
          0.169400 0.800000 0.0
          0.875000 0.533494 0.0
          0.750000 0.490192 0.0
          0.275000 0.620028 0.0
          0.400000 0.663394 0.0
          0.450000 0.490193 0.0
          0.276372 0.293383 0.0
          0.959073 0.127834 0.0
          0.700000 0.490192 0.0
          0.725000 0.620096 0.0
          0.925198 0.622153 0.0
          0.325000 0.706683 0.0
          0.250000 0.850000 0.0
          0.172424 0.885450 0.0
          0.0 0.950000 0.0
          0.500000 0.403590 0.0
          0.800000 0.316987 0.0
          0.600000 0.576795 0.0
          0.066564 0.749852 0.0
          0.345689 0.403429 0.0
          0.725000 0.706699 0.0
          0.0 0.500000 0.0
          0.082897 0.550274 0.0
          0.850000 0.490192 0.0
          0.825000 0.620096 0.0
          0.750000 0.150000 0.0
          0.650005 0.403726 0.0
          0.300000 0.663322 0.0
          0.795285 0.079591 0.0
          0.899525 0.231013 0.0
          0.525000 0.533494 0.0
          0.077576 0.885450 0.0
          0.205566 0.777293 0.0
          0.775000 0.446891 0.0
          0.037317 0.774355 0.0
          0.353391 0.328594 0.0
          0.550000 0.663397 0.0
          0.0 0.800000 0.0
          0.775000 0.706699 0.0
          0.675000 0.293301 0.0
          0.826202 0.274380 0.0
          0.175000 0.620096 0.0
          0.150000 1.000000 0.0
          0.450000 0.663397 0.0
          0.042271 0.574528 0.0
          0.0 0.600000 0.0
          0.786603 0.036603 0.0
          0.043868 0.373832 0.0
          0.425000 0.620096 0.0
          0.725000 0.533494 0.0
          0.726235 0.362636 0.0
          0.650000 0.750000 0.0
          0.475000 0.446891 0.0
          0.0 0.750000 0.0
          0.300000 0.750000 0.0
          0.400000 0.576795 0.0
          0.200000 0.578278 0.0
          0.099077 0.667306 0.0
          0.952500 0.481955 0.0
          0.279185 0.450591 0.0
          1.000000 0.050000 0.0
          0.036603 0.286603 0.0
          0.750000 0.250000 0.0
          0.200000 1.000000 0.0
          0.350000 0.250000 0.0
          0.924338 0.274301 0.0
          0.175000 0.704021 0.0
          0.201313 0.737105 0.0
          1.000000 0.0 0.0
          0.625000 0.446891 0.0
          0.575000 0.533494 0.0
          0.338572 0.366659 0.0
          0.500000 0.663397 0.0
          0.800000 0.576795 0.0
          0.625000 0.706699 0.0
          0.625000 0.533494 0.0
          0.924813 0.042324 0.0
          0.700000 0.663397 0.0
          0.120664 0.294815 0.0
          0.550000 0.250000 0.0
          0.849932 0.663437 0.0
          0.152237 0.578259 0.0
          0.675000 0.533494 0.0
          0.500000 0.250000 0.0
          0.800000 0.403590 0.0
          0.475000 0.361936 0.0
          0.050000 0.250000 0.0
          0.450000 0.250000 0.0
          0.755471 0.321553 0.0
          1.000000 0.450000 0.0
          0.0 0.300000 0.0
          0.275000 0.706699 0.0
          0.900000 0.490192 0.0
          0.800000 0.490192 0.0
          0.600000 0.403590 0.0
          0.874591 0.706935 0.0
          0.129805 0.476119 0.0
          0.850000 0.750000 0.0
          0.700000 0.403590 0.0
          0.675000 0.620096 0.0
          0.350000 0.576789 0.0
          0.175037 0.543447 0.0
          0.275000 0.533492 0.0
          0.550000 0.750000 0.0
          0.849851 0.084444 0.0
          0.043301 0.425000 0.0
          0.0 0.250000 0.0
          0.250000 0.250000 0.0
          0.575000 0.446891 0.0
          0.174813 0.957676 0.0
          0.174165 0.300957 0.0
          0.799975 0.663412 0.0
          0.450000 0.576795 0.0
          1.000000 0.350000 0.0
          0.375000 0.706696 0.0
          0.650000 0.250000 0.0
          0.400000 0.250000 0.0
          0.0 0.450000 0.0
          0.042339 0.325212 0.0
          1.000000 0.650000 0.0
          0.525000 0.706699 0.0
          1.000000 0.500000 0.0
          0.125939 0.787069 0.0
          0.324959 0.448920 0.0
          0.475000 0.706699 0.0
          0.500000 0.490192 0.0
          0.250000 0.950000 0.0
          0.955966 0.375536 0.0
          0.918513 0.153713 0.0
          0.257580 0.406247 0.0
          0.675000 0.706699 0.0
          0.475000 0.533494 0.0
          0.214855 0.376503 0.0
          0.952355 0.228043 0.0
          0.086470 0.450209 0.0
          0.600000 0.250000 0.0
          1.000000 0.600000 0.0
          0.425513 0.287636 0.0
          0.924804 0.531380 0.0
          0.550000 0.576795 0.0
          0.099950 0.918880 0.0
          0.250000 0.750000 0.0
          0.350000 0.490203 0.0
          0.036603 0.963397 0.0
          1.000000 0.200000 0.0
          0.900000 0.0 0.0
          0.875000 0.620096 0.0
          0.675075 0.361623 0.0
          0.875945 0.129559 0.0
          0.900779 0.576614 0.0
          0.046325 0.922287 0.0
          0.104999 0.751491 0.0
          0.917843 0.355087 0.0
          0.375000 0.533495 0.0
          0.963397 0.713397 0.0
          0.074566 0.291624 0.0
          0.776441 0.361393 0.0
          0.043256 0.475015 0.0
          0.850000 0.403590 0.0
          0.825000 0.360289 0.0
          0.100000 0.250000 0.0
          1.000000 0.550000 0.0
          0.923466 0.708936 0.0
          0.200000 0.662963 0.0
          0.798556 0.227996 0.0
          0.750000 0.200000 0.0
          0.129928 0.531668 0.0
          0.120993 0.619949 0.0
          0.325000 0.533491 0.0
          0.080342 0.847385 0.0
          0.425000 0.533494 0.0
          0.783494 0.125000 0.0
          0.400206 0.403754 0.0
          0.0 0.350000 0.0
          0.0 1.000000 0.0
          0.209036 0.475000 0.0
          0.209073 0.872166 0.0
          0.213397 0.963397 0.0
          0.950000 0.750000 0.0
          0.550000 0.403590 0.0
          0.907106 0.402326 0.0
          0.119328 0.829808 0.0
          0.0 0.900000 0.0
          0.952324 0.320981 0.0
          0.035566 0.725000 0.0
          0.797178 0.170902 0.0
          0.875409 0.043065 0.0
          0.450000 0.750000 0.0
          0.076381 0.960250 0.0
          0.834988 0.194327 0.0
          0.040313 0.824488 0.0
          0.086699 0.400296 0.0
          0.450000 0.403590 0.0
          0.750000 0.750000 0.0
          0.650000 0.576795 0.0
          0.173532 0.501039 0.0
          0.900000 0.316987 0.0
          0.255843 0.344232 0.0
          0.250000 0.663025 0.0
          0.302104 0.416837 0.0
          0.825000 0.533494 0.0
          0.847975 0.158719 0.0
          0.900298 0.664848 0.0
          0.0 0.400000 0.0
          0.300000 0.576781 0.0
          0.849803 0.316874 0.0
          0.919686 0.193223 0.0
          0.0 0.550000 0.0
          0.873818 0.359606 0.0
          0.750000 0.100000 0.0
          0.040927 0.622166 0.0
          0.350000 0.750000 0.0
          0.950000 0.0 0.0
          0.782409 0.277964 0.0
          0.600000 0.326795 0.0
          0.877709 0.183420 0.0
          0.228595 0.294970 0.0
          0.575000 0.706699 0.0
          0.200000 0.250000 0.0
          0.253836 0.488907 0.0
          1.000000 0.150000 0.0
          0.850000 0.0 0.0
          1.000000 0.250000 0.0
          0.157300 0.752156 0.0
          0.922424 0.114550 0.0
          0.041163 0.872575 0.0
          0.0 0.700000 0.0
          0.500000 0.576795 0.0
          0.954715 0.670409 0.0
          0.0 0.650000 0.0
          0.775000 0.533494 0.0
        </DataArray>
      </Points>
      <Cells>
        <DataArray type="Int32" Name="connectivity" format="ascii">
          91 271 194 332 122 313 174 254 208 194 115 91 243 113 296 318 126 344 220 18 144 313 66 332 174 29 254 101 151 57 57 151 77 311 291 95 299 312 181 89 297 116 249 181 145 296 268 243 301 280 281 126 32 344 18 287 144 148 116 339 281 280 178 126 265 15 95 217 311 264 244 331 339 183 148 113 103 296 95 291 335 15 265 254 234 271 91 41 11 225 1 58 173 192 4 62 181 37 299 107 115 226 116 297 238 18 317 301 144 8 220 344 278 318 256 304 266 45 329 204 178 329 45 226 66 107 249 37 181 301 317 305 166 67 204 41 129 11 58 23 173 4 340 62 109 253 203 122 72 313 208 103 174 299 268 312 145 322 249 266 147 256 197 35 282 226 115 194 301 305 280 245 36 24 175 36 245 75 134 267 301 287 18 15 32 126 59 253 109 204 67 45 193 125 56 54 310 215 133 310 54 316 139 117 196 318 211 211 53 196 159 240 83 152 333 236 279 157 9 86 125 215 215 310 86 78 227 56 139 30 208 84 273 110 188 152 236 236 240 188 140 227 78 283 197 157 209 139 316 196 227 140 54 111 133 254 265 117 150 306 153 91 163 234 118 209 346 263 142 61 21 61 210 188 240 159 9 119 314 191 133 186 181 312 20 42 120 230 139 208 117 212 250 26 307 91 112 307 163 91 246 136 27 10 333 190 213 53 211 25 164 228 218 95 335 133 255 186 210 142 185 26 307 112 14 193 246 215 125 193 193 56 136 251 38 195 93 240 236 167 246 27 252 15 277 83 120 159 16 279 314 119 143 314 221 307 250 70 157 279 46 95 218 284 216 320 286 228 171 55 186 146 191 310 133 165 104 86 149 209 118 209 316 346 343 17 25 33 173 70 283 157 70 12 42 143 20 312 321 78 104 189 44 262 140 117 265 44 56 125 78 208 254 117 17 152 188 152 65 333 61 142 210 193 136 246 65 111 54 55 224 105 92 149 118 43 209 149 173 283 70 309 136 154 308 288 60 94 38 251 334 226 79 84 160 323 236 333 219 190 246 167 154 53 82 85 124 198 200 274 43 156 20 321 156 63 20 257 207 170 141 301 281 64 83 303 260 13 336 229 299 2 237 174 205 230 120 83 250 273 221 9 157 172 218 3 284 286 171 269 230 127 42 110 273 250 250 307 26 99 155 231 231 94 251 128 71 19 207 127 170 174 113 205 221 163 307 102 24 22 279 9 314 9 46 119 218 284 320 269 216 284 3 239 258 258 76 269 258 90 76 171 216 269 241 0 55 55 105 186 105 185 85 198 310 191 114 200 149 224 210 185 166 272 114 343 255 17 133 111 255 164 74 171 33 267 1 262 196 140 131 47 295 295 210 224 164 120 74 178 45 99 19 148 257 39 144 325 195 96 199 195 38 96 223 332 334 79 226 194 87 225 158 320 216 12 121 241 247 62 220 302 182 339 33 33 1 173 12 74 42 12 216 74 159 120 164 313 28 245 88 341 298 161 326 345 323 160 161 158 225 179 261 302 337 346 104 165 339 238 267 262 126 318 110 250 212 232 77 180 180 5 69 336 123 52 338 249 260 168 131 0 223 122 332 79 194 276 169 150 153 137 84 323 6 87 158 73 292 128 10 190 167 213 211 34 249 13 260 84 110 138 76 286 269 241 146 247 105 191 186 105 224 185 85 198 191 124 165 198 124 49 92 118 346 165 200 43 149 168 308 131 142 49 185 274 30 43 275 132 321 214 263 166 156 280 63 145 181 20 295 224 0 308 60 201 295 47 21 288 101 60 102 248 24 248 245 24 289 163 319 292 71 128 90 7 76 121 168 241 0 224 55 185 49 85 124 92 118 92 114 149 214 142 263 214 49 142 131 295 0 295 21 210 155 94 231 332 226 334 161 160 326 19 71 148 93 236 219 3 258 284 212 26 22 26 112 102 298 266 130 319 221 233 206 234 289 170 127 327 303 240 93 83 240 303 84 138 160 189 104 346 132 156 321 42 127 143 44 265 262 78 125 104 102 107 248 327 230 64 27 136 309 309 154 82 40 243 229 205 113 40 46 320 119 46 218 320 76 7 121 247 228 286 343 25 228 201 47 131 308 7 288 60 59 201 314 143 207 333 65 190 154 227 53 136 56 154 172 95 46 146 343 247 186 255 146 85 49 124 165 86 198 316 189 346 92 49 214 104 125 86 275 324 274 321 312 324 256 68 41 44 140 189 140 78 189 262 265 126 17 188 25 152 111 65 212 22 311 26 102 22 248 313 245 264 18 220 14 215 193 319 163 221 99 45 155 137 273 84 234 163 289 219 333 10 82 53 213 48 344 235 343 228 247 77 5 180 69 122 223 5 122 69 200 275 274 43 30 139 63 145 20 308 201 131 110 282 138 110 212 282 62 264 220 239 90 258 168 0 241 257 16 207 153 306 88 233 273 137 327 127 230 64 230 83 336 13 123 229 243 299 40 113 243 143 127 207 190 65 14 16 182 279 182 70 279 9 172 46 320 12 119 218 335 3 258 269 284 121 247 286 121 7 168 146 255 343 157 197 172 92 214 114 43 139 209 87 256 41 74 216 171 324 296 274 74 120 42 316 44 189 262 318 196 53 227 196 159 164 25 255 111 17 288 7 90 112 107 102 14 54 215 88 306 341 241 55 146 105 85 191 328 192 261 182 33 70 339 267 33 212 311 282 190 14 246 56 227 154 12 143 119 86 310 198 214 166 114 228 164 171 296 30 274 316 117 44 17 111 152 341 266 298 239 135 90 168 7 308 221 273 233 16 314 207 114 272 200 275 272 132 188 159 25 124 118 165 87 41 225 288 135 101 76 121 286 192 62 302 200 272 275 275 321 324 90 135 288 261 192 302 14 65 54 63 331 145 135 315 28 331 317 264 238 75 267 339 116 238 3 175 239 282 217 197 335 175 3 280 329 178 332 66 226 318 278 211 345 58 342 34 278 294 220 8 302 337 8 98 242 11 73 276 271 202 87 304 256 52 4 176 31 304 6 58 300 342 244 322 331 138 106 160 282 35 138 254 29 15 150 134 75 296 103 30 1 300 58 211 278 34 326 58 345 73 11 292 123 4 52 302 8 337 6 304 87 194 271 276 24 291 22 169 300 150 324 268 296 199 109 203 156 329 280 101 57 60 166 204 272 280 305 63 172 217 95 77 151 5 237 29 174 15 29 277 248 66 313 344 32 235 141 287 301 252 32 15 144 287 325 59 100 201 232 253 77 338 37 249 299 37 2 91 115 112 249 322 13 239 315 135 28 187 135 292 89 71 160 106 326 13 244 123 306 285 341 243 268 299 98 162 80 290 259 31 179 293 50 130 259 290 80 162 39 50 293 242 184 81 328 202 177 222 182 183 339 222 177 206 294 270 97 97 270 48 257 183 16 148 183 257 176 81 184 72 187 28 151 187 72 68 297 89 89 116 71 306 75 285 341 147 266 311 217 282 150 75 306 71 116 148 5 72 122 30 103 208 313 72 28 174 103 113 75 297 285 68 129 41 62 340 264 256 147 68 173 23 283 11 129 292 326 23 58 123 340 4 22 291 311 342 300 169 109 100 59 77 253 57 312 268 324 331 322 145 96 109 199 204 329 132 272 204 132 132 329 156 60 57 59 63 305 331 197 217 172 277 29 237 107 66 248 51 100 96 155 67 108 325 287 141 330 51 38 235 32 252 47 51 21 61 108 263 108 67 263 155 108 94 38 51 96 21 51 330 94 330 38 45 67 155 108 330 94 21 330 61 61 330 108 263 67 166 89 129 68 283 23 106 264 340 244 68 147 285 47 100 51 203 253 232 201 100 47 2 37 338 28 315 245 112 115 107 283 35 197 245 315 175 238 297 75 175 315 239 271 177 202 278 270 294 4 81 176 242 293 11 8 162 98 31 259 304 225 293 179 39 162 144 266 259 130 16 183 182 206 177 234 48 270 344 328 81 192 13 322 244 24 36 291 300 134 150 267 134 1 138 35 106 264 317 18 106 35 283 5 151 72 135 187 101 335 36 175 192 81 4 344 270 278 11 293 225 234 177 271 304 259 266 144 162 8 285 297 68 96 100 109 57 253 59 292 129 89 106 23 326 244 340 123 285 147 341 1 134 300 291 36 335 305 317 331 101 187 151 
        </DataArray>
        <DataArray type="Int32" Name="offsets" format="ascii">
          3 6 9 12 15 18 21 24 27 30 33 36 39 42 45 48 51 54 57 60 63 66 69 72 75 78 81 84 87 90 93 96 99 102 105 108 111 114 117 120 123 126 129 132 135 138 141 144 147 150 153 156 159 162 165 168 171 174 177 180 183 186 189 192 195 198 201 204 207 210 213 216 219 222 225 228 231 234 237 240 243 246 249 252 255 258 261 264 267 270 273 276 279 282 285 288 291 294 297 300 303 306 309 312 315 318 321 324 327 330 333 336 339 342 345 348 351 354 357 360 363 366 369 372 375 378 381 384 387 390 393 396 399 402 405 408 411 414 417 420 423 426 429 432 435 438 441 444 447 450 453 456 459 462 465 468 471 474 477 480 483 486 489 492 495 498 501 504 507 510 513 516 519 522 525 528 531 534 537 540 543 546 549 552 555 558 561 564 567 570 573 576 579 582 585 588 591 594 597 600 603 606 609 612 615 618 621 624 627 630 633 636 639 642 645 648 651 654 657 660 663 666 669 672 675 678 681 684 687 690 693 696 699 702 705 708 711 714 717 720 723 726 729 732 735 738 741 744 747 750 753 756 759 762 765 768 771 774 777 780 783 786 789 792 795 798 801 804 807 810 813 816 819 822 825 828 831 834 837 840 843 846 849 852 855 858 861 864 867 870 873 876 879 882 885 888 891 894 897 900 903 906 909 912 915 918 921 924 927 930 933 936 939 942 945 948 951 954 957 960 963 966 969 972 975 978 981 984 987 990 993 996 999 1002 1005 1008 1011 1014 1017 1020 1023 1026 1029 1032 1035 1038 1041 1044 1047 1050 1053 1056 1059 1062 1065 1068 1071 1074 1077 1080 1083 1086 1089 1092 1095 1098 1101 1104 1107 1110 1113 1116 1119 1122 1125 1128 1131 1134 1137 1140 1143 1146 1149 1152 1155 1158 1161 1164 1167 1170 1173 1176 1179 1182 1185 1188 1191 1194 1197 1200 1203 1206 1209 1212 1215 1218 1221 1224 1227 1230 1233 1236 1239 1242 1245 1248 1251 1254 1257 1260 1263 1266 1269 1272 1275 1278 1281 1284 1287 1290 1293 1296 1299 1302 1305 1308 1311 1314 1317 1320 1323 1326 1329 1332 1335 1338 1341 1344 1347 1350 1353 1356 1359 1362 1365 1368 1371 1374 1377 1380 1383 1386 1389 1392 1395 1398 1401 1404 1407 1410 1413 1416 1419 1422 1425 1428 1431 1434 1437 1440 1443 1446 1449 1452 1455 1458 1461 1464 1467 1470 1473 1476 1479 1482 1485 1488 1491 1494 1497 1500 1503 1506 1509 1512 1515 1518 1521 1524 1527 1530 1533 1536 1539 1542 1545 1548 1551 1554 1557 1560 1563 1566 1569 1572 1575 1578 1581 1584 1587 1590 1593 1596 1599 1602 1605 1608 1611 1614 1617 1620 1623 1626 1629 1632 1635 1638 1641 1644 1647 1650 1653 1656 1659 1662 1665 1668 1671 1674 1677 1680 1683 1686 1689 1692 1695 1698 1701 1704 1707 1710 1713 1716 1719 1722 1725 1728 1731 1734 1737 1740 1743 1746 1749 1752 1755 1758 1761 1764 1767 1770 1773 1776 1779 1782 1785 1788 1791 1794 1797 1800 1803 1806 1809 1812 1815 1818 1821 1824 1827 1830 1833 1836 
        </DataArray>
        <DataArray type="UInt8" Name="types" format="ascii">
          5 5 5 5 5 5 5 5 5 5 5 5 5 5 5 5 5 5 5 5 5 5 5 5 5 5 5 5 5 5 5 5 5 5 5 5 5 5 5 5 5 5 5 5 5 5 5 5 5 5 5 5 5 5 5 5 5 5 5 5 5 5 5 5 5 5 5 5 5 5 5 5 5 5 5 5 5 5 5 5 5 5 5 5 5 5 5 5 5 5 5 5 5 5 5 5 5 5 5 5 5 5 5 5 5 5 5 5 5 5 5 5 5 5 5 5 5 5 5 5 5 5 5 5 5 5 5 5 5 5 5 5 5 5 5 5 5 5 5 5 5 5 5 5 5 5 5 5 5 5 5 5 5 5 5 5 5 5 5 5 5 5 5 5 5 5 5 5 5 5 5 5 5 5 5 5 5 5 5 5 5 5 5 5 5 5 5 5 5 5 5 5 5 5 5 5 5 5 5 5 5 5 5 5 5 5 5 5 5 5 5 5 5 5 5 5 5 5 5 5 5 5 5 5 5 5 5 5 5 5 5 5 5 5 5 5 5 5 5 5 5 5 5 5 5 5 5 5 5 5 5 5 5 5 5 5 5 5 5 5 5 5 5 5 5 5 5 5 5 5 5 5 5 5 5 5 5 5 5 5 5 5 5 5 5 5 5 5 5 5 5 5 5 5 5 5 5 5 5 5 5 5 5 5 5 5 5 5 5 5 5 5 5 5 5 5 5 5 5 5 5 5 5 5 5 5 5 5 5 5 5 5 5 5 5 5 5 5 5 5 5 5 5 5 5 5 5 5 5 5 5 5 5 5 5 5 5 5 5 5 5 5 5 5 5 5 5 5 5 5 5 5 5 5 5 5 5 5 5 5 5 5 5 5 5 5 5 5 5 5 5 5 5 5 5 5 5 5 5 5 5 5 5 5 5 5 5 5 5 5 5 5 5 5 5 5 5 5 5 5 5 5 5 5 5 5 5 5 5 5 5 5 5 5 5 5 5 5 5 5 5 5 5 5 5 5 5 5 5 5 5 5 5 5 5 5 5 5 5 5 5 5 5 5 5 5 5 5 5 5 5 5 5 5 5 5 5 5 5 5 5 5 5 5 5 5 5 5 5 5 5 5 5 5 5 5 5 5 5 5 5 5 5 5 5 5 5 5 5 5 5 5 5 5 5 5 5 5 5 5 5 5 5 5 5 5 5 5 5 5 5 5 5 5 5 5 5 5 5 5 5 5 5 5 5 5 5 5 5 5 5 5 5 5 5 5 5 5 5 5 5 5 5 5 5 5 5 5 5 5 5 5 5 5 5 5 5 5 5 5 5 5 5 5 5 5 5 5 5 5 5 5 5 5 5 5 5 5 5 5 5 5 5 5 5 5 5 5 5 5 5 5 
        </DataArray>
      </Cells>
      <PointData Scalars="value">
        <DataArray type="Float64" Name="value" format="ascii">
          294.122148 299.418340 300.000000 295.530724 299.497765 291.312234 300.000000 294.116614 298.716235 297.626453 297.136094 299.828265 296.807767 299.186937 296.947968 299.438488 298.304345 296.227392 296.627111 299.270829 297.198382 292.758106 296.604080 299.184242 295.640505 296.219499 297.075105 297.601241 293.524564 299.531024 297.950089 300.000000 299.630136 299.053467 299.130876 298.514397 295.618751 299.288912 291.207098 296.916556 300.000000 299.822658 297.001885 297.156419 298.190177 293.273092 297.004199 292.510092 300.000000 295.138184 300.000000 291.856952 300.000000 298.388515 296.536671 294.854596 297.612108 291.708889 299.573267 291.542739 292.449699 293.209029 298.838679 296.524786 297.209600 296.724956 293.975607 293.555022 299.720769 290.384155 298.620116 299.427245 292.575321 299.820911 296.512273 299.632976 294.883732 290.867616 297.617058 293.223680 300.000000 299.811109 298.299443 296.925596 299.299400 295.448095 296.695239 299.921876 300.000000 299.575426 294.323925 297.035975 295.722735 296.986043 291.697115 296.826532 290.879031 300.000000 300.000000 291.754673 291.656003 292.728424 295.906127 298.680736 297.135455 295.092769 299.023349 295.121012 292.791761 290.626880 298.492077 296.334990 296.444826 299.254484 295.573195 295.599459 299.334072 298.323763 296.468949 297.186253 296.747575 294.748152 291.919564 299.355647 295.911484 297.188610 299.165551 297.456774 299.624861 299.717739 300.000000 293.297838 295.553818 296.056008 299.596764 293.716906 297.610902 300.000000 298.793273 297.789011 298.096969 293.242282 294.237328 297.349857 296.930434 297.782544 295.347028 299.840790 299.066915 296.404455 299.803182 292.037785 296.587242 300.000000 297.978224 292.403866 295.901933 298.107049 300.000000 296.594366 299.431741 300.000000 298.345083 298.710454 296.314469 296.571950 294.630841 297.333837 294.050509 300.000000 297.883971 295.977223 297.523754 299.094613 299.272704 295.150606 300.000000 298.306820 292.988966 300.000000 289.937188 298.359120 298.679347 298.744801 300.000000 294.669555 295.497604 293.024798 296.541974 297.638615 297.055013 295.757558 299.537323 297.247251 295.291301 289.850630 298.489616 298.058140 296.119314 289.628077 296.403617 292.417289 297.111953 289.570842 294.567374 300.000000 300.000000 297.888310 298.511214 297.101811 293.774234 298.827841 297.578845 298.704929 294.840435 296.824549 296.224658 297.508856 296.308107 297.017536 297.990109 298.972102 300.000000 291.045184 294.329204 299.913522 293.973437 298.030432 295.835812 300.000000 297.136854 290.867954 289.671986 300.000000 298.426100 300.000000 296.806284 300.000000 299.419741 294.691385 296.817058 294.738822 299.933318 299.161512 298.496518 294.669782 297.299369 295.310499 294.755004 298.990949 298.174213 290.255797 300.000000 290.654340 298.976410 295.877667 299.868534 298.552896 295.145081 299.977548 300.000000 300.000000 298.615222 293.821527 297.802800 298.784663 299.936798 299.380030 298.373698 295.585823 299.658403 296.820880 295.536732 299.154900 297.289532 296.505060 294.896946 300.000000 299.281226 298.186337 294.811243 292.665239 298.015596 298.661797 295.894040 299.761203 295.390204 295.264488 293.412851 300.000000 300.000000 296.352311 299.669317 299.932929 299.565080 293.461924 298.318130 299.605128 300.000000 299.017936 299.751436 294.999958 299.156280 297.048084 299.951045 296.130124 299.851946 297.775968 293.280832 297.927219 296.331557 297.133618 297.891049 293.459206 297.757755 294.345222 297.690773 296.800197 298.984646 300.000000 296.570855 296.750756 298.338270 300.000000 297.501162 294.677180 299.542855 297.479554 300.000000 294.614231 292.231799 297.383395 292.693666 296.887854 291.970555 295.975837 300.000000 300.000000 300.000000 299.094378 298.838391 299.900886 300.000000 295.802983 299.540995 300.000000 297.101259 
        </DataArray>
      </PointData>
    </Piece>
  </UnstructuredGrid>
</VTKFile>
