<?xml version="1.0"?>
<VTKFile type="UnstructuredGrid" version="0.1" byte_order="LittleEndian">
  <UnstructuredGrid>
    <Piece NumberOfPoints="1261" NumberOfCells="2207">
      <Points>
        <DataArray type="Float64" NumberOfComponents="3" format="ascii">
          2.933878 -0.452455 0.0
          3.452889 -0.369999 0.0
          0.073900 -0.320666 0.0
          2.220431 -0.309838 0.0
          0.374226 -0.467974 0.0
          2.000000 0.120030 0.0
          0.813779 -0.150751 0.0
          1.879912 -0.026975 0.0
          2.300000 -0.500000 0.0
          1.865069 0.399861 0.0
          3.314855 -0.057450 0.0
          0.752952 -0.319551 0.0
          3.046630 -0.128328 0.0
          1.109467 0.0 0.0
          0.700000 -0.500000 0.0
          2.070669 -0.319426 0.0
          2.782095 -0.142097 0.0
          0.303799 -0.290651 0.0
          1.724456 -0.413077 0.0
          1.699398 -0.379873 0.0
          1.533746 0.217430 0.0
          0.523577 -0.472167 0.0
          3.438248 0.0 0.0
          3.422826 -0.403933 0.0
          0.231719 -0.242679 0.0
          0.0 -0.401254 0.0
          2.647530 -0.113061 0.0
          1.740584 0.409322 0.0
          0.686337 -0.185037 0.0
          3.190667 -0.204300 0.0
          1.744984 0.094549 0.0
          1.583230 -0.241755 0.0
          2.150000 -0.500000 0.0
          0.162268 -0.030998 0.0
          1.500000 0.259997 0.0
          2.974468 -0.348824 0.0
          2.083663 -0.104039 0.0
          3.057408 -0.170997 0.0
          1.257390 -0.265026 0.0
          2.000000 0.240003 0.0
          1.035443 -0.210184 0.0
          3.356045 0.0 0.0
          0.945129 0.0 0.0
          0.647540 -0.399500 0.0
          1.193574 -0.131944 0.0
          0.0 -0.253135 0.0
          1.500000 0.160022 0.0
          0.286138 -0.159785 0.0
          0.077809 -0.452560 0.0
          0.236390 -0.017724 0.0
          1.521600 0.443544 0.0
          2.325641 -0.387933 0.0
          1.850000 -0.500000 0.0
          1.965092 0.080193 0.0
          0.100000 -0.500000 0.0
          3.140151 -0.056344 0.0
          1.897827 -0.372637 0.0
          0.035680 -0.081496 0.0
          3.500000 -0.450627 0.0
          2.828234 -0.448458 0.0
          1.383777 -0.461766 0.0
          2.657518 0.0 0.0
          1.849545 0.013812 0.0
          1.644560 -0.074828 0.0
          0.226157 0.0 0.0
          1.213037 -0.175668 0.0
          1.279569 -0.309838 0.0
          1.224202 -0.391982 0.0
          2.242610 -0.265026 0.0
          2.009123 -0.150214 0.0
          0.636992 0.0 0.0
          0.0 -0.024386 0.0
          0.325000 -0.456699 0.0
          1.650673 -0.292739 0.0
          0.497938 -0.388892 0.0
          3.315009 0.0 0.0
          1.900000 -0.500000 0.0
          1.222044 -0.100559 0.0
          0.653080 -0.313075 0.0
          2.014690 -0.455356 0.0
          1.500000 0.479956 0.0
          2.255643 -0.425165 0.0
          1.500000 0.060039 0.0
          2.195714 -0.058854 0.0
          1.629146 0.347423 0.0
          0.072656 -0.045670 0.0
          2.852311 -0.401481 0.0
          1.226151 -0.062078 0.0
          0.899717 -0.413539 0.0
          1.479350 0.0 0.0
          1.850906 0.228777 0.0
          3.118927 -0.462518 0.0
          2.142814 -0.271422 0.0
          1.942965 -0.284112 0.0
          2.741611 -0.233364 0.0
          2.115096 -0.229808 0.0
          2.270328 -0.306640 0.0
          0.598689 -0.394177 0.0
          2.442200 -0.252234 0.0
          2.733278 -0.114461 0.0
          0.760224 0.0 0.0
          0.0 0.0 0.0
          1.550000 -0.500000 0.0
          3.130092 0.0 0.0
          2.735679 -0.064111 0.0
          2.475368 -0.378866 0.0
          0.020650 0.0 0.0
          0.658619 -0.226650 0.0
          2.308261 0.0 0.0
          1.913943 0.274398 0.0
          2.846922 -0.313098 0.0
          3.187506 -0.086094 0.0
          2.068319 -0.456037 0.0
          3.463773 -0.226217 0.0
          1.500000 0.120030 0.0
          2.847291 -0.023352 0.0
          0.631174 -0.056938 0.0
          1.617161 -0.115282 0.0
          0.453489 -0.300283 0.0
          2.833633 -0.061453 0.0
          2.612107 -0.128981 0.0
          1.700323 -0.211451 0.0
          0.703024 -0.316324 0.0
          2.000000 0.180018 0.0
          1.559879 0.478243 0.0
          0.695263 -0.093995 0.0
          2.010932 -0.021028 0.0
          2.869110 -0.268389 0.0
          3.232740 0.0 0.0
          1.775688 -0.424418 0.0
          1.548114 0.080691 0.0
          0.220641 -0.415530 0.0
          1.052080 -0.060974 0.0
          2.641864 -0.239557 0.0
          1.946625 0.480443 0.0
          3.233750 -0.065440 0.0
          1.694784 0.091345 0.0
          2.125934 -0.023474 0.0
          2.120635 -0.316234 0.0
          2.320222 -0.303388 0.0
          0.950000 -0.500000 0.0
          3.246102 -0.287494 0.0
          0.281617 -0.245877 0.0
          0.187208 -0.155436 0.0
          1.604079 -0.287753 0.0
          1.500000 0.200013 0.0
          0.595874 0.0 0.0
          2.065171 -0.233023 0.0
          0.768953 -0.025021 0.0
          1.701803 0.388701 0.0
          0.143955 0.0 0.0
          3.358717 -0.066675 0.0
          1.766892 0.138985 0.0
          1.982684 0.250000 0.0
          1.601194 -0.372921 0.0
          1.500000 0.0 0.0
          1.525386 0.474614 0.0
          3.421583 -0.031366 0.0
          0.998087 -0.418876 0.0
          3.101898 -0.382743 0.0
          1.932347 -0.111673 0.0
          3.284052 -0.124925 0.0
          0.548103 -0.389892 0.0
          3.308172 -0.023018 0.0
          0.450000 -0.500000 0.0
          2.856571 -0.098326 0.0
          0.974681 -0.376109 0.0
          1.976387 0.434033 0.0
          1.820430 -0.334985 0.0
          3.253377 0.0 0.0
          1.232740 0.0 0.0
          0.565175 -0.462159 0.0
          2.774848 -0.361159 0.0
          0.536644 -0.175442 0.0
          2.542358 -0.245302 0.0
          1.979956 0.500000 0.0
          2.251194 -0.102100 0.0
          2.880147 -0.058607 0.0
          1.401544 -0.361045 0.0
          0.233188 -0.459370 0.0
          2.102918 0.0 0.0
          2.586354 -0.156215 0.0
          0.120846 -0.409134 0.0
          1.085518 -0.210620 0.0
          0.808310 -0.236264 0.0
          1.675162 -0.252443 0.0
          0.735112 -0.019026 0.0
          3.150628 0.0 0.0
          1.832409 -0.117567 0.0
          3.151741 -0.378689 0.0
          1.798390 0.303260 0.0
          2.486738 -0.023176 0.0
          0.739776 0.0 0.0
          1.560039 0.500000 0.0
          0.018967 -0.016433 0.0
          1.490874 -0.150214 0.0
          1.521004 -0.024145 0.0
          3.200000 -0.500000 0.0
          1.074486 -0.382753 0.0
          1.356045 0.0 0.0
          2.819206 -0.271512 0.0
          1.500000 0.040042 0.0
          0.885915 -0.198020 0.0
          1.619646 0.129027 0.0
          0.674402 -0.451760 0.0
          1.967828 0.178601 0.0
          1.788033 0.182778 0.0
          1.722260 -0.339695 0.0
          2.525300 -0.376215 0.0
          1.686587 -0.167219 0.0
          2.431563 0.0 0.0
          1.490939 -0.059600 0.0
          2.000000 0.279992 0.0
          1.448481 -0.017723 0.0
          0.630900 -0.268264 0.0
          0.736235 -0.188237 0.0
          2.301967 -0.423538 0.0
          0.082299 0.0 0.0
          1.154294 -0.019252 0.0
          2.174766 -0.017710 0.0
          1.500000 0.359974 0.0
          1.626121 0.477835 0.0
          1.919963 0.500000 0.0
          2.123368 0.0 0.0
          2.450000 -0.500000 0.0
          1.650000 -0.500000 0.0
          2.976116 -0.114320 0.0
          2.667833 -0.029751 0.0
          3.024338 -0.345199 0.0
          3.268281 -0.242684 0.0
          1.865275 -0.245549 0.0
          3.006984 -0.035348 0.0
          2.950000 -0.500000 0.0
          1.740003 0.500000 0.0
          0.980178 -0.290745 0.0
          2.919006 -0.265169 0.0
          1.450856 -0.364512 0.0
          2.438378 -0.167896 0.0
          3.323717 -0.325907 0.0
          1.014570 -0.089005 0.0
          1.800000 -0.500000 0.0
          2.596139 -0.058224 0.0
          2.051519 -0.017723 0.0
          2.565815 -0.025536 0.0
          0.863008 0.0 0.0
          1.006779 0.0 0.0
          0.500000 -0.500000 0.0
          1.100000 -0.500000 0.0
          2.569813 -0.287271 0.0
          3.370619 -0.456295 0.0
          2.669535 -0.281086 0.0
          0.581003 -0.265065 0.0
          0.858204 -0.239517 0.0
          1.661872 0.219431 0.0
          0.278094 -0.021166 0.0
          3.109467 0.0 0.0
          2.447720 -0.338358 0.0
          0.150000 -0.500000 0.0
          1.250000 -0.500000 0.0
          1.500000 0.500000 0.0
          1.854685 -0.073276 0.0
          3.118602 -0.252500 0.0
          1.410916 -0.024896 0.0
          1.959958 0.500000 0.0
          2.000000 0.060039 0.0
          0.427886 -0.102651 0.0
          0.452159 0.0 0.0
          0.675259 -0.357887 0.0
          0.0 -0.500000 0.0
          2.000000 0.220008 0.0
          0.129381 -0.456295 0.0
          0.848031 -0.412347 0.0
          2.614309 -0.198659 0.0
          1.412647 -0.188212 0.0
          1.860040 -0.159263 0.0
          2.314687 -0.217016 0.0
          2.159688 -0.141499 0.0
          3.125983 -0.022814 0.0
          0.570312 -0.423018 0.0
          1.611028 0.214192 0.0
          1.517964 -0.108175 0.0
          1.631676 -0.460466 0.0
          2.000000 0.319982 0.0
          3.500000 -0.105016 0.0
          1.074470 -0.458861 0.0
          0.293213 -0.071545 0.0
          0.643403 -0.098950 0.0
          0.176283 -0.325907 0.0
          1.940165 0.402796 0.0
          0.511426 -0.091659 0.0
          1.522346 0.294969 0.0
          3.482231 -0.015311 0.0
          2.986554 -0.430793 0.0
          0.423064 -0.458572 0.0
          0.750000 -0.500000 0.0
          1.799987 0.500000 0.0
          2.420019 -0.297017 0.0
          2.192712 -0.268224 0.0
          2.184991 0.0 0.0
          1.262929 -0.178601 0.0
          1.750000 -0.500000 0.0
          1.769995 0.482684 0.0
          2.235550 -0.061558 0.0
          2.015262 -0.236218 0.0
          0.708516 -0.229849 0.0
          0.041041 -0.423571 0.0
          1.982683 0.329980 0.0
          2.968899 -0.261924 0.0
          1.580037 0.500000 0.0
          1.645087 0.088581 0.0
          0.586480 -0.178890 0.0
          1.123883 -0.459742 0.0
          1.728956 0.353603 0.0
          1.957035 0.361436 0.0
          0.464186 -0.425544 0.0
          0.384356 -0.162925 0.0
          1.971228 0.210011 0.0
          0.050000 -0.500000 0.0
          2.349372 0.0 0.0
          0.044104 -0.276621 0.0
          1.982683 0.389968 0.0
          0.123368 0.0 0.0
          1.600034 0.500000 0.0
          2.775203 -0.101393 0.0
          0.383600 -0.113242 0.0
          1.684226 0.264149 0.0
          1.301749 -0.354649 0.0
          0.880388 -0.284254 0.0
          2.835923 -0.142023 0.0
          3.397082 0.0 0.0
          3.454877 -0.075738 0.0
          0.724637 -0.451951 0.0
          1.095294 -0.086855 0.0
          1.970299 -0.325827 0.0
          1.335007 -0.226611 0.0
          1.030078 -0.293893 0.0
          0.786132 -0.191443 0.0
          1.458713 0.0 0.0
          1.596453 0.258532 0.0
          1.892862 -0.287228 0.0
          2.807490 -0.023687 0.0
          0.965763 0.0 0.0
          2.747125 -0.319471 0.0
          1.828217 0.058044 0.0
          3.340385 -0.195092 0.0
          1.939961 0.500000 0.0
          2.472607 0.0 0.0
          3.047841 0.0 0.0
          2.516245 -0.201434 0.0
          1.852211 0.351120 0.0
          2.000000 0.479956 0.0
          2.697227 -0.322630 0.0
          1.562123 -0.197666 0.0
          1.624738 -0.036397 0.0
          2.369908 0.0 0.0
          1.784768 0.433437 0.0
          0.842482 0.0 0.0
          1.690016 0.482684 0.0
          1.200000 -0.500000 0.0
          0.680798 -0.271462 0.0
          2.226157 0.0 0.0
          0.825053 -0.367554 0.0
          0.271556 -0.420238 0.0
          1.555722 0.391557 0.0
          1.096486 -0.129695 0.0
          0.924370 -0.457063 0.0
          1.690585 0.434951 0.0
          1.795761 0.097967 0.0
          1.235211 -0.220214 0.0
          0.472305 -0.101380 0.0
          1.759997 0.500000 0.0
          2.575387 0.0 0.0
          2.000000 0.140026 0.0
          2.338157 -0.078053 0.0
          1.998031 -0.366909 0.0
          1.918208 0.000221 0.0
          1.150628 0.0 0.0
          2.924613 0.0 0.0
          3.466319 -0.324700 0.0
          1.376764 -0.035297 0.0
          3.450000 -0.500000 0.0
          2.215556 -0.027296 0.0
          2.299275 -0.120759 0.0
          0.985499 -0.207723 0.0
          0.800000 -0.500000 0.0
          3.233094 -0.023027 0.0
          2.248149 -0.351451 0.0
          1.569050 0.127042 0.0
          0.836027 -0.194675 0.0
          0.904126 0.0 0.0
          0.932974 -0.076976 0.0
          0.513776 0.0 0.0
          1.285109 -0.223413 0.0
          1.667620 -0.117500 0.0
          1.521997 0.413227 0.0
          0.184991 0.0 0.0
          2.176807 -0.097753 0.0
          2.325483 -0.458204 0.0
          2.688223 -0.144904 0.0
          1.988905 0.488219 0.0
          3.196202 -0.290665 0.0
          2.020650 0.0 0.0
          2.735112 -0.019026 0.0
          2.020603 -0.322536 0.0
          3.295999 -0.284294 0.0
          3.471800 -0.037784 0.0
          2.575861 -0.457092 0.0
          0.949525 -0.029237 0.0
          0.801396 0.0 0.0
          2.000000 0.459958 0.0
          1.680018 0.500000 0.0
          1.975665 0.472919 0.0
          3.290460 -0.197870 0.0
          0.113143 -0.017710 0.0
          1.875000 -0.456699 0.0
          1.563028 0.181108 0.0
          0.775189 -0.364402 0.0
          2.902946 -0.407215 0.0
          1.312845 -0.181847 0.0
          1.557941 0.266989 0.0
          1.501349 -0.367311 0.0
          1.924849 -0.416598 0.0
          3.279359 -0.415530 0.0
          2.554871 0.0 0.0
          2.713987 -0.193143 0.0
          2.078699 -0.407731 0.0
          3.085206 -0.128482 0.0
          2.170533 -0.313036 0.0
          3.318071 -0.457365 0.0
          0.967762 -0.159951 0.0
          2.350000 -0.500000 0.0
          3.150000 -0.500000 0.0
          1.500000 0.220008 0.0
          0.383548 -0.023438 0.0
          0.148596 -0.367031 0.0
          1.693757 -0.298922 0.0
          1.315829 -0.466568 0.0
          0.763849 -0.148239 0.0
          0.108603 -0.191145 0.0
          0.287765 0.0 0.0
          2.500000 -0.500000 0.0
          1.540093 -0.153019 0.0
          3.294389 0.0 0.0
          0.542084 -0.101339 0.0
          3.301502 -0.370148 0.0
          0.309335 -0.204264 0.0
          0.099720 -0.277313 0.0
          3.274653 -0.033897 0.0
          1.770592 -0.338019 0.0
          0.486589 -0.174696 0.0
          2.698604 0.0 0.0
          0.081737 -0.096833 0.0
          2.041287 0.0 0.0
          1.027393 0.0 0.0
          1.835447 0.303911 0.0
          1.525633 -0.465589 0.0
          2.725413 -0.455423 0.0
          0.276078 -0.332303 0.0
          2.027918 -0.409397 0.0
          0.590621 -0.089238 0.0
          0.348259 -0.378689 0.0
          1.500000 0.299987 0.0
          2.425467 -0.382013 0.0
          2.390533 0.0 0.0
          3.395794 -0.277897 0.0
          1.884816 0.473267 0.0
          1.875916 -0.408011 0.0
          3.382119 -0.105519 0.0
          0.699401 -0.034943 0.0
          2.519769 -0.106471 0.0
          0.318581 -0.029755 0.0
          1.920362 -0.328936 0.0
          2.392303 -0.255432 0.0
          1.500000 0.180018 0.0
          2.275798 -0.391982 0.0
          1.976914 -0.410533 0.0
          0.205611 0.0 0.0
          1.642122 0.173482 0.0
          2.143955 0.0 0.0
          2.292507 -0.261828 0.0
          1.918267 0.099260 0.0
          0.246134 -0.065038 0.0
          0.975598 -0.110295 0.0
          0.248359 -0.373916 0.0
          2.000000 0.299987 0.0
          2.595874 0.0 0.0
          2.519816 -0.290650 0.0
          1.804550 -0.075643 0.0
          3.300000 -0.500000 0.0
          1.982036 -0.108175 0.0
          1.877626 0.440440 0.0
          2.949525 -0.029237 0.0
          2.874783 -0.356932 0.0
          3.224051 -0.467261 0.0
          3.373615 -0.322709 0.0
          0.246623 0.0 0.0
          0.719171 0.0 0.0
          2.184171 -0.466568 0.0
          2.298047 -0.348253 0.0
          2.098456 -0.361045 0.0
          0.486396 -0.022816 0.0
          1.658149 0.390760 0.0
          1.500000 0.080037 0.0
          0.369908 0.0 0.0
          1.575000 -0.456699 0.0
          1.417701 0.0 0.0
          1.403073 -0.065592 0.0
          2.965763 0.0 0.0
          2.342583 -0.129322 0.0
          0.545532 -0.060970 0.0
          3.014373 -0.189715 0.0
          0.0 -0.302508 0.0
          1.600512 0.001958 0.0
          3.212235 0.0 0.0
          0.032989 -0.327195 0.0
          3.138366 -0.114980 0.0
          3.140777 -0.207615 0.0
          1.052274 -0.338441 0.0
          1.357186 -0.271422 0.0
          1.815374 -0.248602 0.0
          2.760224 0.0 0.0
          3.074204 -0.341507 0.0
          1.982682 0.050041 0.0
          3.332128 -0.411673 0.0
          1.923322 -0.466130 0.0
          0.986224 0.0 0.0
          3.100000 -0.500000 0.0
          3.423756 -0.321443 0.0
          2.675040 -0.367331 0.0
          1.465360 -0.105418 0.0
          2.883486 0.0 0.0
          2.882216 -0.138636 0.0
          0.373066 -0.424598 0.0
          1.725000 -0.456699 0.0
          1.706589 0.308874 0.0
          0.657518 0.0 0.0
          2.225131 -0.454632 0.0
          0.774353 -0.454640 0.0
          3.250000 -0.500000 0.0
          1.174359 -0.387933 0.0
          1.489068 -0.021028 0.0
          0.877939 -0.061917 0.0
          0.275949 -0.467261 0.0
          3.379154 -0.409134 0.0
          1.748560 -0.380524 0.0
          0.381412 -0.252273 0.0
          1.368670 -0.091881 0.0
          2.841398 -0.226905 0.0
          1.479259 -0.457299 0.0
          3.350000 -0.500000 0.0
          0.503387 -0.303481 0.0
          2.048558 -0.364243 0.0
          1.765928 -0.251839 0.0
          0.614260 -0.137027 0.0
          2.541621 -0.154162 0.0
          0.0 -0.105016 0.0
          1.636252 0.261261 0.0
          1.346107 -0.444272 0.0
          1.544196 -0.068707 0.0
          1.739844 0.465094 0.0
          3.400000 -0.500000 0.0
          1.601585 0.389332 0.0
          1.792904 -0.293274 0.0
          0.952483 -0.331986 0.0
          2.592098 -0.242498 0.0
          2.412290 -0.138095 0.0
          0.353694 -0.293887 0.0
          2.619658 -0.284249 0.0
          3.500000 -0.058517 0.0
          0.198498 -0.370148 0.0
          3.171100 0.0 0.0
          1.882389 -0.114912 0.0
          0.197702 -0.021794 0.0
          1.520044 0.500000 0.0
          1.561679 -0.001769 0.0
          2.552132 -0.415814 0.0
          2.474401 -0.102503 0.0
          1.130092 0.0 0.0
          0.478948 -0.466333 0.0
          2.267260 0.0 0.0
          1.308169 -0.433938 0.0
          2.354017 -0.028734 0.0
          1.417759 -0.102776 0.0
          2.640151 -0.066634 0.0
          0.436770 -0.170283 0.0
          2.164541 0.0 0.0
          1.832807 -0.419048 0.0
          1.743472 -0.296511 0.0
          3.335459 0.0 0.0
          1.500000 0.379970 0.0
          1.824319 0.265921 0.0
          1.191739 0.0 0.0
          3.078386 -0.428825 0.0
          0.349372 0.0 0.0
          2.932223 -0.076115 0.0
          3.368531 -0.237015 0.0
          1.013769 -0.137862 0.0
          3.235532 -0.115838 0.0
          1.813147 0.476217 0.0
          1.521455 0.108878 0.0
          1.635222 0.436260 0.0
          1.260493 -0.034249 0.0
          2.283682 -0.061606 0.0
          2.286373 -0.175360 0.0
          2.497619 -0.335177 0.0
          0.415042 -0.138858 0.0
          1.819496 0.142145 0.0
          0.924613 0.0 0.0
          1.850191 0.472887 0.0
          2.153893 -0.444272 0.0
          0.310873 -0.119408 0.0
          0.837923 -0.101026 0.0
          1.273843 0.0 0.0
          1.097565 -0.420187 0.0
          0.481207 -0.258669 0.0
          3.154294 -0.019252 0.0
          0.874567 -0.456621 0.0
          2.801857 -0.403869 0.0
          1.007873 -0.249496 0.0
          2.904126 0.0 0.0
          0.900000 -0.500000 0.0
          1.620030 0.500000 0.0
          2.200000 -0.500000 0.0
          1.517317 0.170020 0.0
          1.624515 0.045331 0.0
          2.600000 -0.500000 0.0
          1.955275 -0.068752 0.0
          1.965403 -0.239402 0.0
          0.202841 -0.054534 0.0
          0.531105 -0.261867 0.0
          1.152078 -0.344706 0.0
          3.168489 -0.249139 0.0
          2.813739 -0.186207 0.0
          3.401333 -0.364322 0.0
          3.312802 -0.155590 0.0
          1.400000 -0.500000 0.0
          2.616514 0.0 0.0
          0.431310 -0.255471 0.0
          0.936676 -0.123679 0.0
          2.550000 -0.500000 0.0
          2.381283 -0.113634 0.0
          0.797907 -0.409548 0.0
          1.140588 -0.119216 0.0
          3.162946 -0.162650 0.0
          1.818082 -0.461084 0.0
          1.722595 0.049841 0.0
          1.650407 -0.378591 0.0
          1.806360 0.225044 0.0
          1.920566 0.483794 0.0
          1.376632 0.0 0.0
          1.739353 0.180717 0.0
          0.616514 0.0 0.0
          0.790559 -0.063495 0.0
          2.000000 0.100034 0.0
          0.421323 -0.414852 0.0
          1.129877 -0.300244 0.0
          2.650000 -0.500000 0.0
          2.900000 -0.500000 0.0
          1.820059 0.387643 0.0
          1.296395 -0.035845 0.0
          1.572534 0.228149 0.0
          0.913083 -0.158460 0.0
          1.717057 0.136035 0.0
          2.797027 -0.316340 0.0
          0.971993 -0.458936 0.0
          1.656608 -0.206526 0.0
          1.026008 -0.458545 0.0
          3.427161 -0.197661 0.0
          2.000000 0.200013 0.0
          2.451488 -0.017987 0.0
          2.426508 -0.102118 0.0
          0.563991 -0.135327 0.0
          0.730695 -0.274661 0.0
          1.987476 -0.194667 0.0
          0.908090 -0.242899 0.0
          2.414482 -0.210620 0.0
          2.612960 -0.094917 0.0
          0.935768 -0.201919 0.0
          1.760950 0.317392 0.0
          1.500000 0.399966 0.0
          1.244357 -0.425164 0.0
          1.903288 0.411596 0.0
          0.714055 -0.143423 0.0
          1.339308 -0.055973 0.0
          1.057800 -0.252234 0.0
          1.801488 0.011986 0.0
          1.700013 0.500000 0.0
          3.018586 -0.092958 0.0
          2.384936 -0.166125 0.0
          2.042875 -0.277868 0.0
          2.087353 -0.188212 0.0
          3.201656 -0.375755 0.0
          1.431681 -0.456037 0.0
          1.528475 0.141184 0.0
          1.479066 -0.322654 0.0
          0.747864 -0.406310 0.0
          1.849097 -0.375073 0.0
          0.046506 -0.181854 0.0
          1.500000 0.439961 0.0
          0.780829 0.0 0.0
          0.041287 0.0 0.0
          0.806978 -0.023379 0.0
          1.640026 0.500000 0.0
          3.500000 -0.024386 0.0
          3.046511 -0.300283 0.0
          0.699116 -0.404520 0.0
          2.968705 -0.172945 0.0
          1.469499 -0.410366 0.0
          0.032406 -0.229173 0.0
          2.397820 -0.341511 0.0
          1.720008 0.500000 0.0
          0.0 -0.203762 0.0
          0.386444 -0.064098 0.0
          2.008882 -0.060241 0.0
          2.386444 -0.064098 0.0
          3.351404 -0.367031 0.0
          3.338556 -0.026560 0.0
          1.676062 -0.468207 0.0
          0.165313 -0.122335 0.0
          3.074856 -0.470308 0.0
          2.191831 -0.433938 0.0
          0.048848 -0.016328 0.0
          3.389341 -0.193506 0.0
          2.034747 -0.105499 0.0
          1.434828 -0.233025 0.0
          2.547522 -0.332072 0.0
          1.762442 -0.166261 0.0
          0.737652 -0.059358 0.0
          1.510976 0.489024 0.0
          1.251851 -0.351451 0.0
          1.600000 -0.500000 0.0
          1.679110 0.349499 0.0
          2.688509 -0.080590 0.0
          1.879970 0.500000 0.0
          0.181817 -0.239548 0.0
          2.863008 0.0 0.0
          1.567564 -0.111665 0.0
          2.000000 0.339978 0.0
          3.212998 -0.161860 0.0
          1.362729 -0.185000 0.0
          0.650000 -0.500000 0.0
          0.510094 -0.131624 0.0
          3.174010 -0.335274 0.0
          1.773754 -0.468440 0.0
          3.068437 0.0 0.0
          2.246623 0.0 0.0
          1.307288 -0.268224 0.0
          1.569418 0.039509 0.0
          0.308261 0.0 0.0
          2.821851 0.0 0.0
          0.0 -0.058517 0.0
          2.410986 0.0 0.0
          2.131111 -0.102354 0.0
          1.188909 -0.030657 0.0
          3.012076 -0.153867 0.0
          0.493221 0.0 0.0
          2.000000 0.439961 0.0
          1.802549 0.341317 0.0
          2.650837 -0.412481 0.0
          1.992942 -0.280981 0.0
          2.137271 -0.185000 0.0
          1.870322 -0.331978 0.0
          0.209540 -0.197868 0.0
          0.200000 -0.500000 0.0
          1.656684 0.305880 0.0
          0.0 -0.450627 0.0
          3.059876 -0.095333 0.0
          0.325990 -0.335274 0.0
          2.000000 0.040042 0.0
          3.415202 -0.150710 0.0
          0.237258 -0.156254 0.0
          2.050000 -0.500000 0.0
          1.594548 -0.073583 0.0
          2.376117 -0.459742 0.0
          2.287765 0.0 0.0
          0.948241 -0.415865 0.0
          1.456979 -0.277831 0.0
          1.701925 -0.081290 0.0
          2.626095 -0.456586 0.0
          0.076960 -0.403911 0.0
          2.769014 -0.025058 0.0
          1.887755 -0.200929 0.0
          2.636601 -0.158460 0.0
          1.809994 -0.162110 0.0
          1.512521 -0.194667 0.0
          1.201953 -0.348253 0.0
          3.068733 -0.256137 0.0
          3.146306 -0.293887 0.0
          2.000000 0.379970 0.0
          1.024620 -0.378994 0.0
          2.402042 -0.420451 0.0
          3.191739 0.0 0.0
          3.318183 -0.239553 0.0
          1.959892 -0.153021 0.0
          2.215106 -0.090902 0.0
          2.213398 -0.134679 0.0
          2.946747 -0.307159 0.0
          2.664080 -0.195695 0.0
          2.250000 -0.500000 0.0
          1.336345 -0.021469 0.0
          1.523904 -0.413945 0.0
          1.942280 0.240128 0.0
          2.061752 0.0 0.0
          0.600000 -0.500000 0.0
          2.237172 -0.180178 0.0
          2.456257 -0.135941 0.0
          1.371788 -0.405041 0.0
          0.575387 0.0 0.0
          3.223922 -0.332303 0.0
          1.551288 -0.369855 0.0
          2.400000 -0.500000 0.0
          1.224251 -0.459109 0.0
          3.091151 -0.031527 0.0
          2.000000 0.160022 0.0
          1.616422 -0.417324 0.0
          0.575464 -0.351491 0.0
          0.350000 -0.500000 0.0
          2.842482 0.0 0.0
          1.839978 0.500000 0.0
          3.051884 -0.384119 0.0
          2.128212 -0.405041 0.0
          2.328900 0.0 0.0
          2.546154 -0.062255 0.0
          0.165212 -0.083126 0.0
          1.500000 0.419963 0.0
          0.636439 -0.181838 0.0
          1.102168 -0.341695 0.0
          1.837701 -0.203873 0.0
          0.347241 -0.127380 0.0
          3.026964 -0.460198 0.0
          1.572110 -0.039334 0.0
          1.675101 -0.339146 0.0
          1.329467 -0.313036 0.0
          1.059914 -0.166155 0.0
          1.689954 0.177494 0.0
          0.375893 -0.338390 0.0
          0.159617 -0.195067 0.0
          3.000000 -0.500000 0.0
          0.0 -0.351881 0.0
          2.986224 0.0 0.0
          0.413779 -0.023794 0.0
          2.928118 -0.132078 0.0
          0.036707 -0.463458 0.0
          0.615261 -0.446909 0.0
          2.896819 -0.309891 0.0
          0.298344 -0.375755 0.0
          2.528042 -0.458935 0.0
          1.774870 0.378285 0.0
          3.328996 -0.108268 0.0
          0.328900 0.0 0.0
          1.867716 0.268698 0.0
          1.500000 -0.500000 0.0
          1.938773 0.146305 0.0
          0.451488 -0.017987 0.0
          3.376632 0.0 0.0
          0.398198 -0.381239 0.0
          1.500000 0.140026 0.0
          1.556783 -0.284217 0.0
          0.667415 -0.062915 0.0
          3.454952 -0.277669 0.0
          2.891322 -0.223948 0.0
          2.351279 -0.422378 0.0
          1.899966 0.500000 0.0
          0.883486 0.0 0.0
          1.915339 -0.242485 0.0
          2.148354 -0.357847 0.0
          2.264789 -0.220214 0.0
          2.924704 -0.354104 0.0
          2.572913 -0.107710 0.0
          0.431563 0.0 0.0
          3.422191 -0.452560 0.0
          1.274869 -0.454632 0.0
          1.726577 -0.036568 0.0
          2.600991 -0.414053 0.0
          3.027393 0.0 0.0
          2.791508 -0.230207 0.0
          1.782135 0.267875 0.0
          1.950000 -0.500000 0.0
          2.565043 -0.200709 0.0
          3.135178 -0.421220 0.0
          0.204001 -0.284293 0.0
          2.469919 -0.293848 0.0
          1.517318 0.050041 0.0
          1.842779 -0.290256 0.0
          0.253899 -0.287491 0.0
          2.116223 -0.461766 0.0
          1.389490 -0.143860 0.0
          3.500000 -0.154389 0.0
          2.375550 -0.384914 0.0
          2.176072 -0.399461 0.0
          1.600372 0.300325 0.0
          2.092888 -0.274631 0.0
          1.150000 -0.500000 0.0
          2.897128 -0.101291 0.0
          0.550000 -0.500000 0.0
          1.947762 -0.370004 0.0
          0.534237 0.0 0.0
          3.050000 -0.500000 0.0
          1.590029 -0.156135 0.0
          0.181929 -0.457365 0.0
          3.500000 -0.302508 0.0
          0.603182 -0.309877 0.0
          0.102918 0.0 0.0
          3.273843 0.0 0.0
          2.678149 0.0 0.0
          1.627542 -0.333938 0.0
          1.002365 -0.335431 0.0
          0.475699 -0.344623 0.0
          1.933272 0.043801 0.0
          1.639858 -0.159356 0.0
          1.774371 0.053957 0.0
          2.342405 -0.258630 0.0
          1.207493 -0.261828 0.0
          2.528160 -0.023690 0.0
          3.096418 -0.297234 0.0
          3.266812 -0.459370 0.0
          2.151494 -0.060501 0.0
          2.037356 -0.191478 0.0
          2.750000 -0.500000 0.0
          0.359233 -0.207462 0.0
          1.350000 -0.500000 0.0
          0.698604 0.0 0.0
          3.345897 -0.281095 0.0
          2.164993 -0.226611 0.0
          1.540042 0.500000 0.0
          3.228444 -0.420238 0.0
          0.448104 -0.384308 0.0
          3.113049 -0.165848 0.0
          3.124096 -0.338222 0.0
          1.184816 -0.085847 0.0
          1.966615 0.007834 0.0
          0.098667 -0.364322 0.0
          1.560100 0.434227 0.0
          2.513776 0.0 0.0
          2.739776 0.0 0.0
          1.937670 -0.197802 0.0
          0.323245 -0.411196 0.0
          1.140151 -0.056344 0.0
          2.791122 -0.061039 0.0
          1.883429 0.311442 0.0
          1.323928 -0.399461 0.0
          2.286397 -0.020647 0.0
          1.185313 -0.217016 0.0
          1.923965 0.192074 0.0
          1.798067 -0.379705 0.0
          0.824143 -0.455526 0.0
          3.175000 -0.456699 0.0
          1.673633 -0.423870 0.0
          1.462643 -0.191478 0.0
          2.489402 -0.152435 0.0
          0.830490 -0.281071 0.0
          0.902556 -0.328704 0.0
          1.667561 0.132889 0.0
          3.186232 -0.128297 0.0
          2.850000 -0.500000 0.0
          2.625116 -0.370125 0.0
          1.877629 0.152270 0.0
          2.198251 -0.354649 0.0
          2.089585 -0.025337 0.0
          1.318366 -0.095374 0.0
          1.903620 0.366421 0.0
          2.465626 -0.204888 0.0
          1.609760 -0.200358 0.0
          0.664158 -0.140225 0.0
          2.275749 -0.459109 0.0
          3.500000 -0.351881 0.0
          2.000000 -0.500000 0.0
          0.121543 -0.065872 0.0
          1.524044 0.333667 0.0
          2.800000 -0.500000 0.0
          1.886771 0.017211 0.0
          1.534625 -0.239416 0.0
          0.559812 -0.024012 0.0
          1.315009 0.0 0.0
          0.409131 -0.210660 0.0
          0.459028 -0.213858 0.0
          1.977747 -0.028634 0.0
          2.700918 -0.410494 0.0
          3.094999 -0.083782 0.0
          3.500000 -0.500000 0.0
          0.850000 -0.500000 0.0
          2.452159 0.0 0.0
          2.251603 -0.024444 0.0
          1.761499 0.225278 0.0
          1.351646 -0.357847 0.0
          3.459644 -0.127275 0.0
          2.597427 -0.328856 0.0
          1.148665 -0.422199 0.0
          0.131261 -0.236187 0.0
          2.370123 -0.300244 0.0
          2.647331 -0.325739 0.0
          0.593380 -0.031530 0.0
          0.978502 -0.063714 0.0
          3.273820 -0.329105 0.0
          2.364584 -0.213818 0.0
          3.041196 -0.217347 0.0
          1.335459 0.0 0.0
          2.977319 -0.026951 0.0
          1.068437 0.0 0.0
          1.834219 0.185998 0.0
          2.501892 -0.418885 0.0
          2.000000 0.259997 0.0
          2.752189 -0.406397 0.0
          0.300000 -0.500000 0.0
          1.628397 -0.244234 0.0
          2.425530 -0.458861 0.0
          2.224048 -0.401720 0.0
          0.076765 -0.231944 0.0
          1.782154 -0.120260 0.0
          2.082299 0.0 0.0
          0.914370 -0.029772 0.0
          2.100000 -0.500000 0.0
          2.104634 -0.062860 0.0
          1.879520 0.056635 0.0
          0.250000 -0.500000 0.0
          2.110485 -0.143878 0.0
          2.575185 -0.372817 0.0
          1.525908 0.013107 0.0
          1.500000 0.020044 0.0
          2.814025 -0.101222 0.0
          3.479350 0.0 0.0
          1.555182 0.308897 0.0
          2.763886 -0.190073 0.0
          2.257482 -0.142615 0.0
          0.390533 0.0 0.0
          3.500000 -0.253135 0.0
          3.417701 0.0 0.0
          0.425798 -0.341467 0.0
          3.240563 -0.201075 0.0
          1.124502 -0.384104 0.0
          0.041359 -0.127910 0.0
          2.413779 -0.023794 0.0
          2.691719 -0.236440 0.0
          2.769304 -0.274659 0.0
          2.452121 -0.418809 0.0
          0.497957 -0.061022 0.0
          0.138168 -0.153574 0.0
          0.528160 -0.023690 0.0
          2.882426 -0.019715 0.0
          1.048640 -0.021736 0.0
          1.966760 -0.457355 0.0
          1.776921 -0.033658 0.0
          1.711758 0.222410 0.0
          2.703592 -0.028104 0.0
          2.996619 -0.303574 0.0
          0.780593 -0.277864 0.0
          1.379365 -0.316234 0.0
          1.089014 0.0 0.0
          2.318581 -0.029755 0.0
          2.991264 -0.220016 0.0
          1.859974 0.500000 0.0
          2.332313 -0.170013 0.0
          1.726198 -0.128857 0.0
          3.362568 -0.150351 0.0
          2.000000 0.359974 0.0
          0.863635 -0.153692 0.0
          0.758414 -0.233051 0.0
          3.052030 -0.059769 0.0
          0.790057 -0.112611 0.0
          2.000000 0.0 0.0
          1.055691 -0.111673 0.0
          2.914370 -0.029772 0.0
          1.904839 -0.072527 0.0
          0.743238 -0.107029 0.0
          1.578957 -0.329026 0.0
          1.660022 0.500000 0.0
          3.460004 -0.014387 0.0
          0.341662 -0.079383 0.0
          3.500000 -0.203762 0.0
          1.125983 -0.022814 0.0
          0.957962 -0.246498 0.0
          3.190483 -0.031270 0.0
          2.187228 -0.182281 0.0
          3.089014 0.0 0.0
          1.450000 -0.500000 0.0
          1.827030 -0.031086 0.0
          1.964684 0.284160 0.0
          0.977319 -0.026951 0.0
          0.209342 -0.108526 0.0
          3.500000 0.0 0.0
          0.410986 0.0 0.0
          1.929962 0.448463 0.0
          1.420950 -0.407843 0.0
          0.046438 -0.369971 0.0
          0.400000 -0.500000 0.0
          2.347924 -0.344733 0.0
          1.677456 -0.039904 0.0
          1.700000 -0.500000 0.0
          0.924977 -0.372119 0.0
          2.000000 0.500000 0.0
          1.198028 -0.423522 0.0
          1.012405 -0.178451 0.0
          0.875243 -0.370144 0.0
          0.667833 -0.029751 0.0
          1.571207 0.348534 0.0
          3.280038 -0.086279 0.0
          0.126637 -0.111015 0.0
          3.048640 -0.021736 0.0
          0.821851 0.0 0.0
          0.520918 -0.432765 0.0
          2.492306 -0.248613 0.0
          1.294389 0.0 0.0
          1.500000 0.100034 0.0
          0.333548 -0.163997 0.0
          1.593151 0.464884 0.0
          3.251641 -0.373916 0.0
          0.061752 0.0 0.0
          0.678149 0.0 0.0
          3.002015 -0.387763 0.0
          1.717933 -0.255793 0.0
          0.267260 0.0 0.0
          1.500000 0.240003 0.0
          2.597512 -0.021173 0.0
          1.834878 0.434812 0.0
          2.205611 0.0 0.0
          2.945129 0.0 0.0
          0.403595 -0.297022 0.0
          1.212235 0.0 0.0
          1.749966 0.008202 0.0
          1.500000 0.279992 0.0
          1.573562 -0.406149 0.0
          2.913328 -0.179879 0.0
          3.463293 -0.463458 0.0
          3.425632 -0.102581 0.0
          1.091151 -0.031527 0.0
          0.893965 -0.112715 0.0
          1.157595 -0.258630 0.0
          3.018825 -0.259172 0.0
          0.259438 -0.201066 0.0
          1.819982 0.500000 0.0
          2.214891 -0.223412 0.0
          1.171100 0.0 0.0
          2.736294 -0.156936 0.0
          0.846627 -0.023093 0.0
          3.379502 -0.025332 0.0
          1.006984 -0.035348 0.0
          1.500000 0.319982 0.0
          2.776751 -0.451601 0.0
          2.473990 -0.458545 0.0
          2.863750 -0.183754 0.0
          0.0 -0.154389 0.0
          1.047841 0.0 0.0
          1.000000 -0.500000 0.0
          0.882173 -0.020639 0.0
          1.672351 0.046637 0.0
          2.978502 -0.063714 0.0
          1.230785 -0.021736 0.0
          1.484737 -0.236231 0.0
          1.397082 0.0 0.0
          1.788046 -0.207004 0.0
          1.596693 0.085490 0.0
          0.263437 -0.114357 0.0
          3.218384 -0.245894 0.0
          0.508926 -0.217056 0.0
          1.163134 -0.172205 0.0
          2.977285 -0.470289 0.0
          1.602254 0.165395 0.0
          0.447561 -0.057014 0.0
          0.802824 -0.322718 0.0
          2.000000 0.020044 0.0
          2.000000 0.080037 0.0
          3.090914 -0.211352 0.0
          1.384906 -0.229810 0.0
          0.164541 0.0 0.0
          0.831960 -0.055713 0.0
          1.340387 -0.140265 0.0
          2.675000 -0.456699 0.0
          1.724530 -0.175240 0.0
          1.909994 -0.156190 0.0
          0.852660 -0.325808 0.0
          0.088893 -0.144158 0.0
          2.493221 0.0 0.0
          2.500355 -0.063542 0.0
          3.458563 -0.423651 0.0
          1.440341 -0.146581 0.0
          1.253377 0.0 0.0
          0.354017 -0.028734 0.0
          0.625361 -0.354689 0.0
          1.982683 0.150024 0.0
          1.930891 -0.035369 0.0
          1.656999 0.471955 0.0
          0.608721 -0.223452 0.0
          3.029006 -0.418025 0.0
          1.107697 -0.255432 0.0
          1.179774 -0.303442 0.0
          3.006779 0.0 0.0
          0.126385 -0.322709 0.0
          1.529061 -0.325829 0.0
          1.290906 -0.137190 0.0
          0.154103 -0.281095 0.0
          1.933057 0.319478 0.0
          1.135416 -0.213818 0.0
          1.174517 -0.458204 0.0
          1.500000 0.459958 0.0
          1.264597 -0.086209 0.0
          3.403613 -0.067817 0.0
          0.226180 -0.329105 0.0
          0.025339 -0.041452 0.0
          0.725436 -0.361388 0.0
          3.500000 -0.401254 0.0
          2.952460 -0.394361 0.0
          0.472607 0.0 0.0
          2.447561 -0.057014 0.0
          1.407088 -0.274623 0.0
          0.167872 -0.411673 0.0
          1.047874 -0.418862 0.0
          1.506889 -0.281023 0.0
          1.113236 -0.169007 0.0
          2.724945 -0.364264 0.0
          0.553298 -0.306549 0.0
          1.429262 -0.319432 0.0
          0.525646 -0.347510 0.0
          3.262895 -0.158648 0.0
          3.458713 0.0 0.0
          2.719412 -0.277901 0.0
          1.300000 -0.500000 0.0
          2.719171 0.0 0.0
          1.969857 0.112197 0.0
          1.275952 -0.401720 0.0
          3.421585 -0.234945 0.0
          2.630195 -0.024109 0.0
          1.079981 -0.297009 0.0
          2.700000 -0.500000 0.0
          1.855641 0.103233 0.0
          0.558823 -0.220254 0.0
          1.523722 0.372464 0.0
          2.061344 -0.063061 0.0
          1.650614 0.004406 0.0
          0.461586 -0.139355 0.0
          1.439622 -0.063325 0.0
          2.801396 0.0 0.0
          1.734110 0.267127 0.0
          1.875647 0.196879 0.0
          0.554871 0.0 0.0
          1.500000 0.339978 0.0
          2.000000 0.419963 0.0
          2.534237 0.0 0.0
          2.059659 -0.146581 0.0
          2.941194 -0.220488 0.0
          1.241080 -0.136717 0.0
          2.824765 -0.358264 0.0
          1.517316 0.250000 0.0
          1.598223 0.428206 0.0
          1.753275 -0.077838 0.0
          1.050000 -0.500000 0.0
          3.460694 -0.176842 0.0
          2.877554 -0.453339 0.0
          1.438248 0.0 0.0
          1.779992 0.500000 0.0
          2.383548 -0.023438 0.0
          2.636992 0.0 0.0
          1.229672 -0.306640 0.0
          1.741120 -0.211487 0.0
          1.897176 0.230124 0.0
          2.780829 0.0 0.0
          0.331515 -0.249075 0.0
          0.634039 -0.020443 0.0
          2.000000 0.399966 0.0
          3.178404 -0.410520 0.0
          0.930275 -0.287621 0.0
          1.699917 0.005081 0.0
        </DataArray>
      </Points>
      <Cells>
        <DataArray type="Int32" Name="connectivity" format="ascii">
          0 292 1200 425 885 820 806 60 1082 956 999 606 382 603 1051 697 1007 438 642 1207 1154 458 475 79 79 475 1040 348 949 961 961 949 237 1200 417 0 1051 508 382 678 847 312 559 355 301 446 1007 319 757 847 678 438 1170 697 611 1164 652 652 1058 611 112 885 425 1082 60 692 53 480 908 659 1194 959 1054 313 306 727 1063 652 968 1094 1225 469 554 868 301 355 598 652 1063 1058 713 1226 242 213 1229 211 732 26 398 446 988 1007 366 600 501 707 1082 692 425 458 112 1 527 633 692 548 707 458 79 112 398 99 732 1094 363 1225 956 606 1223 800 455 504 480 1013 908 504 1120 800 931 2 1083 330 157 1195 128 385 169 170 1146 1175 685 343 910 385 447 169 393 209 1052 863 1143 389 530 1038 619 27 355 559 495 49 1110 492 417 867 1236 913 423 896 1037 1233 934 402 520 192 186 100 1039 1124 998 1097 812 744 413 33 150 799 379 199 320 313 1054 180 137 223 75 716 588 298 219 1114 1024 840 1080 463 1031 751 217 413 902 1213 1066 1020 337 213 89 401 242 452 106 721 700 1141 1039 998 210 669 981 869 853 266 347 1097 744 321 413 150 41 1134 854 478 219 585 996 799 199 1254 340 1230 699 701 408 1106 721 217 505 213 1247 802 242 1009 476 49 64 774 941 108 439 254 748 103 615 187 577 218 376 70 1256 535 1250 1220 61 525 1135 245 839 231 1185 612 659 1101 377 491 1115 607 407 42 807 991 146 1131 753 591 570 1071 791 1107 468 921 904 1043 450 868 554 181 169 447 903 821 581 318 849 1176 593 998 1124 1047 744 812 1073 199 379 649 150 33 1163 1115 491 507 42 407 341 146 991 651 1101 659 973 245 1135 453 1185 231 874 405 157 330 954 59 969 791 1071 513 591 753 1117 649 379 1148 1163 33 395 1073 812 255 1047 1124 13 921 468 496 450 1043 1216 903 447 442 593 1176 503 318 581 354 1017 747 882 543 523 249 270 1204 182 204 705 43 707 548 800 249 523 428 899 1204 270 653 53 1160 308 1104 322 668 205 123 145 20 432 484 1076 212 710 559 233 713 242 126 540 213 211 548 455 800 1154 44 642 768 522 1159 1018 882 201 193 124 308 82 882 502 1160 522 264 409 167 756 222 648 345 824 394 698 502 599 1102 1235 320 1257 788 320 1054 589 1225 679 322 221 621 114 693 856 372 1178 5 123 1178 813 702 1180 1065 1234 968 220 856 623 46 1054 306 737 473 623 145 282 306 484 1065 357 410 1129 598 818 686 357 710 461 290 1136 1248 301 295 233 301 370 212 153 1001 432 1241 1111 39 153 269 34 1241 1119 574 747 1017 1232 999 956 48 270 182 543 249 870 969 59 1137 362 542 72 946 493 925 72 936 362 925 1258 946 182 779 48 870 23 543 1007 988 438 1 378 527 706 754 226 86 1246 417 308 124 1104 306 1076 484 623 20 145 357 559 710 481 285 254 459 991 509 740 843 803 1052 777 393 367 343 1223 1223 606 367 125 727 468 531 165 328 601 1194 659 217 85 413 414 524 421 721 85 217 329 157 1026 421 466 414 226 841 706 312 847 27 43 843 204 53 1217 480 27 149 312 598 355 1113 859 1219 464 262 1229 213 242 1226 958 1040 475 421 288 681 960 1137 59 617 2 514 1083 480 1217 852 502 130 599 421 524 1040 949 805 237 262 506 1229 132 1060 332 468 858 125 959 683 659 515 927 643 1226 1012 958 882 130 502 960 313 288 1137 617 1002 910 343 367 968 1021 1094 464 527 859 87 1194 601 1010 541 390 226 754 687 1048 602 373 319 2 446 867 417 1200 86 417 492 501 149 366 59 1246 86 62 343 685 379 683 546 546 506 379 366 1180 600 1195 1123 330 129 644 586 814 281 947 722 595 1219 129 743 644 281 717 947 204 331 705 515 426 927 111 597 135 532 4 293 241 583 1220 1061 177 594 293 654 532 1223 1013 480 99 1132 16 642 364 1207 1002 456 1137 925 915 422 131 179 362 893 165 531 777 63 393 371 1112 485 749 115 817 163 10 716 1171 191 933 755 500 391 49 481 254 602 382 373 263 411 175 640 508 688 925 493 915 179 542 362 16 323 99 360 982 745 1098 1133 356 1223 343 1013 947 717 533 533 18 947 131 1204 899 428 523 422 204 843 740 803 843 171 1220 1112 241 541 1125 390 104 938 780 148 727 652 840 712 1157 1031 714 1202 1219 595 464 1086 63 777 814 1120 504 899 179 131 422 915 428 144 73 1004 529 582 1174 504 281 814 239 1060 132 1237 36 723 1026 157 22 812 978 55 1124 332 937 1113 658 9 537 641 695 977 456 1002 829 719 592 348 554 949 1050 465 733 929 753 937 111 1071 55 592 1182 829 754 12 687 135 1071 111 414 466 586 294 331 14 470 285 1067 586 644 414 132 1135 239 1057 231 687 954 1246 59 695 331 537 688 508 1051 382 1023 603 1004 73 185 611 1125 541 541 1164 611 124 932 1104 57 85 1197 930 1179 976 716 10 151 375 1179 930 97 278 843 316 801 943 481 628 1078 871 580 1218 1006 720 536 533 743 129 501 600 561 440 846 1138 666 664 1142 97 843 43 537 945 641 712 265 1157 714 670 1202 1159 930 1059 1166 456 977 129 18 533 1218 680 871 536 81 1006 594 177 893 557 60 806 820 885 609 949 554 469 482 429 596 1170 1030 697 111 953 597 385 135 447 413 967 33 1172 576 469 411 1081 167 705 331 695 239 1135 992 687 231 1145 447 10 163 9 490 1113 592 91 879 83 916 396 1229 582 529 49 628 481 1013 343 62 723 36 1226 1099 21 171 0 1155 292 537 331 294 14 331 204 592 719 91 641 945 271 171 278 1099 135 597 1095 977 758 1166 417 1246 0 616 88 271 1066 157 405 104 323 938 843 278 171 1157 369 1035 1202 576 1172 396 916 752 600 1242 561 1186 2 931 446 2 1186 822 1172 469 1245 985 769 642 44 929 87 753 929 1095 161 848 978 426 515 890 1021 419 306 1190 1076 623 415 20 357 366 559 451 85 57 152 606 206 367 606 152 279 660 415 967 1096 823 398 1132 99 747 130 882 227 583 732 1078 628 823 512 830 353 602 176 382 209 1167 1052 487 1243 1008 415 1156 279 1095 10 447 205 316 943 332 642 937 978 515 55 1138 846 1000 158 664 666 88 1092 271 967 85 451 254 285 470 151 1195 1134 932 363 561 125 1063 727 491 1061 594 407 1010 390 1166 758 778 581 1048 373 1176 470 1067 777 872 1086 1043 227 732 324 265 712 640 670 714 509 443 459 271 945 616 841 1121 706 713 723 1226 1229 529 211 459 116 991 402 104 780 186 727 148 1227 353 1086 848 10 1095 433 712 840 1249 714 1031 1013 970 908 135 1095 447 1243 872 777 967 823 33 561 1242 932 1041 1243 487 1008 1243 1052 429 1091 596 576 949 469 314 578 1099 99 323 104 403 15 689 609 885 32 920 60 557 26 782 398 374 458 551 758 873 778 532 936 72 946 1258 879 665 121 209 551 403 374 471 93 339 1190 109 1076 366 27 559 578 21 1099 551 15 403 642 929 937 515 111 55 574 830 512 643 953 515 339 93 864 689 759 403 864 230 339 72 4 532 879 91 946 781 230 864 403 759 333 960 681 9 759 93 333 1151 285 481 781 274 827 1086 353 63 568 330 283 555 57 750 333 93 471 597 161 1095 898 962 909 1007 708 319 1197 85 721 1190 939 109 827 230 781 909 962 665 783 274 188 1035 500 1157 1172 191 1202 898 909 117 827 274 783 283 985 887 188 274 571 1168 274 781 509 991 972 571 274 1168 898 117 736 571 1168 160 121 1167 209 781 864 935 939 850 109 1190 960 939 352 962 898 673 935 627 971 352 784 1052 1243 777 935 864 627 909 393 117 31 352 971 784 352 441 793 935 673 230 519 883 960 349 939 339 230 883 827 519 230 633 23 1 1083 779 931 909 209 393 960 9 349 31 962 352 909 665 209 9 658 349 273 1174 886 1015 1237 690 707 236 1082 1187 694 420 420 694 236 1082 236 178 178 236 1210 948 1174 273 690 1237 917 420 236 707 1206 694 1187 658 757 349 1147 776 1206 236 694 1210 1206 776 694 138 15 499 95 891 92 891 15 138 499 15 551 92 891 138 147 891 95 1046 1203 518 905 144 1064 1210 1203 1046 299 418 1188 1188 1239 299 1064 144 857 518 1203 1162 368 65 942 1072 795 276 1130 1072 923 1188 418 1165 562 519 552 942 65 1154 299 65 368 804 1072 1130 883 519 562 1165 418 739 552 519 1149 923 1072 760 1239 65 299 392 418 299 477 834 253 952 834 477 253 279 477 804 795 1072 662 834 952 334 418 392 1002 617 172 952 136 662 986 990 567 1208 1002 172 133 250 1032 567 248 986 172 342 1208 986 248 725 1208 342 351 725 248 486 351 342 1214 604 725 486 1144 136 309 486 881 604 1214 250 351 472 296 98 990 250 567 1032 250 1214 567 250 133 1085 709 989 253 556 279 98 296 881 98 881 1100 984 940 806 309 136 952 172 617 1240 1240 617 86 989 139 1085 1100 881 486 729 1218 326 645 136 1144 1085 139 498 386 498 96 3 386 96 940 557 806 498 139 96 66 729 326 67 1218 729 820 889 865 326 940 984 989 296 472 604 881 256 617 59 86 1251 66 38 68 3 96 957 889 1006 865 889 957 820 609 889 1251 729 66 38 66 746 957 1006 386 709 296 989 351 250 990 325 556 253 764 556 325 1218 940 326 297 3 68 386 474 498 662 136 30 448 207 544 1251 785 729 957 386 3 587 207 448 386 1006 474 474 51 498 957 3 427 764 890 556 746 66 832 785 67 729 912 1184 1251 1251 1184 785 51 1085 498 1051 603 275 785 539 67 275 603 866 51 888 1085 253 834 1042 911 139 989 761 696 56 74 1099 162 162 1211 74 637 118 614 74 1211 907 168 696 761 888 709 1085 479 139 911 907 1211 550 1042 834 650 881 296 256 1116 118 637 159 928 521 545 1116 637 550 118 907 159 879 189 767 835 566 614 118 550 566 17 767 835 1116 566 633 527 494 1128 47 770 521 928 914 189 928 159 566 1116 545 35 228 1044 228 704 1044 888 462 709 767 17 457 914 704 521 770 47 1151 422 444 1105 1027 1116 835 586 696 944 404 792 229 214 359 107 796 35 1044 445 47 1128 35 1108 228 553 310 825 867 1200 35 521 704 228 901 1209 815 922 792 404 867 796 844 1255 17 566 252 327 674 1044 704 1127 1105 444 993 875 200 547 342 1033 1214 674 327 1259 234 335 618 547 200 127 464 595 922 950 327 252 107 359 304 844 796 235 867 35 796 1127 704 786 691 925 1105 94 1033 875 1211 1209 550 184 1045 950 28 682 963 229 792 412 1036 438 836 462 256 709 206 647 983 1027 118 1116 142 17 1255 825 310 1181 344 1053 634 618 335 684 307 796 1044 875 632 1022 1056 1045 184 494 527 464 1214 1033 94 29 643 516 671 310 553 430 773 397 547 127 860 344 595 722 955 990 986 486 248 174 251 1209 901 412 634 1212 993 444 238 238 444 715 918 456 1222 564 567 133 460 855 835 994 1051 275 127 200 110 963 682 125 1100 486 174 272 181 878 661 1055 202 674 1259 1070 1151 481 1078 235 796 307 1128 770 762 819 592 159 412 344 634 715 633 494 880 734 1189 97 43 1177 516 927 1161 1161 927 37 625 778 406 208 725 604 1200 292 1108 1100 348 961 528 1208 351 1192 311 892 388 6 336 483 845 457 845 767 457 1222 456 1166 1053 467 848 961 237 675 400 787 742 462 105 256 786 261 1161 1189 1186 287 819 159 521 105 604 256 876 678 1231 1231 534 325 534 731 764 1186 931 434 966 1040 877 730 504 102 1181 251 214 78 359 214 919 1255 545 906 335 234 901 1177 78 238 494 922 705 1198 267 1259 951 563 94 875 1022 235 307 1238 631 1152 29 550 1209 629 1108 819 228 237 688 675 98 1100 961 564 133 272 492 867 844 1016 986 725 528 977 1208 460 532 855 300 533 1087 994 688 1051 1191 1183 1126 183 1207 833 383 1070 618 494 464 922 183 40 684 229 412 1028 1255 566 545 365 88 616 955 528 990 977 1002 1208 786 1161 995 786 914 261 1196 457 884 855 1027 835 166 789 906 1074 692 635 358 1192 892 247 284 1244 140 365 620 14 204 740 803 171 894 164 293 1084 816 72 1003 763 899 257 54 48 317 174 878 348 1181 1224 251 445 1128 142 1259 327 951 304 672 1056 28 107 304 28 963 825 127 110 844 445 142 1255 880 1196 884 880 1189 287 1177 43 267 43 705 267 815 1209 1211 855 926 1027 388 336 184 1181 214 107 534 678 312 397 964 8 911 989 472 235 1238 860 141 404 229 993 238 404 892 311 247 174 248 564 133 1032 797 677 674 1070 336 6 437 307 1044 1127 631 29 516 1153 614 629 1153 975 614 238 922 404 901 815 1177 1186 434 287 438 988 836 925 422 1105 483 131 362 1070 234 618 215 682 28 963 125 286 314 1099 74 564 272 878 1154 1207 1191 983 876 1231 1049 706 1238 974 545 637 1128 762 24 383 677 1070 202 1055 388 983 647 876 534 764 325 286 459 553 56 421 895 105 208 604 307 1127 1049 1127 786 995 671 741 173 133 797 272 424 398 797 1070 1259 234 202 388 252 215 304 1056 547 860 1139 1231 325 1042 127 844 235 1224 629 251 614 550 629 975 637 614 974 919 545 141 808 993 1259 563 234 110 492 844 770 1151 1078 808 1105 993 238 715 494 35 1200 1108 789 517 906 705 695 1198 695 641 416 975 974 637 975 584 974 336 215 1056 534 312 731 770 1078 143 1191 1207 183 28 825 107 825 1181 107 261 631 516 975 449 584 1128 24 142 143 1036 836 731 501 84 871 811 258 365 616 620 215 28 304 963 553 825 643 927 516 880 287 1196 761 56 471 174 564 878 875 547 632 677 202 674 677 661 202 184 950 252 629 1209 251 24 884 142 24 880 884 143 836 762 110 663 1240 731 84 764 501 561 84 895 333 471 819 521 228 695 416 1198 564 248 567 983 1231 1042 1231 678 534 40 383 618 1055 6 388 963 286 553 1189 446 1186 926 74 907 789 198 517 40 618 684 1152 229 1028 1036 1170 438 208 1016 725 460 835 767 1032 94 424 1183 655 1126 56 895 471 895 374 333 897 829 837 969 1137 918 656 778 625 810 773 430 8 964 798 798 536 622 76 414 52 1215 871 258 620 616 980 384 537 294 472 98 675 1100 174 348 1032 424 797 1224 1153 629 563 906 234 815 97 1177 374 403 333 563 166 906 358 811 1192 202 252 674 388 184 252 261 516 1161 815 162 97 663 1033 342 641 361 416 183 833 40 919 445 1255 1177 267 78 1055 611 6 1127 995 1049 1152 1028 29 1224 173 1153 1196 483 457 166 158 789 1137 456 918 1005 773 810 336 1056 184 761 471 339 258 811 358 798 964 536 911 994 275 632 16 1022 1191 183 1183 183 684 1183 483 362 845 922 595 792 926 314 74 251 901 214 901 78 214 1153 449 975 94 1022 424 173 449 1153 1103 47 445 592 879 159 911 472 994 336 437 215 1196 569 483 129 586 944 641 271 361 631 787 400 786 704 914 919 1103 445 412 792 344 198 826 517 517 826 1221 1166 778 656 110 1240 492 459 671 553 380 870 560 549 428 488 197 946 431 232 0 657 1222 1166 656 625 406 639 224 1005 810 430 397 8 1011 112 771 815 1211 162 926 907 1027 247 311 284 672 1045 1056 884 17 142 127 235 860 412 1212 1028 770 143 762 942 1154 1191 344 722 1053 742 189 691 528 351 990 437 682 215 105 1000 208 684 1221 1183 499 551 425 203 387 1150 483 569 131 675 688 994 942 1191 1126 1161 37 995 1152 141 229 287 569 1196 907 118 1027 307 1049 1238 325 253 1042 931 182 434 173 310 671 1016 955 986 1053 848 634 808 742 691 544 129 944 472 675 994 98 961 675 457 17 884 845 460 767 952 477 203 983 1042 650 808 691 1105 1240 86 492 1033 200 875 561 1094 84 1032 1214 94 141 993 404 1221 335 517 761 339 883 309 952 203 663 342 172 551 458 425 684 335 1221 1181 310 1224 715 543 633 1221 826 655 663 172 1240 584 315 974 173 741 449 267 122 78 734 988 1189 517 335 906 547 1139 632 1183 1221 655 304 359 672 141 400 808 110 200 663 122 11 672 974 315 919 808 400 742 1224 310 173 78 122 359 919 315 1103 631 400 1152 327 1169 951 434 569 287 792 595 344 499 425 820 1198 122 267 944 696 168 787 928 742 361 1158 416 836 988 734 1212 738 1028 479 911 275 942 1126 912 96 139 479 168 761 883 448 544 944 206 983 650 309 203 1150 29 738 643 663 200 1033 806 1082 178 672 11 1045 1198 11 122 1152 400 141 416 11 1198 914 787 261 359 122 672 261 787 631 24 734 880 836 734 762 742 928 189 361 1169 1158 1045 1158 950 1028 738 29 416 1158 11 914 928 787 1158 1169 950 11 1158 1045 950 1169 327 1189 988 446 762 734 24 722 769 1053 1053 769 467 984 806 178 448 944 168 168 883 562 650 834 662 832 66 326 178 1210 1046 368 942 912 309 1150 624 912 1251 38 499 820 865 479 275 866 68 96 479 152 206 650 866 603 804 832 326 984 368 912 38 865 957 427 984 178 1046 1144 309 624 68 479 866 448 168 562 152 650 662 392 299 368 814 947 646 138 499 865 866 804 1130 826 1029 630 1144 624 1227 152 662 30 392 368 38 154 814 646 435 207 587 832 984 1046 1227 1086 1260 1109 185 435 138 865 427 68 866 1130 587 448 562 1126 1184 912 655 1184 1126 1144 1227 1260 92 138 427 959 1188 1165 367 152 30 420 707 800 392 38 746 427 3 297 154 646 905 1109 435 587 297 68 1130 587 562 552 832 1046 518 84 890 764 826 630 655 630 1029 539 1094 890 84 785 630 539 1184 630 785 256 296 709 198 1029 826 655 630 1184 92 427 297 910 367 30 420 800 809 1109 587 552 746 832 518 30 136 645 154 905 1064 546 959 1165 645 1144 1260 297 1130 923 334 392 746 92 297 923 1187 420 809 645 1260 1118 1252 1109 552 334 746 518 809 154 1064 760 1072 276 910 30 645 276 752 1015 886 546 1165 95 92 923 1252 552 1149 334 518 1162 886 1165 739 739 418 334 910 645 1118 1149 519 827 1187 809 1064 760 276 1015 95 923 760 273 886 739 760 1015 690 726 1252 1149 1149 827 783 739 334 1162 857 144 31 685 910 1118 1187 1064 857 857 31 971 95 760 690 726 1149 783 1075 62 685 1008 1052 726 273 739 1162 685 1118 1041 1162 1203 724 1206 1187 857 689 891 147 1075 685 1041 147 95 690 1206 857 971 273 1162 724 1008 726 783 303 689 147 1008 783 188 1147 1206 971 1075 1041 487 948 273 724 147 690 917 689 15 891 694 776 1210 724 776 1147 1210 776 1203 303 147 917 1147 971 784 260 1075 487 948 724 1147 487 1008 188 673 627 303 1203 776 724 948 1147 784 195 1174 948 260 487 188 673 303 917 917 1237 69 1168 781 935 260 188 571 673 917 69 195 948 784 793 673 69 1062 260 571 195 784 441 441 352 898 1168 935 793 937 753 218 55 1071 615 1062 571 160 280 195 441 793 69 489 736 117 772 441 898 736 160 1168 793 939 454 850 349 454 939 303 759 689 482 596 239 594 893 841 956 1223 480 160 793 489 736 772 558 280 441 736 626 1062 160 757 454 349 769 667 1245 627 759 303 219 916 83 528 758 977 384 945 537 616 945 980 822 469 868 778 873 406 271 1092 361 1169 1092 951 134 1081 411 627 93 759 594 841 226 482 239 992 226 687 1145 943 1232 956 956 480 852 864 93 627 795 1023 176 626 160 489 280 736 558 955 758 528 980 945 384 361 1092 1169 697 1030 1140 1062 7 260 1075 7 62 25 1083 838 511 319 45 711 697 1140 965 1 1199 887 1245 1068 1025 859 900 716 151 1134 860 1121 1139 706 1121 1238 1041 872 1243 812 55 277 1124 937 1069 324 828 315 1118 872 1041 1086 872 1260 822 868 241 938 1019 119 1096 718 823 374 475 458 599 130 387 677 429 661 54 270 48 899 270 257 870 249 560 549 249 428 1219 667 722 112 79 771 966 79 1040 1074 548 692 665 1004 185 1157 500 853 1202 191 669 16 328 1019 522 930 1159 390 482 992 594 226 1145 373 640 714 1067 324 712 732 99 104 124 156 932 943 956 852 932 156 50 260 7 1075 1055 1125 611 1140 1030 555 366 149 27 697 708 1007 1092 1088 951 1238 1121 860 211 280 558 626 489 713 873 575 406 1260 872 1118 563 1088 166 88 1088 1092 1220 583 227 657 1246 954 1188 1194 1239 393 63 117 812 1057 978 1124 132 332 955 873 758 908 970 375 527 378 859 1151 610 285 383 429 677 257 270 54 560 249 549 167 1081 288 451 1096 967 771 79 966 851 548 1074 947 19 646 1244 666 1142 440 1138 224 185 121 665 887 985 1245 182 1204 434 569 1204 131 422 523 444 715 523 543 504 455 102 421 475 895 285 610 1067 1239 44 65 878 554 348 166 775 158 611 1058 6 1212 597 738 661 1125 1055 1000 575 208 467 151 848 419 338 890 1199 1173 58 765 305 25 387 1156 415 48 779 305 1173 23 870 315 828 1103 20 419 1241 1103 610 47 913 1172 822 1037 1035 509 822 241 243 938 119 340 1016 873 955 489 723 713 211 529 280 181 120 868 951 1088 563 0 1246 657 706 510 754 754 510 37 859 113 1219 1237 723 69 195 529 1174 20 660 419 763 179 899 428 915 488 959 1194 1188 1040 524 877 76 524 414 241 676 583 800 1120 809 154 1120 814 1094 1021 890 851 455 548 632 328 16 775 664 158 1142 664 140 639 846 440 117 63 772 1039 132 1124 1097 1057 812 398 782 797 272 782 181 1125 638 390 732 583 26 1000 846 575 1170 451 1030 1088 775 166 958 1012 137 19 831 646 306 313 1190 1016 575 873 586 466 696 56 466 421 328 165 1019 72 542 1003 197 493 946 1174 582 886 730 281 504 682 1063 125 485 1112 636 731 149 501 314 654 293 158 1205 789 105 1034 1000 387 130 1150 1015 36 1237 407 390 992 491 594 1145 581 373 714 1176 1067 712 1043 732 104 415 693 387 346 191 1171 1201 500 755 205 943 852 574 512 747 284 666 1244 224 1138 1005 32 497 609 557 436 920 817 115 735 434 1204 569 444 523 715 276 396 752 293 578 314 102 455 851 369 1228 741 908 375 930 895 475 374 943 801 1253 319 514 2 414 644 52 688 565 640 415 660 20 265 605 1228 460 936 532 879 1258 189 362 936 845 691 1258 925 533 717 1087 962 1004 665 65 44 1154 181 554 878 999 90 647 6 1058 437 394 363 932 799 683 379 976 626 713 211 558 196 207 19 544 385 1071 135 424 1132 398 16 1132 1022 1207 364 833 25 305 1083 1 1173 1199 144 1004 31 365 775 88 208 575 1016 804 1023 795 596 1091 833 300 743 533 293 4 1084 816 4 72 946 91 431 1150 747 624 558 830 196 976 1179 626 635 60 920 32 885 1011 1012 916 137 88 775 1088 109 801 1076 745 982 579 602 302 176 1062 1179 7 979 1122 380 317 842 268 58 1122 979 268 842 765 722 667 769 467 1195 151 823 718 1078 47 610 1151 897 719 829 532 654 855 926 654 314 1194 77 1239 356 1133 244 859 378 900 965 378 1 459 443 671 176 794 795 943 1253 1232 1113 490 608 1109 121 185 829 1182 292 848 161 634 1218 580 940 889 720 1006 544 18 129 164 578 293 741 1228 449 819 1182 592 292 1182 1108 7 1179 375 292 1155 829 279 1156 477 203 1156 387 546 683 959 1049 510 706 37 510 995 1078 718 143 1099 278 162 365 664 775 733 465 862 833 1091 40 171 21 894 829 1155 837 232 1155 0 413 85 967 1052 1167 726 572 628 49 1036 1096 1170 646 831 905 666 1205 158 1000 1034 1138 575 846 406 511 514 319 1083 514 838 1245 113 1068 1025 113 859 748 470 849 108 1048 821 61 227 904 535 1093 1107 330 985 283 658 847 757 1175 601 612 286 116 459 850 1253 109 389 1010 607 619 1061 377 382 508 373 1157 265 369 1202 670 576 69 723 489 280 529 195 947 18 19 206 999 647 1014 179 763 488 915 538 37 12 754 176 1023 382 877 524 76 1058 1063 437 809 1120 154 207 831 19 1139 328 632 597 953 738 678 190 757 515 953 111 711 708 697 319 708 45 196 830 574 1030 451 57 265 1228 369 140 664 365 406 846 639 87 77 1194 623 693 415 357 1180 366 383 1091 429 1212 161 597 769 1123 467 1190 313 960 1113 355 658 797 782 272 1014 542 179 915 493 538 1146 601 1175 1245 667 113 1038 1061 619 1143 1010 389 284 613 1205 1034 790 1005 1019 323 16 833 1060 596 1081 465 490 831 73 905 1256 1093 535 1220 227 61 941 1048 108 254 470 748 288 313 320 1139 531 328 985 1123 769 1170 1096 451 927 426 37 1143 541 1010 1146 87 601 752 36 1015 941 602 1048 696 466 56 311 613 284 1005 790 773 1003 542 1014 538 493 197 886 582 546 83 302 381 225 281 730 893 531 841 747 512 624 437 1063 682 1060 364 332 652 1164 701 435 831 207 5 1217 653 269 316 668 596 1060 239 312 149 731 789 1205 198 462 1034 105 284 1205 666 1138 1034 1005 373 508 640 555 1030 57 833 364 1060 311 987 613 790 861 773 841 531 1121 62 970 1013 332 364 642 225 717 281 1035 289 509 905 73 144 795 396 276 490 681 1081 387 693 599 908 930 522 661 638 1125 1205 613 198 462 790 1034 63 353 772 561 363 1094 913 822 243 1037 509 972 219 83 381 1031 1202 669 840 1157 853 780 938 340 148 652 701 277 55 615 1069 937 218 1192 987 311 773 861 397 435 73 831 938 323 1019 52 644 240 1178 1217 5 153 316 269 845 936 460 189 1258 691 1087 717 225 315 605 324 198 613 1029 888 790 462 1232 90 999 931 779 182 543 23 633 852 1217 1178 932 1242 1104 556 338 279 1192 1090 987 861 216 397 1121 531 1139 900 378 965 929 77 87 644 743 240 7 970 62 353 830 772 1066 291 1020 106 194 721 394 932 50 167 288 320 598 1113 608 1241 419 290 137 916 219 1022 1132 424 429 638 661 565 805 670 613 987 1029 888 861 790 31 1004 962 1215 436 871 536 497 622 1150 130 747 1146 753 87 811 1090 1192 397 216 964 603 1023 804 648 465 1081 240 743 300 375 970 7 467 1123 1195 1039 1135 132 1097 231 1057 606 999 206 185 73 435 1012 36 752 1084 4 816 431 91 526 1226 36 1012 1029 987 539 51 861 888 692 60 635 1011 885 112 811 680 1090 216 81 964 941 982 602 1143 1133 541 482 638 429 658 355 847 847 355 27 647 590 876 838 514 511 738 953 643 1076 801 153 1068 113 1025 1225 363 394 91 719 526 330 1123 985 51 216 861 987 1090 539 741 289 369 659 683 799 1 23 1173 305 779 1083 624 512 1227 612 601 659 871 680 811 964 81 536 607 1010 407 377 1061 491 1239 77 44 904 227 1043 1107 1093 468 849 470 1176 821 1048 581 1253 90 1232 113 667 1219 582 506 546 890 338 556 1067 828 324 526 719 897 590 190 876 474 216 51 539 1090 67 855 654 926 390 638 482 602 982 302 671 443 741 541 1133 1164 89 213 540 126 242 401 1110 49 254 913 243 423 1037 972 1233 219 381 1114 850 90 1253 419 1021 290 210 1031 669 869 840 853 41 716 1134 478 137 219 699 148 701 1254 780 340 262 213 505 1009 242 958 572 49 476 277 615 103 1069 218 577 402 780 520 186 148 100 958 137 180 163 716 75 433 840 1024 1249 1031 463 622 497 32 920 436 1215 1090 680 67 474 81 216 1252 121 1109 868 676 241 1057 766 978 1077 1135 525 997 231 839 972 991 807 218 753 1131 615 1071 570 634 161 1212 876 190 678 940 580 557 609 720 889 703 405 568 750 1197 71 369 289 1035 1173 1122 58 765 842 305 454 590 850 874 231 1097 453 1135 1039 973 659 799 67 680 1218 1006 81 474 341 407 1077 507 491 997 651 991 1256 246 578 164 449 1228 584 380 1122 870 48 842 317 1108 1182 819 1117 753 1146 513 1071 385 823 628 33 1148 379 262 395 33 572 503 1176 433 354 581 1249 255 812 277 13 1124 1069 442 447 163 1216 1043 402 496 468 186 1252 1167 121 45 708 711 653 1217 53 668 316 205 477 1156 203 1256 116 1093 1228 605 584 237 565 688 246 21 578 670 805 576 125 858 286 143 718 1036 407 992 1077 491 1145 997 772 830 558 581 714 1249 1176 712 433 1043 104 402 468 727 186 626 1179 1062 1253 801 109 454 190 590 509 289 443 426 12 37 782 120 181 584 605 315 53 908 522 205 852 1178 894 21 246 837 1155 232 576 805 949 752 916 1012 1019 165 119 1104 600 221 1103 828 610 1160 53 522 322 1104 221 123 205 1178 212 1076 153 432 20 1241 233 559 301 726 1167 1252 757 190 454 196 574 1017 568 405 330 57 1197 750 40 1091 383 868 120 676 162 278 97 995 510 1049 1018 1017 882 153 801 316 409 411 167 648 134 345 394 50 698 1235 167 320 679 1225 394 599 693 114 856 693 623 968 1225 220 221 1180 702 1065 1180 357 818 598 608 1136 290 968 301 598 295 1241 290 1119 151 10 848 44 77 929 1193 156 80 573 156 924 583 676 26 119 115 340 913 191 1172 1037 500 1035 241 1112 243 19 18 544 610 828 1067 795 794 396 116 858 1093 1038 177 1061 1134 157 329 237 805 565 540 211 196 976 713 126 870 1122 1173 305 842 48 302 794 176 1036 718 1096 177 165 893 279 338 660 379 506 262 1227 512 353 9 681 490 177 115 119 1038 115 177 83 794 302 978 766 426 1104 1242 600 1059 930 976 324 605 265 340 115 749 391 500 1037 933 191 913 1229 506 582 243 1112 371 701 1133 1098 381 982 360 871 436 580 720 497 536 119 165 177 490 465 608 290 1021 968 992 1135 1077 1145 231 997 134 411 263 1195 157 1134 640 565 670 600 1180 221 608 465 1050 426 766 12 22 157 1066 1081 681 288 26 120 782 590 90 850 647 90 590 687 766 1057 302 982 381 648 1081 134 286 858 116 1164 1133 701 396 794 83 1093 858 468 660 338 419 991 116 1256 443 289 741 12 766 687 196 1017 155 676 120 26 609 497 720 580 436 557 33 628 572 405 291 1066 721 194 1197 636 1112 1220 669 191 346 853 500 1201 540 196 155 1059 976 126 735 115 1038 579 982 941 244 1133 1143 411 399 175 862 465 648 703 291 405 1197 194 71 89 540 155 1059 126 401 354 1249 463 503 433 1024 13 1069 577 255 277 103 442 163 75 395 572 476 1009 958 180 1148 262 505 1216 402 934 520 780 1254 496 186 192 100 148 699 223 137 478 588 716 41 751 1031 210 1080 840 869 1114 381 360 423 243 371 1233 972 807 513 385 128 1117 1146 170 579 941 774 1110 254 439 1079 291 703 71 194 101 651 1256 70 244 1143 863 735 1038 530 636 1220 1250 187 615 570 376 218 1131 64 49 495 1247 213 337 22 1066 1213 700 721 1106 452 242 802 933 913 1236 341 1077 525 391 1037 896 507 997 839 1230 340 749 408 701 1098 585 219 298 973 799 996 854 1134 329 902 413 321 453 1039 1141 874 1097 347 266 853 1201 981 669 346 155 1017 1018 350 411 409 345 134 263 698 50 1193 264 522 768 201 882 82 924 124 193 756 167 1235 862 648 222 679 394 824 1257 320 788 1102 599 114 220 1225 589 621 221 702 818 608 1050 813 1178 372 1136 968 1234 737 306 282 46 623 473 295 598 1129 410 357 686 1119 290 461 370 301 1248 1111 1241 34 1001 153 39 50 156 1193 924 156 124 1020 291 1079 101 194 106 80 728 259 175 399 1089 1089 399 350 259 728 573 156 728 80 573 728 156 350 399 411 
        </DataArray>
        <DataArray type="Int32" Name="offsets" format="ascii">
          3 6 9 12 15 18 21 24 27 30 33 36 39 42 45 48 51 54 57 60 63 66 69 72 75 78 81 84 87 90 93 96 99 102 105 108 111 114 117 120 123 126 129 132 135 138 141 144 147 150 153 156 159 162 165 168 171 174 177 180 183 186 189 192 195 198 201 204 207 210 213 216 219 222 225 228 231 234 237 240 243 246 249 252 255 258 261 264 267 270 273 276 279 282 285 288 291 294 297 300 303 306 309 312 315 318 321 324 327 330 333 336 339 342 345 348 351 354 357 360 363 366 369 372 375 378 381 384 387 390 393 396 399 402 405 408 411 414 417 420 423 426 429 432 435 438 441 444 447 450 453 456 459 462 465 468 471 474 477 480 483 486 489 492 495 498 501 504 507 510 513 516 519 522 525 528 531 534 537 540 543 546 549 552 555 558 561 564 567 570 573 576 579 582 585 588 591 594 597 600 603 606 609 612 615 618 621 624 627 630 633 636 639 642 645 648 651 654 657 660 663 666 669 672 675 678 681 684 687 690 693 696 699 702 705 708 711 714 717 720 723 726 729 732 735 738 741 744 747 750 753 756 759 762 765 768 771 774 777 780 783 786 789 792 795 798 801 804 807 810 813 816 819 822 825 828 831 834 837 840 843 846 849 852 855 858 861 864 867 870 873 876 879 882 885 888 891 894 897 900 903 906 909 912 915 918 921 924 927 930 933 936 939 942 945 948 951 954 957 960 963 966 969 972 975 978 981 984 987 990 993 996 999 1002 1005 1008 1011 1014 1017 1020 1023 1026 1029 1032 1035 1038 1041 1044 1047 1050 1053 1056 1059 1062 1065 1068 1071 1074 1077 1080 1083 1086 1089 1092 1095 1098 1101 1104 1107 1110 1113 1116 1119 1122 1125 1128 1131 1134 1137 1140 1143 1146 1149 1152 1155 1158 1161 1164 1167 1170 1173 1176 1179 1182 1185 1188 1191 1194 1197 1200 1203 1206 1209 1212 1215 1218 1221 1224 1227 1230 1233 1236 1239 1242 1245 1248 1251 1254 1257 1260 1263 1266 1269 1272 1275 1278 1281 1284 1287 1290 1293 1296 1299 1302 1305 1308 1311 1314 1317 1320 1323 1326 1329 1332 1335 1338 1341 1344 1347 1350 1353 1356 1359 1362 1365 1368 1371 1374 1377 1380 1383 1386 1389 1392 1395 1398 1401 1404 1407 1410 1413 1416 1419 1422 1425 1428 1431 1434 1437 1440 1443 1446 1449 1452 1455 1458 1461 1464 1467 1470 1473 1476 1479 1482 1485 1488 1491 1494 1497 1500 1503 1506 1509 1512 1515 1518 1521 1524 1527 1530 1533 1536 1539 1542 1545 1548 1551 1554 1557 1560 1563 1566 1569 1572 1575 1578 1581 1584 1587 1590 1593 1596 1599 1602 1605 1608 1611 1614 1617 1620 1623 1626 1629 1632 1635 1638 1641 1644 1647 1650 1653 1656 1659 1662 1665 1668 1671 1674 1677 1680 1683 1686 1689 1692 1695 1698 1701 1704 1707 1710 1713 1716 1719 1722 1725 1728 1731 1734 1737 1740 1743 1746 1749 1752 1755 1758 1761 1764 1767 1770 1773 1776 1779 1782 1785 1788 1791 1794 1797 1800 1803 1806 1809 1812 1815 1818 1821 1824 1827 1830 1833 1836 1839 1842 1845 1848 1851 1854 1857 1860 1863 1866 1869 1872 1875 1878 1881 1884 1887 1890 1893 1896 1899 1902 1905 1908 1911 1914 1917 1920 1923 1926 1929 1932 1935 1938 1941 1944 1947 1950 1953 1956 1959 1962 1965 1968 1971 1974 1977 1980 1983 1986 1989 1992 1995 1998 2001 2004 2007 2010 2013 2016 2019 2022 2025 2028 2031 2034 2037 2040 2043 2046 2049 2052 2055 2058 2061 2064 2067 2070 2073 2076 2079 2082 2085 2088 2091 2094 2097 2100 2103 2106 2109 2112 2115 2118 2121 2124 2127 2130 2133 2136 2139 2142 2145 2148 2151 2154 2157 2160 2163 2166 2169 2172 2175 2178 2181 2184 2187 2190 2193 2196 2199 2202 2205 2208 2211 2214 2217 2220 2223 2226 2229 2232 2235 2238 2241 2244 2247 2250 2253 2256 2259 2262 2265 2268 2271 2274 2277 2280 2283 2286 2289 2292 2295 2298 2301 2304 2307 2310 2313 2316 2319 2322 2325 2328 2331 2334 2337 2340 2343 2346 2349 2352 2355 2358 2361 2364 2367 2370 2373 2376 2379 2382 2385 2388 2391 2394 2397 2400 2403 2406 2409 2412 2415 2418 2421 2424 2427 2430 2433 2436 2439 2442 2445 2448 2451 2454 2457 2460 2463 2466 2469 2472 2475 2478 2481 2484 2487 2490 2493 2496 2499 2502 2505 2508 2511 2514 2517 2520 2523 2526 2529 2532 2535 2538 2541 2544 2547 2550 2553 2556 2559 2562 2565 2568 2571 2574 2577 2580 2583 2586 2589 2592 2595 2598 2601 2604 2607 2610 2613 2616 2619 2622 2625 2628 2631 2634 2637 2640 2643 2646 2649 2652 2655 2658 2661 2664 2667 2670 2673 2676 2679 2682 2685 2688 2691 2694 2697 2700 2703 2706 2709 2712 2715 2718 2721 2724 2727 2730 2733 2736 2739 2742 2745 2748 2751 2754 2757 2760 2763 2766 2769 2772 2775 2778 2781 2784 2787 2790 2793 2796 2799 2802 2805 2808 2811 2814 2817 2820 2823 2826 2829 2832 2835 2838 2841 2844 2847 2850 2853 2856 2859 2862 2865 2868 2871 2874 2877 2880 2883 2886 2889 2892 2895 2898 2901 2904 2907 2910 2913 2916 2919 2922 2925 2928 2931 2934 2937 2940 2943 2946 2949 2952 2955 2958 2961 2964 2967 2970 2973 2976 2979 2982 2985 2988 2991 2994 2997 3000 3003 3006 3009 3012 3015 3018 3021 3024 3027 3030 3033 3036 3039 3042 3045 3048 3051 3054 3057 3060 3063 3066 3069 3072 3075 3078 3081 3084 3087 3090 3093 3096 3099 3102 3105 3108 3111 3114 3117 3120 3123 3126 3129 3132 3135 3138 3141 3144 3147 3150 3153 3156 3159 3162 3165 3168 3171 3174 3177 3180 3183 3186 3189 3192 3195 3198 3201 3204 3207 3210 3213 3216 3219 3222 3225 3228 3231 3234 3237 3240 3243 3246 3249 3252 3255 3258 3261 3264 3267 3270 3273 3276 3279 3282 3285 3288 3291 3294 3297 3300 3303 3306 3309 3312 3315 3318 3321 3324 3327 3330 3333 3336 3339 3342 3345 3348 3351 3354 3357 3360 3363 3366 3369 3372 3375 3378 3381 3384 3387 3390 3393 3396 3399 3402 3405 3408 3411 3414 3417 3420 3423 3426 3429 3432 3435 3438 3441 3444 3447 3450 3453 3456 3459 3462 3465 3468 3471 3474 3477 3480 3483 3486 3489 3492 3495 3498 3501 3504 3507 3510 3513 3516 3519 3522 3525 3528 3531 3534 3537 3540 3543 3546 3549 3552 3555 3558 3561 3564 3567 3570 3573 3576 3579 3582 3585 3588 3591 3594 3597 3600 3603 3606 3609 3612 3615 3618 3621 3624 3627 3630 3633 3636 3639 3642 3645 3648 3651 3654 3657 3660 3663 3666 3669 3672 3675 3678 3681 3684 3687 3690 3693 3696 3699 3702 3705 3708 3711 3714 3717 3720 3723 3726 3729 3732 3735 3738 3741 3744 3747 3750 3753 3756 3759 3762 3765 3768 3771 3774 3777 3780 3783 3786 3789 3792 3795 3798 3801 3804 3807 3810 3813 3816 3819 3822 3825 3828 3831 3834 3837 3840 3843 3846 3849 3852 3855 3858 3861 3864 3867 3870 3873 3876 3879 3882 3885 3888 3891 3894 3897 3900 3903 3906 3909 3912 3915 3918 3921 3924 3927 3930 3933 3936 3939 3942 3945 3948 3951 3954 3957 3960 3963 3966 3969 3972 3975 3978 3981 3984 3987 3990 3993 3996 3999 4002 4005 4008 4011 4014 4017 4020 4023 4026 4029 4032 4035 4038 4041 4044 4047 4050 4053 4056 4059 4062 4065 4068 4071 4074 4077 4080 4083 4086 4089 4092 4095 4098 4101 4104 4107 4110 4113 4116 4119 4122 4125 4128 4131 4134 4137 4140 4143 4146 4149 4152 4155 4158 4161 4164 4167 4170 4173 4176 4179 4182 4185 4188 4191 4194 4197 4200 4203 4206 4209 4212 4215 4218 4221 4224 4227 4230 4233 4236 4239 4242 4245 4248 4251 4254 4257 4260 4263 4266 4269 4272 4275 4278 4281 4284 4287 4290 4293 4296 4299 4302 4305 4308 4311 4314 4317 4320 4323 4326 4329 4332 4335 4338 4341 4344 4347 4350 4353 4356 4359 4362 4365 4368 4371 4374 4377 4380 4383 4386 4389 4392 4395 4398 4401 4404 4407 4410 4413 4416 4419 4422 4425 4428 4431 4434 4437 4440 4443 4446 4449 4452 4455 4458 4461 4464 4467 4470 4473 4476 4479 4482 4485 4488 4491 4494 4497 4500 4503 4506 4509 4512 4515 4518 4521 4524 4527 4530 4533 4536 4539 4542 4545 4548 4551 4554 4557 4560 4563 4566 4569 4572 4575 4578 4581 4584 4587 4590 4593 4596 4599 4602 4605 4608 4611 4614 4617 4620 4623 4626 4629 4632 4635 4638 4641 4644 4647 4650 4653 4656 4659 4662 4665 4668 4671 4674 4677 4680 4683 4686 4689 4692 4695 4698 4701 4704 4707 4710 4713 4716 4719 4722 4725 4728 4731 4734 4737 4740 4743 4746 4749 4752 4755 4758 4761 4764 4767 4770 4773 4776 4779 4782 4785 4788 4791 4794 4797 4800 4803 4806 4809 4812 4815 4818 4821 4824 4827 4830 4833 4836 4839 4842 4845 4848 4851 4854 4857 4860 4863 4866 4869 4872 4875 4878 4881 4884 4887 4890 4893 4896 4899 4902 4905 4908 4911 4914 4917 4920 4923 4926 4929 4932 4935 4938 4941 4944 4947 4950 4953 4956 4959 4962 4965 4968 4971 4974 4977 4980 4983 4986 4989 4992 4995 4998 5001 5004 5007 5010 5013 5016 5019 5022 5025 5028 5031 5034 5037 5040 5043 5046 5049 5052 5055 5058 5061 5064 5067 5070 5073 5076 5079 5082 5085 5088 5091 5094 5097 5100 5103 5106 5109 5112 5115 5118 5121 5124 5127 5130 5133 5136 5139 5142 5145 5148 5151 5154 5157 5160 5163 5166 5169 5172 5175 5178 5181 5184 5187 5190 5193 5196 5199 5202 5205 5208 5211 5214 5217 5220 5223 5226 5229 5232 5235 5238 5241 5244 5247 5250 5253 5256 5259 5262 5265 5268 5271 5274 5277 5280 5283 5286 5289 5292 5295 5298 5301 5304 5307 5310 5313 5316 5319 5322 5325 5328 5331 5334 5337 5340 5343 5346 5349 5352 5355 5358 5361 5364 5367 5370 5373 5376 5379 5382 5385 5388 5391 5394 5397 5400 5403 5406 5409 5412 5415 5418 5421 5424 5427 5430 5433 5436 5439 5442 5445 5448 5451 5454 5457 5460 5463 5466 5469 5472 5475 5478 5481 5484 5487 5490 5493 5496 5499 5502 5505 5508 5511 5514 5517 5520 5523 5526 5529 5532 5535 5538 5541 5544 5547 5550 5553 5556 5559 5562 5565 5568 5571 5574 5577 5580 5583 5586 5589 5592 5595 5598 5601 5604 5607 5610 5613 5616 5619 5622 5625 5628 5631 5634 5637 5640 5643 5646 5649 5652 5655 5658 5661 5664 5667 5670 5673 5676 5679 5682 5685 5688 5691 5694 5697 5700 5703 5706 5709 5712 5715 5718 5721 5724 5727 5730 5733 5736 5739 5742 5745 5748 5751 5754 5757 5760 5763 5766 5769 5772 5775 5778 5781 5784 5787 5790 5793 5796 5799 5802 5805 5808 5811 5814 5817 5820 5823 5826 5829 5832 5835 5838 5841 5844 5847 5850 5853 5856 5859 5862 5865 5868 5871 5874 5877 5880 5883 5886 5889 5892 5895 5898 5901 5904 5907 5910 5913 5916 5919 5922 5925 5928 5931 5934 5937 5940 5943 5946 5949 5952 5955 5958 5961 5964 5967 5970 5973 5976 5979 5982 5985 5988 5991 5994 5997 6000 6003 6006 6009 6012 6015 6018 6021 6024 6027 6030 6033 6036 6039 6042 6045 6048 6051 6054 6057 6060 6063 6066 6069 6072 6075 6078 6081 6084 6087 6090 6093 6096 6099 6102 6105 6108 6111 6114 6117 6120 6123 6126 6129 6132 6135 6138 6141 6144 6147 6150 6153 6156 6159 6162 6165 6168 6171 6174 6177 6180 6183 6186 6189 6192 6195 6198 6201 6204 6207 6210 6213 6216 6219 6222 6225 6228 6231 6234 6237 6240 6243 6246 6249 6252 6255 6258 6261 6264 6267 6270 6273 6276 6279 6282 6285 6288 6291 6294 6297 6300 6303 6306 6309 6312 6315 6318 6321 6324 6327 6330 6333 6336 6339 6342 6345 6348 6351 6354 6357 6360 6363 6366 6369 6372 6375 6378 6381 6384 6387 6390 6393 6396 6399 6402 6405 6408 6411 6414 6417 6420 6423 6426 6429 6432 6435 6438 6441 6444 6447 6450 6453 6456 6459 6462 6465 6468 6471 6474 6477 6480 6483 6486 6489 6492 6495 6498 6501 6504 6507 6510 6513 6516 6519 6522 6525 6528 6531 6534 6537 6540 6543 6546 6549 6552 6555 6558 6561 6564 6567 6570 6573 6576 6579 6582 6585 6588 6591 6594 6597 6600 6603 6606 6609 6612 6615 6618 6621 
        </DataArray>
        <DataArray type="UInt8" Name="types" format="ascii">
          5 5 5 5 5 5 5 5 5 5 5 5 5 5 5 5 5 5 5 5 5 5 5 5 5 5 5 5 5 5 5 5 5 5 5 5 5 5 5 5 5 5 5 5 5 5 5 5 5 5 5 5 5 5 5 5 5 5 5 5 5 5 5 5 5 5 5 5 5 5 5 5 5 5 5 5 5 5 5 5 5 5 5 5 5 5 5 5 5 5 5 5 5 5 5 5 5 5 5 5 5 5 5 5 5 5 5 5 5 5 5 5 5 5 5 5 5 5 5 5 5 5 5 5 5 5 5 5 5 5 5 5 5 5 5 5 5 5 5 5 5 5 5 5 5 5 5 5 5 5 5 5 5 5 5 5 5 5 5 5 5 5 5 5 5 5 5 5 5 5 5 5 5 5 5 5 5 5 5 5 5 5 5 5 5 5 5 5 5 5 5 5 5 5 5 5 5 5 5 5 5 5 5 5 5 5 5 5 5 5 5 5 5 5 5 5 5 5 5 5 5 5 5 5 5 5 5 5 5 5 5 5 5 5 5 5 5 5 5 5 5 5 5 5 5 5 5 5 5 5 5 5 5 5 5 5 5 5 5 5 5 5 5 5 5 5 5 5 5 5 5 5 5 5 5 5 5 5 5 5 5 5 5 5 5 5 5 5 5 5 5 5 5 5 5 5 5 5 5 5 5 5 5 5 5 5 5 5 5 5 5 5 5 5 5 5 5 5 5 5 5 5 5 5 5 5 5 5 5 5 5 5 5 5 5 5 5 5 5 5 5 5 5 5 5 5 5 5 5 5 5 5 5 5 5 5 5 5 5 5 5 5 5 5 5 5 5 5 5 5 5 5 5 5 5 5 5 5 5 5 5 5 5 5 5 5 5 5 5 5 5 5 5 5 5 5 5 5 5 5 5 5 5 5 5 5 5 5 5 5 5 5 5 5 5 5 5 5 5 5 5 5 5 5 5 5 5 5 5 5 5 5 5 5 5 5 5 5 5 5 5 5 5 5 5 5 5 5 5 5 5 5 5 5 5 5 5 5 5 5 5 5 5 5 5 5 5 5 5 5 5 5 5 5 5 5 5 5 5 5 5 5 5 5 5 5 5 5 5 5 5 5 5 5 5 5 5 5 5 5 5 5 5 5 5 5 5 5 5 5 5 5 5 5 5 5 5 5 5 5 5 5 5 5 5 5 5 5 5 5 5 5 5 5 5 5 5 5 5 5 5 5 5 5 5 5 5 5 5 5 5 5 5 5 5 5 5 5 5 5 5 5 5 5 5 5 5 5 5 5 5 5 5 5 5 5 5 5 5 5 5 5 5 5 5 5 5 5 5 5 5 5 5 5 5 5 5 5 5 5 5 5 5 5 5 5 5 5 5 5 5 5 5 5 5 5 5 5 5 5 5 5 5 5 5 5 5 5 5 5 5 5 5 5 5 5 5 5 5 5 5 5 5 5 5 5 5 5 5 5 5 5 5 5 5 5 5 5 5 5 5 5 5 5 5 5 5 5 5 5 5 5 5 5 5 5 5 5 5 5 5 5 5 5 5 5 5 5 5 5 5 5 5 5 5 5 5 5 5 5 5 5 5 5 5 5 5 5 5 5 5 5 5 5 5 5 5 5 5 5 5 5 5 5 5 5 5 5 5 5 5 5 5 5 5 5 5 5 5 5 5 5 5 5 5 5 5 5 5 5 5 5 5 5 5 5 5 5 5 5 5 5 5 5 5 5 5 5 5 5 5 5 5 5 5 5 5 5 5 5 5 5 5 5 5 5 5 5 5 5 5 5 5 5 5 5 5 5 5 5 5 5 5 5 5 5 5 5 5 5 5 5 5 5 5 5 5 5 5 5 5 5 5 5 5 5 5 5 5 5 5 5 5 5 5 5 5 5 5 5 5 5 5 5 5 5 5 5 5 5 5 5 5 5 5 5 5 5 5 5 5 5 5 5 5 5 5 5 5 5 5 5 5 5 5 5 5 5 5 5 5 5 5 5 5 5 5 5 5 5 5 5 5 5 5 5 5 5 5 5 5 5 5 5 5 5 5 5 5 5 5 5 5 5 5 5 5 5 5 5 5 5 5 5 5 5 5 5 5 5 5 5 5 5 5 5 5 5 5 5 5 5 5 5 5 5 5 5 5 5 5 5 5 5 5 5 5 5 5 5 5 5 5 5 5 5 5 5 5 5 5 5 5 5 5 5 5 5 5 5 5 5 5 5 5 5 5 5 5 5 5 5 5 5 5 5 5 5 5 5 5 5 5 5 5 5 5 5 5 5 5 5 5 5 5 5 5 5 5 5 5 5 5 5 5 5 5 5 5 5 5 5 5 5 5 5 5 5 5 5 5 5 5 5 5 5 5 5 5 5 5 5 5 5 5 5 5 5 5 5 5 5 5 5 5 5 5 5 5 5 5 5 5 5 5 5 5 5 5 5 5 5 5 5 5 5 5 5 5 5 5 5 5 5 5 5 5 5 5 5 5 5 5 5 5 5 5 5 5 5 5 5 5 5 5 5 5 5 5 5 5 5 5 5 5 5 5 5 5 5 5 5 5 5 5 5 5 5 5 5 5 5 5 5 5 5 5 5 5 5 5 5 5 5 5 5 5 5 5 5 5 5 5 5 5 5 5 5 5 5 5 5 5 5 5 5 5 5 5 5 5 5 5 5 5 5 5 5 5 5 5 5 5 5 5 5 5 5 5 5 5 5 5 5 5 5 5 5 5 5 5 5 5 5 5 5 5 5 5 5 5 5 5 5 5 5 5 5 5 5 5 5 5 5 5 5 5 5 5 5 5 5 5 5 5 5 5 5 5 5 5 5 5 5 5 5 5 5 5 5 5 5 5 5 5 5 5 5 5 5 5 5 5 5 5 5 5 5 5 5 5 5 5 5 5 5 5 5 5 5 5 5 5 5 5 5 5 5 5 5 5 5 5 5 5 5 5 5 5 5 5 5 5 5 5 5 5 5 5 5 5 5 5 5 5 5 5 5 5 5 5 5 5 5 5 5 5 5 5 5 5 5 5 5 5 5 5 5 5 5 5 5 5 5 5 5 5 5 5 5 5 5 5 5 5 5 5 5 5 5 5 5 5 5 5 5 5 5 5 5 5 5 5 5 5 5 5 5 5 5 5 5 5 5 5 5 5 5 5 5 5 5 5 5 5 5 5 5 5 5 5 5 5 5 5 5 5 5 5 5 5 5 5 5 5 5 5 5 5 5 5 5 5 5 5 5 5 5 5 5 5 5 5 5 5 5 5 5 5 5 5 5 5 5 5 5 5 5 5 5 5 5 5 5 5 5 5 5 5 5 5 5 5 5 5 5 5 5 5 5 5 5 5 5 5 5 5 5 5 5 5 5 5 5 5 5 5 5 5 5 5 5 5 5 5 5 5 5 5 5 5 5 5 5 5 5 5 5 5 5 5 5 5 5 5 5 5 5 5 5 5 5 5 5 5 5 5 5 5 5 5 5 5 5 5 5 5 5 5 5 5 5 5 5 5 5 5 5 5 5 5 5 5 5 5 5 5 5 5 5 5 5 5 5 5 5 5 5 5 5 5 5 5 5 5 5 5 5 5 5 5 5 5 5 5 5 5 5 5 5 5 5 5 5 5 5 5 5 5 5 5 5 5 5 5 5 5 5 5 5 5 5 5 5 5 5 5 5 5 5 5 5 5 5 5 5 5 5 5 5 5 5 5 5 5 5 5 5 5 5 5 5 5 5 5 5 5 5 5 5 5 5 5 5 5 5 5 5 5 5 5 5 5 5 5 5 5 5 5 5 5 5 5 5 5 5 5 5 5 5 5 5 5 5 5 5 5 5 5 5 5 5 5 5 5 5 5 5 5 5 5 5 5 5 5 5 5 5 5 5 5 5 5 5 5 5 5 5 5 5 5 5 5 5 5 5 5 5 5 5 5 5 5 5 5 5 5 5 5 5 5 5 5 5 5 5 5 5 5 5 5 5 5 5 5 5 5 5 5 5 5 5 5 5 5 5 5 5 5 5 5 5 5 5 5 5 5 5 5 5 5 5 5 5 5 5 5 5 5 5 5 5 5 5 5 5 5 5 5 5 5 5 5 5 5 5 5 5 5 5 5 5 5 5 5 5 5 5 5 5 5 5 5 5 5 5 5 5 5 5 5 5 5 5 5 5 5 5 5 5 5 5 5 5 5 5 5 5 5 5 5 5 5 5 5 5 5 5 5 5 5 5 5 5 5 5 5 5 5 5 5 5 5 5 5 5 5 5 5 5 5 5 5 5 5 5 5 5 5 5 5 5 5 5 5 5 5 5 5 5 5 5 5 5 5 5 5 5 5 5 5 5 5 5 5 5 5 5 5 5 5 5 5 5 5 5 5 5 5 5 5 5 5 5 5 5 5 5 5 5 5 5 5 5 5 5 5 5 5 5 5 5 5 5 5 5 5 5 5 5 5 5 5 5 5 5 5 5 5 5 5 5 5 5 5 5 5 5 5 5 5 5 5 5 5 5 5 5 5 5 5 5 5 5 5 5 5 5 5 5 5 5 5 5 5 5 5 5 5 5 5 5 5 5 5 5 5 5 5 5 5 5 5 5 5 5 5 5 5 5 5 5 5 5 5 5 5 5 5 5 5 5 5 5 5 5 5 5 5 5 5 5 5 5 5 5 5 5 5 5 5 5 5 5 5 5 5 5 5 5 5 5 5 5 5 5 5 5 5 5 5 5 5 5 5 5 5 5 5 5 5 5 5 5 5 5 5 5 5 5 5 5 5 5 5 5 5 5 5 5 5 5 5 5 5 5 5 5 5 5 5 5 5 5 5 5 5 5 5 5 5 5 5 5 5 5 5 5 5 5 5 5 5 5 5 5 5 5 5 5 5 5 5 5 5 5 5 5 5 5 5 5 5 5 5 5 5 5 5 5 5 5 5 5 5 5 5 5 5 5 5 5 5 5 5 5 5 5 5 5 5 5 5 5 5 5 5 
        </DataArray>
      </Cells>
      <PointData Scalars="value">
        <DataArray type="Float64" Name="value" format="ascii">
          404.187657 401.882067 402.807793 419.223300 402.103960 452.963872 421.810443 444.918869 399.996948 462.611804 411.844129 413.721074 419.476271 428.941896 399.996948 419.747060 423.229960 409.020028 411.017565 414.840129 457.657243 402.163204 405.049749 402.323491 408.172875 399.996948 425.556025 462.899697 418.939390 414.077055 453.165647 428.007629 399.996948 403.408026 458.773318 411.428245 434.586048 418.169877 421.872927 458.456139 422.339210 410.119779 426.200492 407.889033 427.878698 399.996948 454.827372 410.373437 401.144431 406.916142 461.643366 411.707182 399.996948 450.846968 399.996948 418.387272 415.445224 400.497354 399.996948 404.760997 404.574007 427.401337 447.988601 441.776185 405.928906 426.400959 418.801398 411.264851 422.422564 433.857606 420.639377 399.996948 402.623578 423.820580 407.573571 412.206616 399.996948 429.424928 413.168564 405.584429 461.161656 408.313364 448.751319 433.199119 461.819840 399.775002 408.546190 430.478026 407.938179 440.783887 459.000763 402.839558 423.077311 424.129133 419.963953 426.537949 419.046344 407.957471 421.364818 424.591387 423.132392 399.996948 399.996948 419.099455 425.706869 411.868933 393.033978 417.116110 431.801655 460.155722 414.674519 416.561506 405.399049 402.308266 452.710369 424.782708 420.354327 438.478029 411.319423 424.483319 425.429916 431.503909 413.468156 456.062811 461.935023 421.204676 441.093586 416.995854 415.704116 409.684292 450.824556 403.787490 427.338634 420.487401 462.087513 415.198191 452.850742 435.847996 419.585290 418.884919 399.996948 410.112246 409.436170 406.969558 424.016365 456.633488 419.684177 427.034193 423.219301 462.640992 401.124604 409.548710 455.440708 458.946456 415.336833 442.946604 461.553444 406.010702 407.836840 408.195991 438.093823 412.469784 407.881899 412.401077 399.996948 423.449119 411.311898 462.002886 419.712896 414.905449 431.432686 403.016696 411.941494 416.605271 420.958700 461.514342 430.827852 423.850800 415.368465 402.045630 436.984393 424.755987 402.676054 422.930858 418.583876 427.740051 422.628311 418.488172 438.979904 407.891953 461.300468 429.104836 422.747018 461.781752 396.889184 433.537550 442.307761 399.996948 411.292598 434.882041 417.298203 447.135898 421.115370 454.359277 404.097917 456.264815 457.394731 419.261032 411.886887 435.144357 429.980710 438.927841 459.707835 438.526525 415.069669 419.559212 408.337156 397.117345 429.657354 434.495682 460.961134 462.525436 462.189443 436.235824 399.996948 399.996948 421.191062 427.010139 411.174318 410.772695 428.227032 421.888659 399.996948 462.852746 417.363464 416.634671 415.379830 425.755685 406.860961 426.234831 399.996948 427.374506 438.975757 428.185560 424.892335 427.186971 399.996948 399.996948 418.220240 401.758684 417.923448 414.544597 418.982199 458.606259 408.994112 419.680380 415.330939 399.996948 399.996948 460.747126 442.017379 414.216523 436.599485 461.785388 449.010201 414.981895 415.593074 410.789139 399.996948 457.737170 401.522011 407.839094 422.733645 429.400513 435.529460 424.688970 431.021374 419.082851 405.855614 458.128759 436.930454 405.133914 460.655277 399.996948 404.276185 410.318027 420.146004 405.520478 462.201825 417.301091 459.965516 401.513232 405.706637 402.877465 399.996948 462.821970 418.593400 422.743806 434.400362 427.097357 399.996948 462.968534 432.262192 427.486810 417.660696 400.993309 461.002632 416.194134 462.007425 452.375631 417.466325 404.278975 462.274191 461.684301 405.149623 413.268643 457.581216 399.996948 431.124087 401.942481 461.789355 399.836748 462.193412 424.430850 413.603620 460.173185 415.202223 416.869738 422.571834 407.763897 403.465323 404.206777 427.534058 419.942640 425.541321 417.599574 420.120511 439.446608 459.538562 424.198535 425.345780 426.534428 414.981576 450.902972 409.023538 462.005398 429.471375 421.224883 423.483354 462.100991 461.491393 415.081826 431.404236 444.186883 430.821795 463.017876 424.548552 462.841819 399.996948 415.526978 433.405130 411.126180 404.104107 461.813515 426.369303 404.173530 462.904408 453.305075 424.411652 416.223952 462.856472 428.306820 454.065509 430.096332 415.602976 446.099187 429.700414 423.720367 401.669939 435.103892 399.996948 433.341726 429.416588 421.868468 399.996948 415.573308 415.464207 453.807147 420.637866 425.557732 425.257269 417.505705 424.964001 438.893136 461.631444 403.618707 432.483264 404.661721 424.175556 461.505250 411.174967 441.156746 426.327470 419.880613 408.818637 402.317102 404.393844 426.125328 423.855505 461.686150 462.690313 461.846601 411.008060 400.111277 405.630827 456.408902 411.042530 407.883079 427.830405 459.522526 415.427525 410.406176 404.478690 428.537568 422.063269 410.852565 418.634378 419.405954 402.150465 423.572416 399.996948 399.996948 457.428997 413.375109 404.107493 423.379353 403.874140 421.162806 404.377907 409.062752 399.996948 434.398443 413.163255 417.952370 405.977274 410.737617 403.961115 413.842362 419.458765 415.572171 426.916835 402.125175 439.871170 427.533481 461.245486 404.352050 404.326246 407.360498 410.878432 419.205162 406.691712 459.860216 411.805728 430.525187 405.341367 462.624579 411.500757 407.941479 421.897886 427.085229 410.895782 419.945583 421.596010 455.765332 411.550170 410.938381 404.817997 456.647000 435.585686 422.122722 452.574724 408.270955 425.166811 405.612390 460.217559 428.070208 418.336582 442.247805 399.996948 437.224141 462.718982 423.059323 411.653792 402.123188 405.405572 407.027151 422.363749 403.942204 415.414543 415.576912 416.793509 462.511010 450.187371 412.619643 405.544654 437.291211 435.172633 422.967234 428.448849 418.369674 418.384373 399.996948 446.384785 416.466075 401.329386 417.577438 415.256080 414.679147 422.687326 428.193015 426.164174 410.835528 448.476232 403.893763 404.375652 426.863564 399.996948 403.563394 411.963157 435.544157 424.393337 422.051758 404.661740 405.682506 461.392823 421.099449 405.248823 404.093420 399.996948 411.369766 440.743705 424.665854 401.827936 403.151325 414.810843 411.575779 433.219465 419.297973 405.290205 399.996948 411.893916 415.579099 427.990291 418.937383 425.280210 399.996948 459.877594 406.457934 440.214771 463.024682 399.996948 462.173704 424.004644 414.441028 420.722822 427.235993 409.892098 418.074856 399.996948 404.948565 417.858630 438.663891 405.000724 461.230367 445.284757 408.341944 427.690253 429.314268 402.497161 432.548135 407.439546 430.789562 434.190373 426.734188 414.501202 434.966233 410.280857 423.707167 411.192882 461.180189 460.280535 430.532831 405.421454 411.782486 422.731499 407.138346 424.916640 414.492208 462.931599 452.270264 462.644887 431.769099 431.369929 427.267347 415.298785 414.335812 455.489139 425.886752 462.809153 406.560636 411.228174 423.398471 432.461161 408.070261 413.252803 418.277087 404.120580 408.566295 420.029937 424.066491 399.996948 462.345673 399.996948 455.484382 449.584690 399.996948 440.482946 427.853507 406.103789 413.942008 414.911349 413.276383 421.314278 403.678472 410.824471 399.996948 427.851990 412.467666 424.263654 399.996948 428.479634 407.860206 427.434413 415.887576 405.106801 450.584500 414.883829 459.000120 462.308021 435.598413 457.313494 420.180308 423.261865 451.761626 405.509790 418.066600 399.996948 399.996948 462.660921 432.672766 458.353151 422.905422 455.244240 414.845777 404.082836 431.687193 404.217191 404.618961 456.941999 429.574961 428.257739 417.962956 415.926131 431.114215 419.345727 423.974450 426.386714 421.544790 461.664042 461.338531 408.125750 462.483682 420.528798 433.411862 420.398098 448.208450 462.763465 420.826628 426.444544 423.705453 429.813896 407.406732 405.340469 454.155059 419.674156 407.892867 415.316749 402.003340 461.425850 423.505289 394.045283 423.883756 462.491541 399.996948 413.325970 407.795706 419.723161 410.656634 401.480778 415.366595 462.823613 399.996948 413.721811 439.252366 429.716498 404.967384 410.894833 404.173404 405.793648 402.373914 407.576935 396.751409 406.709873 435.927141 426.699712 415.258211 435.425674 422.393332 461.183481 415.103502 399.996948 462.078391 425.942742 462.485768 406.769379 424.720962 437.874571 461.028977 414.425398 428.607400 399.996948 416.841007 409.749332 404.165315 420.740517 432.954780 422.277951 448.393676 410.011475 425.331995 399.996948 430.241825 433.399053 430.233188 419.529390 416.893027 461.769722 462.064314 408.353794 423.959142 429.109664 419.871426 407.819311 399.996948 461.150621 399.996948 419.865670 408.091832 447.385518 405.682858 408.749882 399.996948 441.081505 404.416678 432.151815 407.920262 423.446583 441.817247 404.370387 401.979542 425.843101 431.902062 424.182269 435.642575 430.852513 414.991820 414.982496 412.043415 461.551492 411.342914 408.336020 417.175031 409.131305 434.643878 431.877037 430.296028 414.132830 422.424373 399.996948 433.987645 410.485340 458.914797 438.758392 399.996948 427.724363 426.816725 410.768208 419.182883 408.981451 415.437793 399.996948 404.538433 419.969922 455.099049 410.359896 410.346797 399.996948 425.024674 462.702504 408.554010 410.927300 431.459219 427.842643 405.056792 461.414898 418.248552 414.786348 432.039007 412.414365 403.304193 442.957005 419.221362 419.050745 424.567390 457.055616 408.713376 406.172794 399.996948 399.996948 422.567387 414.468818 421.559625 400.494096 404.324859 414.449694 406.214819 404.278027 462.632988 410.689484 410.930880 460.219479 399.996948 454.944421 415.688455 408.973451 407.093290 453.819133 423.961078 421.036622 402.551694 418.865924 408.299923 462.354254 425.215980 428.110460 415.549092 425.099895 411.498111 426.497406 414.902296 401.305211 405.144101 445.068050 408.362084 421.699284 419.652689 460.409880 399.996948 423.075748 405.547510 406.891923 418.462291 448.227144 424.161245 408.024357 404.636275 431.455955 399.996948 411.762514 411.281828 460.718109 423.406011 399.996948 422.777872 399.996948 415.532950 418.082068 399.996948 435.027443 401.848490 399.996948 412.810401 398.432367 414.055624 427.166156 419.586049 414.548742 409.693962 448.856632 435.401198 450.865532 421.847688 421.481506 428.628012 412.745111 402.382831 434.277646 430.501392 399.996948 411.996172 399.996948 421.951327 407.246097 426.034396 461.536587 404.828901 407.408031 417.090380 410.366519 429.125181 445.451251 403.054412 462.067824 428.998716 426.414484 431.593959 404.942797 428.919207 425.058634 461.239173 411.084023 431.996664 423.891346 457.201023 414.887861 404.119597 403.039427 409.695886 430.167463 425.879614 416.588013 414.306797 454.885832 415.915274 399.996948 411.964012 455.705329 415.506947 437.106371 431.749041 462.094395 423.779373 431.782218 419.772959 404.647012 399.996948 399.996948 402.634203 460.794168 399.996948 447.765621 427.646370 418.815597 433.589001 413.125778 414.126815 442.342207 408.370654 419.233376 399.996948 399.996948 429.709785 432.618947 459.053336 415.295314 402.949712 415.218480 408.066864 405.193916 418.729666 415.159618 419.645624 426.145303 408.037022 424.318032 416.960733 434.187462 422.548084 428.222455 457.415792 408.201455 459.113457 408.543505 399.996948 428.195165 404.434139 410.847216 403.280199 439.028792 437.819576 425.571951 399.996948 435.572188 450.392076 399.996948 431.950406 411.959070 445.394322 445.350391 423.958338 401.871042 460.563548 421.695165 429.181792 413.421903 399.996948 406.451875 409.245200 412.674351 411.441549 401.423037 430.007701 420.241391 417.547453 408.347330 417.123023 405.171976 417.986931 424.274265 427.754828 405.422525 445.286598 458.890180 426.619583 413.783841 416.276720 419.290275 428.569259 431.334317 417.675398 462.609242 426.905657 438.367602 408.562326 461.338796 422.412593 418.146276 420.604209 422.410619 443.272010 426.302655 423.665375 441.349885 421.791590 419.820183 462.604203 403.340874 412.211999 399.996948 429.088525 419.677725 417.051251 428.411411 420.216427 399.996948 445.215200 460.103557 426.566232 407.368481 399.703610 414.170139 462.383966 410.709707 401.570722 399.996948 415.400570 444.559244 399.996948 411.353745 461.078529 408.121299 423.433795 411.227579 421.272985 461.449073 413.132288 404.095342 421.076287 424.213217 404.978026 421.168764 432.996915 451.490997 411.810302 462.319344 406.741160 395.810950 421.541505 408.699979 427.579842 408.063171 458.132861 427.877324 462.897766 433.885816 423.345780 410.657513 430.983928 448.067214 459.351977 411.522056 420.304190 400.555033 405.326534 428.400969 423.950404 421.106826 415.636690 409.345425 462.765570 425.549328 430.117737 423.228355 424.540676 408.669536 426.976347 460.298525 404.583609 404.393617 420.814249 399.996948 427.859429 399.996948 425.120009 450.130230 422.088058 431.218267 427.218672 436.403043 431.970358 451.723167 409.509248 412.139538 415.017015 425.785546 402.572764 455.999654 415.682385 413.938539 445.586057 450.451189 416.232375 426.128748 402.401382 424.009365 430.481110 404.286709 434.638206 435.201941 414.128700 403.273614 429.223686 428.322616 401.147342 432.544497 431.938354 412.312266 410.594800 454.755661 443.360168 462.737803 416.501365 406.431234 420.747463 418.305244 422.137479 404.338281 419.787243 429.545730 405.598460 461.139710 423.398818 404.535333 461.343214 430.759764 406.945961 406.515577 398.913871 410.918660 399.996948 408.572901 416.258349 429.070753 423.084747 403.291798 408.013317 423.748060 425.180893 411.964780 412.394394 419.504854 410.081690 412.770376 403.557033 417.749918 399.996948 426.676088 452.789476 410.622828 404.615190 427.494630 417.836011 399.996948 453.309695 415.805729 461.350218 437.043219 447.262950 415.560030 436.612864 425.610858 460.381258 457.674067 418.646279 460.659999 461.775364 428.758972 432.951486 418.382484 428.561470 411.871177 458.639524 462.344791 442.215523 399.996948 402.698102 404.229306 438.281597 462.845807 430.410774 427.620563 418.551063 431.604861 458.836860 425.897245 410.567822 420.576378 461.696204 405.821268 417.117458 447.713388 
        </DataArray>
      </PointData>
    </Piece>
  </UnstructuredGrid>
</VTKFile>
