$MeshFormat
4.1 0 8
$EndMeshFormat
$PhysicalNames
9
1 1 "Bnd 0"
1 2 "Bnd 1"
1 3 "Bnd 2"
1 4 "Bnd 3"
1 5 "Itf 4"
1 6 "Itf 5"
2 1 "Dom 0"
2 2 "Dom 1"
2 3 "Dom 2"
$EndPhysicalNames
$Entities
10 12 3 0
1 0.75 0 0 0 
2 0.75 0.25 0 0 
3 0 0.25 0 0 
4 0 1 0 0 
5 0.25 1 0 0 
6 0.25 0.75 0 0 
7 1 0.75 0 0 
8 1 0 0 0 
9 0 0 0 0 
10 1 1 0 0 
1 0.7499999000000001 -1.000000000028756e-07 -1e-07 0.7500000999999999 0.2500001 1e-07 1 5 2 1 -2 
2 -1.000000000028756e-07 0.2499999 -1e-07 0.7500000999999999 0.2500001 1e-07 1 5 2 2 -3 
3 -1e-07 0.2499999 -1e-07 1e-07 1.0000001 1e-07 1 4 2 4 -3 
4 -1.000000000028756e-07 0.9999999000000001 -1e-07 0.2500001 1.0000001 1e-07 1 4 2 5 -4 
5 0.2499999 0.7499999000000001 -1e-07 0.2500001 1.0000001 1e-07 1 6 2 5 -6 
6 0.2499999 0.7499999000000001 -1e-07 1.0000001 0.7500000999999999 1e-07 1 6 2 6 -7 
7 0.9999999000000001 -1.000000000028756e-07 -1e-07 1.0000001 0.7500000999999999 1e-07 1 2 2 8 -7 
8 0.7499999000000001 -1e-07 -1e-07 1.0000001 1e-07 1e-07 1 2 2 1 -8 
9 -1e-07 -1.000000000028756e-07 -1e-07 1e-07 0.2500001 1e-07 1 1 2 3 -9 
10 -1.000000000028756e-07 -1e-07 -1e-07 0.7500000999999999 1e-07 1e-07 1 1 2 9 -1 
11 0.2499999 0.9999999000000001 -1e-07 1.0000001 1.0000001 1e-07 1 3 2 10 -5 
12 0.9999999000000001 0.7499999000000001 -1e-07 1.0000001 1.0000001 1e-07 1 3 2 7 -10 
2 -1.000000000028756e-07 -1.000000000028756e-07 -1e-07 0.7500000999999999 0.2500001 1e-07 1 2 4 9 10 1 2 
3 0.2499999 0.7499999000000001 -1e-07 1.0000001 1.0000001 1e-07 1 3 4 6 12 11 5 
4 -9.999999994736442e-08 -9.999999994736442e-08 -1e-07 1.0000001 1.0000001 1e-07 1 1 8 -1 8 7 -6 -5 4 3 -2 
$EndEntities
$Nodes
25 534 1 534
0 1 0 1
1
0.75 0 0
0 2 0 1
2
0.75 0.25 0
0 3 0 1
3
0 0.25 0
0 4 0 1
4
0 1 0
0 5 0 1
5
0.25 1 0
0 6 0 1
6
0.25 0.75 0
0 7 0 1
7
1 0.75 0
0 8 0 1
8
1 0 0
0 9 0 1
9
0 0 0
0 10 0 1
10
1 1 0
1 1 0 4
11
12
13
14
0.75 0.05 0
0.75 0.1 0
0.75 0.15 0
0.75 0.2 0
1 2 0 14
15
16
17
18
19
20
21
22
23
24
25
26
27
28
0.7 0.25 0
0.65 0.25 0
0.6 0.25 0
0.55 0.25 0
0.5 0.25 0
0.45 0.25 0
0.4 0.25 0
0.35 0.25 0
0.3 0.25 0
0.25 0.25 0
0.2 0.25 0
0.15 0.25 0
0.09999999999999998 0.25 0
0.05000000000000004 0.25 0
1 3 0 14
29
30
31
32
33
34
35
36
37
38
39
40
41
42
0 0.95 0
0 0.9 0
0 0.85 0
0 0.8 0
0 0.75 0
0 0.7 0
0 0.65 0
0 0.6 0
0 0.55 0
0 0.5 0
0 0.45 0
0 0.4 0
0 0.35 0
0 0.3 0
1 4 0 4
43
44
45
46
0.2 1 0
0.15 1 0
0.09999999999999998 1 0
0.05000000000000004 1 0
1 5 0 4
47
48
49
50
0.25 0.95 0
0.25 0.9 0
0.25 0.85 0
0.25 0.8 0
1 6 0 14
51
52
53
54
55
56
57
58
59
60
61
62
63
64
0.3 0.75 0
0.35 0.75 0
0.4 0.75 0
0.45 0.75 0
0.5 0.75 0
0.55 0.75 0
0.6 0.75 0
0.65 0.75 0
0.7 0.75 0
0.75 0.75 0
0.8 0.75 0
0.85 0.75 0
0.9 0.75 0
0.95 0.75 0
1 7 0 14
65
66
67
68
69
70
71
72
73
74
75
76
77
78
1 0.05 0
1 0.1 0
1 0.15 0
1 0.2 0
1 0.25 0
1 0.3 0
1 0.35 0
1 0.4 0
1 0.45 0
1 0.5 0
1 0.55 0
1 0.6 0
1 0.65 0
1 0.7 0
1 8 0 4
79
80
81
82
0.8 0 0
0.85 0 0
0.9 0 0
0.95 0 0
1 9 0 4
83
84
85
86
0 0.2 0
0 0.15 0
0 0.09999999999999998 0
0 0.05000000000000004 0
1 10 0 14
87
88
89
90
91
92
93
94
95
96
97
98
99
100
0.05 0 0
0.1 0 0
0.15 0 0
0.2 0 0
0.25 0 0
0.3 0 0
0.35 0 0
0.4 0 0
0.45 0 0
0.5 0 0
0.55 0 0
0.6 0 0
0.65 0 0
0.7 0 0
1 11 0 14
101
102
103
104
105
106
107
108
109
110
111
112
113
114
0.95 1 0
0.9 1 0
0.85 1 0
0.8 1 0
0.75 1 0
0.7 1 0
0.65 1 0
0.6 1 0
0.55 1 0
0.5 1 0
0.45 1 0
0.4 1 0
0.35 1 0
0.3 1 0
1 12 0 4
115
116
117
118
1 0.8 0
1 0.85 0
1 0.9 0
1 0.95 0
2 2 0 75
119
120
121
122
123
124
125
126
127
128
129
130
131
132
133
134
135
136
137
138
139
140
141
142
143
144
145
146
147
148
149
150
151
152
153
154
155
156
157
158
159
160
161
162
163
164
165
166
167
168
169
170
171
172
173
174
175
176
177
178
179
180
181
182
183
184
185
186
187
188
189
190
191
192
193
0.6221662714353167 0.2090733469879357 0
0.040926653012064 0.1221662714353164 0
0.5245247717883716 0.04123497304015394 0
0.1750000000000001 0.206698729810777 0
0.425 0.2066987298107776 0
0.2750000000000001 0.2066987298107773 0
0.225 0.04330127018922192 0
0.3736693610074406 0.04003206314411106 0
0.6225749223159555 0.04116258770800568 0
0.525 0.2066987298107781 0
0.1275784795151317 0.04088748098006917 0
0.7069346645067194 0.1254086508806389 0
0.07521186846404393 0.2076613977472083 0
0.7076757280858832 0.1748129524106306 0
0.6676836117097322 0.1509600306810278 0
0.6688797229218242 0.09994960237104172 0
0.6200961894323342 0.1249999999999998 0
0.5745277119058861 0.2077287179570348 0
0.5495218141660377 0.164433977706245 0
0.4999203023610065 0.1635702126356708 0
0.5238422287732843 0.1217234915681215 0
0.474128435692769 0.1207803210142584 0
0.4498414563422961 0.1635402737208955 0
0.4248283153391779 0.1210527448518667 0
0.4484954861794319 0.08033757412179882 0
0.3999449619469124 0.1635806878747008 0
0.3742968933847356 0.1214890069073761 0
0.3498736425552748 0.1636601339095864 0
0.3241964364937223 0.1207562271164525 0
0.299845013174833 0.1635512449502467 0
0.2748402416114263 0.1210505577404568 0
0.2985088073582986 0.08033319395359573 0
0.2499475424643767 0.1635821518943573 0
0.2249907930756201 0.1205714800223865 0
0.1999897225899996 0.1635074567653638 0
0.1749991546779827 0.1205470826742616 0
0.1499981462113306 0.1634909413525106 0
0.1211984655094086 0.1204318530316679 0
0.09847831656498091 0.167713425092344 0
0.3749999999999998 0.206698729810777 0
0.5745166156840545 0.04114261789701906 0
0.6722873445654587 0.04632509688394637 0
0.04234553586919315 0.07502839415119289 0
0.2249895441757294 0.206747844713546 0
0.1749999999999999 0.04330127018922186 0
0.4749602931172171 0.206751324329687 0
0.1247813885400593 0.2075940823338067 0
0.3249531092883513 0.2067681397468979 0
0.5732699412731304 0.1226652360757406 0
0.07890610803539821 0.04727966276807849 0
0.04697073365872301 0.1709125839703081 0
0.7102498652692597 0.0763809817523452 0
0.6709103721068888 0.202952576072803 0
0.595838577018073 0.1668875869225712 0
0.5959845337668679 0.08153451947136459 0
0.07899524857075829 0.09646582319147179 0
0.4245274745311456 0.04007763778304063 0
0.4993318204056428 0.08068769350891891 0
0.2747514678930499 0.04062177559585839 0
0.3492785830406997 0.08045111342564482 0
0.2000000000000007 0.08169872981077692 0
0.1519658452515803 0.0808842734254735 0
0.4744799254840987 0.0403896464089854 0
0.3243680365499148 0.04023969101986835 0
0.3991826855804386 0.08057335670563981 0
0.2500000000000007 0.08170730607904558 0
0.5489845132965895 0.08154461126850754 0
0.0366025403784439 0.2133974596215561 0
0.0366025403784439 0.03660254037844385 0
0.7133974596215562 0.2133974596215562 0
0.7133974596215561 0.0366025403784439 0
0.1117288293764555 0.07718981867935221 0
0.6354495338957329 0.1724242428084708 0
0.6354495338957329 0.07757575719152904 0
0.07731388346318696 0.1355379913442216 0
2 3 0 74
194
195
196
197
198
199
200
201
202
203
204
205
206
207
208
209
210
211
212
213
214
215
216
217
218
219
220
221
222
223
224
225
226
227
228
229
230
231
232
233
234
235
236
237
238
239
240
241
242
243
244
245
246
247
248
249
250
251
252
253
254
255
256
257
258
259
260
261
262
263
264
265
266
267
0.8730867529226459 0.7905048527684108 0
0.625 0.7933012701892219 0
0.2930653354932805 0.8745913491193611 0
0.4242307488958091 0.9546702957787292 0
0.5185591413744568 0.9519086257189989 0
0.7254752282116285 0.7912394744514497 0
0.675 0.956698729810778 0
0.825 0.9566987298107781 0
0.4785950795390552 0.7949697524098459 0
0.9590733469879356 0.8721662714353167 0
0.3706637172646709 0.7948148062477715 0
0.32959128095287 0.9547151376279605 0
0.9247881315359562 0.9576613977472085 0
0.8749646885893259 0.9568591744668499 0
0.8499941147648876 0.9134242003975682 0
0.7999990191274812 0.9134019164175581 0
0.8249988556487282 0.8709201201669923 0
0.7756649652923147 0.8706183764110518 0
0.750110664069966 0.9134852335840092 0
0.7257945910566599 0.8713992737407477 0
0.8788000700551507 0.8704768904044522 0
0.8014412758160666 0.8302884792404521 0
0.7 0.9133974596215561 0
0.6750675672667228 0.8710409773102035 0
0.6500112612111204 0.9135549242678676 0
0.6250034199499273 0.8705695110370263 0
0.6006024497834672 0.9138490025126675 0
0.5778334377604984 0.8728296553011714 0
0.2923242719141168 0.8251870475893694 0
0.3407056341182513 0.8421686814648441 0
0.3366025403784436 0.9000000000000001 0
0.3799038105676656 0.8750000000000002 0
0.3780889102586127 0.9251486307254666 0
0.4230735420618656 0.9008031544173657 0
0.4235290696000649 0.8518370506618422 0
0.4657478434962838 0.8768093631933063 0
0.4685754927660013 0.9250448998349277 0
0.5094027851480595 0.8995101036959561 0
0.5068666558018704 0.8465882814357354 0
0.575 0.7928187631948804 0
0.6251022851657646 0.9568002310670152 0
0.5750000000000001 0.9566987298107781 0
0.9576544641308065 0.8250283941511929 0
0.5262454446834435 0.7938910241933251 0
0.6750404105622133 0.7922919660333457 0
0.9015142642900362 0.9177365486046631 0
0.4242112257755057 0.8012199269548466 0
0.7750182805329078 0.9567141016038538 0
0.7250214907671456 0.9567159207700328 0
0.9211888505484251 0.7972250571383308 0
0.9530282064634221 0.9209158873292111 0
0.3245453257567479 0.7915831743467863 0
0.2912365816709065 0.9234308778199617 0
0.9210202467288031 0.8464642932825489 0
0.5533134042204447 0.9127307560429645 0
0.7505626767294449 0.8306055361679611 0
0.8249213381231187 0.7901482535735328 0
0.5999999999999999 0.8316987298107781 0
0.6500185662964773 0.8317668640318923 0
0.7003265066871911 0.8313906819559334 0
0.8483714664012899 0.8301297014706845 0
0.7754000864800431 0.7903802905722326 0
0.5539567129226087 0.8354710756559814 0
0.475 0.9661857195049953 0
0.459789974842556 0.8342848749311153 0
0.3763821880214584 0.9669068128264313 0
0.3856762006838397 0.833521300270825 0
0.963397459621556 0.786602540378444 0
0.2866025403784438 0.963397459621556 0
0.9633974596215562 0.9633974596215563 0
0.2866025403784438 0.7866025403784438 0
0.5402745991706963 0.8734259744263617 0
0.8884934773312629 0.8269601590128854 0
0.9224242428084711 0.8854495338957333 0
2 4 0 267
268
269
270
271
272
273
274
275
276
277
278
279
280
281
282
283
284
285
286
287
288
289
290
291
292
293
294
295
296
297
298
299
300
301
302
303
304
305
306
307
308
309
310
311
312
313
314
315
316
317
318
319
320
321
322
323
324
325
326
327
328
329
330
331
332
333
334
335
336
337
338
339
340
341
342
343
344
345
346
347
348
349
350
351
352
353
354
355
356
357
358
359
360
361
362
363
364
365
366
367
368
369
370
371
372
373
374
375
376
377
378
379
380
381
382
383
384
385
386
387
388
389
390
391
392
393
394
395
396
397
398
399
400
401
402
403
404
405
406
407
408
409
410
411
412
413
414
415
416
417
418
419
420
421
422
423
424
425
426
427
428
429
430
431
432
433
434
435
436
437
438
439
440
441
442
443
444
445
446
447
448
449
450
451
452
453
454
455
456
457
458
459
460
461
462
463
464
465
466
467
468
469
470
471
472
473
474
475
476
477
478
479
480
481
482
483
484
485
486
487
488
489
490
491
492
493
494
495
496
497
498
499
500
501
502
503
504
505
506
507
508
509
510
511
512
513
514
515
516
517
518
519
520
521
522
523
524
525
526
527
528
529
530
531
532
533
534
0.675 0.2933012701892219 0
0.5253214333189257 0.2922679509025251 0
0.275 0.7066987298107781 0
0.3750229892677526 0.2883677698830629 0
0.625 0.7066987298107781 0
0.425 0.706698729810778 0
0.2285950795390556 0.2949697524098464 0
0.775 0.7066987298107781 0
0.9524999559409197 0.4819551468455084 0
0.04330127018922192 0.525 0
0.2250000000000001 0.704465819873852 0
0.2500000000000001 0.6630253079654018 0
0.9523235419178091 0.3209812863754447 0
0.04330127018922192 0.425 0
0.9546702957787294 0.575769251104191 0
0.525 0.7066987298107779 0
0.2000000000000001 0.6629632826893761 0
0.2250000000000001 0.6200612071077674 0
0.2750000000000001 0.6200283337688806 0
0.2500000000000001 0.5767777795784422 0
0.3 0.5767807533550916 0
0.275 0.5334922908718528 0
0.3250000000000001 0.5334910617088805 0
0.3 0.4902567817920154 0
0.35 0.4902026814617245 0
0.2538363638672948 0.4889067146489455 0
0.375 0.5334949349292313 0
0.4 0.4901943102767344 0
0.425 0.533494185268458 0
0.45 0.4901927901357738 0
0.475 0.5334938069681689 0
0.5 0.4901924737288988 0
0.525 0.5334936911836416 0
0.5499999999999999 0.4901924016969984 0
0.5750000000000001 0.5334936598809036 0
0.6 0.4901923844745587 0
0.625 0.5334936517933739 0
0.65 0.4901923802562304 0
0.675 0.5334936497423975 0
0.7000000000000001 0.4901923792113463 0
0.7250000000000001 0.5334936492264208 0
0.7500000000000001 0.4901923789512028 0
0.2090733469879357 0.8721662714353167 0
0.8754086508806388 0.0430653354932804 0
0.7971780240960633 0.1709015359678413 0
0.03731691685545291 0.7743554144234198 0
0.7750000000000001 0.5334936490970675 0
0.9523550152814649 0.2280432286503011 0
0.1206637172646712 0.2948148062477715 0
0.8745913491193611 0.7069346645067194 0
0.2 0.5782782512390413 0
0.3249586403276839 0.4489204387136786 0
0.7250000000000001 0.4468911087476482 0
0.7750000000000001 0.4468911086823328 0
0.4749999999999999 0.4468911930313356 0
0.625 0.4468911098423549 0
0.04092665301206438 0.6221662714353168 0
0.04116258770800568 0.8725749223159556 0
0.7 0.5767949193866183 0
0.1750000000000003 0.7040213053956678 0
0.7500000000000001 0.4035898384994057 0
0.8 0.4035898384895688 0
0.8250000000000002 0.4468911086771511 0
0.1254086508806388 0.9569346645067194 0
0.9590733469879357 0.1278337285646833 0
0.5000000000000001 0.5767949525837837 0
0.6 0.5767949215041949 0
0.4000000000000001 0.5767952229247636 0
0.8500000000000001 0.4035898384870655 0
0.8249999999999998 0.3602885682976998 0
0.15 0.6628788593970079 0
0.1250000000000003 0.7061660590375018 0
0.1572997855524694 0.7521558821429766 0
0.7000000000000001 0.4035898385004547 0
0.3250000000000002 0.620082519173755 0
0.04233860225279162 0.3252118684640439 0
0.9547151376279603 0.6704087190471298 0
0.7952848623720397 0.07959128095287016 0
0.8738184845163486 0.3596064200147207 0
0.8498030807527243 0.3168736067275161 0
0.9071060133580944 0.402326149397001 0
0.726234818237985 0.3626360944662271 0
0.7999999999999996 0.3169872981077804 0
0.8262019983634381 0.2743800019972818 0
0.8751675131860264 0.2737827417016344 0
0.8514961570178614 0.2312485643863587 0
0.6750750011077494 0.3616225556909598 0
0.0990769032008505 0.6673062443815873 0
0.1209932888070429 0.6199488209788696 0
0.07766042753573754 0.7111921474459626 0
0.2055663807366255 0.7772930704202367 0
0.8995249843548391 0.2310126441835301 0
0.8777089376994331 0.1834204740328017 0
0.9243377018759888 0.2743011998364484 0
0.7985560742089972 0.2279956151061565 0
0.1049990334602406 0.7514913075593637 0
0.1259393766992711 0.7870691839026237 0
0.8999999999999996 0.3169872981077798 0
0.1748129524106306 0.9576757280858831 0
0.1509600306810277 0.9176836117097322 0
0.0999496023710415 0.9188797229218243 0
0.1249999999999996 0.8700961894323344 0
0.3000000000000001 0.6633218466918582 0
0.3500000000000001 0.6633825790901766 0
0.625 0.2933012701892219 0
0.8000000000000002 0.4901923788877187 0
0.8250000000000002 0.533493649064928 0
0.8 0.5767949192521479 0
0.85 0.5767949192464576 0
0.825 0.6200961894343976 0
0.7749999999999999 0.6200961894341839 0
0.8750000000000002 0.5334936490562874 0
0.875 0.6200961894332355 0
0.8499318915198935 0.6634367820713738 0
0.9002977454972303 0.6648478137462032 0
0.9251982549750049 0.6221528154289786 0
0.8500000000000003 0.4901923788710332 0
0.9000000000000006 0.4901923788646684 0
0.9248042822886484 0.5313797741479886 0
0.4500000000000001 0.5767950911016403 0
0.4750000000000001 0.6200962236322005 0
0.5250000000000001 0.6200962006890902 0
0.5000000000000001 0.6633974671976597 0
0.55 0.663397462760366 0
0.4500000000000001 0.6633974665842177 0
0.5249999999999999 0.4468911209478253 0
0.4999999999999998 0.4035898545909357 0
0.4499999999999998 0.4035898552296578 0
0.5499999999999998 0.4035898402098084 0
0.4749999999999998 0.3619357076096854 0
0.4262348182379846 0.3612760169484561 0
0.400205803039664 0.4037544160520389 0
0.3776209480569927 0.3651247343118282 0
0.4526754395156337 0.3239648101920244 0
0.575 0.4468911159429616 0
0.5999999999999999 0.4035898401792256 0
0.5749999999999998 0.3602885682970022 0
0.6250032539006207 0.3611974444318428 0
0.04632509688394637 0.9222873445654587 0
0.2066987298107781 0.825 0
0.3237920025743932 0.2907126409648539 0
0.04031282736416925 0.8244883894565626 0
0.04227128204296526 0.5745277119058861 0
0.08289654407253622 0.5502739520680331 0
0.08598487432745927 0.5000456586780057 0
0.1299276346147726 0.5316680419300236 0
0.129804836900353 0.4761189501013384 0
0.1735316386851697 0.5010388576314232 0
0.1719979561205113 0.4503596346221272 0
0.1298244800098617 0.4250898071382088 0
0.172990671557858 0.4000749069600563 0
0.2115534638272633 0.4257251059985871 0
0.1306921951678743 0.3764777698970165 0
0.2148545524186125 0.3765026645065465 0
0.2575797907155362 0.4062465838258763 0
0.2558430242995372 0.344231571820209 0
0.3031088913245538 0.3750000000000007 0
0.08646987866576028 0.4502090693195922 0
0.08669860576673072 0.400296107725803 0
0.09086773626441036 0.3424840170902916 0
0.8249205401065425 0.7067446060017379 0
0.9248129524106304 0.04232427191411658 0
0.9009600306810278 0.08231638829026772 0
0.8498509082029231 0.08444438131422055 0
0.875944756909298 0.1295591464122593 0
0.8252920334390358 0.1245945315357638 0
0.5750000000000001 0.2933012701892219 0
0.6749999999999999 0.7066987298107781 0
0.6499999999999999 0.6633974596215562 0
0.7 0.6633974596215561 0
0.6749999999999999 0.6200961894562518 0
0.625 0.6200961898131675 0
0.725 0.7066987298107781 0
0.75 0.6633974596218644 0
0.1749999999999998 0.6200961894323342 0
0.1522373426667791 0.5782588445168804 0
0.55 0.5767949358789913 0
0.75 0.5767949193047953 0
0.6500047530981761 0.4037260670092403 0
0.04325569634546161 0.4750154718171524 0
0.2763716844021644 0.2933831204873745 0
0.04386770241219251 0.3738319988800231 0
0.2194862887741922 0.5279913795697724 0
0.4250000000000002 0.6200962509445611 0
0.1741649416550524 0.3009574911460122 0
0.9577937257058373 0.1746847953532 0
0.3750000000000001 0.7066962497222148 0
0.9559662075869811 0.3755360850445501 0
0.3750000000000001 0.6200914918329874 0
0.4000000000000001 0.6633937946641559 0
0.5750000000000001 0.7066987303339131 0
0.9007788055070638 0.5766144330695231 0
0.3250000000000001 0.7066832342191712 0
0.475 0.7066987298107781 0
0.9566987298107782 0.425 0
0.3750274072278913 0.4472587989443079 0
0.3500000000000001 0.5767893306541182 0
0.4250388683779258 0.4469802272783081 0
0.7274696364759696 0.2865540978606473 0
0.6750007921830293 0.4469138139278792 0
0.7249999999999999 0.6200961894708783 0
0.5249999999999997 0.361214292878091 0
0.7999754052710726 0.6634116593957226 0
0.65 0.5767949202826673 0
0.3456886662000973 0.4034286272226147 0
0.7764406212776489 0.3613927453035113 0
0.8750000000000003 0.4468911086754456 0
0.1732321791373581 0.3534884519790164 0
0.6 0.6633974602953524 0
0.5750000000000001 0.6200961951568604 0
0.279184800202251 0.4505912272483231 0
0.04725799774434875 0.6730163138798 0
0.9529525760728029 0.0790896278931113 0
0.0763809817523452 0.9602498652692597 0
0.9234663237124892 0.7089360795344086 0
0.202952576072803 0.9209103721068888 0
0.07456632962399001 0.2916236691682294 0
0.8265513731565767 0.04097965797278469 0
0.1666656921912224 0.8474017874290269 0
0.9185127051257767 0.153713404228571 0
0.07952777628416619 0.5965803817976919 0
0.08034157794847396 0.8473846274852272 0
0.08153450764871339 0.7946600198826419 0
0.1693997690565054 0.7999999999999999 0
0.3048799714567915 0.3329897681246086 0
0.9192627062313294 0.4498107446783955 0
0.2090360188668809 0.4750000000000004 0
0.03556624327025931 0.725 0
0.9178428494758466 0.3550874477878992 0
0.4754994788057598 0.2877535548985921 0
0.7554713808110514 0.3215527175239261 0
0.3998805368761617 0.3257289744140236 0
0.7824089094279087 0.2779635637711637 0
0.3533905966149806 0.3285941900224567 0
0.834987838604471 0.19432740681211 0
0.1750365809481828 0.5434470749774282 0
0.9196862476792897 0.1932231895906771 0
0.2100307841782312 0.3337974114318426 0
0.9661857195049958 0.525 0
0.7834936490538906 0.1249999999999998 0
0.966916737676339 0.6236661571160599 0
0.6499999999999999 0.3267949192431121 0
0.5999999999999999 0.3267949192431121 0
0.5499999999999997 0.3267949192431122 0
0.7015418061054592 0.3254102758290158 0
0.4255130740775513 0.2876358515646172 0
0.4999999999999997 0.3268701011357338 0
0.9666551565157941 0.275 0
0.1370680693344095 0.3336609067039677 0
0.3021041577540244 0.4168373754020987 0
0.1193283598745545 0.8298079997880092 0
0.213397459621556 0.963397459621556 0
0.786602540378444 0.03660254037844407 0
0.03660254037844396 0.963397459621556 0
0.03660254037844379 0.2866025403784438 0
0.9633974596215562 0.0366025403784439 0
0.9633974596215562 0.7133974596215562 0
0.2013128741111323 0.7371049256784963 0
0.8479754055991412 0.1587189532681321 0
0.1131165172890594 0.5753460082582997 0
0.2406433496220702 0.4515578453965872 0
0.3385720281864706 0.3666593208193126 0
0.07757575719152915 0.6354495338957333 0
0.172424242808471 0.8854495338957333 0
0.922424242808471 0.114550466104267 0
0.07757575719152887 0.8854495338957333 0
0.06656352031855506 0.7498519803417749 0
$EndNodes
$Elements
15 1106 1 1106
1 1 1 5
1 1 11 
2 11 12 
3 12 13 
4 13 14 
5 14 2 
1 2 1 15
6 2 15 
7 15 16 
8 16 17 
9 17 18 
10 18 19 
11 19 20 
12 20 21 
13 21 22 
14 22 23 
15 23 24 
16 24 25 
17 25 26 
18 26 27 
19 27 28 
20 28 3 
1 3 1 15
21 4 29 
22 29 30 
23 30 31 
24 31 32 
25 32 33 
26 33 34 
27 34 35 
28 35 36 
29 36 37 
30 37 38 
31 38 39 
32 39 40 
33 40 41 
34 41 42 
35 42 3 
1 4 1 5
36 5 43 
37 43 44 
38 44 45 
39 45 46 
40 46 4 
1 5 1 5
41 5 47 
42 47 48 
43 48 49 
44 49 50 
45 50 6 
1 6 1 15
46 6 51 
47 51 52 
48 52 53 
49 53 54 
50 54 55 
51 55 56 
52 56 57 
53 57 58 
54 58 59 
55 59 60 
56 60 61 
57 61 62 
58 62 63 
59 63 64 
60 64 7 
1 7 1 15
61 8 65 
62 65 66 
63 66 67 
64 67 68 
65 68 69 
66 69 70 
67 70 71 
68 71 72 
69 72 73 
70 73 74 
71 74 75 
72 75 76 
73 76 77 
74 77 78 
75 78 7 
1 8 1 5
76 1 79 
77 79 80 
78 80 81 
79 81 82 
80 82 8 
1 9 1 5
81 3 83 
82 83 84 
83 84 85 
84 85 86 
85 86 9 
1 10 1 15
86 9 87 
87 87 88 
88 88 89 
89 89 90 
90 90 91 
91 91 92 
92 92 93 
93 93 94 
94 94 95 
95 95 96 
96 96 97 
97 97 98 
98 98 99 
99 99 100 
100 100 1 
1 11 1 15
101 10 101 
102 101 102 
103 102 103 
104 103 104 
105 104 105 
106 105 106 
107 106 107 
108 107 108 
109 108 109 
110 109 110 
111 110 111 
112 111 112 
113 112 113 
114 113 114 
115 114 5 
1 12 1 5
116 7 115 
117 115 116 
118 116 117 
119 117 118 
120 118 10 
2 2 2 188
121 131 169 157 
122 132 171 133 
123 160 170 134 
124 168 174 161 
125 169 193 157 
126 171 191 133 
127 168 190 174 
128 134 192 160 
129 167 172 137 
130 176 185 139 
131 178 183 145 
132 92 182 177 
133 95 181 175 
134 157 165 131 
135 155 165 157 
136 122 165 155 
137 122 155 153 
138 153 162 122 
139 151 162 153 
140 124 162 151 
141 124 151 148 
142 148 166 124 
143 146 166 148 
144 22 158 21 
145 158 166 146 
146 123 144 141 
147 21 158 123 
148 123 158 144 
149 141 164 123 
150 138 164 141 
151 22 166 158 
152 144 158 146 
153 128 164 138 
154 13 132 130 
155 138 141 140 
156 128 136 18 
157 14 132 13 
158 98 159 97 
159 148 149 147 
160 21 123 20 
161 24 124 23 
162 133 135 134 
163 19 128 18 
164 25 162 24 
165 122 162 25 
166 85 120 84 
167 97 121 96 
168 99 127 98 
169 153 155 154 
170 13 130 12 
171 17 119 16 
172 19 164 128 
173 27 165 26 
174 125 163 90 
175 94 126 93 
176 141 142 140 
177 151 152 149 
178 151 153 152 
179 153 154 152 
180 127 159 98 
181 132 133 130 
182 17 136 119 
183 26 165 122 
184 89 129 88 
185 91 125 90 
186 142 143 140 
187 148 151 149 
188 155 157 156 
189 26 122 25 
190 28 131 27 
191 90 163 89 
192 149 150 147 
193 23 166 22 
194 97 159 121 
195 99 160 127 
196 133 134 130 
197 20 164 19 
198 24 162 124 
199 128 138 137 
200 138 140 139 
201 144 145 142 
202 146 147 145 
203 146 148 147 
204 155 156 154 
205 123 164 20 
206 131 165 27 
207 141 144 142 
208 144 146 145 
209 89 163 129 
210 128 137 136 
211 124 166 23 
212 138 139 137 
213 85 161 120 
214 18 136 17 
215 86 161 85 
216 100 160 99 
217 135 172 167 
218 84 169 83 
219 12 170 11 
220 16 171 15 
221 88 168 87 
222 134 170 130 
223 126 183 178 
224 175 181 143 
225 177 182 150 
226 121 185 176 
227 137 172 136 
228 140 176 139 
229 95 175 94 
230 92 177 91 
231 147 178 145 
232 121 181 96 
233 126 182 93 
234 149 184 150 
235 142 183 143 
236 139 167 137 
237 120 169 84 
238 129 168 88 
239 130 170 12 
240 119 171 16 
241 136 172 119 
242 127 173 159 
243 161 174 120 
244 167 185 173 
245 1 189 100 
246 9 187 86 
247 3 186 28 
248 83 186 3 
249 11 189 1 
250 87 187 9 
251 15 188 2 
252 2 188 14 
253 173 185 159 
254 176 181 121 
255 143 183 175 
256 150 184 177 
257 178 182 126 
258 94 175 126 
259 143 176 140 
260 91 177 125 
261 150 178 147 
262 160 192 127 
263 125 184 179 
264 154 180 179 
265 179 180 163 
266 125 179 163 
267 156 180 154 
268 154 179 152 
269 163 180 129 
270 179 184 152 
271 96 181 95 
272 93 182 92 
273 145 183 142 
274 152 184 149 
275 159 185 121 
276 167 173 135 
277 139 185 167 
278 157 193 156 
279 135 192 134 
280 133 191 135 
281 129 190 168 
282 119 191 171 
283 120 193 169 
284 175 183 126 
285 143 181 176 
286 177 184 125 
287 150 182 178 
288 156 193 174 
289 135 191 172 
290 173 192 135 
291 169 186 83 
292 170 189 11 
293 171 188 15 
294 168 187 87 
295 28 186 131 
296 14 188 132 
297 100 189 160 
298 86 187 161 
299 161 187 168 
300 132 188 171 
301 131 186 169 
302 160 189 170 
303 174 190 156 
304 156 190 180 
305 172 191 119 
306 127 192 173 
307 174 193 120 
308 180 190 129 
2 3 2 186
309 223 245 204 
310 230 231 198 
311 202 237 232 
312 204 260 223 
313 224 226 205 
314 198 257 230 
315 232 258 202 
316 226 259 205 
317 226 227 197 
318 227 230 197 
319 239 244 206 
320 222 245 223 
321 228 260 240 
322 231 248 198 
323 205 246 224 
324 240 258 228 
325 236 247 243 
326 239 267 244 
327 237 256 232 
328 247 266 243 
329 240 260 204 
330 213 253 249 
331 250 255 61 
332 197 259 226 
333 200 234 218 
334 212 216 213 
335 195 233 57 
336 198 235 109 
337 58 238 195 
338 102 207 206 
339 104 241 201 
340 210 214 208 
341 218 220 219 
342 53 240 204 
343 57 233 56 
344 102 206 101 
345 107 200 106 
346 116 236 115 
347 200 218 216 
348 216 242 200 
349 214 239 208 
350 212 213 211 
351 218 219 217 
352 220 221 219 
353 225 226 224 
354 199 238 59 
355 200 242 106 
356 203 236 116 
357 218 234 220 
358 55 202 54 
359 106 242 105 
360 50 222 49 
361 229 231 230 
362 49 222 196 
363 112 197 111 
364 114 205 113 
365 228 229 227 
366 49 196 48 
367 58 195 57 
368 63 194 62 
369 103 207 102 
370 108 234 107 
371 117 203 116 
372 222 223 196 
373 223 224 196 
374 56 237 55 
375 233 237 56 
376 54 240 53 
377 202 240 54 
378 216 218 217 
379 234 235 220 
380 229 230 227 
381 53 204 52 
382 60 199 59 
383 105 241 104 
384 110 198 109 
385 201 241 209 
386 207 239 206 
387 209 212 211 
388 209 241 212 
389 212 242 216 
390 223 225 224 
391 59 238 58 
392 104 201 103 
393 107 234 200 
394 109 235 108 
395 108 235 234 
396 225 227 226 
397 55 237 202 
398 201 207 103 
399 201 209 208 
400 216 217 213 
401 229 232 231 
402 105 242 241 
403 208 239 207 
404 241 242 212 
405 201 208 207 
406 209 210 208 
407 225 228 227 
408 211 215 210 
409 209 211 210 
410 202 258 240 
411 118 244 117 
412 48 246 47 
413 64 243 63 
414 52 245 51 
415 224 246 196 
416 215 255 250 
417 249 253 199 
418 198 248 235 
419 220 248 221 
420 230 257 197 
421 62 250 61 
422 213 249 211 
423 60 255 199 
424 215 254 210 
425 63 243 194 
426 204 245 52 
427 117 244 203 
428 196 246 48 
429 197 257 111 
430 110 257 198 
431 229 258 232 
432 205 259 113 
433 112 259 197 
434 223 260 225 
435 203 247 236 
436 5 262 114 
437 7 261 64 
438 115 261 7 
439 47 262 5 
440 6 264 50 
441 10 263 118 
442 51 264 6 
443 101 263 10 
444 235 248 220 
445 221 256 251 
446 199 255 249 
447 250 254 215 
448 194 250 62 
449 211 249 215 
450 195 252 251 
451 238 253 252 
452 221 251 219 
453 251 252 219 
454 195 251 233 
455 238 252 195 
456 199 253 238 
457 217 253 213 
458 219 252 217 
459 252 253 217 
460 61 255 60 
461 210 254 214 
462 251 256 233 
463 233 256 237 
464 214 267 239 
465 243 266 194 
466 244 267 203 
467 194 254 250 
468 249 255 215 
469 111 257 110 
470 228 258 229 
471 113 259 112 
472 247 267 214 
473 225 260 228 
474 248 265 221 
475 245 264 51 
476 118 263 244 
477 246 262 47 
478 64 261 243 
479 221 265 256 
480 236 261 115 
481 114 262 205 
482 50 264 222 
483 206 263 101 
484 232 265 231 
485 256 265 232 
486 244 263 206 
487 205 262 246 
488 243 261 236 
489 222 264 245 
490 214 266 247 
491 231 265 248 
492 254 266 214 
493 203 267 247 
494 194 266 254 
2 4 2 612
495 427 484 316 
496 274 448 423 
497 276 386 385 
498 316 516 427 
499 455 462 348 
500 382 383 344 
501 431 433 345 
502 423 505 274 
503 276 506 386 
504 400 501 499 
505 499 501 271 
506 415 494 450 
507 280 365 361 
508 486 518 491 
509 315 361 359 
510 348 496 455 
511 312 362 14 
512 383 508 344 
513 433 507 345 
514 358 491 340 
515 14 362 2 
516 383 459 282 
517 450 503 415 
518 432 487 360 
519 340 525 358 
520 462 493 348 
521 450 494 293 
522 282 459 386 
523 343 484 427 
524 367 483 366 
525 357 479 355 
526 429 480 430 
527 361 515 280 
528 475 516 452 
529 491 518 364 
530 433 526 312 
531 345 485 431 
532 344 482 382 
533 368 481 406 
534 466 500 498 
535 2 500 466 
536 452 505 475 
537 315 515 361 
538 312 526 502 
539 349 512 498 
540 367 531 483 
541 479 530 355 
542 480 532 430 
543 497 513 20 
544 448 492 423 
545 385 493 276 
546 280 496 365 
547 359 504 315 
548 406 533 368 
549 443 527 413 
550 452 516 316 
551 312 502 362 
552 422 528 419 
553 478 528 422 
554 490 534 363 
555 312 507 433 
556 282 508 383 
557 401 513 497 
558 498 512 466 
559 437 468 441 
560 439 471 438 
561 334 471 439 
562 374 384 379 
563 381 382 317 
564 317 428 381 
565 392 461 273 
566 391 458 283 
567 284 442 285 
568 326 468 438 
569 438 471 326 
570 378 470 441 
571 384 474 385 
572 277 447 412 
573 390 391 283 
574 283 461 390 
575 377 470 378 
576 356 443 442 
577 373 384 374 
578 381 470 377 
579 439 477 334 
580 386 459 379 
581 313 409 32 
582 427 449 343 
583 309 373 314 
584 354 446 405 
585 404 405 403 
586 390 461 392 
587 285 286 279 
588 304 334 302 
589 361 365 352 
590 371 457 454 
591 384 385 379 
592 414 425 417 
593 426 427 420 
594 426 449 427 
595 435 440 59 
596 57 458 272 
597 62 428 317 
598 388 451 387 
599 289 450 293 
600 334 444 302 
601 403 446 323 
602 417 426 420 
603 436 437 435 
604 438 468 437 
605 437 441 440 
606 17 434 18 
607 55 461 283 
608 58 435 59 
609 76 282 75 
610 273 457 392 
611 278 284 279 
612 286 370 279 
613 281 426 425 
614 338 442 284 
615 287 450 289 
616 290 464 288 
617 296 387 335 
618 301 302 300 
619 304 471 334 
620 308 445 326 
621 321 373 309 
622 373 374 314 
623 333 389 388 
624 339 355 338 
625 356 442 338 
626 342 371 370 
627 352 365 347 
628 378 445 375 
629 376 380 377 
630 379 459 376 
631 441 468 378 
632 385 386 379 
633 389 391 390 
634 391 476 458 
635 405 446 403 
636 437 440 435 
637 476 477 439 
638 301 402 303 
639 320 321 309 
640 330 373 321 
641 355 356 338 
642 60 440 275 
643 395 399 398 
644 372 434 17 
645 25 452 26 
646 277 410 37 
647 283 458 56 
648 272 435 58 
649 275 428 61 
650 305 307 306 
651 329 336 330 
652 351 352 347 
653 351 353 352 
654 6 270 51 
655 13 312 14 
656 53 273 54 
657 68 453 67 
658 71 280 70 
659 74 276 73 
660 454 457 273 
661 425 447 281 
662 285 442 318 
663 289 291 290 
664 296 335 294 
665 454 460 371 
666 412 447 425 
667 425 426 417 
668 15 268 16 
669 16 372 17 
670 49 407 50 
671 270 460 51 
672 276 462 73 
673 281 449 426 
674 418 419 416 
675 284 285 279 
676 285 287 286 
677 289 290 288 
678 294 464 290 
679 291 319 292 
680 292 295 294 
681 292 463 295 
682 335 464 294 
683 299 393 301 
684 301 303 302 
685 303 323 305 
686 306 471 304 
687 328 329 321 
688 402 403 323 
689 349 473 328 
690 333 444 389 
691 334 477 444 
692 451 456 335 
693 339 363 357 
694 380 381 377 
695 394 469 396 
696 396 403 402 
697 451 457 456 
698 2 466 15 
699 50 358 6 
700 11 345 12 
701 18 269 19 
702 18 434 269 
703 24 274 25 
704 26 452 316 
705 331 366 44 
706 288 464 342 
707 297 299 298 
708 430 431 311 
709 327 340 339 
710 339 357 355 
711 342 456 371 
712 342 464 456 
713 392 457 451 
714 423 424 422 
715 31 325 30 
716 36 324 35 
717 37 410 36 
718 44 366 43 
719 81 311 80 
720 314 445 308 
721 340 364 363 
722 380 383 382 
723 412 425 414 
724 21 271 22 
725 22 408 23 
726 67 332 66 
727 69 315 68 
728 322 394 393 
729 24 448 274 
730 26 316 27 
731 33 313 32 
732 38 277 37 
733 45 331 44 
734 48 310 49 
735 57 272 58 
736 62 317 63 
737 315 453 68 
738 277 412 411 
739 295 296 294 
740 299 300 298 
741 303 304 302 
742 303 402 323 
743 305 306 304 
744 307 308 306 
745 307 467 320 
746 309 314 308 
747 329 330 321 
748 322 395 394 
749 446 467 323 
750 336 474 330 
751 337 350 347 
752 341 354 349 
753 351 362 353 
754 359 361 352 
755 396 402 393 
756 395 398 397 
757 396 469 404 
758 399 400 398 
759 418 421 419 
760 421 422 419 
761 41 449 40 
762 310 407 49 
763 463 465 295 
764 297 322 299 
765 393 402 301 
766 323 467 305 
767 307 320 309 
768 320 328 321 
769 341 446 354 
770 341 467 446 
771 394 396 393 
772 396 404 403 
773 268 372 16 
774 274 452 25 
775 36 410 324 
776 50 407 358 
777 55 283 56 
778 291 292 290 
779 414 417 416 
780 417 420 418 
781 30 406 29 
782 40 281 39 
783 42 343 41 
784 51 460 52 
785 54 461 55 
786 273 461 54 
787 277 411 410 
788 375 445 314 
789 350 351 347 
790 371 460 370 
791 376 459 380 
792 378 468 445 
793 418 475 421 
794 52 454 53 
795 59 440 60 
796 60 275 61 
797 72 455 71 
798 73 462 72 
799 287 288 286 
800 287 289 288 
801 295 465 297 
802 298 387 296 
803 333 388 387 
804 397 469 394 
805 395 465 399 
806 398 401 397 
807 279 370 270 
808 458 476 272 
809 275 470 428 
810 440 441 275 
811 318 450 287 
812 300 333 298 
813 302 444 300 
814 305 467 307 
815 308 326 306 
816 374 375 314 
817 320 467 341 
818 445 468 326 
819 337 346 336 
820 347 365 346 
821 368 369 367 
822 376 377 375 
823 377 378 375 
824 380 459 383 
825 389 390 388 
826 391 477 476 
827 414 416 415 
828 417 418 416 
829 421 423 422 
830 432 433 431 
831 436 438 437 
832 40 449 281 
833 15 466 268 
834 38 447 277 
835 343 449 41 
836 56 458 57 
837 61 428 62 
838 78 344 77 
839 333 387 298 
840 271 408 22 
841 23 448 24 
842 408 448 23 
843 329 337 336 
844 330 474 384 
845 353 359 352 
846 395 397 394 
847 412 413 411 
848 412 414 413 
849 430 432 431 
850 319 463 292 
851 322 393 299 
852 6 278 270 
853 32 409 31 
854 39 447 38 
855 52 460 454 
856 53 454 273 
857 67 453 332 
858 71 455 280 
859 72 462 455 
860 370 460 270 
861 272 476 436 
862 278 327 284 
863 327 338 284 
864 285 318 287 
865 288 342 286 
866 289 293 291 
867 292 294 290 
868 297 298 296 
869 297 465 322 
870 300 444 333 
871 442 443 318 
872 320 341 328 
873 330 384 373 
874 331 368 367 
875 456 464 335 
876 346 348 336 
877 456 457 371 
878 374 376 375 
879 380 382 381 
880 428 470 381 
881 392 451 388 
882 444 477 389 
883 399 465 463 
884 420 475 418 
885 436 439 438 
886 31 409 325 
887 299 301 300 
888 303 305 304 
889 82 429 81 
890 327 339 338 
891 340 363 339 
892 414 415 413 
893 272 436 435 
894 441 470 275 
895 342 370 286 
896 326 471 306 
897 341 349 328 
898 387 451 335 
899 348 474 336 
900 374 379 376 
901 389 477 391 
902 325 406 30 
903 319 472 463 
904 322 465 395 
905 281 447 39 
906 278 279 270 
907 328 473 329 
908 337 473 350 
909 390 392 388 
910 307 309 308 
911 331 367 366 
912 399 472 400 
913 295 297 296 
914 429 430 311 
915 329 473 337 
916 337 347 346 
917 463 472 399 
918 81 429 311 
919 436 476 439 
920 353 360 359 
921 472 517 424 
922 360 526 432 
923 364 490 363 
924 340 491 364 
925 291 478 319 
926 413 503 443 
927 293 478 291 
928 362 500 2 
929 274 505 452 
930 382 482 317 
931 35 479 34 
932 63 482 64 
933 431 485 311 
934 80 485 79 
935 47 483 48 
936 27 484 28 
937 331 481 368 
938 66 480 65 
939 46 481 45 
940 479 495 34 
941 487 504 360 
942 411 488 410 
943 413 527 411 
944 386 506 282 
945 313 534 490 
946 348 493 474 
947 357 495 479 
948 317 482 63 
949 324 479 35 
950 48 483 310 
951 332 480 66 
952 311 485 80 
953 45 481 331 
954 316 484 27 
955 419 494 416 
956 33 495 313 
957 346 496 348 
958 19 497 20 
959 351 500 362 
960 400 499 398 
961 349 498 473 
962 362 502 353 
963 318 503 450 
964 271 501 408 
965 74 506 276 
966 282 506 75 
967 421 505 423 
968 344 508 77 
969 13 507 312 
970 76 508 282 
971 345 507 12 
972 401 514 397 
973 21 513 271 
974 69 515 315 
975 280 515 70 
976 427 516 420 
977 315 504 453 
978 319 517 472 
979 424 529 472 
980 310 486 407 
981 410 488 324 
982 453 487 332 
983 409 489 325 
984 455 496 280 
985 79 520 1 
986 4 521 46 
987 43 519 5 
988 29 521 4 
989 1 520 11 
990 5 519 47 
991 8 523 82 
992 28 522 3 
993 327 525 340 
994 3 522 42 
995 64 524 7 
996 7 524 78 
997 6 525 278 
998 358 525 6 
999 65 523 8 
1000 492 529 424 
1001 501 529 492 
1002 369 518 486 
1003 486 491 407 
1004 409 490 489 
1005 325 533 406 
1006 415 503 413 
1007 313 490 409 
1008 407 491 358 
1009 408 492 448 
1010 474 493 385 
1011 423 492 424 
1012 276 493 462 
1013 490 518 489 
1014 369 531 367 
1015 430 532 432 
1016 368 533 369 
1017 355 530 356 
1018 483 531 310 
1019 324 530 479 
1020 332 532 480 
1021 416 494 415 
1022 34 495 33 
1023 497 514 401 
1024 271 513 499 
1025 365 496 346 
1026 360 504 359 
1027 269 497 19 
1028 498 500 350 
1029 473 498 350 
1030 350 500 351 
1031 398 499 401 
1032 353 502 360 
1033 443 503 318 
1034 75 506 74 
1035 475 505 421 
1036 511 514 269 
1037 268 512 509 
1038 12 507 13 
1039 510 511 434 
1040 77 508 76 
1041 469 511 404 
1042 405 509 354 
1043 509 512 354 
1044 268 509 372 
1045 434 511 269 
1046 404 511 510 
1047 372 510 434 
1048 466 512 268 
1049 509 510 372 
1050 404 510 405 
1051 405 510 509 
1052 354 512 349 
1053 486 531 369 
1054 356 530 488 
1055 432 532 487 
1056 369 533 489 
1057 469 514 511 
1058 20 513 21 
1059 397 514 469 
1060 70 515 69 
1061 424 517 422 
1062 420 516 475 
1063 356 527 443 
1064 422 517 478 
1065 364 518 490 
1066 478 517 319 
1067 484 522 28 
1068 482 524 64 
1069 480 523 65 
1070 47 519 483 
1071 485 520 79 
1072 46 521 481 
1073 366 519 43 
1074 11 520 345 
1075 406 521 29 
1076 278 525 327 
1077 42 522 343 
1078 78 524 344 
1079 82 523 429 
1080 453 504 487 
1081 419 528 494 
1082 495 534 313 
1083 363 534 357 
1084 411 527 488 
1085 432 526 433 
1086 488 527 356 
1087 408 501 492 
1088 472 529 400 
1089 293 528 478 
1090 429 523 480 
1091 344 524 482 
1092 483 519 366 
1093 343 522 484 
1094 481 521 406 
1095 345 520 485 
1096 489 518 369 
1097 269 514 497 
1098 499 513 401 
1099 310 531 486 
1100 488 530 324 
1101 487 532 332 
1102 489 533 325 
1103 357 534 495 
1104 494 528 293 
1105 502 526 360 
1106 400 529 501 
$EndElements
