$MeshFormat
4.1 0 8
$EndMeshFormat
$PhysicalNames
5
1 1 "Bnd 0"
1 2 "Bnd 1"
1 3 "Bnd 2"
1 4 "Bnd 3"
2 1 "Dom 0"
$EndPhysicalNames
$Entities
4 4 1 0
1 0 0 0 0 
2 1 0 0 0 
3 1 1 0 0 
4 0 1 0 0 
1 -9.999999994736442e-08 -1e-07 -1e-07 1.0000001 1e-07 1e-07 1 3 2 1 -2 
2 0.9999999000000001 -9.999999994736442e-08 -1e-07 1.0000001 1.0000001 1e-07 1 2 2 2 -3 
3 -9.999999994736442e-08 0.9999999000000001 -1e-07 1.0000001 1.0000001 1e-07 1 4 2 3 -4 
4 -1e-07 -9.999999994736442e-08 -1e-07 1e-07 1.0000001 1e-07 1 1 2 4 -1 
1 -9.999999994736442e-08 -9.999999994736442e-08 -1e-07 1.0000001 1.0000001 1e-07 1 1 4 1 2 3 4 
$EndEntities
$Nodes
9 1253 1 1253
0 1 0 1
1
0 0 0
0 2 0 1
2
1 0 0
0 3 0 1
3
1 1 0
0 4 0 1
4
0 1 0
1 1 0 49
5
6
7
8
9
10
11
12
13
14
15
16
17
18
19
20
21
22
23
24
25
26
27
28
29
30
31
32
33
34
35
36
37
38
39
40
41
42
43
44
45
46
47
48
49
50
51
52
53
0.0201414576212423 0 0
0.04013848565344541 0 0
0.06013526471367613 0 0
0.08013179188984684 0 0
0.1001280638742213 0 0
0.1201240861609349 0 0
0.1401198524007357 0 0
0.1601153659263667 0 0
0.1801106275424147 0 0
0.2001056311366976 0 0
0.2201003838113381 0 0
0.2400948790664126 0 0
0.2600891201460694 0 0
0.2800831069893991 0 0
0.3000768353161857 0 0
0.3200703115169458 0 0
0.3400635266364352 0 0
0.3600564884403696 0 0
0.3800491914286276 0 0
0.4000416376874231 0 0
0.4200338270203581 0 0
0.440025756600531 0 0
0.4600174307594705 0 0
0.48000884251756 0 0
0.4999999999999987 0 0
0.5199911574824374 0 0
0.5399825692405269 0 0
0.5599742433994663 0 0
0.5799661729796393 0 0
0.5999583623125743 0 0
0.6199508085713697 0 0
0.6399435115596278 0 0
0.6599364733635619 0 0
0.6799296884830511 0 0
0.6999231646838121 0 0
0.7199168930105991 0 0
0.7399108798539291 0 0
0.7599051209335866 0 0
0.7798996161886609 0 0
0.7998943688633013 0 0
0.8198893724575832 0 0
0.8398846340736316 0 0
0.859880147599263 0 0
0.8798759138390649 0 0
0.8998719361257781 0 0
0.9198682081101536 0 0
0.9398647352863233 0 0
0.9598615143465549 0 0
0.9798585423787582 0 0
1 2 0 49
54
55
56
57
58
59
60
61
62
63
64
65
66
67
68
69
70
71
72
73
74
75
76
77
78
79
80
81
82
83
84
85
86
87
88
89
90
91
92
93
94
95
96
97
98
99
100
101
102
1 0.0201414576212423 0
1 0.04013848565344541 0
1 0.06013526471367613 0
1 0.08013179188984684 0
1 0.1001280638742213 0
1 0.1201240861609349 0
1 0.1401198524007357 0
1 0.1601153659263667 0
1 0.1801106275424147 0
1 0.2001056311366976 0
1 0.2201003838113381 0
1 0.2400948790664126 0
1 0.2600891201460694 0
1 0.2800831069893991 0
1 0.3000768353161857 0
1 0.3200703115169458 0
1 0.3400635266364352 0
1 0.3600564884403696 0
1 0.3800491914286276 0
1 0.4000416376874231 0
1 0.4200338270203581 0
1 0.440025756600531 0
1 0.4600174307594705 0
1 0.48000884251756 0
1 0.4999999999999987 0
1 0.5199911574824374 0
1 0.5399825692405269 0
1 0.5599742433994663 0
1 0.5799661729796393 0
1 0.5999583623125743 0
1 0.6199508085713697 0
1 0.6399435115596278 0
1 0.6599364733635619 0
1 0.6799296884830511 0
1 0.6999231646838121 0
1 0.7199168930105991 0
1 0.7399108798539291 0
1 0.7599051209335866 0
1 0.7798996161886609 0
1 0.7998943688633013 0
1 0.8198893724575832 0
1 0.8398846340736316 0
1 0.859880147599263 0
1 0.8798759138390649 0
1 0.8998719361257781 0
1 0.9198682081101536 0
1 0.9398647352863233 0
1 0.9598615143465549 0
1 0.9798585423787582 0
1 3 0 49
103
104
105
106
107
108
109
110
111
112
113
114
115
116
117
118
119
120
121
122
123
124
125
126
127
128
129
130
131
132
133
134
135
136
137
138
139
140
141
142
143
144
145
146
147
148
149
150
151
0.9798585423787577 1 0
0.9598615143465545 1 0
0.9398647352863239 1 0
0.9198682081101531 1 0
0.8998719361257788 1 0
0.879875913839065 1 0
0.8598801475992642 1 0
0.8398846340736333 1 0
0.8198893724575852 1 0
0.7998943688633023 1 0
0.7798996161886619 1 0
0.7599051209335874 1 0
0.7399108798539304 1 0
0.7199168930106008 1 0
0.6999231646838142 1 0
0.6799296884830541 1 0
0.6599364733635646 1 0
0.6399435115596304 1 0
0.6199508085713723 1 0
0.5999583623125768 1 0
0.5799661729796417 1 0
0.559974243399469 1 0
0.5399825692405296 1 0
0.51999115748244 1 0
0.5000000000000013 1 0
0.4800088425175626 1 0
0.4600174307594731 1 0
0.4400257566005337 1 0
0.4200338270203607 1 0
0.4000416376874257 1 0
0.3800491914286303 1 0
0.3600564884403722 1 0
0.3400635266364381 1 0
0.3200703115169489 1 0
0.3000768353161879 1 0
0.2800831069894009 1 0
0.2600891201460709 1 0
0.2400948790664134 1 0
0.2201003838113391 1 0
0.2001056311366987 1 0
0.1801106275424168 1 0
0.1601153659263684 1 0
0.140119852400737 1 0
0.1201240861609351 1 0
0.1001280638742219 1 0
0.08013179188984643 1 0
0.06013526471367669 1 0
0.04013848565344513 1 0
0.02014145762124175 1 0
1 4 0 49
152
153
154
155
156
157
158
159
160
161
162
163
164
165
166
167
168
169
170
171
172
173
174
175
176
177
178
179
180
181
182
183
184
185
186
187
188
189
190
191
192
193
194
195
196
197
198
199
200
0 0.9798585423787577 0
0 0.9598615143465545 0
0 0.9398647352863239 0
0 0.9198682081101531 0
0 0.8998719361257788 0
0 0.879875913839065 0
0 0.8598801475992642 0
0 0.8398846340736333 0
0 0.8198893724575852 0
0 0.7998943688633023 0
0 0.7798996161886619 0
0 0.7599051209335874 0
0 0.7399108798539304 0
0 0.7199168930106008 0
0 0.6999231646838142 0
0 0.6799296884830541 0
0 0.6599364733635646 0
0 0.6399435115596304 0
0 0.6199508085713723 0
0 0.5999583623125768 0
0 0.5799661729796417 0
0 0.559974243399469 0
0 0.5399825692405296 0
0 0.51999115748244 0
0 0.5000000000000013 0
0 0.4800088425175626 0
0 0.4600174307594731 0
0 0.4400257566005337 0
0 0.4200338270203607 0
0 0.4000416376874257 0
0 0.3800491914286303 0
0 0.3600564884403722 0
0 0.3400635266364381 0
0 0.3200703115169489 0
0 0.3000768353161879 0
0 0.2800831069894009 0
0 0.2600891201460709 0
0 0.2400948790664134 0
0 0.2201003838113391 0
0 0.2001056311366987 0
0 0.1801106275424168 0
0 0.1601153659263684 0
0 0.140119852400737 0
0 0.1201240861609351 0
0 0.1001280638742219 0
0 0.08013179188984643 0
0 0.06013526471367669 0
0 0.04013848565344513 0
0 0.02014145762124175 0
2 1 0 1053
201
202
203
204
205
206
207
208
209
210
211
212
213
214
215
216
217
218
219
220
221
222
223
224
225
226
227
228
229
230
231
232
233
234
235
236
237
238
239
240
241
242
243
244
245
246
247
248
249
250
251
252
253
254
255
256
257
258
259
260
261
262
263
264
265
266
267
268
269
270
271
272
273
274
275
276
277
278
279
280
281
282
283
284
285
286
287
288
289
290
291
292
293
294
295
296
297
298
299
300
301
302
303
304
305
306
307
308
309
310
311
312
313
314
315
316
317
318
319
320
321
322
323
324
325
326
327
328
329
330
331
332
333
334
335
336
337
338
339
340
341
342
343
344
345
346
347
348
349
350
351
352
353
354
355
356
357
358
359
360
361
362
363
364
365
366
367
368
369
370
371
372
373
374
375
376
377
378
379
380
381
382
383
384
385
386
387
388
389
390
391
392
393
394
395
396
397
398
399
400
401
402
403
404
405
406
407
408
409
410
411
412
413
414
415
416
417
418
419
420
421
422
423
424
425
426
427
428
429
430
431
432
433
434
435
436
437
438
439
440
441
442
443
444
445
446
447
448
449
450
451
452
453
454
455
456
457
458
459
460
461
462
463
464
465
466
467
468
469
470
471
472
473
474
475
476
477
478
479
480
481
482
483
484
485
486
487
488
489
490
491
492
493
494
495
496
497
498
499
500
501
502
503
504
505
506
507
508
509
510
511
512
513
514
515
516
517
518
519
520
521
522
523
524
525
526
527
528
529
530
531
532
533
534
535
536
537
538
539
540
541
542
543
544
545
546
547
548
549
550
551
552
553
554
555
556
557
558
559
560
561
562
563
564
565
566
567
568
569
570
571
572
573
574
575
576
577
578
579
580
581
582
583
584
585
586
587
588
589
590
591
592
593
594
595
596
597
598
599
600
601
602
603
604
605
606
607
608
609
610
611
612
613
614
615
616
617
618
619
620
621
622
623
624
625
626
627
628
629
630
631
632
633
634
635
636
637
638
639
640
641
642
643
644
645
646
647
648
649
650
651
652
653
654
655
656
657
658
659
660
661
662
663
664
665
666
667
668
669
670
671
672
673
674
675
676
677
678
679
680
681
682
683
684
685
686
687
688
689
690
691
692
693
694
695
696
697
698
699
700
701
702
703
704
705
706
707
708
709
710
711
712
713
714
715
716
717
718
719
720
721
722
723
724
725
726
727
728
729
730
731
732
733
734
735
736
737
738
739
740
741
742
743
744
745
746
747
748
749
750
751
752
753
754
755
756
757
758
759
760
761
762
763
764
765
766
767
768
769
770
771
772
773
774
775
776
777
778
779
780
781
782
783
784
785
786
787
788
789
790
791
792
793
794
795
796
797
798
799
800
801
802
803
804
805
806
807
808
809
810
811
812
813
814
815
816
817
818
819
820
821
822
823
824
825
826
827
828
829
830
831
832
833
834
835
836
837
838
839
840
841
842
843
844
845
846
847
848
849
850
851
852
853
854
855
856
857
858
859
860
861
862
863
864
865
866
867
868
869
870
871
872
873
874
875
876
877
878
879
880
881
882
883
884
885
886
887
888
889
890
891
892
893
894
895
896
897
898
899
900
901
902
903
904
905
906
907
908
909
910
911
912
913
914
915
916
917
918
919
920
921
922
923
924
925
926
927
928
929
930
931
932
933
934
935
936
937
938
939
940
941
942
943
944
945
946
947
948
949
950
951
952
953
954
955
956
957
958
959
960
961
962
963
964
965
966
967
968
969
970
971
972
973
974
975
976
977
978
979
980
981
982
983
984
985
986
987
988
989
990
991
992
993
994
995
996
997
998
999
1000
1001
1002
1003
1004
1005
1006
1007
1008
1009
1010
1011
1012
1013
1014
1015
1016
1017
1018
1019
1020
1021
1022
1023
1024
1025
1026
1027
1028
1029
1030
1031
1032
1033
1034
1035
1036
1037
1038
1039
1040
1041
1042
1043
1044
1045
1046
1047
1048
1049
1050
1051
1052
1053
1054
1055
1056
1057
1058
1059
1060
1061
1062
1063
1064
1065
1066
1067
1068
1069
1070
1071
1072
1073
1074
1075
1076
1077
1078
1079
1080
1081
1082
1083
1084
1085
1086
1087
1088
1089
1090
1091
1092
1093
1094
1095
1096
1097
1098
1099
1100
1101
1102
1103
1104
1105
1106
1107
1108
1109
1110
1111
1112
1113
1114
1115
1116
1117
1118
1119
1120
1121
1122
1123
1124
1125
1126
1127
1128
1129
1130
1131
1132
1133
1134
1135
1136
1137
1138
1139
1140
1141
1142
1143
1144
1145
1146
1147
1148
1149
1150
1151
1152
1153
1154
1155
1156
1157
1158
1159
1160
1161
1162
1163
1164
1165
1166
1167
1168
1169
1170
1171
1172
1173
1174
1175
1176
1177
1178
1179
1180
1181
1182
1183
1184
1185
1186
1187
1188
1189
1190
1191
1192
1193
1194
1195
1196
1197
1198
1199
1200
1201
1202
1203
1204
1205
1206
1207
1208
1209
1210
1211
1212
1213
1214
1215
1216
1217
1218
1219
1220
1221
1222
1223
1224
1225
1226
1227
1228
1229
1230
1231
1232
1233
1234
1235
1236
1237
1238
1239
1240
1241
1242
1243
1244
1245
1246
1247
1248
1249
1250
1251
1252
1253
0.5137496515162816 0.01591810917288183 0
0.9807366853295076 0.5075213282491625 0
0.490004421258782 0.9826871497691527 0
0.01814253574666314 0.4895754757784221 0
0.39017227142356 0.01945258779132669 0
0.9826861449082489 0.3900454145580253 0
0.6110952823203025 0.9826140317311645 0
0.01728092062005904 0.6104157908266092 0
0.369242508005499 0.9826455570625447 0
0.6295154757365744 0.01955151792126963 0
0.982765203076042 0.6286374205510527 0
0.01731407751103031 0.3700528399345012 0
0.2905619302138282 0.01812327410610121 0
0.9815485198347851 0.2895611409006619 0
0.7091876799901855 0.9803314262974366 0
0.01731496747358979 0.7099200288472076 0
0.9826982028146355 0.7280026820936076 0
0.7299138901481297 0.01698798647610078 0
0.2737000815441052 0.9839823263373805 0
0.01763369444479501 0.270086116396474 0
0.8084512005029472 0.02003878652549018 0
0.01729338646138395 0.1900014317817387 0
0.1901081254057174 0.9829764244352668 0
0.9836473266543737 0.811969658570266 0
0.7894276741200187 0.9805854786822087 0
0.9835869707510619 0.2101029984853566 0
0.2136144680796672 0.01612260668630644 0
0.01840201810863329 0.7925638663595769 0
0.8695460122409364 0.9826388112847965 0
0.02070285284183482 0.8715646673983619 0
0.129136503096427 0.01898689155423217 0
0.9826832678966427 0.1301219692808353 0
0.01614205749883729 0.1319880793088805 0
0.8698780624985414 0.01659263999131866 0
0.1301219260933251 0.9824111347660679 0
0.982367580453565 0.8698780735355068 0
0.9838430543987962 0.5699241732823609 0
0.4300297918104472 0.9826865917135391 0
0.5699702081895528 0.01731340828646089 0
0.01700826017095947 0.4295814007735786 0
0.01751273064317016 0.5499784099981627 0
0.5499784063199993 0.9826868159370785 0
0.4500215936800007 0.01731318406292148 0
0.9834120122784629 0.4500215825781779 0
0.07013352830176162 0.9826826099792594 0
0.01746383635627108 0.06997360230146077 0
0.9303621387773902 0.01872359661703998 0
0.9827328840364074 0.9302157848772283 0
0.9291305862093117 0.9817538667509845 0
0.9826826099792595 0.07013352830176139 0
0.01700021135193125 0.9298664768970345 0
0.06695283315746509 0.01981932411215037 0
0.01953621211937884 0.8310597390922596 0
0.8291039453254643 0.9823209547849587 0
0.1721605235379425 0.01833218623002802 0
0.9826837072118881 0.1701129967343907 0
0.7732500719510055 0.01680197788600157 0
0.9831217349332622 0.7699023744500929 0
0.230097634152388 0.9823669818220336 0
0.0178359250538444 0.2295706109316802 0
0.01731474524831172 0.3100735734165684 0
0.3096604707996848 0.981601197927187 0
0.6894849534394898 0.0178604281494319 0
0.9824662017122877 0.6913475397727654 0
0.9828216885479129 0.249542486936654 0
0.24918364506886 0.01884897861897311 0
0.7479587672045802 0.9829820605021645 0
0.01925548216961798 0.7490108387572092 0
0.6733430086587593 0.9832672034626694 0
0.01856212245561939 0.6726548188584416 0
0.9823931969428823 0.3299042434752423 0
0.3313992053089138 0.01779367306125729 0
0.9697842885620254 0.9835840769307376 0
0.9828772526762218 0.02999578744344211 0
0.01605965836593753 0.9710038985254602 0
0.02973732591243861 0.01699993164134206 0
0.9821981461075372 0.09123262979227997 0
0.9628968388912335 0.08127435073635886 0
0.963520224355906 0.05756061657363376 0
0.941539627722217 0.06848539623968425 0
0.9416610404415594 0.09466889785937993 0
0.9179425097840702 0.08081469435125566 0
0.9185401920831942 0.1084207561888979 0
0.8916769557799468 0.09396069256906814 0
0.8930000001872902 0.1244532025337219 0
0.8638431926020096 0.1090810219231361 0
0.8662125072148331 0.1435654515236637 0
0.834615091063291 0.1261893145353286 0
0.8368774007204436 0.1631210537901013 0
0.8028421380474865 0.1445214531196281 0
0.8048877155142858 0.1813301311102693 0
0.768860853416885 0.1636864125182895 0
0.773143447214975 0.2080640876301016 0
0.7331318789639034 0.1852686731666854 0
0.7338593734100932 0.228083995380224 0
0.6943169069004793 0.2070480365007931 0
0.695751754456579 0.2535115839228608 0
0.6542245836388465 0.230510496693936 0
0.6553657253731512 0.2789820380692115 0
0.6147669263737635 0.255511771337955 0
0.6135416063309719 0.304584438583431 0
0.5771943199937875 0.2795306121666101 0
0.5716476057770995 0.3300969746961917 0
0.5309180391672852 0.2962913599813194 0
0.5285196236996412 0.3545557112987238 0
0.5689948324823705 0.3800007160583196 0
0.5282562842525984 0.4060293762989534 0
0.5691941937454033 0.4305359839805899 0
0.5286807448266239 0.4562446201035534 0
0.5723027026075576 0.4806191800800539 0
0.529778336137492 0.5062905008354754 0
0.5750473851503372 0.5289334558263065 0
0.4861651396706456 0.4819557559195191 0
0.4869946389701942 0.5319585684582293 0
0.4848087065817106 0.3300162380197147 0
0.4433474725266891 0.5076240337927715 0
0.44411737639939 0.5576189507796478 0
0.4004507461784014 0.5332822568494298 0
0.4012113430633909 0.5832763764071628 0
0.4448881563267424 0.6076140779599725 0
0.4019741680055365 0.6332707191752933 0
0.6126632758676755 0.454280368625 0
0.4456513526115631 0.6576084579302925 0
0.3582974827636308 0.608933029490235 0
0.3589283000066008 0.6587083736398681 0
0.7364188078477515 0.2722852583248874 0
0.3153604928645873 0.6345530721455639 0
0.3159874551743439 0.6843223145572401 0
0.4818788129907597 0.2780903588829941 0
0.4402050002707155 0.3067144199948792 0
0.2727266009896903 0.6606756272876932 0
0.271727037281793 0.6106777026937686 0
0.2736235316228293 0.7107461585101178 0
0.3164513803225523 0.7343273807046007 0
0.4382708456757348 0.256890882514711 0
0.3965478578756269 0.2830354237249362 0
0.277484543996746 0.7668735355466165 0
0.3955701449239549 0.2338868835938704 0
0.3538927627876549 0.2582378372710993 0
0.3538159666807161 0.3085686655335459 0
0.3111439199936702 0.2830691080822086 0
0.3107131737780725 0.3336844598469111 0
0.2668890028971383 0.309641607081736 0
0.2645737730668472 0.251380413003888 0
0.2670082616060858 0.3581167370240524 0
0.2325176592198706 0.7378546618477985 0
0.2320743328803753 0.7847948962866724 0
0.2226107950433257 0.6394502669943827 0
0.2291066185021807 0.5891666531082803 0
0.3236013498967953 0.7847028712833939 0
0.3546516882130153 0.2100010043073722 0
0.2244708945354841 0.3354340524303003 0
0.4339682075973578 0.2122333817657516 0
0.8433749215430222 0.2012280923620511 0
0.6137877144151185 0.2002687033960182 0
0.1923956193889142 0.7605279043260765 0
0.1932621175308304 0.8051911219248705 0
0.2247124037796384 0.3821199954555569 0
0.1868829111440268 0.6092099198177447 0
0.1934915158703536 0.5617959580247368 0
0.2293714374393105 0.827872205813821 0
0.1856321508441185 0.3577498515794428 0
0.1840332080529931 0.3153334723237524 0
0.6986784247670748 0.1624273955476502 0
0.1947876238483522 0.8527932345240035 0
0.1583698453921878 0.827391246761161 0
0.1820380401091395 0.4036380242492235 0
0.1551643159857831 0.5866368723324666 0
0.1527200594481259 0.5474397307752453 0
0.1477864762549978 0.6268637527461522 0
0.1491431564481211 0.3354245274018898 0
0.1475207718949349 0.2973654065227491 0
0.2230746724955748 0.4274772279077841 0
0.158261530013743 0.8670222670088019 0
0.2305748469429366 0.8686961596012117 0
0.8960554627787618 0.1557796439416676 0
0.7666417919202979 0.122541586034605 0
0.1273784510867034 0.8497766931834166 0
0.1186871747883593 0.8131894077974238 0
0.1264944516800911 0.8837209398204331 0
0.3104446374858459 0.3831200831753353 0
0.3594705492200114 0.758372763764026 0
0.3617332194696981 0.805407759254184 0
0.4000066216229077 0.7810314451315736 0
0.3997651151617837 0.8303864475928138 0
0.4368603715079747 0.8042153041154052 0
0.4390991397838333 0.8462279106151167 0
0.4725707803078502 0.825069605003675 0
0.3572333191623409 0.8505077465679278 0
0.4734194982902402 0.8676586008765372 0
0.5073232272157597 0.8452172363620957 0
0.5068057772522168 0.8051593994451337 0
0.5429216333268398 0.8253649088741615 0
0.5426738210486877 0.7837098522302857 0
0.5798391395224218 0.8048431367778994 0
0.5813124028078206 0.7611430051201459 0
0.6231486481500229 0.7902856999528949 0
0.6214962326146385 0.7374787464775098 0
0.6630364383376508 0.7618664952498626 0
0.6629730456577101 0.711864312698205 0
0.7052453358102245 0.7371419667427446 0
0.7062940746698854 0.6874474011561187 0
0.749252708573923 0.7141452789374643 0
0.75598776351126 0.6618848637022963 0
0.7479287988604328 0.7631605037522589 0
0.7901822710822057 0.7406578226129811 0
0.789989951930546 0.7857670269519806 0
0.6661355760488252 0.8057015618178653 0
0.8289771342430337 0.7640336519352632 0
0.8299763491784867 0.7217939976154433 0
0.8329262372337493 0.8058391551424957 0
0.7898445427292309 0.8297057242000492 0
0.8261715706569324 0.8492467502084724 0
0.578211598910402 0.8475459495861838 0
0.8618786896616921 0.8317641205839571 0
0.8584609265483349 0.8674579025264045 0
0.7909435914663867 0.8684831204556049 0
0.8640160880811049 0.7424092184148527 0
0.8661110480501624 0.7067174889834269 0
0.7082158161442937 0.6372342539130513 0
0.7496978390149742 0.6118402748223751 0
0.5105005555046119 0.877820930042716 0
0.2710797815341038 0.5615257060542522 0
0.4403731611224904 0.8846666131100084 0
0.6198731097914408 0.687036665582452 0
0.1149811761102261 0.5666881940197646 0
0.1195145886892079 0.528311076032936 0
0.6566404003625617 0.3318688207707711 0
0.7077046790594851 0.5880275499044881 0
0.7515896992862651 0.5653548134987364 0
0.7937341492411394 0.5908443262146128 0
0.7943043005815147 0.5435046307931509 0
0.8324717401141866 0.5635640922646514 0
0.8325697982051494 0.5212432055909357 0
0.7964664832617543 0.4993135316150673 0
0.8341238942900913 0.4790199339342407 0
0.7990224732628376 0.4564841833690402 0
0.83674891993999 0.439299852331488 0
0.8665503950751864 0.5426196446582845 0
0.8676343342364514 0.5802764255739161 0
0.8694236590061644 0.4598845169431617 0
0.872314230969327 0.4225900060549077 0
0.8405467697475497 0.4010234047636603 0
0.8747271303774303 0.3857572527258574 0
0.8448907029139614 0.363762542713963 0
0.878092634486714 0.3490837222517489 0
0.8100231390493184 0.3783751717578339 0
0.8490724291735766 0.3276372293957762 0
0.8821595106389359 0.313401494525759 0
0.4411831580792129 0.3572295264924291 0
0.1145189803125101 0.3163312159853928 0
0.1159633438673836 0.3521619364085942 0
0.11484208440824 0.2797134706992307 0
0.1450771839438385 0.2605866857263749 0
0.1131191286172765 0.2449203793600596 0
0.1418071818403656 0.2247625036763424 0
0.1109028857608865 0.2097433852347206 0
0.139752805834205 0.1898090602748708 0
0.1085538597046877 0.1742867399828776 0
0.1382360266122157 0.1535558080643197 0
0.1704016500649803 0.1696580622056802 0
0.1689313965986581 0.1327926767104208 0
0.2011920441135778 0.1489489128893342 0
0.1069993009806428 0.1395537371648168 0
0.1984510040546604 0.1132382765053423 0
0.2306219204313777 0.1282112358792523 0
0.8916006988532821 0.8494834607382824 0
0.8946184637627328 0.8829292243018563 0
0.7586726673560826 0.4758452399352525 0
0.1679322987339141 0.09795633160119438 0
0.1567592784724492 0.9045340251705747 0
0.8602252437367049 0.9014264782345894 0
0.4885669451559707 0.6319519747309763 0
0.1503070627118799 0.5107631019888315 0
0.1169300623547688 0.4948306262960441 0
0.8959631394686304 0.7253528674028578 0
0.898129254513922 0.6928181521094776 0
0.8955112507732961 0.758350136057094 0
0.8990010253127723 0.5624569365391593 0
0.8987329716891701 0.59726975225523 0
0.9041277710608961 0.4063959196420499 0
0.7582755367076788 0.8502998965317921 0
0.7601100550753477 0.887472371385039 0
0.7904660996920035 0.9003589622963659 0
0.728722211763501 0.8712108643116698 0
0.8699746931331009 0.6154980811834224 0
0.7305205461440492 0.9050923128306778 0
0.7007085597665154 0.8902844368127165 0
0.225644173694751 0.0939774542827676 0
0.2573728305938691 0.1079674507317153 0
0.2618235373057231 0.1422301989480743 0
0.2897095870017741 0.1219501801390654 0
0.8903204026070982 0.9163591616929776 0
0.8341739119303917 0.09231635261618432 0
0.09830625416094019 0.8691334932452484 0
0.09745565022639457 0.8998721307949302 0
0.9182303094706135 0.9031663343510286 0
0.08721063929806372 0.5132841669533548 0
0.08684134726000348 0.4810186527326081 0
0.3996868574575545 0.4832883562120055 0
0.2615246890081947 0.8507713484709281 0
0.2586319446268741 0.8884027755163285 0
0.2308576531493425 0.9035150271055105 0
0.1140422000129717 0.4627105381869999 0
0.08446911561765458 0.4501191216703235 0
0.086736167330279 0.3341246221258455 0
0.08596847353021664 0.3660560696760435 0
0.898415790009482 0.5273963891005442 0
0.2828710031428223 0.08798637836250955 0
0.3165178471430676 0.09630281089476711 0
0.07983272086190252 0.1584992955550568 0
0.07753547234604785 0.126413155467451 0
0.1019540411380929 0.1086133765221637 0
0.9090400671381622 0.3338009435554103 0
0.9132193783897269 0.300163921638737 0
0.8868556931344114 0.2806565433500998 0
0.9167870317859499 0.2679594095581018 0
0.5045461768508996 0.7599573091407139 0
0.1093126384132609 0.4326218955454804 0
0.07454055553207539 0.09586920197672455 0
0.09678823024743005 0.07877848301635221 0
0.8403926098908288 0.6770915187089604 0
0.08552543388133893 0.2632276914074175 0
0.7031177883940184 0.9219813200992031 0
0.6745045038897712 0.908144552241211 0
0.9282758836001409 0.5496301343046252 0
0.9269528785578789 0.516035201535383 0
0.256242838685072 0.9208043019308243 0
0.283996258312373 0.9070877268509989 0
0.1914073758008064 0.7163643709154988 0
0.1533075148486808 0.7388688590376262 0
0.9243173859714316 0.7092437918286619 0
0.9260908252827005 0.6777133696314319 0
0.175477282242423 0.2396991263401816 0
0.6648709928870864 0.6116379274063219 0
0.6648008412638154 0.5648643883895776 0
0.3567743072451479 0.508944679112483 0
0.3251051320248046 0.1398257062577672 0
0.3483702903001918 0.1118833216813463 0
0.3475627584912779 0.08104531934960046 0
0.3740434179688473 0.09170017346860404 0
0.3793354453146869 0.1221905803346079 0
0.4026939713876422 0.1015816199550207 0
0.8920595432558781 0.2487883797839665 0
0.9214510048576072 0.2371428175906518 0
0.8601718644520554 0.2594337499033141 0
0.3972306257634205 0.07172447673792515 0
0.4234719915486276 0.08120552905582223 0
0.4328542527754596 0.1104249114763235 0
0.4530997564300823 0.08488936310077205 0
0.4630775972271615 0.1190815979970932 0
0.4865694187702841 0.09678430886875361 0
0.4948347618665503 0.1286302848872562 0
0.5192612458576307 0.105720330069274 0
0.5273256394039593 0.1382149678916491 0
0.5511189240395882 0.1141654557112912 0
0.5418586369608517 0.08309829958825121 0
0.5741916490228932 0.08576381381601944 0
0.5835698858018663 0.1213613329877661 0
0.6057722986842536 0.09747914613663755 0
0.6157652362257973 0.1292837909050133 0
0.6389409425888908 0.1048827993252814 0
0.599649137208862 0.0667252006671421 0
0.4785446541171373 0.06657761804904705 0
0.502443618109302 0.1638763631708103 0
0.07095954811141403 0.06777887846316516 0
0.07080103054290515 0.8855447310546645 0
0.07121721357875166 0.9150134585481513 0
0.09622239761745255 0.9298255633374697 0
0.07179253205182234 0.8528968929039312 0
0.9163539823301464 0.9319499087201402 0
0.8626281110390974 0.9319652022997056 0
0.894342496147269 0.06568794698760172 0
0.5374419370747012 0.1748305986645226 0
0.7299728148136078 0.9366634290675365 0
0.7611322491446545 0.4303290623022308 0
0.7188787112242523 0.4507246666028893 0
0.7215975939252448 0.4016416735910747 0
0.2294261474608722 0.9390032268657991 0
0.4153509065914819 0.05391383444182229 0
0.6715053780514326 0.8760613771441043 0
0.6452492435239525 0.8947095036739777 0
0.6483983591282588 0.9255607466876095 0
0.620359010481822 0.9132153858695458 0
0.8980410216323806 0.2192615291701563 0
0.9263001812316871 0.2077987437348758 0
0.06037630796195947 0.4668242149465491 0
0.2814294103119334 0.9417802127544157 0
0.3083470313093783 0.9263316309989558 0
0.3120953043456979 0.8956810308982721 0
0.3356571669207828 0.9145633851585647 0
0.3321154001530339 0.942896429233964 0
0.3584761179837884 0.9329861823552055 0
0.7252553841549267 0.8350923565771826 0
0.5097886574979217 0.2032202669421493 0
0.4010972537317647 0.7330489114202132 0
0.06052587910368751 0.3497812692893071 0
0.05592286813374819 0.3783792300576121 0
0.0602101956929435 0.322450618931385 0
0.152992912652454 0.6989908046888934 0
0.1199794564760417 0.7173960437064669 0
0.1190904758195591 0.6833686495022481 0
0.08967411477678439 0.7007719383827847 0
0.08911805925372362 0.6690352856828528 0
0.0899735942805735 0.7328229622204691 0
0.06048184979159787 0.6857726224808754 0
0.06262919166383102 0.6553196617125154 0
0.08692603691619205 0.6390028099176485 0
0.06101083755394904 0.6272979397970473 0
0.09375844753559948 0.05181843256542268 0
0.1216580177941698 0.06375158773015194 0
0.94067940678065 0.3183321230503043 0
0.9355765876761075 0.3508194042393172 0
0.3634314080497942 0.9044992317145144 0
0.3858513351385383 0.9230728022041252 0
0.2025649400667274 0.1843600944753773 0
0.3557095412700013 0.4588906396760613 0
0.3102102914862999 0.4810105070539666 0
0.1829374391655473 0.4486115064651249 0
0.2222417286158673 0.4725865570422355 0
0.08423098608185031 0.6100892302821059 0
0.05525600387547075 0.5993733321933922 0
0.3988899848296326 0.4333070387917931 0
0.04537163705847774 0.9017255029198473 0
0.05444352737899971 0.4371358623937173 0
0.9448607802449562 0.919284757693458 0
0.9434669719712697 0.8925141324185581 0
0.9001549065025852 0.629803081238548 0
0.9266092610634098 0.6128695813789597 0
0.9409333429486317 0.9454498786813934 0
0.9440384725407813 0.1243211242281005 0
0.8933674095761313 0.8167355351533646 0
0.9201519177023993 0.8318968200641387 0
0.9216592151864669 0.8026001688384135 0
0.4885283695727173 0.6806075875365775 0
0.5313034919524237 0.6547161117867588 0
0.5311126429156395 0.606036506000309 0
0.6427475675156491 0.8643513834855026 0
0.6234665743183634 0.9414753396711255 0
0.5962882339684596 0.9304760187814946 0
0.5926641766174451 0.9018378116487564 0
0.5693698977311762 0.9199012500554521 0
0.5724235593069326 0.9505362422961537 0
0.5472798931664294 0.9380407758833604 0
0.4406158840301623 0.1378617308688495 0
0.3895542932120826 0.8914989424702831 0
0.7127050361654926 0.4963936912129644 0
0.2024795620972124 0.9156181718400147 0
0.07032826804102488 0.9456978842730132 0
0.09524970314991799 0.958345464533263 0
0.1200176380863233 0.9445372670721209 0
0.5751896491876654 0.6264881991680098 0
0.8356097078116318 0.9195788974456064 0
0.5460848354217217 0.2148287823292948 0
0.05232266612579489 0.1441945804693021 0
0.05594990999379235 0.1716151774418223 0
0.9461745532969611 0.2550686580937548 0
0.9502106623305413 0.531647288085371 0
0.03964093096283755 0.6421187562980222 0
0.9466232568598147 0.8175013166832958 0
0.9453196803832712 0.7904677540842766 0
0.9440458543029752 0.8449553455405447 0
0.9542705964468693 0.5038887708782843 0
0.9277025512315055 0.4884835063334469 0
0.9529610199892899 0.4743379143739889 0
0.9286860791844695 0.4604660289536336 0
0.6499111399404285 0.9525700033020628 0
0.2016677346946073 0.9475575724061155 0
0.6470774928563938 0.1384011917887402 0
0.6699535014618957 0.1110643169124678 0
0.6613775799823958 0.081209906204192 0
0.6914236244245759 0.08707310127858825 0
0.6823605440961789 0.0599551053604761 0
0.7112580990962766 0.06532040048038701 0
0.7212390779403757 0.09173157040225144 0
0.7386567861883846 0.06908117934461977 0
0.6535613344602826 0.05693351731029356 0
0.111763283793317 0.384210371629745 0
0.1771344312367453 0.9344278696714968 0
0.9517657370217745 0.5572451512478054 0
0.6793926228136147 0.4209257084215295 0
0.8377960040786417 0.9457921302284278 0
0.542381345553098 0.911452259615845 0
0.5212217356298232 0.9296247523537473 0
0.5257087983545743 0.9562816214342149 0
0.4989861636495185 0.9459733818805578 0
0.4941597882283221 0.9213530188188312 0
0.4730677301626405 0.9388157058638028 0
0.03754579731838764 0.3384381202155982 0
0.5926476038245143 0.1546734282191241 0
0.8110343735773988 0.9371144987501453 0
0.049026447626554 0.0851084958077355 0
0.04201914060322814 0.05879874501481303 0
0.8711276006546385 0.64929563257953 0
0.8389815925208416 0.6360642602398853 0
0.03387130109650949 0.1597413353208692 0
0.9644075287658556 0.9022304418947107 0
0.6215421499316023 0.5915918534513571 0
0.3812212172021718 0.9493678717055137 0
0.4055219432185939 0.9421821029938334 0
0.398533753022131 0.9647698473763925 0
0.5293010344923852 0.7070838145530342 0
0.03661548971536299 0.4566091324041729 0
0.9498971983201077 0.694020631602183 0
0.9480253833045935 0.6669698527040951 0
0.9470043839251984 0.7243855707007203 0
0.7066486193081656 0.9520449060064291 0
0.6794717225150907 0.9394027309054459 0
0.1877302592735949 0.6750222209453165 0
0.08271098263053095 0.5819884151506322 0
0.05678055276994831 0.5701049816130679 0
0.07936154953531249 0.5550319523892659 0
0.0535451377171946 0.5416847951143878 0
0.035800841220271 0.5820183961823295 0
0.7636971093630576 0.9210247770400724 0
0.7574544629869133 0.9490984606418231 0
0.1951063304259643 0.08007755795597477 0
0.1674492303961551 0.06736774871206941 0
0.2195696800466507 0.0635868231848522 0
0.2513237989750269 0.07592365894761416 0
0.2768590282622859 0.05566416327507018 0
0.3065337717878414 0.06555419899485493 0
0.3312219120126147 0.05200097824119548 0
0.1910683707302593 0.05217422870023602 0
0.9070199954388312 0.3726612028159719 0
0.9393700372479283 0.380248719691971 0
0.9609602160581933 0.3614359435684555 0
0.04963832493201248 0.9296021286346006 0
0.04865978050283892 0.9517756557029856 0
0.9400653258153129 0.2864285547424974 0
0.05232794826988368 0.1127197214276547 0
0.2635547532364188 0.4514093968135572 0
0.8718388071378071 0.5010461292427049 0
0.1837973356224823 0.8895285046131831 0
0.05993075802253806 0.7168993197412939 0
0.06367045959680406 0.7473716859303842 0
0.08919134286731351 0.7630991208997129 0
0.0634054451375663 0.7767574589174859 0
0.08928113826285788 0.7932186006246125 0
0.05939212676310496 0.805787875401706 0
0.08500183046904125 0.8220269592149729 0
0.8042457336938473 0.6541365422144674 0
0.3259571467336186 0.8264549601745563 0
0.03248274109249505 0.1015695500039528 0
0.5105644725875313 0.0750694709025298 0
0.5298731265155683 0.05225345933918646 0
0.4992252611763678 0.04749625756749953 0
0.4735338334821194 0.03932186907808261 0
0.4534772415085725 0.05592957388429276 0
0.5583512660395129 0.05834080715782303 0
0.2557939517671042 0.9458309880740097 0
0.9409060443539081 0.0410146411765725 0
0.9462672871325464 0.2262871518729606 0
0.9495383266034916 0.2009466497981418 0
0.9319556300481479 0.1808456180975842 0
0.6301979434179183 0.07392087755905574 0
0.6173605558607734 0.04646458587500901 0
0.5947676151679587 0.04009777535894282 0
0.9510300562873717 0.4479849516252055 0
0.9318447437067532 0.4325623578615341 0
0.9592518238484364 0.4238383354386395 0
0.9008342718170369 0.4429031645164733 0
0.9269790358696828 0.7444711688032893 0
0.9516386860059015 0.7477156228875925 0
0.9688465980073676 0.5417890992870499 0
0.8879856449200447 0.948199822667063 0
0.08390589469274123 0.2300612620555455 0
0.05981820444801772 0.2482233004076864 0
0.05587788402917049 0.2176231936466307 0
0.05955644949923594 0.2762848407268537 0
0.9294123821766204 0.6439175950068005 0
0.9495071283766312 0.625992357697279 0
0.9510461119226146 0.59683355431676 0
0.0804719692550675 0.1934248567661291 0
0.6587203805036183 0.1771096451228341 0
0.03913734017297377 0.7368737450354408 0
0.4667057394520577 0.9151049582010854 0
0.4515295384404557 0.9321008259689637 0
0.4518698854309505 0.9585006741825222 0
0.1496638897747121 0.7820590757842081 0
0.9246942929101819 0.5824099596864115 0
0.08281895865796524 0.2988601801929047 0
0.3929048330077963 0.1882722763878283 0
0.355127680569459 0.1697290015256828 0
0.3199878476957487 0.1853797634329049 0
0.2441983844719386 0.04508629792135699 0
0.2235982663726312 0.2884358215313085 0
0.3575687610136938 0.9612357034342975 0
0.8250257037173797 0.8884183138926832 0
0.9195252959471165 0.8596944248470761 0
0.04458597641892309 0.8733398528436456 0
0.04182859277167439 0.8459531782712633 0
0.8646098301679001 0.7770727718970791 0
0.8040948063697761 0.1077036181928925 0
0.8076806860706038 0.07467740953059548 0
0.8351252809185354 0.06172781816495243 0
0.7793965176840407 0.08783919936087214 0
0.782400414420013 0.05619737372078315 0
0.8656111070416397 0.07454710962660605 0
0.8595163056278801 0.04752531592135756 0
0.8378151387568165 0.03573244282619664 0
0.8104876865890998 0.04544879562867565 0
0.2662108397775429 0.813348671514341 0
0.2621348903192282 0.5103781323147828 0
0.2158197211021508 0.5194264901046686 0
0.7325041647993885 0.1434178846647954 0
0.9167884076535227 0.9611793235943822 0
0.6070693115529258 0.8261521956312776 0
0.3134538753872275 0.2323359675362983 0
0.2827715209181477 0.200156413346439 0
0.06112940283596846 0.49308402172715 0
0.08067902997155663 0.4222300660690883 0
0.5999568027853176 0.9617517680417965 0
0.5790241698744778 0.9719243440183536 0
0.05809415949984026 0.4072952921195054 0
0.1111297693894617 0.6219294008441045 0
0.9673094944966516 0.8305671660412282 0
0.1348630922618215 0.1150430468963463 0
0.5418155104528178 0.8645689867155582 0
0.7830370728474256 0.9412450735462738 0
0.3923546223498438 0.0442012281398862 0
0.3718012475342628 0.06323612729948613 0
0.3677558335653276 0.03622919255286605 0
0.7326575617049353 0.9643572604570984 0
0.1404368412746455 0.4435962183897271 0
0.8954405340269981 0.9702295393395999 0
0.4443950550467466 0.7057482047493633 0
0.7081711972412309 0.7901543453926273 0
0.1230269297132247 0.9159283146122694 0
0.1463567536566301 0.9369174140932911 0
0.1610824900689034 0.9585035451492094 0
0.962701774899697 0.2996471626432425 0
0.222746685510088 0.2417817041190526 0
0.7281777328549731 0.04719493533432595 0
0.7534205105940542 0.04652650449652573 0
0.7035126368299991 0.03954143154755213 0
0.1429153990988065 0.08296085820393556 0
0.3087653427885296 0.9555101779444893 0
0.9593816948166182 0.1774425392739649 0
0.9378297464136962 0.1538224495116661 0
0.9631437791857467 0.1467519060466823 0
0.04104019613041321 0.7013921067975312 0
0.04115714808262466 0.7613614030460267 0
0.5164821290683413 0.2454404334769125 0
0.958398596165171 0.3373854177363118 0
0.8207981889714504 0.9615989118741067 0
0.4143345600983134 0.9106546785567954 0
0.112286350339832 0.7803260830186718 0
0.3313728168950069 0.9683382251955144 0
0.5520320826574311 0.03567981170700074 0
0.9238426948106589 0.7739276347055215 0
0.2990706768799694 0.04169121231227024 0
0.3138596318737265 0.5346011595677084 0
0.3546490509573877 0.4086461785766214 0
0.7950062393217585 0.6949516706319354 0
0.6829832667826778 0.3734681647561648 0
0.7272783250074102 0.3542906697510433 0
0.6398928094539851 0.3918921690091333 0
0.2304413618483954 0.6896643281813175 0
0.1489935515920673 0.3745148520793956 0
0.3099428877502138 0.4313202481673774 0
0.6899264176216043 0.9703500225179111 0
0.8986091469746116 0.4755201576435529 0
0.1371671802707602 0.409206134696937 0
0.6641940230383733 0.6617872220348444 0
0.6633288186040603 0.4677951857423229 0
0.3541236503230101 0.3587350924716803 0
0.8609591780725092 0.9588470064209341 0
0.7503430993324499 0.09388073907306349 0
0.3973534726920783 0.3329540145164654 0
0.9634433121447025 0.2762639701800422 0
0.4850206524164102 0.381239552963067 0
0.4419097404193116 0.4074711624731273 0
0.4855148385278013 0.4319751764672357 0
0.6180227449581484 0.5005632398978441 0
0.5306428222667394 0.5559725666384294 0
0.3575357560346616 0.5589388105773392 0
0.4877204303391127 0.5818587740945941 0
0.4018469564355133 0.6826654722272881 0
0.4491849353657972 0.7561118238949667 0
0.3146433637254172 0.5848715800881445 0
0.4426046057396251 0.4576347212429168 0
0.9027348635381903 0.1878046764875985 0
0.8702021588075792 0.1762688024729866 0
0.06974839479474343 0.04293586923010539 0
0.3980181762167722 0.3830571688870195 0
0.9638146117251802 0.1067443825193953 0
0.6698194203907086 0.03487870498764883 0
0.3422926969172573 0.8850646773457682 0
0.5641664286491828 0.8866428558708627 0
0.7891759109560963 0.03262739667130587 0
0.4234699106840848 0.9595242705598241 0
0.2917338119216725 0.159647403017728 0
0.2658411345663173 0.03451524781882764 0
0.2900799680602025 0.9714495029368069 0
0.1832381925895286 0.4925937095778007 0
0.9349303121425844 0.4058839524603345 0
0.5758129446638938 0.5770649905699666 0
0.1145603910324979 0.03662968807644829 0
0.1384308601101716 0.0401108081293825 0
0.09077228532885029 0.023916419694959 0
0.7646759915455054 0.3828435762833272 0
0.7801320138042316 0.3367789463758287 0
0.03812263479550781 0.4783244208151784 0
0.3590093846983301 0.7079602204830185 0
0.03884117067145276 0.665290848035456 0
0.4119458880772352 0.03006591947411941 0
0.4350058632826317 0.03761646402685792 0
0.7033142981668293 0.121731478679914 0
0.287645608957596 0.874879449893827 0
0.2298714397471468 0.02699942155421181 0
0.5296844078979213 0.03026832619156367 0
0.6277911377799597 0.9665882575143705 0
0.9711708662666313 0.4856193388530874 0
0.6973200175407879 0.3009748465460342 0
0.9186550361400131 0.05465723787747689 0
0.8988424857324946 0.03908042097696085 0
0.02081117594675119 0.9069846591685454 0
0.08861825438421445 0.9812096396383769 0
0.9098065678873435 0.01799042799867778 0
0.9505835629437693 0.01870633782271047 0
0.9826824267644887 0.949863124816439 0
0.04916385777970245 0.9838203793466567 0
0.01842850672883722 0.04954953431111497 0
0.016640980822895 0.95127337976271 0
0.9497278497848578 0.9823821839187509 0
0.9610231593960333 0.9626908560040547 0
0.9826824267644895 0.05013687518356102 0
0.04723469600135 0.0181972443747801 0
0.9831707989373769 0.848329545030194 0
0.8495375368985071 0.01655959801247925 0
0.1502787309309768 0.9811953145421111 0
0.1090610355196046 0.9812488781127371 0
0.8898739249824211 0.01731691544699226 0
0.9826389052845228 0.8902670426338242 0
0.01518827495882236 0.8892231251018308 0
0.9857021508588555 0.1494444180778021 0
0.8498823908364486 0.9826835227643244 0
0.1513893792458095 0.01982808966413024 0
0.01773552305264692 0.8502697316812757 0
0.04075616651521091 0.8208569882541841 0
0.170301010548231 0.9813081349529961 0
0.01873792894757731 0.8115996377779822 0
0.1935511506803475 0.01800156253191176 0
0.9824823036645064 0.1896634142027888 0
0.8093653227889308 0.979849845678882 0
0.01731581513819219 0.2101030074740186 0
0.0364469760746472 0.2001058145636073 0
0.9828246749891039 0.7902432900987545 0
0.2101030060877516 0.9827018786428154 0
0.9828994485360384 0.230006042951666 0
0.02014365829956855 0.7722003879213343 0
0.7699023685611246 0.9826844059206878 0
0.9832743374893006 0.749680482665253 0
0.7524322970430031 0.02107887680901344 0
0.01834874597630287 0.2496371765633815 0
0.2526421795477702 0.9823194178297371 0
0.01820047195116092 0.7287196203016424 0
0.9832157238296981 0.6701699403868121 0
0.9857488431444978 0.7095279539539846 0
0.7099200288472056 0.01731493108317794 0
0.01768776457393872 0.2900799748079496 0
0.03236214817223637 0.2996677841578191 0
0.6501816406867349 0.9781218091503965 0
0.01905971075767793 0.6516485946967693 0
0.9807396614516815 0.3498164099652188 0
0.3507986430020614 0.01744851732658836 0
0.9823624436361573 0.3098883467275861 0
0.3102082281088253 0.0187585820897096 0
0.01855598574430484 0.691626507345222 0
0.4755506311331737 0.2309035190804515 0
0.6085858475492262 0.0205712455045528 0
0.01790131830439734 0.3881281835516061 0
0.9860034971751674 0.6101202114292886 0
0.6515152270829813 0.01782940201034511 0
0.0180561429362267 0.3497890826932202 0
0.03704592088148678 0.3605047111206567 0
0.9834883230357548 0.649761155969548 0
0.3480618366779506 0.9830532652863567 0
0.9813572752202472 0.4106717990776042 0
0.01887227994690877 0.6306713583076933 0
0.03725211734087791 0.6199506878937562 0
0.9826859595438421 0.3700528399344986 0
0.4493287456562992 0.9824371549515832 0
0.9784246902515015 0.5926943903326883 0
0.5890563792482597 0.01794833991108763 0
0.01834624654410505 0.4083031589066774 0
0.9849419285107518 0.4709481919094859 0
0.4688926767599015 0.01789695035784189 0
0.01757358493220179 0.5299868796076244 0
0.5299868633614847 0.9826870396645662 0
0.01731337142043815 0.5699702081895553 0
0.9826866285795618 0.4300297918104445 0
0.4700131366385178 0.9826870763660953 0
0.4806568895234019 0.9625076708053789 0
0.01776330547187799 0.4695435852884928 0
0.510948540076214 0.9813396412730127 0
0.01805409274117986 0.5097759173655847 0
0.03643667533629263 0.5208820645208548 0
0.4926059035070429 0.02215363771165868 0
0.8996660108953605 0.661865905050767 0
0.03937226222228979 0.7856674138811858 0
0.610782971932378 0.355255586693291 0
0.2185825545991862 0.9640381762565906 0
0.7555682750944317 0.8086373328931534 0
0.6204519001736646 0.640032488737761 0
0.1663880304047853 0.04177961423776877 0
0.03804047105215791 0.2603679665710484 0
0.617005407802774 0.8838955129435005 0
0.5779669760523155 0.7182336057079567 0
0.2333890017638437 0.1631366304537698 0
0.9635616280936403 0.9398646230665452 0
0.6984678193397361 0.8577740786174325 0
0.4739936082569477 0.7901026883199789 0
0.2110148659589682 0.03810467702013404 0
0.4120142884381428 0.8678483827559699 0
0.8540008690607005 0.2928521057181329 0
0.825332689678053 0.2687528119354479 0
0.818846257669261 0.3073463149156413 0
0.7819017748122539 0.2828696779868987 0
0.797912597733117 0.2426363619880865 0
0.9631963788869565 0.5766325597347981 0
0.2664562693922963 0.4055939480906106 0
0.9607733349720299 0.3984562489161344 0
0.8033025279170145 0.4173392986263952 0
0.1459616165595595 0.4771266143735424 0
0.9635580802821875 0.8598802456659265 0
0.1379969530485285 0.9615152842269191 0
0.9091688105873866 0.9832966078386631 0
0.8672163145411245 0.228371077878136 0
0.0823516307254632 0.3939926897895214 0
0.559832052706671 0.1470576664163175 0
0.7785272529198657 0.9632755494560035 0
0.1497349864485907 0.6632957932206238 0
0.4101672729615454 0.1337343049117795 0
0.8205929085220698 0.3427800410318086 0
0.1715744550405964 0.2046323837445436 0
0.01777735807267383 0.329441319846809 0
0.1172976340137543 0.6505826153189382 0
0.1830755663361515 0.2738670360939032 0
0.8366328247351416 0.6005311506286845 0
0.03494911301539616 0.03811113654595077 0
0.1190670247645256 0.752428690777859 0
0.9698600283626564 0.01613895039812785 0
0.9833519713737663 0.9701098033713709 0
0.02906731079051639 0.9845672396468758 0
0.01621387195385143 0.03002947420336721 0
0.9824848296022395 0.2687220027141981 0
0.4699750075743812 0.1893894549564714 0
0.7533140162883784 0.5205310670247993 0
0.7299263563528464 0.9855341494513399 0
0.9828319034831393 0.1107393262818101 0
0.5469383957910634 0.01612445783243355 0
0.03816836331998924 0.2378930988436048 0
0.6419634676435919 0.03780830288625575 0
0.6654690765021024 0.5195223032899539 0
0.6254945572961765 0.1609214576909861 0
0.03608510814087029 0.5594549507523334 0
0.5535863571345974 0.9600641704712214 0
0.1109442658985863 0.01590659986512788 0
0.4712411664141987 0.1506884338351536 0
0.1799856752123387 0.5265878522080122 0
0.9177651358621449 0.1382957921210795 0
0.1047201339050892 0.5970506525478597 0
0.9640760263453303 0.2400949862684702 0
0.8341102036821363 0.2353516563721577 0
0.03641229589996442 0.396454586367452 0
0.8293573249964922 0.01714427361902271 0
0.6692863766384809 0.8426255777794203 0
0.6701371525519586 0.01411370702948511 0
0.7083730398994672 0.5425419763744309 0
0.2708704274020186 0.01691494702153429 0
0.2934041888375792 0.8398994560256724 0
0.01742187131992451 0.4488521452962204 0
0.390045414558028 0.9838908643192156 0
0.9826925552374948 0.9107362265846063 0
0.0597542497141707 0.8295043788092116 0
0.2391276152793413 0.2025079942905855 0
0.03610680581971903 0.4991108759580519 0
0.9633140539902706 0.8803465024599684 0
0.9650715899094918 0.03559220143300801 0
0.2430531318062069 0.9626406139282482 0
0.03471736862460606 0.28008326648829 0
0.4278451101691079 0.01630388323658705 0
0.5722541456209048 0.1871759729705545 0
0.1833999263476632 0.9620151063866957 0
0.6694642230542104 0.9622761784790042 0
0.3698483011041347 0.01495200832956345 0
0.03624144367586923 0.4193509777520004 0
0.01730137479914129 0.5908423981601754 0
0.9648190735647437 0.7998942017265096 0
0.9655092439012973 0.7800530325077618 0
0.3200704094171091 0.03494333305862896 0
0.4103590557970796 0.9818119289948284 0
0.01570161709089435 0.1700643582577114 0
0.8945588065103001 0.7888454973300378 0
0.2677335594025157 0.9639865243323528 0
0.6298682397175924 0.9850999875054905 0
0.9031789664039654 0.5016390568282143 0
0.3850896509570572 0.1551358886981013 0
0.4831911142657092 0.721901747974931 0
0.01595111713845909 0.1508276876819024 0
0.03437859804557208 0.1252314362934443 0
0.9396189465271932 0.9663203924631092 0
0.03468326412052303 0.179470513239298 0
0.6938225586439746 0.8219544657742095 0
0.1201241794550124 0.965527029738715 0
0.8104109848146754 0.6212785904570853 0
0.4284860983353706 0.1692323278845479 0
0.5743655903386176 0.672339215783008 0
0.9198683034423286 0.03443683769737449 0
0.9658471130933635 0.6799297854900781 0
0.7901342336924022 0.01389363221655954 0
0.3197713774923484 0.862081220151004 0
0.9646977400073018 0.1255183671697154 0
0.9843870810396841 0.5302402596467861 0
0.05056876393001736 0.2992599991832222 0
0.05670384510704429 0.1939759775148831 0
0.05791026989825787 0.5178517597860935 0
0.03223064735394582 0.5403974199986726 0
0.3459129685725931 0.03668684464126448 0
0.3689740264926809 0.8768053287615054 0
0.9428666400618176 0.869830545126404 0
0.6201158570783165 0.5470900385708343 0
0.7617953424544014 0.0701209995278913 0
0.5471600822504217 0.7460255173504272 0
0.5926722873336938 0.875124691398484 0
0.9868255240176804 0.8301280752345805 0
0.2625234837502967 0.1740228725351586 0
0.1798079009792715 0.9107771311650871 0
0.07594036407195953 0.9635466787647313 0
0.5012609625724982 0.9657578930324635 0
0.4543620636421442 0.03563797014455083 0
0.9661941944616472 0.6372395257757124 0
0.8730810962416967 0.6776475997388142 0
0.03312899272316877 0.2190591450919083 0
0.9670444164647347 0.3800492722702318 0
0.3298457925052058 0.9865985376818116 0
0.5837307302827022 0.2313966587980502 0
0.5733466536293454 0.03726651542977732 0
0.7348084864318684 0.1146606517709258 0
0.01448542302002098 0.1106371715565728 0
0.5899622676461094 0.9865029490006386 0
0.96665766168502 0.2195339355467484 0
0.9683426943717972 0.5224845191411163 0
0.6767654019821145 0.1409032704547637 0
0.1192510361705346 0.09050314151121641 0
0.7360307720982883 0.3140689374340658 0
0.8772743756745607 0.03343317874467511 0
0.813302786109664 0.9123760860817394 0
0.5300692363856461 0.01246217863937576 0
0.8397079414569029 0.9662485052145504 0
0.9660328508846536 0.7363564740701978 0
0.9669522221869897 0.3197999450860466 0
0.1789490856329072 0.642768390744844 0
0.4876263065740792 0.8965825565533009 0
0.1007210007792897 0.8420179261915183 0
0.5151522631300273 0.90407826413643 0
0.01321862344146707 0.09012992788203367 0
0.7701358409928345 0.0346464259167259 0
0.9674667544181724 0.4600175354898402 0
0.2005818399140679 0.9677033345053806 0
0.03296699841156259 0.9415941252335089 0
0.4410466060439981 0.9106303319907205 0
0.6899264265834343 0.9868602532242804 0
0.03596316807242839 0.316555235958567 0
0.9685278276992491 0.7090815196690767 0
0.2014823883612759 0.2159988877084799 0
0.1617230742619979 0.425210981315025 0
0.9676510752756708 0.9204663668233097 0
0.4100377323538906 0.01282773185562308 0
0.4291046721534895 0.9374510809090209 0
0.6134232532680937 0.8549090996568736 0
0.7982354778589195 0.9588921793981505 0
0.9664242448124164 0.7589355942338268 0
0.5700851269533332 0.9868599581019539 0
0.1042547526348716 0.4084522315461544 0
0.2907200925419163 0.9874066054402748 0
0.7637189884637937 0.2478923928163076 0
0.03084215782400301 0.08111606420199907 0
0.01459983422740385 0.01459983422740363 0
0.01459983422740363 0.9854001657725961 0
0.9854001657725964 0.01459983422740385 0
0.9854001657725961 0.9854001657725964 0
0.9489686156600836 0.7699055788220632 0
0.3483530948385347 0.05636226180239151 0
0.6027108185713044 0.4059242554038526 0
0.9172681677281882 0.1633096360319191 0
0.9876019381012446 0.4900044212587794 0
0.2349763879641531 0.5499711186457925 0
0.03121323627126982 0.8602818575486366 0
0.9658856802949082 0.6585146866579132 0
0.8788231613468649 0.9680546891154355 0
0.09553097126890614 0.5362732328577559 0
0.130547755313377 0.6045580224426914 0
0.03257825157116406 0.6005201210512525 0
0.03214358961266001 0.9206284887632182 0
0.8205660672894675 0.03053481434997007 0
0.3793223307603047 0.9683819687795927 0
0.8893197428627364 0.9858786712372863 0
0.9518049537228801 0.64652680356836 0
0.9677260630090643 0.6143498494594757 0
0.8791173540447688 0.05205479445144029 0
0.8683624385473478 0.8043867373287541 0
0.640695995558672 0.8317602493074979 0
0.92020217329485 0.3908957553557484 0
0.0360991302785818 0.9647477572114947 0
0.4626936628157255 0.8934156139103606 0
0.9442436441774116 0.5743613417925196 0
0.9853768788992895 0.5501852868369383 0
0.7573000826754839 0.9684795473955554 0
0.6351899971227671 0.05456449198719976 0
0.03285333651574729 0.4376891875884135 0
0.2300976314388753 0.0120246461390241 0
0.7788710338007716 0.6321257637899499 0
0.3563641123808602 0.1386647428844471 0
0.7376689782699762 0.03209483427587906 0
0.05888687019520922 0.966470245084236 0
0.6927375653956944 0.338142953442978 0
0.03432652396188129 0.717744330100954 0
0.074711713543547 0.5328251814201717 0
0.5130276701226364 0.03361795799655809 0
0.5536173544596789 0.2486908313911526 0
0.03496844297379387 0.6846168610452741 0
0.9694804273738797 0.5595001360065706 0
0.8106696417944568 0.2127257123937791 0
0.92374153624271 0.8816269322089847 0
0.3855082084934062 0.8634093696296999 0
0.2827638422967042 0.03340002924232088 0
0.4386745833954454 0.9707871728518671 0
0.1469686376805169 0.06125808683678741 0
0.6425980704773354 0.4308653541688673 0
0.184138238852553 0.03382195187964182 0
0.9672788767292566 0.2570905641296187 0
0.9683293915041395 0.1995379074614001 0
0.5398629294069848 0.9701623937387867 0
0.2991081625833092 0.8075478038821966 0
0.4344719375256588 0.06310706093372936 0
0.8588042838912611 0.02996863509920544 0
0.2102992565493272 0.886515758590153 0
0.5349434439985814 0.8881012976973115 0
0.7199167870249389 0.0305623606234649 0
0.968941645695372 0.4417062617134414 0
0.05149515355567785 0.0342530739492371 0
0.580064706274509 0.05704163480509117 0
0.7931412935027873 0.9230872076794039 0
0.02999172714451337 0.1429371348768477 0
0.327993454977344 0.06962715216188797 0
0.5628080114444738 0.9733289137031662 0
0.03291685732890115 0.3780992857284616 0
0.03454895427342575 0.8042935246480982 0
0.03078780131940884 0.888353529341005 0
0.8763138560124594 0.2025868356741857 0
$EndNodes
$Elements
5 2504 1 2504
1 1 1 50
1 1 5 
2 5 6 
3 6 7 
4 7 8 
5 8 9 
6 9 10 
7 10 11 
8 11 12 
9 12 13 
10 13 14 
11 14 15 
12 15 16 
13 16 17 
14 17 18 
15 18 19 
16 19 20 
17 20 21 
18 21 22 
19 22 23 
20 23 24 
21 24 25 
22 25 26 
23 26 27 
24 27 28 
25 28 29 
26 29 30 
27 30 31 
28 31 32 
29 32 33 
30 33 34 
31 34 35 
32 35 36 
33 36 37 
34 37 38 
35 38 39 
36 39 40 
37 40 41 
38 41 42 
39 42 43 
40 43 44 
41 44 45 
42 45 46 
43 46 47 
44 47 48 
45 48 49 
46 49 50 
47 50 51 
48 51 52 
49 52 53 
50 53 2 
1 2 1 50
51 2 54 
52 54 55 
53 55 56 
54 56 57 
55 57 58 
56 58 59 
57 59 60 
58 60 61 
59 61 62 
60 62 63 
61 63 64 
62 64 65 
63 65 66 
64 66 67 
65 67 68 
66 68 69 
67 69 70 
68 70 71 
69 71 72 
70 72 73 
71 73 74 
72 74 75 
73 75 76 
74 76 77 
75 77 78 
76 78 79 
77 79 80 
78 80 81 
79 81 82 
80 82 83 
81 83 84 
82 84 85 
83 85 86 
84 86 87 
85 87 88 
86 88 89 
87 89 90 
88 90 91 
89 91 92 
90 92 93 
91 93 94 
92 94 95 
93 95 96 
94 96 97 
95 97 98 
96 98 99 
97 99 100 
98 100 101 
99 101 102 
100 102 3 
1 3 1 50
101 3 103 
102 103 104 
103 104 105 
104 105 106 
105 106 107 
106 107 108 
107 108 109 
108 109 110 
109 110 111 
110 111 112 
111 112 113 
112 113 114 
113 114 115 
114 115 116 
115 116 117 
116 117 118 
117 118 119 
118 119 120 
119 120 121 
120 121 122 
121 122 123 
122 123 124 
123 124 125 
124 125 126 
125 126 127 
126 127 128 
127 128 129 
128 129 130 
129 130 131 
130 131 132 
131 132 133 
132 133 134 
133 134 135 
134 135 136 
135 136 137 
136 137 138 
137 138 139 
138 139 140 
139 140 141 
140 141 142 
141 142 143 
142 143 144 
143 144 145 
144 145 146 
145 146 147 
146 147 148 
147 148 149 
148 149 150 
149 150 151 
150 151 4 
1 4 1 50
151 4 152 
152 152 153 
153 153 154 
154 154 155 
155 155 156 
156 156 157 
157 157 158 
158 158 159 
159 159 160 
160 160 161 
161 161 162 
162 162 163 
163 163 164 
164 164 165 
165 165 166 
166 166 167 
167 167 168 
168 168 169 
169 169 170 
170 170 171 
171 171 172 
172 172 173 
173 173 174 
174 174 175 
175 175 176 
176 176 177 
177 177 178 
178 178 179 
179 179 180 
180 180 181 
181 181 182 
182 182 183 
183 183 184 
184 184 185 
185 185 186 
186 186 187 
187 187 188 
188 188 189 
189 189 190 
190 190 191 
191 191 192 
192 192 193 
193 193 194 
194 194 195 
195 195 196 
196 196 197 
197 197 198 
198 198 199 
199 199 200 
200 200 1 
2 1 2 2304
201 848 1043 780 
202 720 721 509 
203 888 1055 975 
204 344 1078 810 
205 757 972 210 
206 939 1007 900 
207 843 1002 952 
208 769 774 767 
209 758 972 757 
210 599 782 506 
211 866 875 322 
212 786 894 721 
213 856 858 428 
214 858 1003 428 
215 613 725 514 
216 9 901 8 
217 817 1091 224 
218 679 830 471 
219 889 1114 389 
220 472 789 416 
221 780 1043 531 
222 270 965 906 
223 246 924 693 
224 952 1002 228 
225 522 695 694 
226 720 786 721 
227 841 937 256 
228 694 1135 522 
229 847 1016 424 
230 833 1078 344 
231 1103 1142 744 
232 804 853 423 
233 710 712 426 
234 715 716 575 
235 784 785 538 
236 583 708 667 
237 1082 1097 957 
238 693 1180 246 
239 786 1015 911 
240 903 1036 447 
241 490 720 509 
242 252 901 885 
243 256 945 839 
244 945 1235 839 
245 748 1000 747 
246 824 1211 267 
247 646 1016 847 
248 225 1174 946 
249 906 965 659 
250 439 733 508 
251 828 1005 594 
252 364 909 806 
253 1153 1167 217 
254 838 849 262 
255 487 715 575 
256 379 741 739 
257 707 824 215 
258 613 726 725 
259 839 841 256 
260 481 762 442 
261 895 1097 588 
262 690 1057 355 
263 233 1142 1103 
264 836 888 263 
265 653 789 472 
266 663 914 202 
267 708 1087 667 
268 760 762 481 
269 563 757 756 
270 745 747 746 
271 838 895 588 
272 389 1114 743 
273 312 1124 898 
274 852 1093 722 
275 284 799 573 
276 832 871 214 
277 202 1145 663 
278 722 1093 723 
279 564 747 745 
280 660 1091 817 
281 885 901 610 
282 442 762 441 
283 991 997 685 
284 514 725 446 
285 207 1143 813 
286 747 1222 746 
287 227 1015 944 
288 767 774 457 
289 985 1202 773 
290 706 763 532 
291 785 893 538 
292 902 903 447 
293 866 1056 875 
294 764 1185 763 
295 964 1087 269 
296 813 913 207 
297 348 859 709 
298 8 901 252 
299 471 1130 679 
300 379 780 366 
301 776 843 268 
302 712 1194 426 
303 773 1022 985 
304 599 1117 782 
305 515 730 612 
306 716 1211 824 
307 526 1209 781 
308 533 771 705 
309 655 731 512 
310 719 1015 786 
311 1049 1109 1061 
312 802 1198 801 
313 355 1085 690 
314 669 1146 775 
315 210 1055 757 
316 511 774 656 
317 706 764 763 
318 1061 1109 645 
319 717 719 489 
320 215 862 707 
321 434 733 439 
322 667 1087 964 
323 506 782 451 
324 526 781 479 
325 409 793 411 
326 367 864 860 
327 631 841 840 
328 255 1007 939 
329 833 1040 534 
330 655 1103 731 
331 717 724 719 
332 766 868 572 
333 980 993 761 
334 730 832 612 
335 563 756 560 
336 716 824 575 
337 769 1118 774 
338 821 823 205 
339 709 1155 348 
340 903 1148 1020 
341 1015 1233 944 
342 758 986 972 
343 518 1014 880 
344 903 1020 1019 
345 618 853 804 
346 564 745 552 
347 793 1204 411 
348 231 939 900 
349 677 1055 888 
350 898 1124 698 
351 997 1132 685 
352 835 1217 955 
353 766 1193 868 
354 652 898 698 
355 844 1223 304 
356 425 1110 1006 
357 726 1137 1024 
358 467 790 468 
359 481 897 760 
360 726 1024 897 
361 364 1146 909 
362 1000 1222 747 
363 570 1077 741 
364 698 1006 652 
365 337 1237 803 
366 416 789 413 
367 707 862 708 
368 423 1190 804 
369 796 802 801 
370 957 1097 219 
371 540 822 541 
372 751 1097 1082 
373 680 1209 526 
374 794 795 494 
375 525 708 583 
376 679 831 830 
377 955 1160 835 
378 779 995 994 
379 247 921 752 
380 366 780 357 
381 862 1087 708 
382 751 1082 579 
383 414 890 819 
384 673 888 836 
385 790 1227 468 
386 775 1146 364 
387 1067 1089 987 
388 787 1040 833 
389 946 1174 846 
390 779 994 984 
391 813 1143 814 
392 603 735 606 
393 579 1082 1004 
394 532 763 476 
395 464 818 460 
396 763 1185 851 
397 471 830 829 
398 613 727 726 
399 253 941 792 
400 742 855 404 
401 667 964 913 
402 756 1212 677 
403 792 940 253 
404 540 1186 822 
405 771 1201 705 
406 802 891 221 
407 405 1005 828 
408 288 794 494 
409 377 797 794 
410 414 1127 890 
411 465 717 489 
412 379 1157 741 
413 892 1172 779 
414 810 1129 893 
415 292 806 377 
416 791 792 570 
417 545 753 657 
418 513 818 464 
419 350 1237 337 
420 706 1167 1153 
421 367 1169 864 
422 483 715 487 
423 329 844 304 
424 459 774 511 
425 692 1180 693 
426 731 1103 744 
427 1020 1148 326 
428 296 775 364 
429 741 1157 570 
430 880 1101 518 
431 975 1070 888 
432 304 1223 302 
433 733 1099 508 
434 1006 1110 652 
435 668 1086 679 
436 739 848 379 
437 286 799 284 
438 397 1205 808 
439 592 849 838 
440 528 751 579 
441 811 904 587 
442 619 1026 825 
443 671 756 677 
444 1035 1109 1100 
445 810 893 785 
446 509 722 510 
447 1019 1036 903 
448 391 819 422 
449 779 1230 892 
450 267 1051 824 
451 735 842 606 
452 598 1031 815 
453 594 1106 828 
454 201 1222 1000 
455 830 1028 651 
456 724 1015 719 
457 493 766 572 
458 533 1001 771 
459 499 811 587 
460 564 748 747 
461 370 1039 816 
462 639 913 813 
463 563 758 757 
464 377 869 797 
465 618 804 732 
466 360 1062 805 
467 918 1252 624 
468 231 900 899 
469 650 933 919 
470 914 1161 988 
471 795 796 494 
472 216 970 842 
473 424 1164 847 
474 732 861 618 
475 217 1167 960 
476 730 871 832 
477 974 1202 985 
478 795 802 796 
479 264 1167 1112 
480 845 966 727 
481 973 1067 987 
482 238 1094 892 
483 489 720 490 
484 799 1203 573 
485 344 810 809 
486 221 1198 802 
487 567 791 570 
488 518 1101 702 
489 522 742 695 
490 266 894 786 
491 471 829 380 
492 408 1205 397 
493 272 1121 1093 
494 702 1126 518 
495 287 884 289 
496 338 783 353 
497 523 782 770 
498 629 781 773 
499 322 1232 866 
500 262 895 838 
501 598 977 597 
502 626 1012 630 
503 750 1245 558 
504 718 724 717 
505 722 1248 510 
506 344 809 341 
507 664 863 666 
508 839 1235 754 
509 745 746 557 
510 587 703 625 
511 289 884 354 
512 477 532 476 
513 533 704 532 
514 515 612 514 
515 419 476 418 
516 603 606 604 
517 502 528 503 
518 634 660 633 
519 629 772 771 
520 601 603 602 
521 511 655 512 
522 523 768 767 
523 439 479 440 
524 452 506 451 
525 575 707 524 
526 508 526 479 
527 531 601 600 
528 371 451 372 
529 597 689 599 
530 507 597 506 
531 498 811 499 
532 470 717 465 
533 484 715 483 
534 528 579 503 
535 527 658 526 
536 605 735 603 
537 434 439 433 
538 368 426 369 
539 410 418 409 
540 476 763 478 
541 470 718 717 
542 656 696 655 
543 362 371 363 
544 658 765 680 
545 359 368 360 
546 568 624 567 
547 361 375 365 
548 624 1197 918 
549 721 722 509 
550 632 633 467 
551 432 433 431 
552 626 1170 1012 
553 736 776 735 
554 788 1199 209 
555 896 1026 619 
556 367 860 362 
557 447 1025 902 
558 271 966 845 
559 446 725 444 
560 796 801 800 
561 351 784 783 
562 356 531 530 
563 650 1107 933 
564 390 424 387 
565 798 802 795 
566 731 744 692 
567 385 389 383 
568 502 503 375 
569 417 484 483 
570 588 751 528 
571 487 575 524 
572 679 1086 831 
573 736 843 776 
574 649 729 728 
575 583 667 639 
576 627 697 626 
577 455 767 457 
578 379 848 780 
579 493 572 472 
580 213 969 852 
581 936 1252 918 
582 752 1111 247 
583 671 673 672 
584 631 1115 841 
585 557 750 558 
586 774 1118 656 
587 404 855 403 
588 586 753 545 
589 545 657 517 
590 609 982 622 
591 1117 1166 963 
592 462 470 465 
593 444 481 442 
594 452 860 678 
595 647 1071 1056 
596 499 587 505 
597 357 780 356 
598 449 514 446 
599 364 806 294 
600 377 794 290 
601 831 1028 830 
602 607 659 609 
603 453 523 455 
604 480 629 628 
605 622 714 711 
606 427 498 475 
607 762 863 441 
608 797 798 795 
609 457 774 459 
610 459 511 464 
611 715 820 716 
612 671 677 673 
613 438 441 436 
614 592 838 589 
615 343 787 344 
616 268 958 776 
617 823 1088 205 
618 805 1190 360 
619 361 365 357 
620 249 1029 807 
621 699 788 593 
622 550 749 564 
623 660 817 662 
624 560 756 562 
625 831 942 932 
626 436 733 434 
627 547 580 548 
628 552 745 554 
629 517 730 515 
630 813 814 643 
631 399 828 408 
632 496 567 495 
633 922 1045 927 
634 554 745 557 
635 700 701 699 
636 512 731 520 
637 468 493 472 
638 257 1160 955 
639 1083 1117 963 
640 586 754 753 
641 719 786 720 
642 290 794 288 
643 902 1025 576 
644 562 756 671 
645 787 833 344 
646 406 409 407 
647 630 807 571 
648 571 807 766 
649 479 781 480 
650 451 782 453 
651 285 1063 376 
652 768 769 767 
653 786 911 266 
654 294 806 292 
655 533 705 704 
656 804 1190 805 
657 477 533 532 
658 419 477 476 
659 634 661 660 
660 529 588 528 
661 449 515 514 
662 444 725 481 
663 355 775 298 
664 558 1245 563 
665 410 419 418 
666 587 625 505 
667 205 907 821 
668 606 607 604 
669 603 604 602 
670 601 602 600 
671 414 819 393 
672 1134 1202 211 
673 351 783 338 
674 632 634 633 
675 479 480 440 
676 649 728 568 
677 451 453 372 
678 597 599 506 
679 439 440 433 
680 658 680 526 
681 501 502 375 
682 508 527 526 
683 371 452 451 
684 452 507 506 
685 523 767 455 
686 439 508 479 
687 593 788 592 
688 359 370 368 
689 924 1042 693 
690 575 824 707 
691 507 598 597 
692 371 372 363 
693 629 771 628 
694 511 512 464 
695 527 663 658 
696 383 743 350 
697 531 600 530 
698 583 639 584 
699 426 427 369 
700 413 417 412 
701 572 682 653 
702 605 736 735 
703 601 605 603 
704 365 374 366 
705 438 442 441 
706 498 499 475 
707 368 369 360 
708 589 838 588 
709 432 434 433 
710 660 662 633 
711 624 791 567 
712 298 775 296 
713 476 478 418 
714 607 906 659 
715 558 563 560 
716 358 362 352 
717 393 819 391 
718 569 650 649 
719 465 489 466 
720 647 1056 866 
721 704 706 532 
722 753 1065 657 
723 531 1043 601 
724 371 860 452 
725 571 766 493 
726 796 800 799 
727 460 818 462 
728 562 671 670 
729 807 826 766 
730 415 467 416 
731 417 483 482 
732 567 570 495 
733 629 773 772 
734 356 780 531 
735 483 487 485 
736 511 656 655 
737 406 410 409 
738 441 863 733 
739 487 524 488 
740 568 728 624 
741 523 770 768 
742 843 952 268 
743 413 789 417 
744 579 668 648 
745 497 571 493 
746 331 859 348 
747 229 938 868 
748 892 1094 701 
749 806 1141 377 
750 688 995 779 
751 930 1027 817 
752 550 564 552 
753 554 557 556 
754 666 863 762 
755 411 413 412 
756 380 495 378 
757 612 613 514 
758 719 720 489 
759 348 359 349 
760 688 779 778 
761 362 363 352 
762 569 649 568 
763 779 1172 778 
764 692 693 566 
765 541 547 543 
766 441 733 436 
767 453 782 523 
768 480 781 629 
769 496 568 567 
770 391 422 390 
771 388 390 387 
772 386 387 385 
773 426 1064 710 
774 520 692 566 
775 409 411 407 
776 358 367 362 
777 566 885 610 
778 359 360 349 
779 579 1004 668 
780 644 685 684 
781 673 836 674 
782 494 799 286 
783 640 813 643 
784 615 699 593 
785 384 385 383 
786 639 813 640 
787 1007 1231 900 
788 982 1196 622 
789 770 1008 768 
790 510 540 539 
791 209 979 788 
792 374 380 378 
793 598 1250 977 
794 497 626 571 
795 640 643 642 
796 761 1024 980 
797 591 592 589 
798 374 471 380 
799 355 1057 775 
800 657 730 517 
801 462 465 463 
802 541 822 547 
803 665 1161 914 
804 347 356 346 
805 415 416 413 
806 794 797 795 
807 811 1079 904 
808 490 509 492 
809 361 803 501 
810 411 415 413 
811 989 1000 748 
812 430 432 431 
813 415 632 467 
814 566 610 521 
815 626 630 571 
816 1033 1174 225 
817 467 468 416 
818 525 583 582 
819 374 378 366 
820 547 821 580 
821 964 1098 913 
822 277 887 278 
823 524 708 525 
824 815 1031 812 
825 746 750 557 
826 365 1240 734 
827 380 496 495 
828 550 1238 749 
829 673 674 672 
830 897 1024 761 
831 9 1060 901 
832 376 884 287 
833 347 357 356 
834 738 1002 843 
835 727 1137 726 
836 253 943 941 
837 375 1240 365 
838 807 1104 249 
839 596 879 827 
840 520 731 692 
841 395 414 393 
842 817 1027 662 
843 387 1016 385 
844 468 497 493 
845 356 530 346 
846 671 672 670 
847 382 383 350 
848 822 823 821 
849 292 377 290 
850 296 364 294 
851 384 880 386 
852 993 1243 761 
853 538 1216 784 
854 788 849 592 
855 341 809 339 
856 406 407 405 
857 648 1130 734 
858 520 566 521 
859 1079 1119 999 
860 763 851 478 
861 214 968 832 
862 365 366 357 
863 709 859 530 
864 338 353 335 
865 347 361 357 
866 1034 1039 370 
867 970 1224 842 
868 557 558 556 
869 430 431 421 
870 403 406 405 
871 775 1057 669 
872 497 627 626 
873 776 1220 735 
874 1163 1207 925 
875 829 830 651 
876 399 408 397 
877 645 1109 1035 
878 468 472 416 
879 426 1194 427 
880 365 734 374 
881 644 1059 685 
882 599 1166 1117 
883 547 548 543 
884 612 845 613 
885 861 1023 381 
886 612 1154 845 
887 502 529 528 
888 615 700 699 
889 685 686 684 
890 818 837 470 
891 288 494 286 
892 378 379 366 
893 707 708 524 
894 927 1012 922 
895 540 541 539 
896 378 1157 379 
897 613 845 727 
898 633 790 467 
899 749 1238 908 
900 337 347 346 
901 796 799 494 
902 418 793 409 
903 334 350 337 
904 361 501 375 
905 746 850 750 
906 516 517 515 
907 908 1133 749 
908 389 743 383 
909 625 815 812 
910 770 1117 1083 
911 643 644 642 
912 339 351 338 
913 734 1240 648 
914 723 1248 722 
915 721 852 722 
916 591 593 592 
917 403 855 406 
918 738 843 736 
919 572 653 472 
920 529 589 588 
921 639 640 584 
922 530 859 346 
923 405 828 401 
924 863 1099 733 
925 544 545 517 
926 585 586 545 
927 674 834 676 
928 610 611 521 
929 569 829 651 
930 411 412 407 
931 798 891 802 
932 512 520 513 
933 509 510 492 
934 496 569 568 
935 300 355 298 
936 443 444 442 
937 351 785 784 
938 345 358 352 
939 579 648 503 
940 499 505 504 
941 489 490 466 
942 417 789 484 
943 682 691 653 
944 377 1141 869 
945 607 609 608 
946 583 584 582 
947 677 888 673 
948 417 482 412 
949 445 446 444 
950 448 449 446 
951 569 651 650 
952 524 525 488 
953 483 485 482 
954 453 455 454 
955 480 628 486 
956 487 488 485 
957 465 466 463 
958 401 828 399 
959 573 917 916 
960 664 665 663 
961 430 1071 1050 
962 435 436 434 
963 427 475 474 
964 609 622 621 
965 711 713 712 
966 622 711 710 
967 782 1117 770 
968 737 738 736 
969 433 1041 431 
970 462 818 470 
971 657 871 730 
972 455 457 456 
973 459 464 460 
974 457 459 458 
975 348 349 332 
976 840 1063 631 
977 374 734 471 
978 666 759 665 
979 760 761 759 
980 437 438 436 
981 615 847 700 
982 617 861 854 
983 373 619 367 
984 668 679 648 
985 345 352 343 
986 263 961 836 
987 739 740 738 
988 395 808 414 
989 699 1199 788 
990 564 749 748 
991 572 868 682 
992 854 861 381 
993 682 846 691 
994 827 880 596 
995 388 391 390 
996 337 803 347 
997 386 388 387 
998 502 910 529 
999 384 386 385 
1000 1063 1188 376 
1001 470 837 718 
1002 224 1128 817 
1003 832 1154 612 
1004 404 1215 742 
1005 834 835 676 
1006 406 855 410 
1007 967 1121 272 
1008 278 887 281 
1009 280 916 752 
1010 625 1089 815 
1011 347 803 361 
1012 348 1155 359 
1013 337 346 333 
1014 520 521 513 
1015 674 836 834 
1016 840 841 839 
1017 771 1001 628 
1018 735 1220 842 
1019 860 864 678 
1020 362 860 371 
1021 331 348 332 
1022 382 384 383 
1023 815 1067 598 
1024 630 1104 807 
1025 1059 1236 685 
1026 618 861 617 
1027 352 787 343 
1028 667 913 639 
1029 510 1248 540 
1030 336 338 335 
1031 529 910 590 
1032 811 1119 1079 
1033 596 880 384 
1034 397 808 395 
1035 783 1109 353 
1036 788 979 849 
1037 820 1033 716 
1038 966 983 727 
1039 281 887 631 
1040 960 1167 264 
1041 791 1252 230 
1042 281 631 283 
1043 284 573 282 
1044 627 1080 697 
1045 732 1023 861 
1046 403 405 401 
1047 334 382 350 
1048 824 1051 215 
1049 819 1241 422 
1050 381 867 854 
1051 686 995 688 
1052 804 805 620 
1053 846 1152 254 
1054 853 881 423 
1055 334 337 333 
1056 706 1153 764 
1057 606 906 607 
1058 674 676 675 
1059 498 1119 811 
1060 755 839 754 
1061 570 1157 495 
1062 921 1081 752 
1063 597 977 689 
1064 420 865 535 
1065 807 1029 826 
1066 665 914 663 
1067 334 905 382 
1068 230 1191 791 
1069 402 865 420 
1070 685 1132 686 
1071 929 1042 276 
1072 254 946 846 
1073 482 1005 412 
1074 867 886 854 
1075 715 1246 820 
1076 986 1140 239 
1077 875 1124 312 
1078 330 870 336 
1079 718 1007 724 
1080 558 560 559 
1081 596 905 879 
1082 800 1203 799 
1083 336 339 338 
1084 586 755 754 
1085 870 886 867 
1086 389 1122 889 
1087 410 855 522 
1088 805 896 620 
1089 821 907 580 
1090 484 1246 715 
1091 450 870 330 
1092 342 867 381 
1093 340 867 342 
1094 560 562 561 
1095 663 1145 658 
1096 232 937 841 
1097 329 971 844 
1098 562 670 669 
1099 496 829 569 
1100 429 430 421 
1101 548 1238 550 
1102 770 1083 1008 
1103 573 916 282 
1104 420 421 404 
1105 336 870 340 
1106 340 870 867 
1107 587 904 703 
1108 420 429 421 
1109 548 550 549 
1110 309 874 307 
1111 873 882 623 
1112 874 882 873 
1113 313 874 309 
1114 307 874 872 
1115 315 872 450 
1116 872 873 450 
1117 305 872 315 
1118 872 874 873 
1119 310 875 312 
1120 312 876 311 
1121 637 878 876 
1122 876 878 314 
1123 320 878 473 
1124 473 878 637 
1125 877 881 853 
1126 317 878 320 
1127 537 877 853 
1128 318 877 537 
1129 319 877 318 
1130 827 879 323 
1131 323 879 321 
1132 332 881 327 
1133 327 881 324 
1134 637 652 636 
1135 331 332 327 
1136 473 637 636 
1137 328 334 333 
1138 324 881 877 
1139 328 333 331 
1140 328 331 327 
1141 473 636 635 
1142 635 827 323 
1143 636 702 635 
1144 321 879 325 
1145 325 328 327 
1146 473 635 323 
1147 325 327 324 
1148 617 854 623 
1149 324 877 319 
1150 321 325 324 
1151 537 853 618 
1152 320 473 323 
1153 617 623 500 
1154 537 618 617 
1155 321 324 319 
1156 320 323 321 
1157 537 617 500 
1158 320 321 319 
1159 318 537 500 
1160 317 320 319 
1161 318 500 316 
1162 317 319 318 
1163 317 318 316 
1164 314 878 317 
1165 314 317 316 
1166 311 876 314 
1167 314 316 313 
1168 311 314 313 
1169 322 875 310 
1170 310 312 311 
1171 311 313 309 
1172 308 322 310 
1173 310 311 309 
1174 330 336 335 
1175 308 310 309 
1176 315 450 330 
1177 308 309 307 
1178 330 335 329 
1179 306 308 307 
1180 307 872 305 
1181 315 330 329 
1182 315 329 304 
1183 306 307 305 
1184 342 381 345 
1185 305 315 304 
1186 303 306 305 
1187 313 882 874 
1188 316 882 313 
1189 623 882 500 
1190 342 345 343 
1191 343 344 341 
1192 535 698 536 
1193 500 882 316 
1194 303 305 304 
1195 610 901 899 
1196 1112 1167 704 
1197 402 420 404 
1198 342 343 341 
1199 535 536 429 
1200 449 516 515 
1201 505 812 519 
1202 303 304 302 
1203 754 1144 753 
1204 400 865 402 
1205 402 404 403 
1206 340 342 341 
1207 420 535 429 
1208 625 812 505 
1209 856 857 578 
1210 681 858 856 
1211 803 1073 501 
1212 301 303 302 
1213 781 1209 773 
1214 450 886 870 
1215 873 886 450 
1216 854 886 623 
1217 686 688 687 
1218 462 463 461 
1219 610 899 611 
1220 425 1006 865 
1221 550 552 551 
1222 402 403 401 
1223 340 341 339 
1224 623 886 873 
1225 552 554 553 
1226 554 556 555 
1227 474 1026 896 
1228 577 866 681 
1229 380 829 496 
1230 512 513 464 
1231 333 859 331 
1232 425 865 400 
1233 339 809 351 
1234 714 1058 711 
1235 681 856 578 
1236 547 822 821 
1237 301 302 300 
1238 299 428 301 
1239 410 522 419 
1240 438 443 442 
1241 541 543 542 
1242 688 778 777 
1243 649 1218 729 
1244 634 851 661 
1245 499 504 475 
1246 768 1054 769 
1247 594 1005 482 
1248 607 608 604 
1249 600 709 530 
1250 368 1195 426 
1251 700 892 701 
1252 932 1028 831 
1253 480 486 440 
1254 453 454 372 
1255 644 684 683 
1256 614 615 593 
1257 969 1093 852 
1258 349 423 332 
1259 527 664 663 
1260 452 678 507 
1261 737 848 739 
1262 791 1191 792 
1263 432 435 434 
1264 427 474 369 
1265 814 1249 643 
1266 757 1212 756 
1267 516 544 517 
1268 460 462 461 
1269 605 737 736 
1270 363 787 352 
1271 510 539 538 
1272 544 585 545 
1273 312 898 876 
1274 637 898 652 
1275 662 790 633 
1276 335 971 329 
1277 1050 1071 647 
1278 478 793 418 
1279 285 376 287 
1280 740 1002 738 
1281 400 402 401 
1282 336 340 339 
1283 428 1003 301 
1284 423 881 332 
1285 864 1177 678 
1286 640 642 641 
1287 879 905 325 
1288 328 905 334 
1289 400 401 399 
1290 590 591 589 
1291 358 373 367 
1292 588 1097 751 
1293 578 902 576 
1294 232 1115 1052 
1295 382 905 596 
1296 891 1113 221 
1297 661 1091 660 
1298 1164 1172 847 
1299 772 1202 1134 
1300 443 445 444 
1301 647 866 577 
1302 693 885 566 
1303 490 492 491 
1304 909 1141 806 
1305 505 519 504 
1306 445 448 446 
1307 1100 1109 783 
1308 398 425 400 
1309 346 859 333 
1310 577 681 578 
1311 426 1195 1064 
1312 778 1172 1164 
1313 303 1003 306 
1314 609 621 608 
1315 746 1222 912 
1316 711 712 710 
1317 622 710 621 
1318 525 582 581 
1319 455 456 454 
1320 628 694 486 
1321 835 1160 798 
1322 457 458 456 
1323 459 460 458 
1324 299 300 298 
1325 815 1089 1067 
1326 664 666 665 
1327 299 301 300 
1328 435 437 436 
1329 711 1058 713 
1330 666 760 759 
1331 513 1147 818 
1332 809 810 785 
1333 758 1140 986 
1334 535 1006 698 
1335 737 739 738 
1336 992 1058 714 
1337 739 741 740 
1338 411 1204 415 
1339 876 898 637 
1340 850 1053 239 
1341 373 620 619 
1342 407 1005 405 
1343 353 1109 1049 
1344 743 1237 350 
1345 398 399 397 
1346 989 1133 243 
1347 857 903 902 
1348 948 1118 769 
1349 501 910 502 
1350 392 393 391 
1351 741 1077 740 
1352 842 1224 606 
1353 659 982 609 
1354 325 905 328 
1355 625 1213 1089 
1356 685 1236 991 
1357 394 395 393 
1358 396 397 395 
1359 577 578 576 
1360 899 900 611 
1361 904 996 703 
1362 676 1125 869 
1363 469 647 577 
1364 938 1152 868 
1365 746 912 850 
1366 689 1166 599 
1367 449 1017 516 
1368 651 1107 650 
1369 422 1156 390 
1370 624 1252 791 
1371 630 1012 927 
1372 674 675 672 
1373 646 847 615 
1374 477 1001 533 
1375 297 298 296 
1376 293 294 292 
1377 295 296 294 
1378 653 1150 789 
1379 398 400 399 
1380 291 292 290 
1381 760 897 761 
1382 289 354 291 
1383 522 855 742 
1384 299 915 428 
1385 828 1106 408 
1386 353 971 335 
1387 755 840 839 
1388 865 1006 535 
1389 725 1206 481 
1390 297 915 299 
1391 837 1147 611 
1392 282 916 280 
1393 816 1195 370 
1394 381 1023 345 
1395 438 1025 443 
1396 600 1034 709 
1397 1093 1121 723 
1398 558 559 556 
1399 301 1003 303 
1400 827 1101 880 
1401 718 1231 1007 
1402 504 1026 475 
1403 927 1045 273 
1404 871 1048 214 
1405 269 1087 862 
1406 1207 1218 923 
1407 280 752 279 
1408 885 1244 252 
1409 585 883 586 
1410 326 915 297 
1411 260 1054 956 
1412 748 1133 989 
1413 620 896 619 
1414 289 290 288 
1415 678 1031 507 
1416 363 1040 787 
1417 297 299 298 
1418 842 1220 216 
1419 912 1053 850 
1420 548 549 543 
1421 676 869 675 
1422 360 1190 349 
1423 691 1174 820 
1424 277 1052 887 
1425 382 596 384 
1426 1193 1200 229 
1427 519 1177 864 
1428 686 687 684 
1429 1105 1118 948 
1430 429 1071 430 
1431 729 1207 1163 
1432 908 1238 580 
1433 211 1202 974 
1434 919 1131 650 
1435 355 1139 1085 
1436 1016 1228 385 
1437 606 1224 906 
1438 541 542 539 
1439 424 1016 387 
1440 697 1170 626 
1441 899 1060 231 
1442 560 561 559 
1443 398 1010 425 
1444 644 683 642 
1445 468 1227 497 
1446 562 669 561 
1447 204 996 904 
1448 591 614 593 
1449 1003 1187 306 
1450 648 1240 503 
1451 287 288 286 
1452 510 538 492 
1453 622 1196 714 
1454 847 1172 700 
1455 522 1135 419 
1456 849 1138 262 
1457 640 641 584 
1458 732 804 620 
1459 529 590 589 
1460 104 273 103 
1461 153 275 152 
1462 6 276 5 
1463 55 274 54 
1464 101 922 100 
1465 150 923 149 
1466 52 921 51 
1467 199 924 198 
1468 7 929 6 
1469 56 928 55 
1470 154 925 153 
1471 105 926 104 
1472 155 251 154 
1473 106 249 105 
1474 8 252 7 
1475 57 250 56 
1476 51 247 50 
1477 198 246 197 
1478 100 248 99 
1479 149 245 148 
1480 50 920 49 
1481 148 919 147 
1482 58 277 57 
1483 156 918 155 
1484 157 936 156 
1485 49 934 48 
1486 98 935 97 
1487 147 933 146 
1488 195 233 194 
1489 146 235 145 
1490 48 234 47 
1491 97 236 96 
1492 158 230 157 
1493 109 229 108 
1494 11 231 10 
1495 60 232 59 
1496 47 931 46 
1497 96 930 95 
1498 145 932 144 
1499 550 551 549 
1500 61 937 60 
1501 12 939 11 
1502 110 938 109 
1503 159 940 158 
1504 769 1136 948 
1505 111 254 110 
1506 62 256 61 
1507 160 253 159 
1508 13 255 12 
1509 144 942 143 
1510 94 224 93 
1511 45 221 44 
1512 143 223 142 
1513 192 222 191 
1514 14 944 13 
1515 63 945 62 
1516 161 943 160 
1517 112 946 111 
1518 15 227 14 
1519 113 225 112 
1520 162 228 161 
1521 64 226 63 
1522 93 949 92 
1523 142 950 141 
1524 191 947 190 
1525 141 259 140 
1526 190 260 189 
1527 92 258 91 
1528 43 257 42 
1529 65 951 64 
1530 163 952 162 
1531 114 953 113 
1532 164 268 163 
1533 115 267 114 
1534 17 266 16 
1535 66 265 65 
1536 91 954 90 
1537 189 956 188 
1538 140 957 139 
1539 42 955 41 
1540 139 219 138 
1541 188 220 187 
1542 90 217 89 
1543 41 218 40 
1544 165 958 164 
1545 19 213 18 
1546 68 214 67 
1547 166 216 165 
1548 117 215 116 
1549 89 960 88 
1550 40 961 39 
1551 187 962 186 
1552 552 553 551 
1553 88 264 87 
1554 137 262 136 
1555 39 263 38 
1556 186 261 185 
1557 20 969 19 
1558 69 968 68 
1559 167 970 166 
1560 554 555 553 
1561 87 959 86 
1562 21 272 20 
1563 119 269 118 
1564 168 270 167 
1565 70 271 69 
1566 354 1253 1030 
1567 71 966 70 
1568 22 967 21 
1569 169 965 168 
1570 120 964 119 
1571 86 978 85 
1572 135 979 134 
1573 37 975 36 
1574 184 976 183 
1575 36 210 35 
1576 183 212 182 
1577 85 211 84 
1578 134 209 133 
1579 72 983 71 
1580 170 981 169 
1581 84 974 83 
1582 35 972 34 
1583 182 973 181 
1584 73 206 72 
1585 122 207 121 
1586 24 205 23 
1587 171 208 170 
1588 490 491 466 
1589 74 980 73 
1590 83 985 82 
1591 34 986 33 
1592 181 987 180 
1593 82 237 81 
1594 131 238 130 
1595 33 239 32 
1596 180 240 179 
1597 75 993 74 
1598 173 992 172 
1599 130 984 129 
1600 76 244 75 
1601 27 243 26 
1602 125 242 124 
1603 174 241 173 
1604 688 777 687 
1605 888 1070 263 
1606 175 990 174 
1607 126 991 125 
1608 77 988 76 
1609 28 989 27 
1610 178 996 177 
1611 129 994 128 
1612 928 1081 274 
1613 30 201 29 
1614 177 204 176 
1615 79 202 78 
1616 128 203 127 
1617 127 997 126 
1618 176 998 175 
1619 29 1000 28 
1620 857 902 578 
1621 358 1023 373 
1622 941 1251 740 
1623 884 1253 354 
1624 525 581 488 
1625 485 594 482 
1626 396 398 397 
1627 351 809 785 
1628 643 1059 644 
1629 689 977 976 
1630 703 1213 625 
1631 724 1233 1015 
1632 412 1005 407 
1633 866 1232 681 
1634 1056 1071 536 
1635 614 646 615 
1636 469 577 576 
1637 818 1147 837 
1638 702 1101 635 
1639 784 1100 783 
1640 636 1110 702 
1641 252 1244 929 
1642 664 1099 863 
1643 285 286 284 
1644 929 1244 1042 
1645 388 392 391 
1646 516 1017 546 
1647 801 1239 800 
1648 295 326 297 
1649 390 1208 424 
1650 728 1197 624 
1651 841 1115 232 
1652 611 1147 521 
1653 981 982 659 
1654 825 1169 619 
1655 822 1186 823 
1656 956 1054 1008 
1657 773 1202 772 
1658 911 1015 227 
1659 385 1228 389 
1660 345 1023 358 
1661 590 889 591 
1662 1131 1218 649 
1663 1030 1066 354 
1664 608 1039 604 
1665 519 864 825 
1666 369 1062 360 
1667 907 908 580 
1668 463 616 461 
1669 917 934 920 
1670 628 1001 694 
1671 302 1139 300 
1672 1020 1021 1018 
1673 454 1040 372 
1674 852 1229 213 
1675 486 1041 440 
1676 602 1034 600 
1677 185 1038 184 
1678 858 1187 1003 
1679 943 1251 941 
1680 705 1112 704 
1681 469 576 437 
1682 743 1114 1073 
1683 582 638 581 
1684 831 1086 942 
1685 1028 1107 651 
1686 257 1113 891 
1687 1052 1115 887 
1688 591 889 614 
1689 443 1025 447 
1690 67 1048 66 
1691 107 1029 106 
1692 283 285 284 
1693 965 981 659 
1694 916 1111 752 
1695 116 1051 115 
1696 448 1017 449 
1697 601 1043 605 
1698 825 1026 504 
1699 59 1052 58 
1700 432 1050 435 
1701 869 1125 797 
1702 967 1088 823 
1703 266 1072 894 
1704 370 1195 368 
1705 507 1031 598 
1706 559 1032 556 
1707 740 1251 1002 
1708 373 732 620 
1709 704 1167 706 
1710 740 1077 941 
1711 392 394 393 
1712 295 297 296 
1713 308 1187 322 
1714 682 1152 846 
1715 373 1023 732 
1716 394 396 395 
1717 917 1111 916 
1718 437 1025 438 
1719 281 283 282 
1720 672 909 670 
1721 278 281 280 
1722 642 890 641 
1723 696 1247 655 
1724 475 1026 474 
1725 907 1084 908 
1726 492 893 491 
1727 283 284 282 
1728 851 1096 478 
1729 291 293 292 
1730 293 295 294 
1731 32 1053 31 
1732 850 1140 750 
1733 650 1131 649 
1734 798 1125 835 
1735 289 291 290 
1736 549 1035 543 
1737 396 1010 398 
1738 896 1062 474 
1739 278 279 250 
1740 668 1162 1086 
1741 478 1096 793 
1742 1010 1110 425 
1743 230 1252 936 
1744 765 1225 680 
1745 604 1039 602 
1746 586 883 755 
1747 285 287 286 
1748 826 1200 1193 
1749 430 1050 432 
1750 883 884 376 
1751 880 1014 386 
1752 906 1224 270 
1753 658 1145 765 
1754 372 1040 363 
1755 440 1041 433 
1756 1156 1158 687 
1757 656 1105 696 
1758 912 1151 1053 
1759 701 1199 699 
1760 761 1243 759 
1761 602 1039 1034 
1762 516 546 544 
1763 744 1180 692 
1764 287 289 288 
1765 1044 1081 921 
1766 901 1060 899 
1767 431 1215 421 
1768 239 1140 850 
1769 697 1080 935 
1770 754 1235 1144 
1771 443 447 445 
1772 634 1096 851 
1773 519 825 504 
1774 920 1111 917 
1775 1187 1232 322 
1776 621 816 608 
1777 643 1249 1059 
1778 534 1168 833 
1779 694 695 486 
1780 456 534 454 
1781 460 461 458 
1782 666 762 760 
1783 435 469 437 
1784 772 1201 771 
1785 582 1009 638 
1786 555 574 565 
1787 576 1025 437 
1788 844 971 595 
1789 690 1085 1032 
1790 656 1118 1105 
1791 245 1131 919 
1792 556 1032 555 
1793 713 1120 999 
1794 208 982 981 
1795 574 654 595 
1796 702 1110 1010 
1797 823 1186 1121 
1798 675 909 672 
1799 543 1035 542 
1800 584 1009 582 
1801 527 1099 664 
1802 46 1068 45 
1803 826 1193 766 
1804 538 893 492 
1805 683 890 642 
1806 18 1072 17 
1807 38 1070 37 
1808 392 518 394 
1809 561 690 559 
1810 913 1098 207 
1811 834 1217 835 
1812 466 1011 463 
1813 555 565 553 
1814 551 645 549 
1815 971 1049 595 
1816 179 1074 178 
1817 816 1039 608 
1818 99 1076 98 
1819 463 1011 616 
1820 611 1231 837 
1821 10 1060 9 
1822 695 1041 486 
1823 534 1040 454 
1824 488 1013 485 
1825 427 1194 498 
1826 281 282 280 
1827 729 1163 728 
1828 278 280 279 
1829 151 1046 150 
1830 200 1047 199 
1831 102 1045 101 
1832 53 1044 52 
1833 205 1171 907 
1834 925 1207 275 
1835 759 1161 665 
1836 279 1081 928 
1837 574 595 565 
1838 133 1075 132 
1839 654 844 595 
1840 619 1169 367 
1841 104 926 273 
1842 55 928 274 
1843 6 929 276 
1844 153 925 275 
1845 100 922 248 
1846 51 921 247 
1847 198 924 246 
1848 149 923 245 
1849 249 926 105 
1850 251 925 154 
1851 252 929 7 
1852 250 928 56 
1853 245 919 148 
1854 247 920 50 
1855 155 918 251 
1856 57 277 250 
1857 919 933 147 
1858 920 934 49 
1859 156 936 918 
1860 230 936 157 
1861 146 933 235 
1862 97 935 236 
1863 48 934 234 
1864 235 932 145 
1865 234 931 47 
1866 236 930 96 
1867 109 938 229 
1868 158 940 230 
1869 60 937 232 
1870 11 939 231 
1871 932 942 144 
1872 256 937 61 
1873 255 939 12 
1874 254 938 110 
1875 253 940 159 
1876 111 946 254 
1877 160 943 253 
1878 13 944 255 
1879 62 945 256 
1880 143 942 223 
1881 226 945 63 
1882 227 944 14 
1883 225 946 112 
1884 228 943 161 
1885 224 949 93 
1886 223 950 142 
1887 222 947 191 
1888 435 1050 469 
1889 386 1014 388 
1890 64 951 226 
1891 162 952 228 
1892 113 953 225 
1893 92 949 258 
1894 141 950 259 
1895 190 947 260 
1896 265 951 65 
1897 268 952 163 
1898 267 953 114 
1899 258 954 91 
1900 259 957 140 
1901 257 955 42 
1902 260 956 189 
1903 283 1063 285 
1904 90 954 217 
1905 139 957 219 
1906 41 955 218 
1907 188 956 220 
1908 164 958 268 
1909 353 1049 971 
1910 220 962 187 
1911 218 961 40 
1912 217 960 89 
1913 216 958 165 
1914 39 961 263 
1915 88 960 264 
1916 186 962 261 
1917 68 968 214 
1918 19 969 213 
1919 166 970 216 
1920 792 1077 570 
1921 595 1049 565 
1922 264 959 87 
1923 272 969 20 
1924 271 968 69 
1925 270 970 167 
1926 536 1071 429 
1927 959 978 86 
1928 70 966 271 
1929 21 967 272 
1930 168 965 270 
1931 119 964 269 
1932 474 1062 369 
1933 1049 1061 565 
1934 169 981 965 
1935 71 983 966 
1936 36 975 210 
1937 183 976 212 
1938 85 978 211 
1939 134 979 209 
1940 211 974 84 
1941 210 972 35 
1942 212 973 182 
1943 208 981 170 
1944 206 983 72 
1945 726 1206 725 
1946 973 987 181 
1947 974 985 83 
1948 972 986 34 
1949 73 980 206 
1950 74 993 980 
1951 180 987 240 
1952 33 986 239 
1953 82 985 237 
1954 238 984 130 
1955 244 993 75 
1956 241 992 173 
1957 544 1030 585 
1958 984 994 129 
1959 27 989 243 
1960 174 990 241 
1961 76 988 244 
1962 125 991 242 
1963 126 997 991 
1964 28 1000 989 
1965 175 998 990 
1966 177 996 204 
1967 128 994 203 
1968 914 1189 202 
1969 203 997 127 
1970 204 998 176 
1971 201 1000 29 
1972 845 1154 271 
1973 690 1032 559 
1974 868 1193 229 
1975 1032 1085 574 
1976 641 1009 584 
1977 485 1013 594 
1978 833 1168 1078 
1979 820 1246 691 
1980 1017 1018 546 
1981 261 1038 185 
1982 106 1029 249 
1983 184 1038 976 
1984 1002 1251 228 
1985 823 1121 967 
1986 58 1052 277 
1987 66 1048 265 
1988 232 1052 59 
1989 214 1048 67 
1990 115 1051 267 
1991 904 1079 204 
1992 215 1051 116 
1993 805 1062 896 
1994 808 1173 414 
1995 491 1011 466 
1996 737 1043 848 
1997 26 1084 25 
1998 585 1253 883 
1999 645 1035 549 
2000 546 1066 1030 
2001 469 1050 647 
2002 908 1084 243 
2003 23 1088 22 
2004 999 1119 713 
2005 239 1053 32 
2006 1021 1179 293 
2007 498 1221 1119 
2008 215 1165 862 
2009 201 1151 912 
2010 862 1165 269 
2011 979 1138 849 
2012 581 1013 488 
2013 789 1150 484 
2014 477 1135 1001 
2015 5 1181 1 
2016 54 1183 2 
2017 152 1182 4 
2018 103 1184 3 
2019 1 1181 200 
2020 2 1183 53 
2021 4 1182 151 
2022 3 1184 102 
2023 279 928 250 
2024 172 1090 171 
2025 734 1130 471 
2026 996 1074 703 
2027 941 1077 792 
2028 580 1238 548 
2029 1018 1066 546 
2030 1041 1108 431 
2031 931 1068 46 
2032 1186 1248 723 
2033 45 1068 221 
2034 17 1072 266 
2035 213 1072 18 
2036 445 1036 448 
2037 248 1076 99 
2038 263 1070 38 
2039 98 1076 935 
2040 797 1125 798 
2041 37 1070 975 
2042 231 1060 10 
2043 926 927 273 
2044 922 1012 248 
2045 277 278 250 
2046 236 1027 930 
2047 222 948 947 
2048 953 1033 225 
2049 950 1004 259 
2050 956 1008 220 
2051 962 963 261 
2052 101 1045 922 
2053 52 1044 921 
2054 199 1047 924 
2055 150 1046 923 
2056 235 1028 932 
2057 1021 1066 1018 
2058 1033 1211 716 
2059 976 977 212 
2060 752 1081 279 
2061 980 1024 206 
2062 985 1022 237 
2063 994 995 203 
2064 998 999 990 
2065 240 1074 179 
2066 448 1019 1017 
2067 605 1043 737 
2068 632 1096 634 
2069 729 1218 1207 
2070 555 1032 574 
2071 178 1074 996 
2072 388 1014 392 
2073 631 1063 283 
2074 458 1037 456 
2075 909 1146 670 
2076 1085 1139 654 
2077 976 1038 689 
2078 209 1075 133 
2079 836 1242 834 
2080 907 1171 1084 
2081 495 1157 378 
2082 749 1133 748 
2083 900 1231 611 
2084 721 1229 852 
2085 1013 1106 594 
2086 1019 1020 1018 
2087 132 1094 131 
2088 646 1228 1016 
2089 241 1058 992 
2090 1017 1019 1018 
2091 508 1099 527 
2092 891 1160 257 
2093 710 1064 621 
2094 22 1088 967 
2095 205 1088 23 
2096 243 1084 26 
2097 539 1216 538 
2098 193 1095 192 
2099 687 1158 684 
2100 1073 1114 910 
2101 837 1231 718 
2102 171 1090 208 
2103 992 1090 172 
2104 121 1098 120 
2105 219 1097 895 
2106 927 1104 630 
2107 1067 1250 598 
2108 778 1164 777 
2109 975 1055 210 
2110 192 1095 222 
2111 255 1233 1007 
2112 627 1123 1080 
2113 131 1094 238 
2114 270 1224 970 
2115 798 1160 891 
2116 120 1098 964 
2117 207 1098 121 
2118 1034 1155 709 
2119 895 1178 219 
2120 262 1178 895 
2121 233 1102 194 
2122 204 1079 998 
2123 851 1185 661 
2124 221 1113 44 
2125 43 1113 257 
2126 1095 1105 222 
2127 546 1030 544 
2128 326 1179 1020 
2129 540 1248 1186 
2130 194 1102 193 
2131 792 1191 940 
2132 503 1240 375 
2133 883 1253 884 
2134 573 1203 917 
2135 265 1065 951 
2136 868 1152 682 
2137 846 1174 691 
2138 1069 1106 1013 
2139 930 1128 95 
2140 94 1128 224 
2141 79 1116 202 
2142 1096 1204 793 
2143 924 1047 1042 
2144 635 1101 827 
2145 616 1037 461 
2146 1001 1135 694 
2147 392 1014 518 
2148 652 1110 636 
2149 44 1113 43 
2150 447 1036 445 
2151 669 1057 561 
2152 998 1079 999 
2153 262 1138 136 
2154 135 1138 979 
2155 195 1142 233 
2156 1078 1168 616 
2157 840 1188 1063 
2158 563 1245 758 
2159 835 1125 676 
2160 227 1214 911 
2161 911 1214 266 
2162 456 1037 534 
2163 680 1225 1022 
2164 246 1159 197 
2165 461 1037 458 
2166 293 1226 1021 
2167 817 1128 930 
2168 122 1143 207 
2169 621 1064 816 
2170 553 1061 551 
2171 686 1132 995 
2172 117 1165 215 
2173 269 1165 118 
2174 302 1223 1139 
2175 30 1151 201 
2176 714 1090 992 
2177 243 1133 908 
2178 448 1036 1019 
2179 894 1229 721 
2180 229 1200 108 
2181 396 1126 1010 
2182 1156 1208 390 
2183 274 1081 1044 
2184 219 1178 138 
2185 137 1178 262 
2186 15 1214 227 
2187 24 1171 205 
2188 935 1076 697 
2189 266 1214 16 
2190 1080 1123 1027 
2191 1173 1205 638 
2192 1008 1054 768 
2193 300 1139 355 
2194 242 1176 124 
2195 1058 1120 713 
2196 77 1189 988 
2197 237 1210 81 
2198 202 1189 78 
2199 501 1073 910 
2200 693 1244 885 
2201 662 1123 790 
2202 293 1179 295 
2203 1075 1094 132 
2204 698 1124 536 
2205 574 1085 654 
2206 419 1135 477 
2207 80 1116 79 
2208 1122 1228 646 
2209 565 1061 553 
2210 421 1215 404 
2211 370 1155 1034 
2212 742 1108 695 
2213 1011 1078 616 
2214 1054 1136 769 
2215 107 1200 1029 
2216 561 1057 690 
2217 1108 1215 431 
2218 95 1128 94 
2219 1053 1151 31 
2220 1010 1126 702 
2221 551 1061 645 
2222 1042 1047 276 
2223 890 1127 641 
2224 987 1089 240 
2225 632 1204 1096 
2226 638 1069 581 
2227 984 1230 779 
2228 237 1225 1210 
2229 224 1091 949 
2230 228 1251 943 
2231 359 1155 370 
2232 889 1122 614 
2233 657 1234 871 
2234 893 1129 491 
2235 892 1230 238 
2236 136 1138 135 
2237 222 1105 948 
2238 193 1102 1095 
2239 988 1189 914 
2240 1046 1207 923 
2241 931 1239 801 
2242 883 1188 755 
2243 428 1219 856 
2244 801 1068 931 
2245 272 1093 969 
2246 291 1226 293 
2247 1090 1196 208 
2248 196 1142 195 
2249 213 1229 1072 
2250 1065 1234 657 
2251 942 1086 223 
2252 910 1114 590 
2253 887 1115 631 
2254 678 1177 1031 
2255 1035 1100 542 
2256 581 1069 1013 
2257 376 1188 883 
2258 518 1126 394 
2259 123 1143 122 
2260 968 1154 832 
2261 935 1080 236 
2262 31 1151 30 
2263 259 1082 957 
2264 220 1083 962 
2265 1140 1245 750 
2266 812 1177 519 
2267 1084 1171 25 
2268 675 1141 909 
2269 912 1222 201 
2270 949 1092 258 
2271 521 1147 513 
2272 857 1148 903 
2273 249 1104 926 
2274 679 1130 648 
2275 944 1233 255 
2276 670 1146 669 
2277 248 1170 1076 
2278 197 1159 196 
2279 614 1122 646 
2280 773 1209 1022 
2281 236 1080 1027 
2282 1004 1082 259 
2283 983 1137 727 
2284 1008 1083 220 
2285 962 1083 963 
2286 260 1136 1054 
2287 118 1165 117 
2288 926 1104 927 
2289 415 1204 632 
2290 958 1220 776 
2291 933 1107 235 
2292 1022 1209 680 
2293 247 1111 920 
2294 235 1107 1028 
2295 349 1190 423 
2296 422 1158 1156 
2297 306 1187 308 
2298 999 1120 990 
2299 1148 1219 915 
2300 25 1171 24 
2301 800 1239 1149 
2302 696 1105 1095 
2303 684 1158 683 
2304 1056 1124 875 
2305 536 1124 1056 
2306 947 1136 260 
2307 856 1219 857 
2308 497 1227 627 
2309 691 1150 653 
2310 241 1120 1058 
2311 857 1219 1148 
2312 681 1232 858 
2313 995 1132 203 
2314 240 1213 1074 
2315 408 1106 1069 
2316 138 1178 137 
2317 264 1112 959 
2318 326 1148 915 
2319 973 1250 1067 
2320 124 1176 123 
2321 1192 1201 1134 
2322 261 1166 1038 
2323 858 1232 1187 
2324 713 1221 712 
2325 990 1120 241 
2326 808 1205 1173 
2327 1009 1173 638 
2328 890 1241 819 
2329 78 1189 77 
2330 590 1114 889 
2331 641 1127 1009 
2332 216 1220 958 
2333 1024 1137 206 
2334 869 1141 675 
2335 108 1200 107 
2336 1020 1179 1021 
2337 950 1162 1004 
2338 683 1241 890 
2339 481 1206 897 
2340 961 1242 836 
2341 1022 1225 237 
2342 16 1214 15 
2343 491 1129 1011 
2344 295 1179 326 
2345 1091 1092 949 
2346 81 1210 80 
2347 394 1126 396 
2348 196 1159 1142 
2349 80 1210 1116 
2350 1055 1212 757 
2351 953 1211 1033 
2352 1048 1234 265 
2353 1065 1144 951 
2354 695 1108 1041 
2355 803 1237 1073 
2356 765 1145 1116 
2357 948 1136 947 
2358 203 1132 997 
2359 212 1250 973 
2360 123 1176 1143 
2361 1029 1200 826 
2362 1149 1203 800 
2363 701 1094 1075 
2364 1059 1249 242 
2365 1116 1145 202 
2366 978 1134 211 
2367 777 1156 687 
2368 1011 1129 1078 
2369 1042 1244 693 
2370 354 1226 291 
2371 1072 1229 894 
2372 915 1219 428 
2373 1004 1162 668 
2374 1100 1216 542 
2375 242 1236 1059 
2376 714 1196 1090 
2377 951 1144 226 
2378 1027 1123 662 
2379 1007 1233 724 
2380 864 1169 825 
2381 755 1188 840 
2382 1095 1102 696 
2383 1164 1208 777 
2384 254 1152 938 
2385 206 1137 983 
2386 1076 1170 697 
2387 208 1196 982 
2388 1086 1162 223 
2389 954 1153 217 
2390 963 1166 261 
2391 223 1162 950 
2392 1038 1166 689 
2393 1012 1170 248 
2394 917 1149 934 
2395 897 1206 726 
2396 700 1172 892 
2397 251 1163 925 
2398 414 1173 1127 
2399 934 1149 234 
2400 1092 1175 258 
2401 988 1161 244 
2402 271 1154 968 
2403 1074 1213 703 
2404 542 1216 539 
2405 274 1183 54 
2406 276 1181 5 
2407 275 1182 152 
2408 273 1184 103 
2409 1210 1225 765 
2410 705 1201 1192 
2411 1092 1185 1175 
2412 871 1234 1048 
2413 917 1203 1149 
2414 655 1247 1103 
2415 1112 1192 959 
2416 258 1175 954 
2417 246 1180 1159 
2418 233 1247 1102 
2419 1075 1199 701 
2420 627 1227 1123 
2421 1116 1210 765 
2422 1142 1159 744 
2423 209 1199 1075 
2424 959 1192 978 
2425 1031 1177 812 
2426 1078 1129 810 
2427 918 1197 251 
2428 784 1216 1100 
2429 940 1191 230 
2430 661 1092 1091 
2431 978 1192 1134 
2432 977 1250 212 
2433 267 1211 953 
2434 1143 1176 814 
2435 616 1168 1037 
2436 753 1144 1065 
2437 1066 1226 354 
2438 242 1249 1176 
2439 954 1175 1153 
2440 654 1223 844 
2441 1103 1247 233 
2442 1068 1198 221 
2443 1030 1253 585 
2444 955 1217 218 
2445 820 1174 1033 
2446 1123 1227 790 
2447 1069 1205 408 
2448 1144 1235 226 
2449 251 1197 1163 
2450 200 1181 1047 
2451 53 1183 1044 
2452 102 1184 1045 
2453 151 1182 1046 
2454 923 1218 245 
2455 265 1234 1065 
2456 226 1235 945 
2457 424 1208 1164 
2458 234 1239 931 
2459 1021 1226 1066 
2460 1089 1213 240 
2461 1194 1221 498 
2462 1064 1195 816 
2463 238 1230 984 
2464 1149 1239 234 
2465 218 1242 961 
2466 244 1243 993 
2467 1161 1243 244 
2468 758 1245 1140 
2469 1037 1168 534 
2470 1127 1173 1009 
2471 991 1236 242 
2472 422 1241 1158 
2473 275 1207 1046 
2474 1134 1201 772 
2475 677 1212 1055 
2476 638 1205 1069 
2477 1217 1242 218 
2478 1175 1185 764 
2479 705 1192 1112 
2480 1045 1184 273 
2481 1044 1183 274 
2482 1047 1181 276 
2483 1046 1182 275 
2484 245 1218 1131 
2485 1073 1237 743 
2486 1153 1175 764 
2487 801 1198 1068 
2488 1121 1186 723 
2489 661 1185 1092 
2490 742 1215 1108 
2491 1163 1197 728 
2492 759 1243 1161 
2493 691 1246 1150 
2494 1119 1221 713 
2495 712 1221 1194 
2496 1139 1223 654 
2497 1158 1241 683 
2498 834 1242 1217 
2499 1102 1247 696 
2500 1159 1180 744 
2501 389 1228 1122 
2502 1150 1246 484 
2503 777 1208 1156 
2504 1176 1249 814 
$EndElements
